<?xml version="1.0" standalone="no"?>
<!DOCTYPE svg PUBLIC "-//W3C//DTD SVG 20010904//EN"
 "http://www.w3.org/TR/2001/REC-SVG-20010904/DTD/svg10.dtd">
<svg version="1.0" xmlns="http://www.w3.org/2000/svg"
 width="500.000000pt" height="500.000000pt" viewBox="0 0 500.000000 500.000000"
 preserveAspectRatio="xMidYMid meet">
<metadata>
Created by potrace 1.14, written by Peter Selinger 2001-2017
</metadata>
<g transform="translate(0.000000,500.000000) scale(0.100000,-0.100000)"
fill="#000000" stroke="none">
<path d="M2338 4915 c-2 -1 -40 -5 -85 -9 -253 -19 -581 -116 -837 -246 -297
-151 -515 -320 -740 -575 -318 -359 -537 -862 -583 -1335 -15 -156 -9 -459 11
-590 2 -14 7 -45 10 -70 11 -68 43 -208 61 -265 9 -27 18 -61 21 -74 18 -88
133 -338 225 -491 98 -162 84 -142 180 -265 287 -366 684 -647 1129 -798 82
-28 245 -72 300 -81 19 -3 58 -10 85 -15 136 -26 483 -36 645 -18 209 23 431
76 610 147 30 11 69 26 85 33 130 51 438 233 540 318 184 154 291 261 407 405
243 303 424 699 488 1069 5 33 12 69 14 80 20 108 28 457 13 608 -7 79 -36
257 -43 268 -2 3 -6 21 -9 40 -8 49 -56 211 -85 284 -181 471 -466 844 -865
1132 -340 246 -739 396 -1175 441 -75 8 -394 14 -402 7z"/>
</g>
</svg>
