<svg id="圖層_1" data-name="圖層 1" xmlns="http://www.w3.org/2000/svg" xmlns:xlink="http://www.w3.org/1999/xlink" viewBox="0 0 372.81 61.86"><defs><style>.cls-1{fill:url(#radial-gradient);}.cls-2{fill:url(#radial-gradient-2);}.cls-3{fill:url(#radial-gradient-3);}.cls-4{fill:url(#radial-gradient-4);}.cls-5{fill:#e50012;}.cls-6{fill:#fff;}.cls-7{fill:#231815;}</style><radialGradient id="radial-gradient" cx="165.97" cy="31.02" r="20.26" gradientUnits="userSpaceOnUse"><stop offset="0" stop-color="#f0f0f0"/><stop offset="0.5" stop-color="#838383"/><stop offset="1" stop-color="#4e4b4a"/></radialGradient><radialGradient id="radial-gradient-2" cx="165.96" cy="31" r="20.26" xlink:href="#radial-gradient"/><radialGradient id="radial-gradient-3" cx="165.96" cy="31.01" r="20.25" xlink:href="#radial-gradient"/><radialGradient id="radial-gradient-4" cx="165.96" cy="31.01" r="20.26" xlink:href="#radial-gradient"/></defs><path class="cls-1" d="M88,23.42a2.66,2.66,0,0,0,1.92-.91,2.71,2.71,0,0,0,.89-2,1.14,1.14,0,0,0-1.29-1.29,2.76,2.76,0,0,0-1.94.92,2.67,2.67,0,0,0-.92,1.89A1.18,1.18,0,0,0,88,23.42ZM131.73,33c-4.46,6.32-6.48,7.68-8.16,7.68-.75,0-1.13-.45-1.13-1.34s.69-2.41,2.08-4.86,13.55-22.72,13.55-22.72l-3.67.11s-5.51,9.59-9.1,15.58c-1.29,2.13-2.31,3.88-3.15,5.28-.08,0-.19.09-.3.27a27.31,27.31,0,0,1-4.09,5c-1.74,1.82-3,2.73-3.82,2.73s-1.16-.46-1.16-1.4.9-3,2.74-6.05l4-6.94h-3.68l-1.52,2.89a5.11,5.11,0,0,0,.23-1.34,1.59,1.59,0,0,0-1.83-1.79A12.83,12.83,0,0,0,107,28c-3.51,1.93-5.86,4-7.08,6.33-3.7,5.17-5.68,6.34-7.35,6.34-.93,0-1.39-.45-1.39-1.34a7.06,7.06,0,0,1,1.21-3.28l5.76-9.57h3.91l.23-.44H98.39l3.43-5.79H98.39l-3.48,5.79h-3l-.31.44h3l-3.79,6.37a.42.42,0,0,0-.09.14c-4.47,6.32-6.54,7.76-8.31,7.76-1,0-1.4-.44-1.4-1.34a8.06,8.06,0,0,1,1.45-3.72l5.73-9.41H84.52l-4.65,7.89q-2.06,3.52-2.05,5.26a3.48,3.48,0,0,0,.93,2.49,3.08,3.08,0,0,0,2.35,1c1.88,0,4.58-2.4,8.08-7.14a8.29,8.29,0,0,0-1.1,3.6A3.58,3.58,0,0,0,89,41.91a3.07,3.07,0,0,0,2.36,1c1.79,0,4.47-2.39,7.95-7.13a8,8,0,0,0-.4,2.36A5.46,5.46,0,0,0,100,41.57a3.28,3.28,0,0,0,2.66,1.35,4.58,4.58,0,0,0,3.07-1.46,40.41,40.41,0,0,0,4.57-5.63,7.76,7.76,0,0,0-1,3.49,3.93,3.93,0,0,0,.88,2.58,2.77,2.77,0,0,0,2.24,1q2,0,5.56-4.23c1-1.17,1.78-2.14,2.43-3l-.32.6a7.16,7.16,0,0,0-.75,3.17,3.66,3.66,0,0,0,.82,2.47,2.41,2.41,0,0,0,2.1,1c5.51-.45,9.61-9.55,9.61-9.55a.82.82,0,0,0,.29-.48c0-.1,0-.15-.1-.18S131.83,32.81,131.73,33Zm-21.17,1.64q-4.78,6-6.87,6A1.64,1.64,0,0,1,101.82,39q-.18-2.91,4.06-7.66t7-4.75a1.26,1.26,0,0,1,1.45,1.29C114.44,29.07,113.16,31.34,110.56,34.64ZM78,27.41a3.29,3.29,0,0,0-2.66-1.36,4.28,4.28,0,0,0-2.86,1.31,44.68,44.68,0,0,0-4.65,5.55l8.86-14.32H73.1L62.25,35.65c-.72.79-1.4,1.42-2.36,2.42-1.76,1.82-3,2.73-3.83,2.73s-1.16-.47-1.16-1.4.92-3,2.74-6L62,26.29H58.31l-1.53,2.89A4.8,4.8,0,0,0,57,27.84a1.6,1.6,0,0,0-1.84-1.79,12.86,12.86,0,0,0-5.74,2q-8.07,4.43-8.07,10.14a5.34,5.34,0,0,0,1.07,3.42,3.26,3.26,0,0,0,2.65,1.35,4.64,4.64,0,0,0,3.08-1.46,39.23,39.23,0,0,0,4.55-5.63,7.69,7.69,0,0,0-.94,3.49,3.82,3.82,0,0,0,.87,2.58,2.72,2.72,0,0,0,2.23,1c1.26,0,3-1.24,5.1-3.71L45.48,62l3.64-.12,14.55-22.2a5.37,5.37,0,0,0-.3,1.46c0,1.19.64,1.78,1.92,1.78,1.85,0,4.4-1.07,7.69-3.24q6.06-4,6.06-8.86A5.43,5.43,0,0,0,78,27.41ZM52.07,34.69c-3.2,4-5.47,6-6.88,6A1.65,1.65,0,0,1,43.32,39c-.1-1.94,1.25-4.48,4.08-7.63s5.18-4.72,7-4.73a1.26,1.26,0,0,1,1.44,1.29C55.94,29.15,54.68,31.4,52.07,34.69ZM72.84,36c-2.8,3.15-5.13,4.73-7,4.73a1.3,1.3,0,0,1-1.49-1.34c-.08-1.19.82-2.72,3.32-5.9,3.22-4.14,5.58-6.2,7-6.21A1.64,1.64,0,0,1,76.56,29C76.68,31,75.66,32.85,72.84,36Z" transform="translate(-0.26 -0.14)"/><path class="cls-2" d="M237.84,32.74c-.16,0-.36.16-.59.48-4.56,6.13-7.78,7.51-10.93,7.51-1.85,0-2.77-.85-2.77-2.57a6.44,6.44,0,0,1,1.39-3.43,37.12,37.12,0,0,0,9.37-2.82c1.86-1,2.8-2.23,2.8-3.65a2,2,0,0,0-.76-1.57,3.08,3.08,0,0,0-1.84-.64c-1.72-.14-4.16.85-6.42,2.14-3,1.74-5.13,3.55-6.32,5.52-1.71,2.29-3.12,3-4.61,3-1.25,0-2.09-.36-2.09-2a8.16,8.16,0,0,1,.41-2.28l.35-.29,2-1.22Q222,28.29,222,26.85c0-.54-.31-.8-.92-.8a4.53,4.53,0,0,0-3,1.79,15.07,15.07,0,0,0-2.81,4.44l-2.5,2c1.63-2.53,2.15-3.7,2.15-5.22,0-2.05-1-3.14-2.56-3-1.79.17-3.17,2-6.24,6.13l-.53.74a.11.11,0,0,0,0,.07h0a29.72,29.72,0,0,1-4.41,5.07c-1.75,1.82-3,2.73-3.82,2.73s-1.17-.47-1.17-1.4.91-3,2.75-6l4.33-7.06h-3.67L198,29.18a4.8,4.8,0,0,0,.24-1.34,1.61,1.61,0,0,0-1.85-1.79,12.83,12.83,0,0,0-5.73,2c-5.38,2.95-8.09,6.33-8.09,10.14a5.4,5.4,0,0,0,1.08,3.42,3.32,3.32,0,0,0,2.66,1.35,4.62,4.62,0,0,0,3.07-1.46,38.3,38.3,0,0,0,4.57-5.63,7.72,7.72,0,0,0-1,3.49,3.87,3.87,0,0,0,.86,2.58,2.77,2.77,0,0,0,2.24,1c1.34,0,3.2-1.41,5.56-4.23a45,45,0,0,0,4.23-5.49.53.53,0,0,0,.13-.13c3.26-4.19,4.8-5.94,5.92-5.94.46,0,.68.28.68.83,0,.95-1,2.79-3.5,6.77l-4.89,7.93h3.67s3.42-5.41,4.21-6.48A18.87,18.87,0,0,1,215,32.85a8.13,8.13,0,0,0-.36,2.11c0,1.75.76,2.62,2.28,2.62q1.93,0,4.16-2.4a7.39,7.39,0,0,0-.44,2.47A5.29,5.29,0,0,0,222,41.42a4.63,4.63,0,0,0,3.5,1.5q4.42,0,10.61-7.61l1.28-1.62a3.2,3.2,0,0,0,.53-.77C238,32.82,237.92,32.76,237.84,32.74Zm-7.61-4.12c1.72-1.46,2.88-1.94,3.93-1.94.69,0,1,.31,1,.95,0,1.19-.75,2.22-2.75,3.56s-3.93,1.84-6.81,2.58A26,26,0,0,1,230.23,28.62Zm-37,6.11c-3.2,4-5.49,6-6.88,6a1.64,1.64,0,0,1-1.86-1.71q-.18-2.92,4.06-7.66c2.83-3.17,5.17-4.74,7-4.75A1.26,1.26,0,0,1,197,27.93C197.11,29.16,195.84,31.43,193.24,34.73Z" transform="translate(-0.26 -0.14)"/><path class="cls-3" d="M46.76,9.35q0-2.92-5.93-2.93a17.9,17.9,0,0,0-3.61.36Q27,.14,17,.14a21.48,21.48,0,0,0-12,3.12Q.26,6.4.26,11.05q0,7.82,12.91,10.2c-2.36,3.56-4,7.33-4.23,10.7-.27,3.78-.2,12.7,12.06,12.49C34.26,44.21,44.92,31.31,42.83,24c-1.22-4.26-7.74-7.28-15.21.67a14.12,14.12,0,0,0-3.78,7.13c-.05.34.26.6.4.22a15.38,15.38,0,0,1,4.42-6.57c7.75-7.64,12.55-3.82,12.49.06-.1,7-8.12,17.26-19.75,17.22-5,0-13.64-5.52-4.59-21a55.38,55.38,0,0,0,15.05-2.46c5-1.56,8.44-3.05,11.33-5.2a10.77,10.77,0,0,1,2.08,6.05c0,.66.13,1,.36,1s.45-.25.45-.75a12.23,12.23,0,0,0-2.2-6.87C45.68,12.12,46.76,10.64,46.76,9.35ZM13.88,20.19C-2.42,16,1.5,1.55,18,1.87A34.2,34.2,0,0,1,36.09,7C25.86,8.92,19,13.62,13.88,20.19Zm17.56-1.83a54.32,54.32,0,0,1-14,2.32,35.49,35.49,0,0,1,8.77-7.78A37.91,37.91,0,0,1,37.25,8c1.75,1,4.37,4,5.61,5.68C40,15.64,36.47,16.91,31.44,18.36Zm7-10.65A18.57,18.57,0,0,1,42,7.3c3,0,4.48.8,4.3,2.39-.1,1-1,2.19-2.64,3.55A28.9,28.9,0,0,0,38.47,7.71Z" transform="translate(-0.26 -0.14)"/><path class="cls-4" d="M188.18,9.35c0-1.95-2-2.93-5.93-2.93a18.07,18.07,0,0,0-3.62.36C171.85,2.35,165.1.14,158.44.14a21.4,21.4,0,0,0-11.95,3.12c-3.22,2.09-4.81,4.68-4.81,7.79q0,7.82,12.92,10.2c-2.37,3.56-4,7.33-4.23,10.7-.28,3.78-.21,12.7,12,12.49,13.26-.23,23.91-13.13,21.82-20.45-1.22-4.26-7.74-7.28-15.2.67a14.38,14.38,0,0,0-3.79,7.13c-.05.34.27.6.41.22a15.43,15.43,0,0,1,4.41-6.57c7.76-7.64,12.55-3.82,12.49.06-.1,7-8.11,17.26-19.75,17.22-5,0-13.64-5.52-4.59-21a55.39,55.39,0,0,0,15.06-2.46c5-1.56,8.43-3.05,11.33-5.2a10.84,10.84,0,0,1,2.08,6.05c0,.66.12,1,.35,1s.46-.25.46-.75a12.15,12.15,0,0,0-2.2-6.87C187.09,12.12,188.18,10.64,188.18,9.35ZM155.3,20.19C139,16,142.92,1.55,159.47,1.87a34.13,34.13,0,0,1,18,5.1C167.27,8.92,160.44,13.62,155.3,20.19Zm17.57-1.83a54.39,54.39,0,0,1-14,2.32,35.72,35.72,0,0,1,8.78-7.78,37.91,37.91,0,0,1,11-4.94c1.74,1,4.36,4,5.6,5.68C181.38,15.64,177.88,16.91,172.87,18.36Zm7-10.65a18.48,18.48,0,0,1,3.51-.41c3,0,4.47.8,4.31,2.39-.11,1-1,2.19-2.65,3.55A29.22,29.22,0,0,0,179.89,7.71Z" transform="translate(-0.26 -0.14)"/><path class="cls-5" d="M173.74,23.66a6.9,6.9,0,0,0-4.34,1.77,3.48,3.48,0,0,0-3.21-1.77,6.65,6.65,0,0,0-6.3,4.87c-1,3,2.88,6,5.29,10.34C170.3,34.53,176,31.55,177,28.53S176.57,23.66,173.74,23.66Z" transform="translate(-0.26 -0.14)"/><path class="cls-6" d="M173.09,24.1s2.29-.16,3.13,1.29a3.66,3.66,0,0,1-.36,3.83C176.1,28.06,176.91,25.07,173.09,24.1Z" transform="translate(-0.26 -0.14)"/><path class="cls-7" d="M262.56,26h.3a6,6,0,0,1,2,.86.75.75,0,0,1,.22.22v.23q.07.11-.63.39c-.08-.07-.25.18-.54.73a23.34,23.34,0,0,1-1.66,2.35l0,0v.09h.83a4,4,0,0,1,1-1.36h.32c.43.11.94.6,1.54,1.44v.08c0,.05-.05.15-.23.27h-3.2a.51.51,0,0,0-.28.26v2.31c-.05.06,0,.16.28.32h.26a4.1,4.1,0,0,1,.89-1.29h.32a3.43,3.43,0,0,1,1.51,1.35v.11c0,.05-.05.14-.23.26h-2.75a.51.51,0,0,0-.28.28v2.67c-.05.06,0,.15.28.3h1l.71-1.08.34-.36h.25a3.17,3.17,0,0,1,1.65,1.44v.2s-.05.13-.22.23h-3.69a.51.51,0,0,0-.28.26v3a4.94,4.94,0,0,1,.09,1.25,2.5,2.5,0,0,1-.86.5,1.81,1.81,0,0,1-.86.08l-.42-.19,0,0V38.61a.65.65,0,0,0-.26-.26h-2l-.85.12,0,0,0,2.33,0,0v.47a1.89,1.89,0,0,1-1.23.75h-.37c-.5-.17-.67-.38-.48-.66a.43.43,0,0,0-.27-.45h-1.41c-.28-.07-.37.35-.27,1.27,0,.46-.31.76-1,.9h-.75l-.34-.17a38,38,0,0,0,.07-4.61,9,9,0,0,1-1.49,1.75l-.23.15H249l-.08-.07V40a16.77,16.77,0,0,0,2-6l0-.37-1.23,0,0,0h-.26a.57.57,0,0,1-.19-.35V33.1l.08-.07a7.61,7.61,0,0,0,1.68.07,12.64,12.64,0,0,0,.23-2.22v-.13h-1.58a.89.89,0,0,1-.52.08c-.11,0-.2-.16-.26-.41v-.15l.1-.06a10.26,10.26,0,0,0,2.21.06h.05a6.69,6.69,0,0,0,.13-1.67v-.42a.74.74,0,0,0-.28-.26l-1.19,0,0,0h-.34l-.19-.45v-.11l.08-.07a12.3,12.3,0,0,0,2.68.07H254l.6-1,.11-.06h.34A3,3,0,0,1,257,27.61v.21a1.52,1.52,0,0,1-.41.58l-.07.13v1.22a2.09,2.09,0,0,1,.71-.79h.22c.47,0,1,.5,1.53,1.42v.11c0,.05-.05.14-.22.26h-2a.4.4,0,0,0-.27.28l0,2.24,0,0V34a2.74,2.74,0,0,1-1,.53l0,0h-.64c-.4-.05-.55-.31-.45-.75l-.22-.19h-1.24l-.4,1.6-.15.38v.09l.82.51h1.3a3.91,3.91,0,0,1,.67-1h.39a3.17,3.17,0,0,1,1.82,1.09v.41c0,.1-.15.25-.41.45v.67a8.06,8.06,0,0,0,2.54.11h.33c.2-.15.29-.24.26-.3V35a.65.65,0,0,0-.26-.28h-1.57l-.74.12h-.08l-.18-.42v-.13l.08-.07a12.31,12.31,0,0,0,2.49.07c.2-.16.29-.26.26-.32V31.61a.65.65,0,0,0-.26-.26h-2l-.63.08h0a.39.39,0,0,1-.23-.35v-.16l.07-.09a8.56,8.56,0,0,0,2.4.09h1.82A15.72,15.72,0,0,0,262.56,26Zm-9.26,4.74c-.07,0-.11.25-.11.75L253,33.1h1.19c.2-.15.28-.25.27-.3V31a.73.73,0,0,0-.27-.28Zm0,5.89a.36.36,0,0,0-.27.24v3.36c-.05,0,0,.16.27.31h1.41c.2-.15.29-.26.27-.31V36.88a.51.51,0,0,0-.27-.24Zm.36-8.72c-.26-.07-.35.35-.25,1.27l-.08,1.08h.86c.2-.16.28-.26.27-.3V28.18a.6.6,0,0,0-.27-.26Zm4.15-1.82h.34a4.31,4.31,0,0,1,3.06,2.54,1.84,1.84,0,0,1,.07.84c0,.44-.35.81-1,1.12h-.41c-.55-.12-.8-.71-.76-1.75a4.07,4.07,0,0,0-1.41-2.43v-.17Z" transform="translate(-0.26 -0.14)"/><path class="cls-7" d="M279.66,26.42h.3a6.53,6.53,0,0,1,2,1l.19.18v.25c-.44.07-.95.53-1.49,1.4a11.24,11.24,0,0,1-5,3.66h-.12l-.06-.08v-.2a14.35,14.35,0,0,0,4.21-6.15Zm.37,5.79h.26a5.22,5.22,0,0,1,2.1,1v.33c0,.07-.27.31-.87.69a12.33,12.33,0,0,1-2.42,2.08l-.15.07v.09l1.58.62h7.12a3.16,3.16,0,0,1,.79-.82h.29a3.54,3.54,0,0,1,1.57,1.06l.11.14v.25a1,1,0,0,1-.55.56v3.29l.82-.75H291a4.5,4.5,0,0,1,1.53,1.33l0,0v.2c0,.05-.06.14-.24.26h-15.9l-.24.08H276l-.18-.34v-.11l.08-.08a8.2,8.2,0,0,0,2.09.08c.19-.14.29-.23.27-.3V36.84h-.09a13.45,13.45,0,0,1-2.27.82h-.38l0,0v-.24A10.59,10.59,0,0,0,280,32.21Zm.46,5.27a.44.44,0,0,0-.28.25V42c0,.07,0,.16.28.3h.81c.2-.14.28-.23.26-.3V37.73a.56.56,0,0,0-.26-.25Zm5.11-8.63h.26a3.59,3.59,0,0,1,1.64,1.2l.08.12v.21c0,.05-.06.14-.23.26h-6l-.26.07h-.3c-.11,0-.17-.11-.19-.25v-.19l.07-.06a14.58,14.58,0,0,0,2.61.06h1.24A4.76,4.76,0,0,1,285.6,28.85Zm-1.87,8.63a.38.38,0,0,0-.26.25V42c-.05.07,0,.16.26.3h.75c.2-.14.28-.23.26-.3V37.73a.62.62,0,0,0-.26-.25Zm3.14-11.34h.3a3.85,3.85,0,0,1,1.08.62l.07.11v.26a1.24,1.24,0,0,1-.56.52v.23a7.29,7.29,0,0,0,4.94,2.17l0,.05v.36a2.65,2.65,0,0,0-1.47,1.67l-.13.08h-.34a9.12,9.12,0,0,1-4-4.85h-2.21l-.26.07h-.19l-.15-.3V27l.08-.07A6.46,6.46,0,0,0,286,27h.23ZM287,32h.29a2.07,2.07,0,0,1,1,.75l.08.07v.26l-.38.42v.14a7.63,7.63,0,0,0,4.49,1.5l.3.07v.34a2.42,2.42,0,0,0-1.32,1.27c-.1.22-.2.35-.29.37h-.3q-2.16-.72-4-3.9H284.7l-.22.08h-.15l-.16-.44v-.07l.09-.08h.14l.26.08h1.58Zm-.12,5.46a.43.43,0,0,0-.26.25V42c0,.07,0,.16.26.3h.71c.21-.14.29-.23.27-.3V37.73a.63.63,0,0,0-.27-.25Z" transform="translate(-0.26 -0.14)"/><path class="cls-7" d="M308.63,26.35H309l1.29.69c.21.11.31.21.31.32v.25a2.12,2.12,0,0,1-.45.45v3.59a1.72,1.72,0,0,1-.89.48h-.82a.75.75,0,0,1-.45-.52h-2.73a.51.51,0,0,0-.26.26V43.15a1.64,1.64,0,0,1-.93.3l0,0h-.61a.68.68,0,0,1-.48-.26l0-7.61V27.47l-.14-.71c.07-.13.14-.21.21-.23h.35l1.52.6h3Zm-3.36,1.15a.41.41,0,0,0-.26.28v1c-.05.05,0,.15.26.3h2.58c.19-.15.28-.25.25-.3v-1a.54.54,0,0,0-.25-.28Zm0,2a.41.41,0,0,0-.26.27V31c-.05.05,0,.14.26.28h2.58c.19-.14.28-.23.25-.28V29.75a.55.55,0,0,0-.25-.27Zm2.61,2.62H308l1.08.54.4.28v.18l-1.23.64-.37.3v.1a1.22,1.22,0,0,1,.41.77h.12l.41-.74q0-.31.18-.36h.23a8.15,8.15,0,0,1,1.38.83l0,.07v.2a13.93,13.93,0,0,0-2.51,1.73v.16l1.3-.07,0,0v-.13l-.14-.43V36l.07-.07h.27a1.92,1.92,0,0,1,1.37,1.4v.24c-.12.46-.19.66-.22.58l0,0,.19.21v.15a2,2,0,0,0-.45,1.54c-.06,1.4-1.2,2.28-3.4,2.64a1.56,1.56,0,0,1-.86.08l-.07-.08v-.26a3.26,3.26,0,0,0,2.57-2.13l.09-.22h-.61a.71.71,0,0,0-.41.64l-.52.14h-.63c-.21-.1-.32-.21-.35-.32l0-1.92v-.37h-.07l-.19.07h-.22c-.12-.06-.3-.48-.52-1.27v-.18c-.05-.08.1-.1.46-.08H307l.63-.86-.07,0c-.56,0-.9-.42-1-1.31a1.81,1.81,0,0,0-.45-.68l-.33-.26v-.14l.07-.06a3.06,3.06,0,0,1,1.34.16,4.53,4.53,0,0,0,.57-1.45Zm1.64,5.24a12.66,12.66,0,0,1-2,.51l0,0v.2a1.17,1.17,0,0,1,.86.24l.08.11v.08L308,39v.39c-.05.05,0,.16.25.32h.61a3,3,0,0,0,.07-1.1l-.07-.22v-.17c0-.19.29-.27.82-.24v-.27l-.13-.39Zm7.73-11.16h.24a4.2,4.2,0,0,1,1.68,1l.09.15v.14a1.5,1.5,0,0,1-.51.49v12a10.58,10.58,0,0,1,.11,1.57v.26a1.83,1.83,0,0,1-1.64,1.49h-.63c-.16.05-.3-.3-.45-1-.06-.31-.47-.6-1.24-.83v-.17l.12-.11,1.38,0c.13,0,.23-.1.33-.3v-9a.92.92,0,0,0-.26-.26h-2.79a1,1,0,0,1-.38.41v.19l1,.49.22.18v.22l-1.19.68-.42.36v0l.38.82h0l.67-1c.07-.25.14-.36.22-.34h.3a4.89,4.89,0,0,1,1.35.86v.15a8,8,0,0,0-2.61,1.88,5.32,5.32,0,0,0,1.26-.11l.11-.09v0l-.11-.34v-.24l.08-.08h.26a2,2,0,0,1,1.53,1.48v.24a1.1,1.1,0,0,1-.6.67h-.45a1.54,1.54,0,0,1-.6-1h0a14.27,14.27,0,0,1-2.21.79l-.06.07v0c.51.08.78.16.78.24a.21.21,0,0,1,.21.17v.26s-.09.19-.37.41v.3c-.05,0,0,.15.27.32h.37c.2-.17.29-.27.27-.32l-.05-1.22.05,0h1l.82.24.1.11v.22c-.37.28-.49.54-.37.79v1.14c0,.08-.25.18-.7.28h-.64c-.12.07-.24-.16-.37-.71l-.15-.11h-.37a.43.43,0,0,0-.27.26v2.28a1,1,0,0,1-.67.24h-.63c-.23-.09-.35-.22-.37-.39V38.7c0-.27-.12-.44-.2-.49v-.08l.2-.24v-.08l-.27-.86v-.19c0-.09.25-.12.76-.12q.11.2.66-.51l.26-.39-.52,0c-.4,0-.65-.41-.75-1.22a2.42,2.42,0,0,0-.71-.82v-.19l.12-.07,1.27.14c.09,0,.25-.4.45-1.13v-.1l-.16-.29-.19.07h-.4a.65.65,0,0,1-.41-.32V27.21c-.05.12-.07,0-.05-.42v-.07a.25.25,0,0,1,.2-.19h.26l1.15.39.45.21h2.88l.64-.78Zm-3.43,1.32a.45.45,0,0,0-.26.28v1c-.05.05,0,.15.26.3h2.65c.2-.15.29-.25.26-.3v-1a.6.6,0,0,0-.26-.28Zm0,2a.46.46,0,0,0-.26.27V31c-.05.05,0,.14.26.28h2.65c.2-.14.29-.23.26-.28V29.75a.62.62,0,0,0-.26-.27Z" transform="translate(-0.26 -0.14)"/><path class="cls-5" d="M330.92,31.65h.22a11.4,11.4,0,0,1,1.16,4v.93a4,4,0,0,1-1.38,2.82l-.67.25h-.59a1.56,1.56,0,0,1-1-.92v-.48a8.1,8.1,0,0,0,1.94-2.88,8.09,8.09,0,0,0,.42-2.61l-.16-1v0Zm2.62-1.12H334a10.86,10.86,0,0,1,1.8.47c.39.11.58.21.56.31v.19s-.12.19-.42.49l-.26.22v7.85c0,.11.08.25.34.39h1.53a2.1,2.1,0,0,0,2.05-1.18,15.31,15.31,0,0,0,.78-1.57l.23-.64h.15l.08.08a16.5,16.5,0,0,0-.23,2.67v.06a1.79,1.79,0,0,1,1,1v.3c-.3.82-1.24,1.3-2.84,1.43h-4a1.47,1.47,0,0,1-1.12-1.13V31.61l-.14-1v0Zm.58-4H335a7.1,7.1,0,0,1,3.21,1A3.79,3.79,0,0,1,339.28,29l.08.23v.49c0,.35-.36.75-1.08,1.17h-.48c-.29.1-.71-.57-1.28-2a4.92,4.92,0,0,0-2.2-2l-.25-.13V26.6Zm6.51,5h.22a8.23,8.23,0,0,1,5,4.33,3.28,3.28,0,0,1,.19,1.27v.24a1.47,1.47,0,0,1-1.14,1.1l-.08,0h-.37c-.64-.18-.94-.81-.89-1.91a7.63,7.63,0,0,0-3-4.8v-.2Z" transform="translate(-0.26 -0.14)"/><path class="cls-7" d="M358.88,25.82h.3a6.93,6.93,0,0,1,2.58,1.1l0,0v.16c.05.1-.22.25-.79.44-.08,0-.3.27-.68.92l-.25.32v.11c.45.27.63.4.56.43v.13l-.42.62v5.56a2.7,2.7,0,0,1,.08,1,1.16,1.16,0,0,1-.75.28l-.07,0h-1l-.34-.22V31.07l-1.67,1.36-.46.23h-.29l-.07-.06v-.11a16.73,16.73,0,0,0,2.81-5,8.93,8.93,0,0,0,.4-1.68Zm-1,12.18h.26a2.74,2.74,0,0,1,.79,2.06v.77a1.84,1.84,0,0,1-1.38,1.73l-.12,0h-.48a1.08,1.08,0,0,1-.83-.78l0-.08v-.32c-.12-.15.21-.58,1-1.24a4,4,0,0,0,.78-2.12Zm2.7-.86H361a4.46,4.46,0,0,1,2,.63l0,0v.24l-.49.54v2.09a.5.5,0,0,0,.34.38h2.7c1.23,0,2.13-.65,2.67-2.11l.11-.21h.3l.11.17v.17l-.22.89,0,0v.38a4.39,4.39,0,0,1,.48,1.12V42c.11.55-.7.89-2.42,1h-4.67a1.48,1.48,0,0,1-1.34-1.25l0,0v-3.4l-.24-1Zm3.06-11.55h.43a6,6,0,0,1,2.44.8v.21a2.66,2.66,0,0,1-1,.57l-.67.89v.08h4.59a3.05,3.05,0,0,1,.76-.78l.18-.08h.37a4.15,4.15,0,0,1,2.09,1.53v.45c0,.17-.41.29-1.37.34a3.12,3.12,0,0,0-1.81,1.19l0,0V31a4.4,4.4,0,0,1,2.83,2.52,1.16,1.16,0,0,1,.08.61,1.34,1.34,0,0,1-1,1l-.1,0h-.31c-.53,0-.84-.51-1-1.38a6.9,6.9,0,0,0-1.69-2.54l-.3-.32v-.21l.08-.07h.44l.19.07H369a6,6,0,0,0,.78-2V28.6H368a.46.46,0,0,0-.26.25v5.68c0-.16,0,0,0,.42v.28a2.63,2.63,0,0,1-2,1.33h-.6c-.25,0-.42-.37-.49-1A3,3,0,0,0,363,34.45v-.24l.08-.07a15.14,15.14,0,0,0,2.13.07,1,1,0,0,0,.41-.51V28.85a.68.68,0,0,0-.26-.25h-1a9.46,9.46,0,0,1-1.68,1.33v0c-.05.08.15.15.59.2a4.44,4.44,0,0,1,1.79.71l.08.08v.24a2.17,2.17,0,0,0-1.27,1,15.59,15.59,0,0,1-3,2.67h-.35l-.07-.09v-.26c-.06-.08.34-.67,1.19-1.76a7,7,0,0,0,.82-2.13v-.51h-.08l-1.26.75h-.25l-.09-.09V30.6a17.49,17.49,0,0,0,2-2.74,5.74,5.74,0,0,0,.78-2.19Zm-.23,11.05h1.13A3.43,3.43,0,0,1,367,38a1.19,1.19,0,0,1,.21.56v.26a1.51,1.51,0,0,1-1,1l-.49,0c-.22,0-.54-.49-1-1.63a3.92,3.92,0,0,0-1.23-1.36l0,0Zm5.9.79h.22a6.4,6.4,0,0,1,3.22,2.13,2.33,2.33,0,0,1,.33.79v.56c0,.35-.29.68-1,1h-.57c-.42-.05-.74-.7-1-2a7.13,7.13,0,0,0-1.46-2.24v-.15Z" transform="translate(-0.26 -0.14)"/></svg>