<svg id="圖層_1" data-name="圖層 1" xmlns="http://www.w3.org/2000/svg" viewBox="0 0 414 62"><defs><style>.cls-1{fill:#b50033;}.cls-2{fill:#b61b3b;}.cls-3{fill:#005748;}</style></defs><path class="cls-1" d="M57.59,3.54a13.1,13.1,0,0,1-7,1.8H49A20.51,20.51,0,0,1,45,5a40.75,40.75,0,0,0-4.31-.28s-3.33-.09-3.8,1.48c0,0-.51,1.16,2.64,1.07h0l2-.1,1.2,0h0a.5.5,0,0,1,.28,0,.09.09,0,0,1,.09.09s0,0,0,.09a.55.55,0,0,1-.09.28.92.92,0,0,1-.19.23l-.23.23c-.09.1-.14.1-.28.19l-.28.18a2.75,2.75,0,0,1-1.48.19,8.84,8.84,0,0,1-1.66-.51h0l-.61-.23h0a6.22,6.22,0,0,0-1.71-.42,8.59,8.59,0,0,0-5.42,1.11s-3.1,1.81-2.5,4.26h0l0,.15h0s.1.18.28-.1c0,0,1.3-1.9,4.77-1.8a6.2,6.2,0,0,1,4.4,1.43,9.4,9.4,0,0,1,3.2,4.08,23.45,23.45,0,0,1,1.3,5.64s.64,5,.64,7.74c0,0-.09,9.12-.14,10.28h0l0,1.34,0,.19h0s-.13.14.24.09H73.75s.28-.09,0-.32A21.93,21.93,0,0,1,67,35.77a10.77,10.77,0,0,1-1.07-1.58,25.33,25.33,0,0,1-2.36-5s-.74-2.73-.88-3.65c0,0-.46-2.41-.51-2.55a34.25,34.25,0,0,0-1.66-5s-.47-1-1-2c-.51-.88-1.07-1.86-1.35-2.23a25.51,25.51,0,0,0-2.36-3.24,4.92,4.92,0,0,0-.37-.41c-.37-.42-.93-1-1.2-1.26a.29.29,0,0,1,0-.41,6.6,6.6,0,0,0,2.08-2.13s1.11-1.85,1.3-2.36h0l.14-.33h0s0-.18-.14,0Z"/><path class="cls-1" d="M41.29,22.15s-.19,0-.28,0-3.2.37-7.74.42c0,0-5.83.28-9.68.05,0,0-5.14-.23-7-.28h0l-1.94-.14h0s-.32,0-.28.19a16.45,16.45,0,0,0,.05,4.35A24.26,24.26,0,0,0,16,31.6a20.79,20.79,0,0,0,3.24,4.68,17.45,17.45,0,0,0,5,3.71,13.89,13.89,0,0,0,4.63,1.57,22,22,0,0,0,2.78.32s3.34.09,4,0h5.52s.18,0,.18-.18c0,0,.05-.14-.23-.14H37.81s-.18,0-1.94-.32a18.75,18.75,0,0,1-3.29-1.16,16.44,16.44,0,0,1-3.25-2.32A14.53,14.53,0,0,1,26.88,34a6.82,6.82,0,0,1-.18-1.34,4.23,4.23,0,0,1,.5-1.8A4.41,4.41,0,0,1,29.29,29a1.91,1.91,0,0,1,.42-.14c.18-.09.46-.19.41-.14a3.16,3.16,0,0,1,.75-.23,18.4,18.4,0,0,0,4-1.67A34.7,34.7,0,0,0,38,24.93s2.45-1.85,2.73-2.17h0l.42-.42h0a1.27,1.27,0,0,0,.14-.19Z"/><path class="cls-1" d="M108.67.34s-7.32,4.31-9.12,5.05c0,0-5.74,2.87-10.15,4.77,0,0-9.16,3.89-12.45,4.72,0,0-6.53,2.09-9.17,2.73a34.53,34.53,0,0,1-4.17.93.15.15,0,0,0-.19.09h0s1.16,4,1.3,4.87A17.92,17.92,0,0,1,65,25.35a4.74,4.74,0,0,0,.14.74s0,.28.14.79a18.78,18.78,0,0,0,1.48,4.26A19,19,0,0,0,69.31,35,23.69,23.69,0,0,0,74,39.1s1.71,1.44,5.93,2.32c.37.09,1.06.18,1.48.28,0,0,.37,0,1,0a37.58,37.58,0,0,0,5-.23,19.06,19.06,0,0,0,7.13-2.92,18.27,18.27,0,0,0,4.26-3.89s.32-.46.56-.83c.14-.19.18-.28.18-.32a2.55,2.55,0,0,1,.19-.33c0-.18.14-.32.18-.51,0,.1-.23.23-.37.42l-.23.18a16,16,0,0,1-5.37,3.11l-.56.14-.37.09a3.85,3.85,0,0,1-.6.14,5.45,5.45,0,0,0-.79.09h0l-1.11,0H88.94l-.74,0h0a2.9,2.9,0,0,1-.65-.13,16.53,16.53,0,0,1-4.31-1.54c-1-.55-1.38-.88-1.8-1.15a5.46,5.46,0,0,1-1-.84,4.76,4.76,0,0,1-1.07-2.69,3.82,3.82,0,0,1,2.08-3.79S86.07,24.66,87,24a59.4,59.4,0,0,0,7.14-4.73,52.16,52.16,0,0,0,5.92-5.56A55,55,0,0,0,104,8.81s2.69-4.07,2.92-4.58c0,0,1.48-2.78,1.81-3.52"/><path class="cls-2" d="M60.87,61.38H51.71V61h0c1.38-.09,2.45-.14,2.45-1.25h0V51.15h0c0-1.16-1.25-1.21-2.45-1.25h0v-.43h9.16v.43h0c-1.25,0-2.5,0-2.5,1.25h0v8.56h0c0,1.11,1.07,1.21,2.5,1.25h0v.42Z"/><path class="cls-3" d="M16.83,59.16a11.08,11.08,0,0,1-7.32,2.59c-6.15,0-9.44-2.87-9.44-6.16,0-3.61,3.79-6.34,9.31-6.34,2.36,0,4.35.87,5,.87a1.17,1.17,0,0,0,1.21-.83h.69v4.12h-.65a7.35,7.35,0,0,0-6.11-3.56c-3.84,0-4.86,2.69-4.86,5.65a6.22,6.22,0,0,0,1.15,3.89,5.82,5.82,0,0,0,4,1.53A9.92,9.92,0,0,0,16,58.74h0l.79.42Z"/><path class="cls-3" d="M31.37,58.65l-5.88-9.27h-.74l-1.16,1.95v1.85l.05-.09,3,5.33h-3v.83h3.48c.32.56.69.83.69,1.3s-.41.46-2,.55h0v.42H34.2V61.1h0c-1.25,0-1.67-.55-2.83-2.45h0m-7.78-7.32L19,59h0c-.78,1.34-1.16,1.94-2.59,2.08h0v.42h5.32V61.1h0c-.88,0-2.13-.09-2.13-.74,0-.28-.23.19.51-1.11h3.52v-.83H20.54l3.05-5.24Z"/><path class="cls-3" d="M92.14,58.51,86.3,49.2h-.74l-1.2,2V53l0-.09,3,5.33h-3v.83h3.47c.37.56.7.79.7,1.3s-.42.46-2,.55h0v.42H95V61h0c-1.3,0-1.71-.55-2.87-2.45h0m-7.78-7.32-4.59,7.69h0C79,60.22,78.61,60.82,77.18,61h0v.42h5.28V61h0c-.88,0-2.09-.09-2.09-.74,0-.32-.18.19.47-1.11h3.52v-.83h-3l3-5.24Z"/><path class="cls-3" d="M44.8,61.61H45V61.1H44.8v.51h0m0-5a11,11,0,0,0,4.31-.7c2.13-.88,2.41-2.13,2.41-2.83,0-3.19-4.49-3.56-6.72-3.56v.74c1.53.19,2.23,1,2.23,2.87s-.65,2.46-2.23,2.69v.79m-8.56,5H44.8V61.1c-1.62-.14-2.17-.23-2.17-1.76h0V56.7h0c.88,0,1.57,0,2.17,0v-.79a15,15,0,0,1-2.17.09h0v-5h0c0-.42.37-.65,1.29-.65a6.05,6.05,0,0,1,.88,0v-.74H36.19V50h0c1.39.09,2.22.14,2.22,1.81h0v7.5h0c0,1.07-.32,1.35-.65,1.53-.18.09-.23.09-1.52.23h0v.51Z"/><path class="cls-3" d="M75.19,61.43h-9.4V61h0c1.94-.09,2.54-.14,2.54-1.62h0V50h0c-1.8.09-4.54.19-5,3h-.75l.05-3.57H78.38L78.43,53h-.79c-.51-2.82-3.24-2.92-5-3h0v9.31h0c0,1.53.65,1.53,2.6,1.62h0v.47Z"/><path class="cls-3" d="M111.64,61.38H96.49V61h0c1.49-.14,2.27-.19,2.27-1.25h0V51.15h0c0-1.16-1.11-1.21-2.27-1.25h0v-.43h9.17v.43h0c-1.85,0-2.69,0-2.69,1.61h0v8.34h0c0,.84.61,1,2.37,1,3.93,0,5.42-1.43,6.62-3.47h.79l-1.11,4Z"/><path class="cls-3" d="M159.36,30.51H160a15.84,15.84,0,0,1,4.59,1.55,1.29,1.29,0,0,1,.51.41v.4c.11.13-.37.37-1.45.71-.17-.12-.56.32-1.19,1.31a43.2,43.2,0,0,1-3.82,4.24l-.09.07v.16h1.87a8.24,8.24,0,0,1,2.21-2.45h.77a7.84,7.84,0,0,1,3.48,2.59v.17c.06.09-.11.25-.5.47H159.1a1,1,0,0,0-.59.47v4.17c-.12.09.08.28.59.58h.6a7.8,7.8,0,0,1,2-2.33h.76a7.41,7.41,0,0,1,3.4,2.43v.2c.06.09-.11.25-.51.47H159.1a.92.92,0,0,0-.59.51v4.81c-.12.09.08.27.59.54h2.21l1.62-2,.76-.63h.6A7,7,0,0,1,168,52v.35q.09.13-.51.42H159.1a1,1,0,0,0-.59.47v5.45a7.45,7.45,0,0,1,.17,2.26,6,6,0,0,1-2,.91,5.18,5.18,0,0,1-1.95.13l-.94-.33-.08-.07V53.23a1.41,1.41,0,0,0-.6-.47h-4.51l-1.95.21-.09.06.09,4.2.08.07v.85a4.54,4.54,0,0,1-2.8,1.34h-.85c-1.14-.29-1.5-.68-1.11-1.18.06-.35-.14-.62-.59-.8h-3.23c-.63-.14-.82.62-.6,2.29.06.83-.71,1.36-2.29,1.61h-1.7l-.77-.3q.25-.21.17-8.32A18,18,0,0,1,129.6,56l-.51.27h-.6l-.17-.14v-.33a26.18,26.18,0,0,0,4.6-10.91l.08-.67-2.8.07-.09.06h-.6a.9.9,0,0,1-.42-.64V43.3l.17-.13a21.65,21.65,0,0,0,3.83.13,19,19,0,0,0,.51-4v-.24H130a2.48,2.48,0,0,1-1.19.14c-.26-.05-.46-.29-.6-.74v-.27l.21-.1a29.68,29.68,0,0,0,5.06.1h.09a10.36,10.36,0,0,0,.29-3v-.77a1.6,1.6,0,0,0-.63-.47l-2.73.06-.08.07h-.77l-.42-.81v-.2l.17-.13c0,.13,2,.18,6.12.13H140l1.36-1.75.26-.13h.76a7.28,7.28,0,0,1,4.25,2.22v.37a2.79,2.79,0,0,1-.93,1l-.17.24v2.18a4.84,4.84,0,0,1,1.61-1.41h.52q1.6.08,3.48,2.56v.2c.06.09-.11.25-.51.47h-4.51a.92.92,0,0,0-.59.51l.08,4,.09.06v1.18a6.38,6.38,0,0,1-2.38.94l-.09.07h-1.44c-.91-.09-1.25-.54-1-1.34l-.51-.34h-2.81l-.93,2.89-.34.68v.16l1.87.91h3a7,7,0,0,1,1.53-1.75h.85a7.89,7.89,0,0,1,4.17,2v.74c-.06.18-.37.45-.94.81v1.21q0,.27,5.79.21h.76q.67-.41.6-.54V46.64a1.31,1.31,0,0,0-.6-.51h-3.57l-1.7.2h-.17l-.43-.74v-.23l.17-.14a36.51,36.51,0,0,0,5.7.14c.45-.3.65-.49.6-.58V40.61a1.41,1.41,0,0,0-.6-.47h-4.51l-1.44.13h-.09a.72.72,0,0,1-.51-.6v-.31l.17-.16c0,.15,1.82.21,5.45.16h4.16A23.88,23.88,0,0,0,159.36,30.51Zm-21.09,8.55c-.17,0-.25.45-.25,1.35l-.51,2.89h2.72c.45-.27.65-.45.59-.54V39.57a1.34,1.34,0,0,0-.59-.51Zm-.08,10.6a.85.85,0,0,0-.6.44v6.06q-.17.14.6.57h3.23c.45-.29.65-.48.59-.57V50.1a1.23,1.23,0,0,0-.59-.44ZM139,34c-.63-.12-.83.65-.6,2.28l-.17,2h2c.45-.27.65-.45.59-.54V34.42a1.37,1.37,0,0,0-.59-.47Zm9.43-3.27h.77a9.62,9.62,0,0,1,7,4.58,2.6,2.6,0,0,1,.17,1.51c0,.79-.79,1.46-2.38,2h-.93c-1.25-.22-1.82-1.28-1.7-3.16-.29-1.53-1.37-3-3.24-4.38V31Z"/><path class="cls-3" d="M186.44,31.25h.68A17.1,17.1,0,0,1,191.63,33l.42.34v.44c-1,.11-2.15.95-3.4,2.52a26.24,26.24,0,0,1-11.48,6.6h-.25l-.17-.14v-.37q5.52-3.26,9.61-11.07Zm.85,10.44h.6a13.51,13.51,0,0,1,4.76,1.82v.6c0,.14-.6.55-2,1.25a26.87,26.87,0,0,1-5.53,3.73l-.34.14v.17l3.62,1.11h16.2A7,7,0,0,1,206.42,49h.68a8.44,8.44,0,0,1,3.57,1.92l.26.24v.47a2.37,2.37,0,0,1-1.28,1v5.92l1.87-1.34h.77a9.8,9.8,0,0,1,3.48,2.39l.09.06v.37q.07.13-.51.48H179.13l-.51.13h-.51l-.43-.61v-.2l.17-.13a24.44,24.44,0,0,0,4.76.13q.69-.36.6-.54V50H183a33.05,33.05,0,0,1-5.19,1.49H177l-.08-.07V51A21.41,21.41,0,0,0,187.29,41.69Zm1,9.49a1,1,0,0,0-.59.47v7.67c-.12.12.08.3.59.54h1.87q.67-.36.6-.54V51.65a1.41,1.41,0,0,0-.6-.47ZM200,35.63h.59a8.57,8.57,0,0,1,3.74,2.15l.18.24v.37c.05.09-.12.25-.52.47h-13.6l-.59.14h-.68a.56.56,0,0,1-.43-.48v-.33l.17-.1a42.13,42.13,0,0,0,6,.1h2.81A8.81,8.81,0,0,1,200,35.63Zm-4.25,15.55a.94.94,0,0,0-.6.47v7.67q-.17.18.6.54h1.7c.45-.24.65-.42.59-.54V51.65a1.45,1.45,0,0,0-.59-.47Zm7.14-20.43h.68A10.14,10.14,0,0,1,206,31.86l.17.2v.47a2.68,2.68,0,0,1-1.28.94v.41a18.7,18.7,0,0,0,11.22,3.9l.09.1v.64a5.39,5.39,0,0,0-3.32,3l-.34.14h-.76q-6.63-3.16-9.19-8.75h-5l-.6.13h-.42l-.34-.54V32.3l.17-.14c0,.14,1.47.18,4.42.14h.51Zm.34,10.6h.68a4.9,4.9,0,0,1,2.3,1.35l.17.13v.47l-.86.74v.27A20.34,20.34,0,0,0,215.69,47l.68.13v.61a5.12,5.12,0,0,0-3,2.28c-.22.41-.45.63-.68.68H212q-4.93-1.32-9.18-7h-4.93l-.51.14h-.34l-.34-.78V42.9l.17-.14h.34l.59.14h3.57Zm-.26,9.83a1,1,0,0,0-.59.47v7.67c-.11.12.08.3.59.54h1.62q.67-.36.6-.54V51.65a1.41,1.41,0,0,0-.6-.47Z"/><path class="cls-3" d="M240.39,30.18h.85a27.34,27.34,0,0,1,6.38,1.21l.42.4v.37l-.42.51V33q3.82,4.59,16.75,5.86c.11-.09.31,0,.59.2v.44A10.38,10.38,0,0,0,261.22,43l-.25.13h-.85q-8.51-1.55-12.33-6.93a11.43,11.43,0,0,0-1.53-2.39l-.09-.07h-.34q-2.21,3-9.18,7.51l-.77.47v.13l.77.2h10a15.17,15.17,0,0,1,2.21-2.35l.34-.17h.51A12.63,12.63,0,0,1,254.08,42l.17.24v.2c.06.07-.11.22-.51.44h-5.53a1,1,0,0,0-.59.47v3.84c-.12.09.08.27.59.54h5.1c.17,0,.68-.47,1.53-1.55l1.45-1.35.17-.07H257a14.49,14.49,0,0,1,4.59,2.9l.17.3v.2c.06.07-.11.22-.51.44h-13a1,1,0,0,0-.59.47v8.42q1.86-1.35,5.1-8.62l.08-.07h.34a32.42,32.42,0,0,1,4.59,1.82,2.47,2.47,0,0,1,1,.74v.47c.17.18-.46.45-1.88.81q-4.24,3.3-9.26,6.6v.17a1.21,1.21,0,0,0,.59.43h8.42A17.87,17.87,0,0,1,259.35,57l.34-.1h.51a16,16,0,0,1,4.85,3.19v.21c.05.09-.12.24-.51.47H228l-1.28.17-.34-.71v-.34l.17-.13c0,.13,1.93.18,5.78.13h9.78q.67-.36.6-.54V49.09a1.41,1.41,0,0,0-.6-.47H229.76l-1.1.14-.51-.71v-.3l.17-.14c0,.14,1.7.18,5.1.14h8.67q.67-.41.6-.54V43.37a1.41,1.41,0,0,0-.6-.47h-5.53L236,43h-.34l-.6-.77h-.25a36.32,36.32,0,0,1-7.82,3.2h-.6l-.17-.1v-.44q10.2-5.25,13.86-14C239.94,30.53,240.05,30.27,240.39,30.18ZM233.16,49.9h.43c3.4,1,5.67,2.69,6.8,5.12l.17.47V56c-.11,1.16-1,2-2.72,2.42h-1c-1.36-.11-1.93-1.22-1.7-3.33a7.55,7.55,0,0,0-2.47-4.68v-.27Z"/><path class="cls-3" d="M277.59,32.8h2a14.54,14.54,0,0,1,2.89.54,1.47,1.47,0,0,1,.85.61v.33a2.89,2.89,0,0,1-1.19,1v10c-.11.07.09.24.6.5h4.59l1.27-1.27.17-.07h.68a13.29,13.29,0,0,1,3.66,1.28l.43.47v.57a3,3,0,0,1-1.2.91V58.79a9.83,9.83,0,0,1,.26,2.39v0q-.09.4-1.62.54h-1.95c-.74,0-1.16-.28-1.28-.71v-8a1.45,1.45,0,0,0-.59-.47h-2.89c-.4-.07-.6.4-.6,1.38q-1.44,5.6-7.39,7.58l-.34.13h-.51l-.26-.27v-.13a10.66,10.66,0,0,0,4.17-7.88V53a1,1,0,0,0-.51-.41H275.8l-.5.14H275l-.43-.61V52l.18-.14,4.33.07h8.08c.45-.27.65-.45.59-.54V47a1.45,1.45,0,0,0-.59-.44h-4.34c-.68.13-.93.77-.76,1.92a2.93,2.93,0,0,1-2.21.8H278.7c-.85-.13-1.25-.36-1.19-.67l-.09-.07q.25-.06.17-7.7v-7l-.25-.67v-.27Zm21.34-2.49h.68a7.4,7.4,0,0,1,3.83,1.48l.17.27v.48c-.06.18-.37.45-.94.81v8.17c.06-.27.09,0,.09.77v.37c-.12.36-.94.63-2.47.81h-1c-.74.05-1.13-.54-1.19-1.75l-.42-.27h-6c-.56.09-.82.63-.76,1.62a4.1,4.1,0,0,1-2.13.77h-1c-.85-.2-1.27-.41-1.27-.64.17,0,.22-2.36.17-7v-5l-.17-.3v-.27l.34-.3h.59a24,24,0,0,1,3.83,1l.51.2h5.61c.17,0,.57-.38,1.19-1.14Zm-7.23,2.05a.85.85,0,0,0-.59.44V34c-.11.09.08.27.59.53h6a2.71,2.71,0,0,0,.59-.47V32.8a1.23,1.23,0,0,0-.59-.44Zm0,2.83a1,1,0,0,0-.59.44v1.21c-.11.09.08.27.59.54h6c.45-.27.65-.45.59-.54V35.63a1.55,1.55,0,0,0-.59-.44Zm0,2.9a.82.82,0,0,0-.59.43v1.62c-.11.09.08.27.59.54h6c.45-.27.65-.45.59-.54V38.52a1.15,1.15,0,0,0-.59-.43ZM307,32.94h1.27l3.23.4q.44,0,1.11.81v.4a2.3,2.3,0,0,1-.93.78V45.39a2.9,2.9,0,0,1,.17,1.35c0,.33-.71.66-2.13,1h-2q-.67,0-1-1.11l-.25-.17h-4.59a1.13,1.13,0,0,0-.6.47v4.48q-.17.13.6.54h7.14l1.7-1.89c0-.09.11-.18.34-.27h.68a12.78,12.78,0,0,1,3.66,2.16v.2c.22.45-.71.61-2.81.47a1.17,1.17,0,0,0-1.36.47v6.06l.17,1.62V61q.17.3-2.13.57h-1c-.79-.18-1.16-.37-1.1-.57v-8a1.41,1.41,0,0,0-.6-.47h-4.67a1,1,0,0,0-.6.47v6.37l.17,1.31V61a3,3,0,0,1-2.55.85h-1.36c-.57-.09-.91-.3-1-.61.17,0,.23-2.34.17-6.93V45.73l-.34-.74v-.21l.34-.26h.81l3.36,1,.25.13h5.36c.45-.25.65-.42.59-.51V34.42l-.42-1v-.2Z"/><path class="cls-3" d="M335,35.49H336a6.86,6.86,0,0,1,3,2.16v.23c.05.09-.12.24-.51.44H324.91c.17,0,0,.07-.51.07l-.34-.37v-.3l.17-.14,2.55.07h6.12Zm-1.11-4.37h.77a5.7,5.7,0,0,1,3,1.95l.09.07v.2q.08.13-.51.51H326.69l-1.36.1a.78.78,0,0,1-.59-.37v-.37l.17-.14,4.59.07h2.38Zm.17,17.9h.6a8.51,8.51,0,0,1,3.48,1.69v.54q0,.2-1,.87l.09,5.39.08.06v1.28c-.79.47-1.27.66-1.44.58l-.26.06h-1.87q-.6.13-.93-1.41l-.34-.24h-2.55c-.63-.13-.83.63-.6,2.29.28.81-.25,1.26-1.61,1.35h-2.13l-.68-.3q.51-2.19.34-10.88l-.34-.64v-.2l.34-.23h.68l3.48,1.14.09.07h2.81a5,5,0,0,1,1.61-1.35Zm-.17-9.35h.85a6,6,0,0,1,3.06,2v.2c.06.09-.11.26-.51.5H326.69l-.59.11h-.43l-.42-.24v-.44l.17-.13,3.74.07h2.72Zm-.17,4.27h.77a6.4,6.4,0,0,1,3.4,2.12v.21c.05.09-.12.25-.51.5H326.86l-.59.1h-.43a.76.76,0,0,1-.59-.37v-.37l.17-.13,3.14.06h3.24ZM329.93,51a.83.83,0,0,0-.6.44V56.8c-.11.07.08.24.6.5h2.55c.45-.26.65-.43.59-.5V51.45a1.17,1.17,0,0,0-.59-.44Zm16.58-19.62h.76a8.73,8.73,0,0,1,3.32,2l.17.13v.61q-1.87.54-2,1.89-2.89,4.64-11,7.7h-.43l-.17-.16V43.3a19.63,19.63,0,0,0,3.66-2.82l.93-1.12V39.3c-1.87.09-2.63-.66-2.29-2.26a6.11,6.11,0,0,0-1.11-2.76l-.08-.06v-.34l.42-.17h.6q3.32.57,4.16,3.06h.09a8.5,8.5,0,0,0,1.7-3v-.37l-.26-.2h-4.76c.29,0,0,.06-.85.06l-.25-.27v-.33l.17-.14,5.18.07h.6C345,32.49,345.48,32.08,346.51,31.39ZM355.09,44h.77a10.9,10.9,0,0,1,3.74,2l.08.06v.58l-1.27.7.08,4.44.09.07v.94c0,.23-.8.45-2.38.68v.13c1.13.54,1.7.9,1.7,1.08l.08.07v.57q-.68-.51-5.1,3.6l-.81.88V60h3.62a14.08,14.08,0,0,1,2-2.43l.42-.27h.68a6.68,6.68,0,0,1,3.66,2.7v.2c.05.09-.11.25-.51.47H338.6c.22,0,0,.07-.68.07l-.34-.41V60l.17-.14c0,.14,1.7.18,5.1.14h7.48a16.52,16.52,0,0,0,2.21-6l-.08-.81.34-.2,1.36.06v-.64a1.35,1.35,0,0,0-.6-.5h-7.65a1,1,0,0,0-.6.5V53a4.17,4.17,0,0,1,3.49,2.76V57c.06.74-.82,1.45-2.64,2.15h-.93a2.29,2.29,0,0,1-1.62-.91l-.17-.2V57.3l.85-1.75V54.34a1.06,1.06,0,0,0-.76-.81L342,53.6l-1.11-.4c.2-.52.26-3.05.17-7.61l-.25-.67v-.34l.51-.27h.42a29.68,29.68,0,0,1,3.91,1.22l.09.06h7.57A6.78,6.78,0,0,1,355.09,44ZM352,39.2h.85a8.22,8.22,0,0,1,3.06,2v.2c.05.09-.12.25-.51.47H345.06L344,42c-.34-.13-.48-.26-.43-.4v-.27l.17-.13,3.15.06h2.81a11.35,11.35,0,0,1,2-2Zm-6,7a1,1,0,0,0-.6.5v4.11c-.11.09.09.26.6.5h7.65c.45-.24.65-.41.6-.5V46.7a1.35,1.35,0,0,0-.6-.5Zm10.63-15.38h.34a10,10,0,0,1,3.91,2.82c.28,0,1.13.62,2.55,2l.08.13v.54l-.34.24-1.53-.07a17.6,17.6,0,0,0-3.65.77l-.6.27v.07c1,.76,3,1.53,6.21,2.29v.4a5.66,5.66,0,0,0-3.06,3l-.17.07h-.43a14,14,0,0,1-8.5-9.79l-.68-1.79v-.33l.34-.41h.26c.22-.07.45.27.68,1A8.17,8.17,0,0,0,353.14,34l.17.13h.08A11.7,11.7,0,0,0,356.54,30.82Zm2.29,2.82q-.93.38-4.59,1.35v.13a3.24,3.24,0,0,0,1.45,1.35h.08a15,15,0,0,0,4-2.62v-.21Z"/><path class="cls-3" d="M390,30.45h1.19a16.32,16.32,0,0,1,4.67,1.34l.17.2v.54a5.79,5.79,0,0,1-1.36,1l-1.27,3.33-.09.07v.2H396a11.11,11.11,0,0,1,2-2.29l.08-.07h1a8.13,8.13,0,0,1,3.4,2.22v.34c.06.09-.11.26-.51.5h-5.35a1,1,0,0,0-.6.44v.07a14.58,14.58,0,0,0,4,4.37H405l2.55-2.82h.94a11.07,11.07,0,0,1,3.91,2.56V43c.05.09-.12.24-.51.47H402l-.25.23v.07a36.73,36.73,0,0,0,10.71,2.59l.09.07v.47a10.63,10.63,0,0,0-3.74,3.37l-.17.06h-.68a21.45,21.45,0,0,1-11.14-6.86h-7.74a28.2,28.2,0,0,1-6.8,4.68l-.43.16c-.05.14.34.25,1.19.34h15.39l1-1h.94A11,11,0,0,1,405,49.9v.61l-1.27,1.41a39.85,39.85,0,0,1-1.11,5.72,5.51,5.51,0,0,1-4.76,3.77,7.62,7.62,0,0,1-2.3.2q-1.09,0-1.53-1.92-.42-1.24-3.57-2.52V56.9l.34-.17c.06-.13.79,0,2.21.31a12.55,12.55,0,0,0,3,.2c1.81,0,2.92-2.06,3.31-6.3l.09-.06V49.83a1.48,1.48,0,0,0-.6-.43h-5.1l-.25.2v.16l.34.34v.34a1.75,1.75,0,0,0-1.36,1.68,15.59,15.59,0,0,1-11,8.62,22.53,22.53,0,0,1-4.17.74h-.93l-.34-.2V61q7.56-2,10.71-7.44a17.05,17.05,0,0,0,1.11-3.43v-.34a1,1,0,0,0-.51-.36h-4.43a7.25,7.25,0,0,1-1.7.2l-.59-.78h-.09A41.46,41.46,0,0,1,374,51h-.59a.68.68,0,0,1-.43-.37v-.27a28.88,28.88,0,0,0,10.12-6l.68-.64v-.07l-.25-.23h-8.76l-1.11.17h-.25L373,43v-.21l.17-.13c0,.13,1.7.18,5.1.13h6.38a22.5,22.5,0,0,0,3.15-4.67v-.21h-3.66a3.43,3.43,0,0,1-1.28.14l-.51-.64v-.2l.17-.14c0,.14,1.71.18,5.11.14h.51a18.13,18.13,0,0,0,1.61-4.45V31.52l-.17-.4v-.3A.49.49,0,0,1,390,30.45Zm-9.36,1.27h.85a21.76,21.76,0,0,1,4.6,1.22.67.67,0,0,1,.42.33v.51c.06.11-.48.39-1.61.84a37.15,37.15,0,0,1-10.12,7.14l-.17.06h-.51l-.43-.27v-.2a21.94,21.94,0,0,0,6.89-9.56ZM393,37.88a32.57,32.57,0,0,1-2.89,4.62v.06l.26.2h6.12v-.13a13.32,13.32,0,0,1-2-4.75Zm6.55-6.29h.76a16.54,16.54,0,0,1,7.06,2.76c.45.13.91.79,1.36,1.95v1.79a2.83,2.83,0,0,1-1.95,1.54h-1.28c-1.3-.13-2.18-1.38-2.63-3.73a8.35,8.35,0,0,0-3.66-3.6l-.09-.07v-.37Z"/></svg>