<svg id="圖層_1" data-name="圖層 1" xmlns="http://www.w3.org/2000/svg" viewBox="0 0 374 30"><defs><style>.cls-1{fill:#b50033;}.cls-2{fill:#005748;}.cls-3{fill:#fff;}</style></defs><rect class="cls-1" x="-0.26" width="374.26" height="30.54"/><polygon class="cls-2" points="374 30.54 211.68 30.54 230.97 0 374 0 374 30.54"/><path class="cls-3" d="M119.16,5h.2a4.09,4.09,0,0,1,1.29.55c.08.06.13.11.14.15V5.8s-.1.13-.4.25c0,0-.16.12-.34.47A15.11,15.11,0,0,1,119,8l0,0v.06h.52a2.79,2.79,0,0,1,.63-.88h.22a2.35,2.35,0,0,1,1,.93v.05s0,.09-.14.17h-2.07a.29.29,0,0,0-.17.17v1.5s0,.11.17.21h.17a2.8,2.8,0,0,1,.58-.83h.21a2.23,2.23,0,0,1,1,.86v.08s0,.08-.14.16h-1.78a.28.28,0,0,0-.17.18v1.72s0,.1.17.19h.62l.46-.69.22-.23h.16a2,2,0,0,1,1.06.92v.13s0,.07-.14.14h-2.38a.31.31,0,0,0-.17.17V15a3.46,3.46,0,0,1,0,.81,1.63,1.63,0,0,1-.55.32,1.12,1.12,0,0,1-.56.05l-.26-.12,0,0v-3a.55.55,0,0,0-.17-.17h-1.28l-.56.07,0,0,0,1.5,0,0v.3a1.24,1.24,0,0,1-.8.48h-.24c-.32-.1-.42-.24-.31-.42a.28.28,0,0,0-.17-.29h-.91c-.18-.05-.23.23-.17.82,0,.3-.2.49-.65.57h-.48l-.21-.1a26.74,26.74,0,0,0,0-3,5.7,5.7,0,0,1-1,1.13l-.14.1h-.17l-.05-.05V14a10.89,10.89,0,0,0,1.3-3.9l0-.24-.79,0,0,0h-.17a.36.36,0,0,1-.12-.23V9.52l.05,0a4.43,4.43,0,0,0,1.08,0,7.84,7.84,0,0,0,.14-1.43V8h-1a.47.47,0,0,1-.33.05c-.07,0-.13-.1-.17-.26V7.7l.06,0a6.73,6.73,0,0,0,1.43,0h0A4.9,4.9,0,0,0,112,6.63V6.35a.7.7,0,0,0-.18-.17l-.77,0,0,0h-.21l-.12-.29V5.87l0,0a7.19,7.19,0,0,0,1.72,0h1.25l.39-.62.07,0h.22a2,2,0,0,1,1.2.79v.13c-.11.22-.2.34-.27.37l0,.09v.78a1.57,1.57,0,0,1,.47-.5h.15c.3,0,.63.32,1,.91v.07s0,.09-.14.17h-1.28a.29.29,0,0,0-.18.18l0,1.44,0,0v.42a1.68,1.68,0,0,1-.67.33l0,0h-.41c-.26,0-.35-.19-.29-.48l-.14-.12H113l-.26,1-.1.24v.06l.53.33H114a2.38,2.38,0,0,1,.43-.62h.24a2.13,2.13,0,0,1,1.2.69v.27a.89.89,0,0,1-.27.29v.43a4.92,4.92,0,0,0,1.63.07h.22c.13-.09.18-.16.17-.19V10.72a.53.53,0,0,0-.17-.19h-1l-.48.08h0l-.12-.27v-.08l0,0a7.85,7.85,0,0,0,1.61,0c.13-.11.18-.17.17-.21V8.56a.46.46,0,0,0-.17-.17h-1.27l-.41,0h0a.24.24,0,0,1-.14-.22v-.1l0-.06a5,5,0,0,0,1.54.06h1.17A10,10,0,0,0,119.16,5Zm-6,3s-.07.16-.07.49l-.15,1h.77c.13-.1.18-.16.17-.19V8.19a.53.53,0,0,0-.17-.19Zm0,3.81A.22.22,0,0,0,113,12v2.16s0,.1.16.2h.92c.12-.1.18-.17.16-.2V12a.29.29,0,0,0-.16-.15Zm.23-5.63c-.17,0-.23.23-.16.82l0,.7h.55c.13-.1.18-.16.17-.2V6.35a.46.46,0,0,0-.17-.17ZM116.08,5h.22a2.75,2.75,0,0,1,2,1.63,1.09,1.09,0,0,1,0,.54c0,.28-.22.52-.67.72h-.26c-.36-.08-.52-.45-.49-1.13A2.67,2.67,0,0,0,116,5.23V5.12Z"/><path class="cls-3" d="M131.38,5.22h.2a4.47,4.47,0,0,1,1.27.62L133,6v.15q-.43.06-1,.9a7.28,7.28,0,0,1-3.25,2.36h-.07l0-.05V9.2a9.25,9.25,0,0,0,2.71-4Zm.25,3.72h.17a3.32,3.32,0,0,1,1.34.65V9.8s-.17.2-.55.45A8.36,8.36,0,0,1,131,11.58l-.1.05v.06l1,.39h4.57a2.42,2.42,0,0,1,.5-.53h.19a2.29,2.29,0,0,1,1,.69l.07.09v.16a.72.72,0,0,1-.34.37V15l.52-.49h.22a3,3,0,0,1,1,.86l0,0v.13s0,.08-.14.17H129.32l-.14,0H129l-.11-.21v-.08l0,0a6,6,0,0,0,1.35,0c.12-.09.18-.15.17-.19V11.91h0a7.14,7.14,0,0,1-1.47.53h-.24l0,0v-.16A6.78,6.78,0,0,0,131.63,8.94Zm.28,3.39a.31.31,0,0,0-.17.17v2.73s0,.11.17.19h.53c.13-.08.18-.15.17-.19V12.5a.55.55,0,0,0-.17-.17Zm3.29-5.56h.17a2.42,2.42,0,0,1,1,.77l.05.08v.14s0,.09-.14.17h-3.84l-.17.05h-.19c-.07,0-.11-.07-.12-.17V7.68l.05,0a9,9,0,0,0,1.68,0h.79A3.19,3.19,0,0,1,135.2,6.77ZM134,12.33a.3.3,0,0,0-.16.17v2.73s0,.11.16.19h.48c.12-.08.18-.15.16-.19V12.5a.53.53,0,0,0-.16-.17ZM136,5h.19a2.47,2.47,0,0,1,.69.39l0,.08v.17a.78.78,0,0,1-.36.33v.15a4.66,4.66,0,0,0,3.17,1.39l0,0v.22a1.69,1.69,0,0,0-.94,1.08l-.1,0h-.21a5.89,5.89,0,0,1-2.6-3.12h-1.41l-.17,0h-.12l-.1-.19V5.59l.05,0a3.85,3.85,0,0,0,1.25,0h.14Zm.09,3.78h.2a1.44,1.44,0,0,1,.64.48l.05,0v.16l-.24.26v.1a4.83,4.83,0,0,0,2.88,1l.19.05v.22a1.55,1.55,0,0,0-.84.81c-.06.15-.13.23-.19.24h-.19A5.17,5.17,0,0,1,136,9.64h-1.4l-.14,0h-.09l-.1-.27v0l.05,0h.09l.17.06h1ZM136,12.33a.31.31,0,0,0-.17.17v2.73s0,.11.17.19h.45c.13-.08.19-.15.17-.19V12.5a.46.46,0,0,0-.17-.17Z"/><path class="cls-3" d="M151.23,5.17h.24l.84.44c.13.07.19.14.19.21V6a1.37,1.37,0,0,1-.28.3V8.6a1.19,1.19,0,0,1-.58.31h-.53a.52.52,0,0,1-.28-.34h-1.75a.35.35,0,0,0-.17.17V16a1,1,0,0,1-.6.19l0,0h-.38a.53.53,0,0,1-.32-.17l0-4.9V5.89l-.09-.46a.34.34,0,0,1,.14-.15h.22l1,.39h2Zm-2.15.75a.28.28,0,0,0-.17.18v.66s0,.1.17.2h1.64c.13-.1.18-.16.17-.2V6.1a.37.37,0,0,0-.17-.18Zm0,1.29a.3.3,0,0,0-.17.16v.77s0,.09.17.18h1.64c.13-.09.18-.14.17-.18V7.37a.43.43,0,0,0-.17-.16Zm1.69,1.66h.09l.69.35.27.18v.11l-.79.41-.24.2v.06a.88.88,0,0,1,.26.5h.07l.26-.48c0-.13.06-.21.13-.23h.14a4.55,4.55,0,0,1,.88.53l0,.05v.13a9.35,9.35,0,0,0-1.6,1.1v.11l.83,0,0,0v-.08l-.1-.28v-.1l.05,0h.17a1.25,1.25,0,0,1,.88.9v.15c-.08.3-.13.42-.15.38l0,0,.12.13V13a1.24,1.24,0,0,0-.29,1c0,.91-.77,1.48-2.17,1.71a1.08,1.08,0,0,1-.55.05l0-.05v-.17a2.08,2.08,0,0,0,1.65-1.37l0-.14H151c-.15,0-.23.18-.26.4l-.34.1H150c-.12-.06-.2-.13-.21-.2l0-1.24v-.24h-.05l-.12.05h-.14c-.08,0-.19-.31-.33-.82v-.12s.06-.06.28,0h.74l.41-.55-.05,0c-.35,0-.57-.27-.67-.84a1.29,1.29,0,0,0-.29-.44l-.21-.16v-.1l0,0a2,2,0,0,1,.86.11,2.88,2.88,0,0,0,.36-.93Zm1.06,3.37a8.74,8.74,0,0,1-1.31.32l0,0v.13a.72.72,0,0,1,.55.16l0,.07V13l-.24.32v.25s0,.1.17.21h.38a1.94,1.94,0,0,0,0-.71l0-.15v-.1c0-.12.19-.17.54-.16v-.17l-.08-.25Zm4.95-7.18h.15a2.78,2.78,0,0,1,1.08.66l.06.1v.09a1,1,0,0,1-.32.32v7.69a8.69,8.69,0,0,1,.07,1v.17a1.18,1.18,0,0,1-1.06,1h-.42c-.09,0-.19-.19-.29-.67,0-.21-.29-.39-.79-.54v-.11l.08-.07.88,0c.08,0,.15-.06.22-.19V8.74a.55.55,0,0,0-.17-.17h-1.79a.6.6,0,0,1-.24.27V9l.65.32.14.12v.14l-.76.43-.27.23v0l.24.53h0l.43-.61c0-.16.09-.23.14-.22H155a3.27,3.27,0,0,1,.86.55v.1a5.16,5.16,0,0,0-1.67,1.21,4.38,4.38,0,0,0,.81-.07l.07-.06v0L155,11.4v-.16l.05-.05h.16a1.3,1.3,0,0,1,1,1v.16a.7.7,0,0,1-.38.43h-.28a1,1,0,0,1-.38-.64h0a7.49,7.49,0,0,1-1.41.5l-.05.05v0c.33.05.5.11.5.15a.17.17,0,0,1,.15.11v.17s-.07.12-.24.26v.19s0,.1.16.21h.24c.13-.11.19-.18.17-.21l0-.78,0,0h.67l.53.15.07.08v.14c-.24.18-.31.35-.24.5v.73q0,.09-.45.18h-.41q-.12.08-.24-.45l-.1-.07h-.24a.28.28,0,0,0-.16.16v1.47a.61.61,0,0,1-.43.15h-.41a.32.32,0,0,1-.24-.25V13.12a.59.59,0,0,0-.12-.33v0l.12-.16v-.05l-.17-.55v-.12c0-.06.16-.09.47-.09.05.09.19,0,.43-.32l.17-.25-.34,0c-.26,0-.41-.26-.48-.78a1.39,1.39,0,0,0-.44-.53V9.8l.07-.05.81.1c.06,0,.16-.26.28-.73V9.06l-.09-.19-.12,0h-.27a.43.43,0,0,1-.26-.2v-3q0,.12,0-.27v0a.18.18,0,0,1,.12-.13h.17l.75.26.29.13h1.85l.41-.5Zm-2.21.86a.3.3,0,0,0-.17.18v.66s0,.1.17.2h1.7c.13-.1.19-.16.17-.2V6.1a.37.37,0,0,0-.17-.18Zm0,1.29a.33.33,0,0,0-.17.16v.77s0,.09.17.18h1.7c.13-.09.19-.14.17-.18V7.37a.43.43,0,0,0-.17-.16Z"/><path class="cls-3" d="M166.8,8.58h.14a7.42,7.42,0,0,1,.75,2.58v.6a2.57,2.57,0,0,1-.89,1.81l-.44.16H166c-.24,0-.45-.24-.65-.59v-.31A5.14,5.14,0,0,0,166.58,11a5.06,5.06,0,0,0,.27-1.68l-.1-.64v0Zm1.68-.72h.29a6.1,6.1,0,0,1,1.15.3c.26.07.38.14.36.2v.12s-.07.12-.26.31l-.17.15v5c0,.08.06.17.22.25h1a1.34,1.34,0,0,0,1.32-.75,9.5,9.5,0,0,0,.51-1l.14-.41h.1l0,0a11.44,11.44,0,0,0-.15,1.71v0a1.16,1.16,0,0,1,.65.63v.19c-.19.52-.8.83-1.83.91h-2.59a.92.92,0,0,1-.72-.72V8.55l-.1-.62v0Zm.38-2.57h.55a4.52,4.52,0,0,1,2.07.67,2.4,2.4,0,0,1,.69.91l.05.15v.31q0,.34-.69.75h-.32c-.17.07-.44-.36-.81-1.28A3.15,3.15,0,0,0,169,5.54l-.16-.08V5.34ZM173,8.53h.14a5.28,5.28,0,0,1,3.2,2.78,2.08,2.08,0,0,1,.13.82v.16a1,1,0,0,1-.73.71l-.05,0h-.24c-.42-.11-.61-.52-.58-1.22A4.84,4.84,0,0,0,173,8.71V8.58Z"/><path class="cls-3" d="M186,4.84h.19a4.59,4.59,0,0,1,1.66.71l0,0v.11c0,.07-.14.16-.51.29,0,0-.19.17-.43.59l-.17.2v.07c.29.17.41.27.36.28v.08l-.26.4v3.58a2,2,0,0,1,0,.62.72.72,0,0,1-.48.18l-.05,0h-.65l-.21-.15V8.22l-1.08.87-.29.15H184l0,0V9.13A10.72,10.72,0,0,0,185.72,6,6,6,0,0,0,186,4.87Zm-.65,7.83h.17A1.82,1.82,0,0,1,186,14v.5a1.17,1.17,0,0,1-.89,1.11l-.07,0h-.31a.66.66,0,0,1-.53-.5l0,0v-.2c-.09-.11.12-.38.62-.81a2.49,2.49,0,0,0,.5-1.36Zm1.72-.55h.32a2.83,2.83,0,0,1,1.28.4l0,0v.15l-.31.35V14.4a.3.3,0,0,0,.21.24h1.75c.79,0,1.36-.42,1.71-1.36l.07-.13h.2l.07.11v.1l-.15.58,0,0v.23a3.84,3.84,0,0,1,.31.73v.28q.1.54-1.56.66h-3a.94.94,0,0,1-.87-.8l0,0V12.86l-.14-.66Zm2-7.43h.29a3.87,3.87,0,0,1,1.56.51v.14a1.81,1.81,0,0,1-.65.36l-.43.58v0h3a2.85,2.85,0,0,1,.48-.5l.12-.05h.24a2.73,2.73,0,0,1,1.35,1v.29c0,.11-.27.19-.89.22a1.93,1.93,0,0,0-1.15.77l0,0v.09a2.87,2.87,0,0,1,1.83,1.62.88.88,0,0,1,.05.39.89.89,0,0,1-.63.64l-.07,0h-.19c-.34,0-.55-.33-.63-.89a4.4,4.4,0,0,0-1.09-1.63L192,8.1V8l.05,0h.29l.11,0h.05A3.93,3.93,0,0,0,193,6.68v0h-1.15a.33.33,0,0,0-.17.16v3.65c0-.1,0,0,0,.27v.18a1.71,1.71,0,0,1-1.3.86H190c-.16,0-.26-.24-.31-.66a1.93,1.93,0,0,0-1.08-.7v-.16l0,0a9.38,9.38,0,0,0,1.36,0,.57.57,0,0,0,.27-.32V6.79a.52.52,0,0,0-.17-.16h-.62a5.63,5.63,0,0,1-1.08.85v0c0,.06.09.1.38.13A2.92,2.92,0,0,1,190,8.1l0,.05V8.3a1.39,1.39,0,0,0-.81.65,10.19,10.19,0,0,1-1.94,1.72H187l-.05-.06v-.17a4.65,4.65,0,0,1,.77-1.13,4.6,4.6,0,0,0,.53-1.37V7.62h-.05l-.81.48h-.16L187.2,8V7.92a11,11,0,0,0,1.27-1.77A3.8,3.8,0,0,0,189,4.74Zm-.15,7.1h.72a2.17,2.17,0,0,1,1.56.86.73.73,0,0,1,.15.35v.17a1,1,0,0,1-.68.67l-.31,0c-.14,0-.35-.32-.62-1a2.64,2.64,0,0,0-.79-.88l0,0Zm3.79.52h.15a4,4,0,0,1,2.06,1.37,1.18,1.18,0,0,1,.22.5v.36c0,.23-.19.44-.62.65h-.36c-.28,0-.49-.45-.63-1.25a4.74,4.74,0,0,0-.93-1.44v-.1Z"/><path class="cls-3" d="M16.06,14.26A2.71,2.71,0,0,1,13.83,13a5.14,5.14,0,0,1-.9-3.09,5.11,5.11,0,0,1,1-3.13,2.82,2.82,0,0,1,2.3-1.31,2.67,2.67,0,0,1,1,.19,5,5,0,0,0,.53.18q.27,0,.36-.36h.21l.15,2.9H18.2a3.25,3.25,0,0,0-.51-1.57A1.64,1.64,0,0,0,16.29,6,1.58,1.58,0,0,0,14.84,7a6.31,6.31,0,0,0-.52,2.82,6.08,6.08,0,0,0,.49,2.66,1.69,1.69,0,0,0,1.56,1.12c.83,0,1.48-.53,2-1.59l.2.11C18,13.55,17.2,14.26,16.06,14.26Z"/><path class="cls-3" d="M24.44,14.17c-.56,0-.87-.32-.92-1a6.38,6.38,0,0,1-1,.77,1.78,1.78,0,0,1-.81.19,1.34,1.34,0,0,1-1-.39,1.45,1.45,0,0,1-.37-1,1.69,1.69,0,0,1,.85-1.4,11.65,11.65,0,0,1,2.31-1V10c0-.88-.3-1.31-.9-1.31a.84.84,0,0,0-.6.21.66.66,0,0,0-.22.56v.34q0,.6-.6.6a.64.64,0,0,1-.45-.16.67.67,0,0,1-.17-.47,1.21,1.21,0,0,1,.66-1,3.09,3.09,0,0,1,1.67-.42,2.29,2.29,0,0,1,1.43.36,1.55,1.55,0,0,1,.49,1.29v2.82c0,.43.12.64.36.64s.33-.14.6-.41l.18.15A2,2,0,0,1,24.44,14.17Zm-.92-3.41-.77.34a3.82,3.82,0,0,0-.69.43,1.1,1.1,0,0,0-.38.84,1,1,0,0,0,.23.65.7.7,0,0,0,.57.26,1.55,1.55,0,0,0,1-.5Z"/><path class="cls-3" d="M32.68,13.28a2.2,2.2,0,0,1-1.88.93,1.76,1.76,0,0,1-1.2-.47v1.38a1.65,1.65,0,0,0,.13.8.74.74,0,0,0,.72.32v.22H27.54v-.22c.36,0,.59-.11.67-.32a2.42,2.42,0,0,0,.07-.8v-5a2.19,2.19,0,0,0-.09-.77.3.3,0,0,0-.3-.2,1.1,1.1,0,0,0-.25,0l-.06-.21,1.73-.67h.29v1.2a2.16,2.16,0,0,1,1.71-1.2A1.7,1.7,0,0,1,32.75,9a3.21,3.21,0,0,1,.58,2A3.72,3.72,0,0,1,32.68,13.28ZM31.59,9.92a1.1,1.1,0,0,0-1-.65,1.37,1.37,0,0,0-1,.69v2.6a1.27,1.27,0,0,0,.31.89,1,1,0,0,0,.82.34,1,1,0,0,0,.88-.6A3.11,3.11,0,0,0,32,11.61,3.45,3.45,0,0,0,31.59,9.92Z"/><path class="cls-3" d="M36.39,14.07v-.22a.76.76,0,0,0,.71-.31,1.68,1.68,0,0,0,.13-.79V10.1c0-.65-.16-1-.5-1l-.36.06,0-.22,2-.68h.25v4.47a1.52,1.52,0,0,0,.15.79.72.72,0,0,0,.69.31v.22ZM38.45,6.7a.78.78,0,0,1-.57.22.76.76,0,0,1-.56-.22.78.78,0,0,1-.24-.57.82.82,0,0,1,.8-.8.76.76,0,0,1,.57.24.74.74,0,0,1,.24.56A.78.78,0,0,1,38.45,6.7Z"/><path class="cls-3" d="M45.53,14.19c-.85,0-1.28-.52-1.28-1.54V8.89h-.86V8.62a3.34,3.34,0,0,0,1.2-.81,3.72,3.72,0,0,0,.73-1.33h.28v2h1.32v.44H45.6v3.53a1.34,1.34,0,0,0,.16.7.46.46,0,0,0,.4.27.94.94,0,0,0,.76-.52l.22.1A1.75,1.75,0,0,1,45.53,14.19Z"/><path class="cls-3" d="M54,14.17c-.57,0-.87-.32-.93-1A5.59,5.59,0,0,1,52,14a1.74,1.74,0,0,1-.8.19,1.3,1.3,0,0,1-1-.39,1.46,1.46,0,0,1-.38-1,1.71,1.71,0,0,1,.86-1.4,11.23,11.23,0,0,1,2.3-1V10c0-.88-.3-1.31-.9-1.31a.84.84,0,0,0-.6.21.72.72,0,0,0-.22.56l0,.34q0,.6-.6.6a.65.65,0,0,1-.46-.16.71.71,0,0,1-.17-.47,1.21,1.21,0,0,1,.66-1,3.11,3.11,0,0,1,1.67-.42,2.27,2.27,0,0,1,1.43.36,1.52,1.52,0,0,1,.49,1.29v2.82c0,.43.12.64.36.64s.33-.14.6-.41l.18.15A1.93,1.93,0,0,1,54,14.17ZM53,10.76l-.77.34a3.37,3.37,0,0,0-.68.43,1.08,1.08,0,0,0-.39.84,1,1,0,0,0,.23.65.72.72,0,0,0,.58.26,1.53,1.53,0,0,0,1-.5Z"/><path class="cls-3" d="M58.51,14.08v-.22a.76.76,0,0,0,.61-.21,1.11,1.11,0,0,0,.2-.74V7.18c0-.66-.17-1-.5-1l-.36,0-.07-.19,2-.72h.26v7.58a1.11,1.11,0,0,0,.19.74.76.76,0,0,0,.61.21v.22Z"/><path class="cls-3" d="M75.07,14.26A2.73,2.73,0,0,1,72.83,13a5.14,5.14,0,0,1-.9-3.09,5.11,5.11,0,0,1,1-3.13A2.84,2.84,0,0,1,75.2,5.48a2.67,2.67,0,0,1,1,.19,4.23,4.23,0,0,0,.53.18q.27,0,.36-.36h.21l.15,2.9H77.2a3.23,3.23,0,0,0-.5-1.57A1.64,1.64,0,0,0,75.3,6,1.6,1.6,0,0,0,73.84,7a6.46,6.46,0,0,0-.51,2.82,6.08,6.08,0,0,0,.49,2.66,1.69,1.69,0,0,0,1.56,1.12c.82,0,1.47-.53,2-1.59l.2.11C77,13.55,76.2,14.26,75.07,14.26Z"/><path class="cls-3" d="M83.45,14.17q-.84,0-.93-1a5.59,5.59,0,0,1-1,.77,1.71,1.71,0,0,1-.8.19,1.3,1.3,0,0,1-1-.39,1.45,1.45,0,0,1-.37-1,1.69,1.69,0,0,1,.85-1.4,11.23,11.23,0,0,1,2.3-1V10c0-.88-.3-1.31-.9-1.31a.86.86,0,0,0-.6.21.68.68,0,0,0-.21.56v.34q0,.6-.6.6a.65.65,0,0,1-.46-.16.71.71,0,0,1-.17-.47,1.2,1.2,0,0,1,.67-1,3.05,3.05,0,0,1,1.66-.42,2.25,2.25,0,0,1,1.43.36,1.52,1.52,0,0,1,.49,1.29v2.82c0,.43.12.64.36.64s.33-.14.6-.41l.18.15A1.93,1.93,0,0,1,83.45,14.17Zm-.93-3.41-.76.34a3.21,3.21,0,0,0-.69.43,1.1,1.1,0,0,0-.38.84,1,1,0,0,0,.22.65.73.73,0,0,0,.58.26,1.53,1.53,0,0,0,1-.5Z"/><path class="cls-3" d="M91.59,9.43a.49.49,0,0,1-.41.19.93.93,0,0,1-.5-.18.91.91,0,0,0-.35-.18c-.24,0-.51.27-.8.81V12.9a1.1,1.1,0,0,0,.18.72.8.8,0,0,0,.62.22v.23h-2.9v-.23a.78.78,0,0,0,.61-.22,1,1,0,0,0,.19-.72V10a1.54,1.54,0,0,0-.09-.63.42.42,0,0,0-.41-.23,1.35,1.35,0,0,0-.34.06L87.32,9l1.94-.7h.27V9.6A6.65,6.65,0,0,1,90,8.8a1.32,1.32,0,0,1,1-.53.68.68,0,0,1,.52.2.69.69,0,0,1,0,1Z"/><path class="cls-3" d="M98.32,13.67a2.09,2.09,0,0,1-1.5.57,2.16,2.16,0,0,1-1.75-.8,3.18,3.18,0,0,1-.66-2.08,3.32,3.32,0,0,1,.73-2.22A2.33,2.33,0,0,1,97,8.27a2,2,0,0,1,1.57.62,2.34,2.34,0,0,1,.59,1.68H95.52a3.24,3.24,0,0,0,.57,1.84,1.54,1.54,0,0,0,1.28.69A1.74,1.74,0,0,0,99,12l.19.08A3,3,0,0,1,98.32,13.67Zm-.85-4.54a.89.89,0,0,0-.76-.38c-.65,0-1,.46-1.18,1.4h2.24A1.59,1.59,0,0,0,97.47,9.13Z"/><path class="cls-3" d="M263.27,4.14h.27a6.14,6.14,0,0,1,1.81.61.58.58,0,0,1,.21.16v.16c0,.06-.15.15-.58.28-.06,0-.22.13-.47.52A16.46,16.46,0,0,1,263,7.56l0,0v.07h.75a3,3,0,0,1,.87-1h.3a3.11,3.11,0,0,1,1.39,1v.07s0,.1-.21.19h-2.89a.36.36,0,0,0-.24.19V9.8s0,.12.24.23h.23a3.19,3.19,0,0,1,.81-.92h.3a2.87,2.87,0,0,1,1.35,1v.08s0,.1-.2.19h-2.49a.35.35,0,0,0-.24.2v1.91s0,.11.24.21H264l.64-.77.3-.25h.24a2.72,2.72,0,0,1,1.48,1v.15s0,.08-.2.16h-3.33a.39.39,0,0,0-.24.19v2.16a2.89,2.89,0,0,1,.07.9,2.45,2.45,0,0,1-.78.36,2.09,2.09,0,0,1-.77.05l-.37-.13,0,0V13.16a.53.53,0,0,0-.23-.19H259l-.77.08,0,0,0,1.67,0,0v.33a1.83,1.83,0,0,1-1.11.54h-.34c-.45-.12-.59-.28-.43-.47s-.06-.25-.24-.32h-1.28c-.25-.06-.33.25-.24.91,0,.32-.28.54-.91.64h-.67l-.3-.12a22.12,22.12,0,0,0,.06-3.3,7,7,0,0,1-1.34,1.25l-.21.11H251l-.07-.06v-.13a10.32,10.32,0,0,0,1.82-4.33l0-.27-1.11,0,0,0h-.24a.4.4,0,0,1-.17-.26V9.22l.07-.06a8.5,8.5,0,0,0,1.52.06,7.46,7.46,0,0,0,.2-1.59v-.1h-1.41a1,1,0,0,1-.48,0c-.1,0-.18-.11-.23-.29V7.18l.08,0a10.49,10.49,0,0,0,2,0h0A4.49,4.49,0,0,0,253.18,6v-.3a.83.83,0,0,0-.25-.19l-1.08,0,0,0h-.3l-.17-.32V5.15l.07-.05a14.25,14.25,0,0,0,2.42.05h1.76l.54-.69.1-.06h.3a2.87,2.87,0,0,1,1.68.89v.14a1.14,1.14,0,0,1-.37.42l-.06.09v.87a1.71,1.71,0,0,1,.64-.56h.2c.43,0,.89.35,1.38,1v.08s-.05.1-.2.19H258a.36.36,0,0,0-.23.2l0,1.61,0,0v.47a2.42,2.42,0,0,1-.94.37l0,0h-.58c-.36,0-.49-.21-.4-.53l-.2-.14h-1.11l-.37,1.15-.14.27v.07l.74.36H256a3,3,0,0,1,.61-.7h.33a3.18,3.18,0,0,1,1.66.78v.29a1,1,0,0,1-.38.32v.48a8.67,8.67,0,0,0,2.29.08h.31c.18-.1.26-.17.23-.21V10.54a.44.44,0,0,0-.23-.2h-1.42l-.67.08h-.07l-.17-.3V10l.07,0a15.34,15.34,0,0,0,2.26,0c.18-.11.26-.19.23-.23V8.15a.47.47,0,0,0-.23-.19H259l-.57,0h0a.28.28,0,0,1-.21-.24V7.65l.07-.07a8.61,8.61,0,0,0,2.16.07h1.65A9.47,9.47,0,0,0,263.27,4.14Zm-8.36,3.39c-.06,0-.1.18-.1.54l-.2,1.15h1.08c.18-.11.26-.18.23-.22V7.73a.49.49,0,0,0-.23-.2Zm0,4.21a.37.37,0,0,0-.24.18v2.4s0,.11.24.23h1.28c.18-.12.26-.19.24-.23v-2.4a.51.51,0,0,0-.24-.18Zm.34-6.24c-.25,0-.33.26-.24.91l-.07.77h.78c.18-.1.26-.17.23-.21V5.69a.53.53,0,0,0-.23-.19ZM259,4.2h.3A3.8,3.8,0,0,1,262,6a1,1,0,0,1,.07.6c0,.31-.32.58-.94.8h-.37c-.5-.08-.72-.5-.68-1.25a2.93,2.93,0,0,0-1.28-1.74V4.31Z"/><path class="cls-3" d="M274,4.43h.26a6.51,6.51,0,0,1,1.79.7l.17.13v.17a2.3,2.3,0,0,0-1.35,1,10.42,10.42,0,0,1-4.55,2.63h-.1L270.11,9V8.85a10.68,10.68,0,0,0,3.8-4.39Zm.33,4.14h.24a5.57,5.57,0,0,1,1.88.73v.24c0,.05-.23.21-.77.49a11,11,0,0,1-2.19,1.49l-.14.05v.07l1.44.44h6.41a2.74,2.74,0,0,1,.71-.59h.27a3.31,3.31,0,0,1,1.42.76l.1.09v.19a1,1,0,0,1-.51.4v2.35l.74-.53h.3a3.84,3.84,0,0,1,1.39.95l0,0v.15s-.05.1-.2.19H271.05l-.2.05h-.21l-.16-.24v-.08l.06,0a9.91,9.91,0,0,0,1.89,0c.18-.1.26-.17.23-.21V11.89h-.06a13,13,0,0,1-2.06.59h-.33l0,0v-.17A8.43,8.43,0,0,0,274.28,8.57Zm.4,3.77a.4.4,0,0,0-.23.19v3.05s0,.11.23.21h.75c.18-.1.25-.17.23-.21V12.53a.53.53,0,0,0-.23-.19Zm4.62-6.17h.24A3.43,3.43,0,0,1,281,7l.07.1v.14s0,.1-.21.19h-5.39l-.23,0H275a.2.2,0,0,1-.17-.18V7.18l.07,0a14.82,14.82,0,0,0,2.36,0h1.11A3.56,3.56,0,0,1,279.3,6.17Zm-1.68,6.17a.39.39,0,0,0-.24.19v3.05s0,.11.24.21h.67q.27-.15.24-.21V12.53a.61.61,0,0,0-.24-.19Zm2.83-8.11h.27a4.21,4.21,0,0,1,1,.44l.07.08v.19a1.11,1.11,0,0,1-.51.37v.16A7.4,7.4,0,0,0,285.7,7l0,0v.26a2.13,2.13,0,0,0-1.31,1.2l-.13.05H284a7.12,7.12,0,0,1-3.63-3.47h-2l-.24.05H278l-.13-.21v-.1l.06,0a7.57,7.57,0,0,0,1.76,0h.2Zm.13,4.21h.27a1.91,1.91,0,0,1,.91.53l.07.06v.19l-.34.29v.11a8.16,8.16,0,0,0,4,1.07l.27.05V11a2.07,2.07,0,0,0-1.18.91q-.14.24-.27.27h-.27a6.9,6.9,0,0,1-3.63-2.8h-2l-.2.06h-.13L278,9.11v0l.07-.06h.13l.24.06h1.41Zm-.1,3.9a.42.42,0,0,0-.24.19v3.05s0,.11.24.21h.64q.27-.15.24-.21V12.53a.61.61,0,0,0-.24-.19Z"/><path class="cls-3" d="M295.27,4h.33a11.16,11.16,0,0,1,2.53.48l.17.16v.15l-.17.2v.14q1.51,1.82,6.64,2.32s.12,0,.23.08V7.7a4.23,4.23,0,0,0-1.48,1.38l-.1.05h-.34a7.21,7.21,0,0,1-4.88-2.75,4.65,4.65,0,0,0-.61-1l0,0h-.14a15.11,15.11,0,0,1-3.64,3l-.3.18v.06l.3.08h4a6.93,6.93,0,0,1,.87-.94l.14-.07h.2a5,5,0,0,1,1.72,1l.07.09v.08s-.05.09-.2.18h-2.19a.35.35,0,0,0-.24.18v1.53q-.08,0,.24.21h2c.06,0,.27-.19.6-.62l.58-.53.06,0h.2A5.7,5.7,0,0,1,303.65,11l.07.12v.08s0,.09-.2.18h-5.15a.36.36,0,0,0-.24.19v3.34a9.89,9.89,0,0,0,2-3.43l0,0h.14a12.5,12.5,0,0,1,1.82.72.92.92,0,0,1,.4.29v.19c.07.07-.18.18-.74.32-1.12.87-2.35,1.75-3.67,2.62v.07a.45.45,0,0,0,.24.17h3.33a7.05,7.05,0,0,1,1.08-1.15l.13,0h.21A6.25,6.25,0,0,1,305,15.87V16s0,.1-.2.19H290.35l-.51.07-.13-.28v-.14l.07,0a12.71,12.71,0,0,0,2.29,0h3.87q.27-.15.24-.21V11.52a.54.54,0,0,0-.24-.19h-4.88l-.44.05-.2-.28V11l.06-.05a10,10,0,0,0,2,.05h3.44q.27-.17.24-.21V9.24a.51.51,0,0,0-.24-.18h-2.19l-.24,0h-.13l-.24-.31H293A13.67,13.67,0,0,1,290,10.07h-.24l-.07,0V9.86a11.11,11.11,0,0,0,5.49-5.55C295.09,4.14,295.13,4,295.27,4Zm-2.87,7.84h.17a4,4,0,0,1,2.7,2l.06.18v.22c0,.46-.4.78-1.07,1h-.41c-.54,0-.76-.49-.67-1.32a3,3,0,0,0-1-1.86v-.11Z"/><path class="cls-3" d="M310,5.05h.81a5.88,5.88,0,0,1,1.15.21.58.58,0,0,1,.33.24v.13a1,1,0,0,1-.47.39v4s0,.1.24.2h1.82l.5-.5.07,0h.27a5.36,5.36,0,0,1,1.45.51l.17.18v.23a1.23,1.23,0,0,1-.47.36v4.41a5.18,5.18,0,0,1,.1.95v0c0,.1-.24.17-.64.21h-.78c-.29,0-.46-.11-.5-.28V13.09a.51.51,0,0,0-.24-.18h-1.15c-.15,0-.23.15-.23.54a4.16,4.16,0,0,1-2.93,3l-.14.05h-.2l-.1-.1v-.06a4.21,4.21,0,0,0,1.65-3.12v-.16c-.07-.09-.13-.15-.2-.16h-1.21L309,13h-.1l-.17-.24v-.06l.07-.05,1.72,0h3.2c.18-.11.26-.18.24-.22V10.69a.69.69,0,0,0-.24-.18H312c-.27.06-.37.31-.3.76a1.13,1.13,0,0,1-.88.32h-.47c-.34-.05-.49-.14-.47-.26l0,0A18.42,18.42,0,0,0,310,8.24V5.47l-.1-.26V5.1Zm8.46-1h.27a2.84,2.84,0,0,1,1.51.58l.07.11v.19c0,.07-.14.18-.37.32V8.51q0-.16,0,.3V9c0,.14-.37.25-1,.32h-.41c-.29,0-.45-.21-.47-.69l-.17-.11h-2.35c-.23,0-.33.25-.31.64a1.64,1.64,0,0,1-.84.31H314c-.34-.08-.51-.17-.51-.25a14.39,14.39,0,0,0,.07-2.77v-2l-.07-.12V4.2l.14-.12h.23a10.43,10.43,0,0,1,1.52.4l.2.08h2.22c.07,0,.23-.15.47-.45Zm-2.86.81a.33.33,0,0,0-.24.18V5.5s0,.11.24.21h2.35a1.08,1.08,0,0,0,.24-.18V5.05a.51.51,0,0,0-.24-.18Zm0,1.12a.39.39,0,0,0-.24.18v.48s0,.11.24.21h2.35q.27-.15.24-.21V6.17A.69.69,0,0,0,317.9,6Zm0,1.15a.33.33,0,0,0-.24.18V8s0,.11.24.21h2.35c.18-.1.26-.18.24-.21V7.32a.51.51,0,0,0-.24-.18Zm6.06-2h.5l1.28.16c.12,0,.26.11.44.32v.16a.89.89,0,0,1-.37.31v4a1.15,1.15,0,0,1,.07.54q0,.2-.84.39h-.78c-.18,0-.31-.15-.4-.44l-.1-.07h-1.82a.47.47,0,0,0-.24.19v1.78s0,.1.24.21h2.83l.67-.75s.05-.07.13-.11h.27a5,5,0,0,1,1.45.86v.08c.09.18-.28.24-1.11.19a.46.46,0,0,0-.54.18V15.5l.07.64v.12c.05.08-.24.16-.84.23h-.41c-.31-.07-.46-.15-.43-.23V13.09a.51.51,0,0,0-.24-.18h-1.85a.37.37,0,0,0-.24.18v2.53l.07.52v.09a1.18,1.18,0,0,1-1,.34h-.54c-.22,0-.36-.12-.4-.24a16.11,16.11,0,0,0,.06-2.76V10.18l-.13-.3V9.8l.13-.1h.32l1.33.4.1.05h2.13c.18-.1.26-.16.23-.2V5.69l-.17-.4V5.21Z"/><path class="cls-3" d="M332.66,6.11H333a2.9,2.9,0,0,1,1.18.86v.09s0,.1-.21.18h-5.35c.07,0,0,0-.2,0l-.14-.14V7l.07-.06,1,0h2.42Zm-.44-1.73h.3a2.24,2.24,0,0,1,1.18.77l0,0v.08s0,.1-.2.2h-4.18l-.53,0a.3.3,0,0,1-.24-.15V5.21l.07-.06,1.82,0h.94Zm.07,7.11h.23a3.39,3.39,0,0,1,1.38.67v.21c0,.05-.13.17-.4.35l0,2.14,0,0v.51c-.32.19-.51.26-.58.23l-.1,0h-.74c-.16,0-.28-.16-.37-.57l-.13-.09h-1c-.25-.05-.33.25-.24.91.11.32-.1.5-.64.53h-.84l-.27-.12a24.48,24.48,0,0,0,.13-4.31l-.13-.26v-.08l.13-.09h.27l1.38.45,0,0h1.11a1.81,1.81,0,0,1,.64-.53Zm-.07-3.72h.33a2.46,2.46,0,0,1,1.22.8v.08s0,.11-.2.2h-4.22l-.23,0H329l-.17-.09V8.63l.07-.06,1.48,0h1.08Zm-.07,1.7h.3a2.47,2.47,0,0,1,1.35.84v.08s0,.1-.2.2h-4.18l-.23,0H329a.33.33,0,0,1-.24-.14v-.15l.07-.06,1.25,0h1.28Zm-1.51,2.81a.3.3,0,0,0-.24.17v2.13s0,.09.24.2h1c.18-.11.26-.18.23-.2V12.45a.41.41,0,0,0-.23-.17Zm6.56-7.8h.31a3.44,3.44,0,0,1,1.31.78l.07,0v.24q-.75.23-.81.75a8.38,8.38,0,0,1-4.35,3.06h-.16l-.07-.06V9.22A8,8,0,0,0,335,8.09l.37-.44v0c-.74,0-1.05-.27-.91-.9a2.48,2.48,0,0,0-.44-1.1l0,0V5.47l.17-.06h.23A1.88,1.88,0,0,1,336,6.62h0a3.52,3.52,0,0,0,.67-1.19V5.29l-.1-.08h-1.89c.11,0,0,0-.34,0l-.1-.1V5l.07,0,2.06,0h.23S336.8,4.76,337.2,4.48Zm3.41,5h.3a4.38,4.38,0,0,1,1.48.77l0,0v.23l-.51.28,0,1.76,0,0V13c0,.08-.32.17-.95.26v.06c.45.21.68.35.68.42l0,0V14c-.18-.14-.85.34-2,1.43l-.32.35v.08h1.43a5.67,5.67,0,0,1,.81-1l.17-.1h.27a2.61,2.61,0,0,1,1.45,1.07v.08s-.05.09-.2.18h-9.27q.14,0-.27,0l-.13-.16v-.13l.06-.06a9.38,9.38,0,0,0,2,.06h3a6.63,6.63,0,0,0,.88-2.38l0-.32.14-.08.54,0v-.25a.5.5,0,0,0-.24-.2h-3a.37.37,0,0,0-.24.2v.23a1.64,1.64,0,0,1,1.38,1.09v.51c0,.29-.32.58-1,.85h-.37a.84.84,0,0,1-.64-.36l-.07-.08v-.3l.34-.7V13.6a.41.41,0,0,0-.3-.32l-.61,0-.44-.16a17.62,17.62,0,0,0,.07-3l-.1-.26V9.72l.2-.1h.17a10.81,10.81,0,0,1,1.55.48l0,0h3A2.75,2.75,0,0,1,340.61,9.51Zm-1.25-1.93h.34a3.3,3.3,0,0,1,1.21.81v.08s0,.09-.2.18h-4.08l-.4.06c-.14-.06-.19-.11-.17-.16V8.44l.07,0,1.24,0h1.11a5.13,5.13,0,0,1,.81-.78ZM337,10.36a.42.42,0,0,0-.24.21V12.2s0,.1.24.2h3c.18-.1.26-.17.24-.2V10.57a.59.59,0,0,0-.24-.21Zm4.21-6.1h.13a3.9,3.9,0,0,1,1.55,1.12c.12,0,.45.24,1,.79l0,0v.21l-.14.1-.6,0a7,7,0,0,0-1.45.31l-.24.11v0a7,7,0,0,0,2.46.91V8a2.27,2.27,0,0,0-1.21,1.21l-.07,0h-.17a5.56,5.56,0,0,1-3.37-3.89l-.27-.71V4.51l.14-.16h.1c.09,0,.18.11.27.4a3.25,3.25,0,0,0,.47.75l.07,0h0A4.67,4.67,0,0,0,341.18,4.26Zm.91,1.12c-.25.1-.85.28-1.82.53V6a1.34,1.34,0,0,0,.57.53h0a5.85,5.85,0,0,0,1.58-1V5.38Z"/><path class="cls-3" d="M354.38,4.11h.48a6.69,6.69,0,0,1,1.85.53l.06.08v.22a2.16,2.16,0,0,1-.53.41l-.51,1.33,0,0v.08h1a4.72,4.72,0,0,1,.81-.91l0,0H358a3.08,3.08,0,0,1,1.34.88v.13s0,.11-.2.2H357a.45.45,0,0,0-.24.18v0A5.63,5.63,0,0,0,358.36,9h1.95l1-1.12h.37a4.39,4.39,0,0,1,1.55,1v.19s0,.1-.2.19h-3.91l-.1.09v0a14.4,14.4,0,0,0,4.25,1l0,0v.19A4.2,4.2,0,0,0,361.83,12l-.07,0h-.27a8.54,8.54,0,0,1-4.41-2.73H354a11.08,11.08,0,0,1-2.69,1.86l-.17.06c0,.06.13.1.47.14h6.1l.4-.4h.37a4.29,4.29,0,0,1,1.82.91v.24l-.5.56a16.24,16.24,0,0,1-.44,2.27,2.21,2.21,0,0,1-1.89,1.5,3.39,3.39,0,0,1-.91.08c-.29,0-.49-.26-.6-.77-.12-.32-.59-.66-1.42-1v-.1l.14-.07q0-.08.87.12a4.65,4.65,0,0,0,1.18.08c.72,0,1.16-.82,1.32-2.5l0,0v-.41a.56.56,0,0,0-.24-.17h-2l-.1.08v.06l.14.14v.13a.7.7,0,0,0-.54.67A6.2,6.2,0,0,1,351,16.14a8.55,8.55,0,0,1-1.65.29H349l-.13-.08v-.12a6.52,6.52,0,0,0,4.24-3,7,7,0,0,0,.44-1.36v-.14a.39.39,0,0,0-.2-.14h-1.76a3.38,3.38,0,0,1-.67.08l-.24-.31h0a16.91,16.91,0,0,1-2.56.87h-.24a.3.3,0,0,1-.16-.15V12a11.38,11.38,0,0,0,4-2.38l.27-.25v0l-.1-.09h-3.47l-.43.07h-.11l-.16-.26V9l.06-.05a10,10,0,0,0,2,.05h2.53a9.08,9.08,0,0,0,1.25-1.86V7.06h-1.45a1.4,1.4,0,0,1-.51.06l-.2-.26V6.78l.07,0a9.9,9.9,0,0,0,2,0h.2A6.64,6.64,0,0,0,354.28,5V4.54l-.07-.16V4.26A.22.22,0,0,1,354.38,4.11Zm-3.7.51H351a8.66,8.66,0,0,1,1.81.48.27.27,0,0,1,.17.13v.2c0,.05-.19.16-.64.34a14.59,14.59,0,0,1-4,2.83l-.06,0h-.21l-.16-.11V8.44a8.62,8.62,0,0,0,2.72-3.8Zm4.88,2.44a12.43,12.43,0,0,1-1.14,1.83v0l.1.08h2.42V9a5.3,5.3,0,0,1-.77-1.89Zm2.6-2.5h.3a6.6,6.6,0,0,1,2.79,1.1c.19,0,.36.31.54.77v.71a1.11,1.11,0,0,1-.77.62h-.51c-.51-.06-.86-.55-1-1.49A3.38,3.38,0,0,0,358,4.84l0,0V4.67Z"/><path class="cls-3" d="M263.27,4.14h.27a6.14,6.14,0,0,1,1.81.61.58.58,0,0,1,.21.16v.16c0,.06-.15.15-.58.28-.06,0-.22.13-.47.52A16.46,16.46,0,0,1,263,7.56l0,0v.07h.75a3,3,0,0,1,.87-1h.3a3.11,3.11,0,0,1,1.39,1v.07s0,.1-.21.19h-2.89a.36.36,0,0,0-.24.19V9.8s0,.12.24.23h.23a3.19,3.19,0,0,1,.81-.92h.3a2.87,2.87,0,0,1,1.35,1v.08s0,.1-.2.19h-2.49a.35.35,0,0,0-.24.2v1.91s0,.11.24.21H264l.64-.77.3-.25h.24a2.72,2.72,0,0,1,1.48,1v.15s0,.08-.2.16h-3.33a.39.39,0,0,0-.24.19v2.16a2.89,2.89,0,0,1,.07.9,2.45,2.45,0,0,1-.78.36,2.09,2.09,0,0,1-.77.05l-.37-.13,0,0V13.16a.53.53,0,0,0-.23-.19H259l-.77.08,0,0,0,1.67,0,0v.33a1.83,1.83,0,0,1-1.11.54h-.34c-.45-.12-.59-.28-.43-.47s-.06-.25-.24-.32h-1.28c-.25-.06-.33.25-.24.91,0,.32-.28.54-.91.64h-.67l-.3-.12a22.12,22.12,0,0,0,.06-3.3,7,7,0,0,1-1.34,1.25l-.21.11H251l-.07-.06v-.13a10.32,10.32,0,0,0,1.82-4.33l0-.27-1.11,0,0,0h-.24a.4.4,0,0,1-.17-.26V9.22l.07-.06a8.5,8.5,0,0,0,1.52.06,7.46,7.46,0,0,0,.2-1.59v-.1h-1.41a1,1,0,0,1-.48,0c-.1,0-.18-.11-.23-.29V7.18l.08,0a10.49,10.49,0,0,0,2,0h0A4.49,4.49,0,0,0,253.18,6v-.3a.83.83,0,0,0-.25-.19l-1.08,0,0,0h-.3l-.17-.32V5.15l.07-.05a14.25,14.25,0,0,0,2.42.05h1.76l.54-.69.1-.06h.3a2.87,2.87,0,0,1,1.68.89v.14a1.14,1.14,0,0,1-.37.42l-.06.09v.87a1.71,1.71,0,0,1,.64-.56h.2c.43,0,.89.35,1.38,1v.08s-.05.1-.2.19H258a.36.36,0,0,0-.23.2l0,1.61,0,0v.47a2.42,2.42,0,0,1-.94.37l0,0h-.58c-.36,0-.49-.21-.4-.53l-.2-.14h-1.11l-.37,1.15-.14.27v.07l.74.36H256a3,3,0,0,1,.61-.7h.33a3.18,3.18,0,0,1,1.66.78v.29a1,1,0,0,1-.38.32v.48a8.67,8.67,0,0,0,2.29.08h.31c.18-.1.26-.17.23-.21V10.54a.44.44,0,0,0-.23-.2h-1.42l-.67.08h-.07l-.17-.3V10l.07,0a15.34,15.34,0,0,0,2.26,0c.18-.11.26-.19.23-.23V8.15a.47.47,0,0,0-.23-.19H259l-.57,0h0a.28.28,0,0,1-.21-.24V7.65l.07-.07a8.61,8.61,0,0,0,2.16.07h1.65A9.47,9.47,0,0,0,263.27,4.14Zm-8.36,3.39c-.06,0-.1.18-.1.54l-.2,1.15h1.08c.18-.11.26-.18.23-.22V7.73a.49.49,0,0,0-.23-.2Zm0,4.21a.37.37,0,0,0-.24.18v2.4s0,.11.24.23h1.28c.18-.12.26-.19.24-.23v-2.4a.51.51,0,0,0-.24-.18Zm.34-6.24c-.25,0-.33.26-.24.91l-.07.77h.78c.18-.1.26-.17.23-.21V5.69a.53.53,0,0,0-.23-.19ZM259,4.2h.3A3.8,3.8,0,0,1,262,6a1,1,0,0,1,.07.6c0,.31-.32.58-.94.8h-.37c-.5-.08-.72-.5-.68-1.25a2.93,2.93,0,0,0-1.28-1.74V4.31Z"/><path class="cls-3" d="M274,4.43h.26a6.51,6.51,0,0,1,1.79.7l.17.13v.17a2.3,2.3,0,0,0-1.35,1,10.42,10.42,0,0,1-4.55,2.63h-.1L270.11,9V8.85a10.68,10.68,0,0,0,3.8-4.39Zm.33,4.14h.24a5.57,5.57,0,0,1,1.88.73v.24c0,.05-.23.21-.77.49a11,11,0,0,1-2.19,1.49l-.14.05v.07l1.44.44h6.41a2.74,2.74,0,0,1,.71-.59h.27a3.31,3.31,0,0,1,1.42.76l.1.09v.19a1,1,0,0,1-.51.4v2.35l.74-.53h.3a3.84,3.84,0,0,1,1.39.95l0,0v.15s-.05.1-.2.19H271.05l-.2.05h-.21l-.16-.24v-.08l.06,0a9.91,9.91,0,0,0,1.89,0c.18-.1.26-.17.23-.21V11.89h-.06a13,13,0,0,1-2.06.59h-.33l0,0v-.17A8.43,8.43,0,0,0,274.28,8.57Zm.4,3.77a.4.4,0,0,0-.23.19v3.05s0,.11.23.21h.75c.18-.1.25-.17.23-.21V12.53a.53.53,0,0,0-.23-.19Zm4.62-6.17h.24A3.43,3.43,0,0,1,281,7l.07.1v.14s0,.1-.21.19h-5.39l-.23,0H275a.2.2,0,0,1-.17-.18V7.18l.07,0a14.82,14.82,0,0,0,2.36,0h1.11A3.56,3.56,0,0,1,279.3,6.17Zm-1.68,6.17a.39.39,0,0,0-.24.19v3.05s0,.11.24.21h.67q.27-.15.24-.21V12.53a.61.61,0,0,0-.24-.19Zm2.83-8.11h.27a4.21,4.21,0,0,1,1,.44l.07.08v.19a1.11,1.11,0,0,1-.51.37v.16A7.4,7.4,0,0,0,285.7,7l0,0v.26a2.13,2.13,0,0,0-1.31,1.2l-.13.05H284a7.12,7.12,0,0,1-3.63-3.47h-2l-.24.05H278l-.13-.21v-.1l.06,0a7.57,7.57,0,0,0,1.76,0h.2Zm.13,4.21h.27a1.91,1.91,0,0,1,.91.53l.07.06v.19l-.34.29v.11a8.16,8.16,0,0,0,4,1.07l.27.05V11a2.07,2.07,0,0,0-1.18.91q-.14.24-.27.27h-.27a6.9,6.9,0,0,1-3.63-2.8h-2l-.2.06h-.13L278,9.11v0l.07-.06h.13l.24.06h1.41Zm-.1,3.9a.42.42,0,0,0-.24.19v3.05s0,.11.24.21h.64q.27-.15.24-.21V12.53a.61.61,0,0,0-.24-.19Z"/><path class="cls-3" d="M295.27,4h.33a11.16,11.16,0,0,1,2.53.48l.17.16v.15l-.17.2v.14q1.51,1.82,6.64,2.32s.12,0,.23.08V7.7a4.23,4.23,0,0,0-1.48,1.38l-.1.05h-.34a7.21,7.21,0,0,1-4.88-2.75,4.65,4.65,0,0,0-.61-1l0,0h-.14a15.11,15.11,0,0,1-3.64,3l-.3.18v.06l.3.08h4a6.93,6.93,0,0,1,.87-.94l.14-.07h.2a5,5,0,0,1,1.72,1l.07.09v.08s-.05.09-.2.18h-2.19a.35.35,0,0,0-.24.18v1.53q-.08,0,.24.21h2c.06,0,.27-.19.6-.62l.58-.53.06,0h.2A5.7,5.7,0,0,1,303.65,11l.07.12v.08s0,.09-.2.18h-5.15a.36.36,0,0,0-.24.19v3.34a9.89,9.89,0,0,0,2-3.43l0,0h.14a12.5,12.5,0,0,1,1.82.72.92.92,0,0,1,.4.29v.19c.07.07-.18.18-.74.32-1.12.87-2.35,1.75-3.67,2.62v.07a.45.45,0,0,0,.24.17h3.33a7.05,7.05,0,0,1,1.08-1.15l.13,0h.21A6.25,6.25,0,0,1,305,15.87V16s0,.1-.2.19H290.35l-.51.07-.13-.28v-.14l.07,0a12.71,12.71,0,0,0,2.29,0h3.87q.27-.15.24-.21V11.52a.54.54,0,0,0-.24-.19h-4.88l-.44.05-.2-.28V11l.06-.05a10,10,0,0,0,2,.05h3.44q.27-.17.24-.21V9.24a.51.51,0,0,0-.24-.18h-2.19l-.24,0h-.13l-.24-.31H293A13.67,13.67,0,0,1,290,10.07h-.24l-.07,0V9.86a11.11,11.11,0,0,0,5.49-5.55C295.09,4.14,295.13,4,295.27,4Zm-2.87,7.84h.17a4,4,0,0,1,2.7,2l.06.18v.22c0,.46-.4.78-1.07,1h-.41c-.54,0-.76-.49-.67-1.32a3,3,0,0,0-1-1.86v-.11Z"/><path class="cls-3" d="M310,5.05h.81a5.88,5.88,0,0,1,1.15.21.58.58,0,0,1,.33.24v.13a1,1,0,0,1-.47.39v4s0,.1.24.2h1.82l.5-.5.07,0h.27a5.36,5.36,0,0,1,1.45.51l.17.18v.23a1.23,1.23,0,0,1-.47.36v4.41a5.18,5.18,0,0,1,.1.95v0c0,.1-.24.17-.64.21h-.78c-.29,0-.46-.11-.5-.28V13.09a.51.51,0,0,0-.24-.18h-1.15c-.15,0-.23.15-.23.54a4.16,4.16,0,0,1-2.93,3l-.14.05h-.2l-.1-.1v-.06a4.21,4.21,0,0,0,1.65-3.12v-.16c-.07-.09-.13-.15-.2-.16h-1.21L309,13h-.1l-.17-.24v-.06l.07-.05,1.72,0h3.2c.18-.11.26-.18.24-.22V10.69a.69.69,0,0,0-.24-.18H312c-.27.06-.37.31-.3.76a1.13,1.13,0,0,1-.88.32h-.47c-.34-.05-.49-.14-.47-.26l0,0A18.42,18.42,0,0,0,310,8.24V5.47l-.1-.26V5.1Zm8.46-1h.27a2.84,2.84,0,0,1,1.51.58l.07.11v.19c0,.07-.14.18-.37.32V8.51q0-.16,0,.3V9c0,.14-.37.25-1,.32h-.41c-.29,0-.45-.21-.47-.69l-.17-.11h-2.35c-.23,0-.33.25-.31.64a1.64,1.64,0,0,1-.84.31H314c-.34-.08-.51-.17-.51-.25a14.39,14.39,0,0,0,.07-2.77v-2l-.07-.12V4.2l.14-.12h.23a10.43,10.43,0,0,1,1.52.4l.2.08h2.22c.07,0,.23-.15.47-.45Zm-2.86.81a.33.33,0,0,0-.24.18V5.5s0,.11.24.21h2.35a1.08,1.08,0,0,0,.24-.18V5.05a.51.51,0,0,0-.24-.18Zm0,1.12a.39.39,0,0,0-.24.18v.48s0,.11.24.21h2.35q.27-.15.24-.21V6.17A.69.69,0,0,0,317.9,6Zm0,1.15a.33.33,0,0,0-.24.18V8s0,.11.24.21h2.35c.18-.1.26-.18.24-.21V7.32a.51.51,0,0,0-.24-.18Zm6.06-2h.5l1.28.16c.12,0,.26.11.44.32v.16a.89.89,0,0,1-.37.31v4a1.15,1.15,0,0,1,.07.54q0,.2-.84.39h-.78c-.18,0-.31-.15-.4-.44l-.1-.07h-1.82a.47.47,0,0,0-.24.19v1.78s0,.1.24.21h2.83l.67-.75s.05-.07.13-.11h.27a5,5,0,0,1,1.45.86v.08c.09.18-.28.24-1.11.19a.46.46,0,0,0-.54.18V15.5l.07.64v.12c.05.08-.24.16-.84.23h-.41c-.31-.07-.46-.15-.43-.23V13.09a.51.51,0,0,0-.24-.18h-1.85a.37.37,0,0,0-.24.18v2.53l.07.52v.09a1.18,1.18,0,0,1-1,.34h-.54c-.22,0-.36-.12-.4-.24a16.11,16.11,0,0,0,.06-2.76V10.18l-.13-.3V9.8l.13-.1h.32l1.33.4.1.05h2.13c.18-.1.26-.16.23-.2V5.69l-.17-.4V5.21Z"/><path class="cls-3" d="M332.66,6.11H333a2.9,2.9,0,0,1,1.18.86v.09s0,.1-.21.18h-5.35c.07,0,0,0-.2,0l-.14-.14V7l.07-.06,1,0h2.42Zm-.44-1.73h.3a2.24,2.24,0,0,1,1.18.77l0,0v.08s0,.1-.2.2h-4.18l-.53,0a.3.3,0,0,1-.24-.15V5.21l.07-.06,1.82,0h.94Zm.07,7.11h.23a3.39,3.39,0,0,1,1.38.67v.21c0,.05-.13.17-.4.35l0,2.14,0,0v.51c-.32.19-.51.26-.58.23l-.1,0h-.74c-.16,0-.28-.16-.37-.57l-.13-.09h-1c-.25-.05-.33.25-.24.91.11.32-.1.5-.64.53h-.84l-.27-.12a24.48,24.48,0,0,0,.13-4.31l-.13-.26v-.08l.13-.09h.27l1.38.45,0,0h1.11a1.81,1.81,0,0,1,.64-.53Zm-.07-3.72h.33a2.46,2.46,0,0,1,1.22.8v.08s0,.11-.2.2h-4.22l-.23,0H329l-.17-.09V8.63l.07-.06,1.48,0h1.08Zm-.07,1.7h.3a2.47,2.47,0,0,1,1.35.84v.08s0,.1-.2.2h-4.18l-.23,0H329a.33.33,0,0,1-.24-.14v-.15l.07-.06,1.25,0h1.28Zm-1.51,2.81a.3.3,0,0,0-.24.17v2.13s0,.09.24.2h1c.18-.11.26-.18.23-.2V12.45a.41.41,0,0,0-.23-.17Zm6.56-7.8h.31a3.44,3.44,0,0,1,1.31.78l.07,0v.24q-.75.23-.81.75a8.38,8.38,0,0,1-4.35,3.06h-.16l-.07-.06V9.22A8,8,0,0,0,335,8.09l.37-.44v0c-.74,0-1.05-.27-.91-.9a2.48,2.48,0,0,0-.44-1.1l0,0V5.47l.17-.06h.23A1.88,1.88,0,0,1,336,6.62h0a3.52,3.52,0,0,0,.67-1.19V5.29l-.1-.08h-1.89c.11,0,0,0-.34,0l-.1-.1V5l.07,0,2.06,0h.23S336.8,4.76,337.2,4.48Zm3.41,5h.3a4.38,4.38,0,0,1,1.48.77l0,0v.23l-.51.28,0,1.76,0,0V13c0,.08-.32.17-.95.26v.06c.45.21.68.35.68.42l0,0V14c-.18-.14-.85.34-2,1.43l-.32.35v.08h1.43a5.67,5.67,0,0,1,.81-1l.17-.1h.27a2.61,2.61,0,0,1,1.45,1.07v.08s-.05.09-.2.18h-9.27q.14,0-.27,0l-.13-.16v-.13l.06-.06a9.38,9.38,0,0,0,2,.06h3a6.63,6.63,0,0,0,.88-2.38l0-.32.14-.08.54,0v-.25a.5.5,0,0,0-.24-.2h-3a.37.37,0,0,0-.24.2v.23a1.64,1.64,0,0,1,1.38,1.09v.51c0,.29-.32.58-1,.85h-.37a.84.84,0,0,1-.64-.36l-.07-.08v-.3l.34-.7V13.6a.41.41,0,0,0-.3-.32l-.61,0-.44-.16a17.62,17.62,0,0,0,.07-3l-.1-.26V9.72l.2-.1h.17a10.81,10.81,0,0,1,1.55.48l0,0h3A2.75,2.75,0,0,1,340.61,9.51Zm-1.25-1.93h.34a3.3,3.3,0,0,1,1.21.81v.08s0,.09-.2.18h-4.08l-.4.06c-.14-.06-.19-.11-.17-.16V8.44l.07,0,1.24,0h1.11a5.13,5.13,0,0,1,.81-.78ZM337,10.36a.42.42,0,0,0-.24.21V12.2s0,.1.24.2h3c.18-.1.26-.17.24-.2V10.57a.59.59,0,0,0-.24-.21Zm4.21-6.1h.13a3.9,3.9,0,0,1,1.55,1.12c.12,0,.45.24,1,.79l0,0v.21l-.14.1-.6,0a7,7,0,0,0-1.45.31l-.24.11v0a7,7,0,0,0,2.46.91V8a2.27,2.27,0,0,0-1.21,1.21l-.07,0h-.17a5.56,5.56,0,0,1-3.37-3.89l-.27-.71V4.51l.14-.16h.1c.09,0,.18.11.27.4a3.25,3.25,0,0,0,.47.75l.07,0h0A4.67,4.67,0,0,0,341.18,4.26Zm.91,1.12c-.25.1-.85.28-1.82.53V6a1.34,1.34,0,0,0,.57.53h0a5.85,5.85,0,0,0,1.58-1V5.38Z"/><path class="cls-3" d="M354.38,4.11h.48a6.69,6.69,0,0,1,1.85.53l.06.08v.22a2.16,2.16,0,0,1-.53.41l-.51,1.33,0,0v.08h1a4.72,4.72,0,0,1,.81-.91l0,0H358a3.08,3.08,0,0,1,1.34.88v.13s0,.11-.2.2H357a.45.45,0,0,0-.24.18v0A5.63,5.63,0,0,0,358.36,9h1.95l1-1.12h.37a4.39,4.39,0,0,1,1.55,1v.19s0,.1-.2.19h-3.91l-.1.09v0a14.4,14.4,0,0,0,4.25,1l0,0v.19A4.2,4.2,0,0,0,361.83,12l-.07,0h-.27a8.54,8.54,0,0,1-4.41-2.73H354a11.08,11.08,0,0,1-2.69,1.86l-.17.06c0,.06.13.1.47.14h6.1l.4-.4h.37a4.29,4.29,0,0,1,1.82.91v.24l-.5.56a16.24,16.24,0,0,1-.44,2.27,2.21,2.21,0,0,1-1.89,1.5,3.39,3.39,0,0,1-.91.08c-.29,0-.49-.26-.6-.77-.12-.32-.59-.66-1.42-1v-.1l.14-.07q0-.08.87.12a4.65,4.65,0,0,0,1.18.08c.72,0,1.16-.82,1.32-2.5l0,0v-.41a.56.56,0,0,0-.24-.17h-2l-.1.08v.06l.14.14v.13a.7.7,0,0,0-.54.67A6.2,6.2,0,0,1,351,16.14a8.55,8.55,0,0,1-1.65.29H349l-.13-.08v-.12a6.52,6.52,0,0,0,4.24-3,7,7,0,0,0,.44-1.36v-.14a.39.39,0,0,0-.2-.14h-1.76a3.38,3.38,0,0,1-.67.08l-.24-.31h0a16.91,16.91,0,0,1-2.56.87h-.24a.3.3,0,0,1-.16-.15V12a11.38,11.38,0,0,0,4-2.38l.27-.25v0l-.1-.09h-3.47l-.43.07h-.11l-.16-.26V9l.06-.05a10,10,0,0,0,2,.05h2.53a9.08,9.08,0,0,0,1.25-1.86V7.06h-1.45a1.4,1.4,0,0,1-.51.06l-.2-.26V6.78l.07,0a9.9,9.9,0,0,0,2,0h.2A6.64,6.64,0,0,0,354.28,5V4.54l-.07-.16V4.26A.22.22,0,0,1,354.38,4.11Zm-3.7.51H351a8.66,8.66,0,0,1,1.81.48.27.27,0,0,1,.17.13v.2c0,.05-.19.16-.64.34a14.59,14.59,0,0,1-4,2.83l-.06,0h-.21l-.16-.11V8.44a8.62,8.62,0,0,0,2.72-3.8Zm4.88,2.44a12.43,12.43,0,0,1-1.14,1.83v0l.1.08h2.42V9a5.3,5.3,0,0,1-.77-1.89Zm2.6-2.5h.3a6.6,6.6,0,0,1,2.79,1.1c.19,0,.36.31.54.77v.71a1.11,1.11,0,0,1-.77.62h-.51c-.51-.06-.86-.55-1-1.49A3.38,3.38,0,0,0,358,4.84l0,0V4.67Z"/></svg>