<?xml version="1.0" encoding="UTF-8"?>
<svg id="_圖層_1" data-name="圖層 1" xmlns="http://www.w3.org/2000/svg" xmlns:xlink="http://www.w3.org/1999/xlink" viewBox="0 0 160 160">
  <defs>
    <style>
      .cls-1 {
        filter: url(#outer-glow-1);
      }

      .cls-2 {
        fill: #fff;
      }

      .cls-2, .cls-3, .cls-4, .cls-5, .cls-6, .cls-7, .cls-8, .cls-9 {
        stroke-width: 0px;
      }

      .cls-3 {
        fill: url(#linear-gradient-2);
      }

      .cls-4 {
        fill: url(#radial-gradient-2);
      }

      .cls-5 {
        fill: #98d4de;
      }

      .cls-6 {
        fill: url(#radial-gradient);
      }

      .cls-10 {
        fill: url(#linear-gradient);
      }

      .cls-10, .cls-11 {
        stroke: #996b25;
        stroke-linecap: round;
        stroke-linejoin: round;
      }

      .cls-11 {
        fill: none;
      }

      .cls-7 {
        fill: url(#radial-gradient-3);
      }

      .cls-8 {
        fill: #77c8d5;
      }

      .cls-9 {
        fill: #d0eaef;
      }
    </style>
    <linearGradient id="linear-gradient" x1="64.47" y1="111.13" x2="105.44" y2="118.6" gradientUnits="userSpaceOnUse">
      <stop offset="0" stop-color="#f2ea23"/>
      <stop offset=".03" stop-color="#f2ea23"/>
      <stop offset=".24" stop-color="#f2ea23"/>
      <stop offset=".32" stop-color="#f0e222"/>
      <stop offset=".76" stop-color="#ecbb21"/>
    </linearGradient>
    <linearGradient id="linear-gradient-2" x1="29.77" y1="73.93" x2="133" y2="73.93" gradientUnits="userSpaceOnUse">
      <stop offset="0" stop-color="#f2ea23"/>
      <stop offset=".14" stop-color="#ecbb21"/>
      <stop offset=".28" stop-color="#f2ea23"/>
      <stop offset=".42" stop-color="#ecbb21"/>
      <stop offset=".56" stop-color="#f2ea23"/>
      <stop offset=".7" stop-color="#ecbb21"/>
      <stop offset=".84" stop-color="#f2ea23"/>
      <stop offset="1" stop-color="#ecbb21"/>
    </linearGradient>
    <filter id="outer-glow-1" filterUnits="userSpaceOnUse">
      <feOffset dx="0" dy="0"/>
      <feGaussianBlur result="blur" stdDeviation="3"/>
      <feFlood flood-color="#fff" flood-opacity=".75"/>
      <feComposite in2="blur" operator="in"/>
      <feComposite in="SourceGraphic"/>
    </filter>
    <radialGradient id="radial-gradient" cx="7.21" cy="69.61" fx="7.21" fy="69.61" r="4.4" gradientTransform="translate(86.81 18.3) rotate(6.4) scale(1 .9)" gradientUnits="userSpaceOnUse">
      <stop offset="0" stop-color="#fff"/>
      <stop offset=".24" stop-color="#fff" stop-opacity=".71"/>
      <stop offset=".52" stop-color="#fff" stop-opacity=".41"/>
      <stop offset=".74" stop-color="#fff" stop-opacity=".19"/>
      <stop offset=".91" stop-color="#fff" stop-opacity=".05"/>
      <stop offset="1" stop-color="#fff" stop-opacity="0"/>
    </radialGradient>
    <radialGradient id="radial-gradient-2" cx="642.15" cy="937.61" fx="642.15" fy="937.61" r="3.37" gradientTransform="translate(-771 726) rotate(-89.33) scale(1 .9)" xlink:href="#radial-gradient"/>
    <radialGradient id="radial-gradient-3" cx="511.54" cy="360.25" fx="511.54" fy="360.25" r="3.44" gradientTransform="translate(-524.16 186.16) rotate(-41.96) scale(1 .9)" xlink:href="#radial-gradient"/>
  </defs>
  <circle class="cls-2" cx="80" cy="80" r="80"/>
  <g>
    <g>
      <path class="cls-10" d="m106.23,119.5s-.02-14.24-24.83-14.24-24.86,14.28-24.86,14.28l49.69-.04Z"/>
      <g>
        <path class="cls-3" d="m124.89,66.89c4.47,0,8.11,3.62,8.11,8.1s-3.63,8.1-8.11,8.1c-2.26,0-4.31-.94-5.78-2.44l-12.78,26.57s-4.32-10.19-24.95-10.19-25.28,10.62-25.28,10.62l-12.68-25.97c-1.45,1.36-3.4,2.21-5.55,2.21-4.47,0-8.11-3.63-8.11-8.11s3.63-8.1,8.11-8.1,8.1,3.62,8.1,8.1c0,.81-.12,1.58-.34,2.32l12.47,6.43,1.86-17.75c-.72.2-1.47.32-2.25.32-4.47,0-8.1-3.62-8.1-8.1s3.62-8.1,8.1-8.1,8.1,3.62,8.1,8.1c0,2.11-.82,4.02-2.13,5.47l8.9,10.75,5.64-19.03c-3.55-.86-6.18-4.04-6.18-7.86,0-4.46,3.62-8.1,8.1-8.1s8.1,3.63,8.1,8.1c0,3.78-2.58,6.94-6.09,7.84l7.43,18.94,8.58-10.93c-1.16-1.4-1.86-3.21-1.86-5.17,0-4.47,3.62-8.1,8.1-8.1s8.11,3.62,8.11,8.1-3.63,8.1-8.11,8.1c-.88,0-1.73-.15-2.53-.41l2.29,17.52,12.98-6.95c-.21-.72-.33-1.48-.33-2.27,0-4.47,3.62-8.1,8.1-8.1Z"/>
        <path class="cls-11" d="m124.89,66.89c-4.47,0-8.1,3.62-8.1,8.1,0,.79.12,1.55.33,2.27l-12.98,6.95-2.29-17.52c.8.27,1.65.41,2.53.41,4.47,0,8.11-3.62,8.11-8.1s-3.63-8.1-8.11-8.1-8.1,3.62-8.1,8.1c0,1.96.7,3.76,1.86,5.17l-8.58,10.93-7.43-18.94c3.5-.9,6.09-4.06,6.09-7.84,0-4.46-3.62-8.1-8.1-8.1s-8.1,3.63-8.1,8.1c0,3.82,2.63,7,6.18,7.86l-5.64,19.03-8.9-10.75c1.32-1.45,2.13-3.36,2.13-5.47,0-4.47-3.62-8.1-8.1-8.1s-8.1,3.62-8.1,8.1,3.62,8.1,8.1,8.1c.78,0,1.53-.12,2.25-.32l-1.86,17.75-12.47-6.43c.22-.73.34-1.51.34-2.32,0-4.47-3.62-8.1-8.1-8.1s-8.11,3.62-8.11,8.1,3.63,8.11,8.11,8.11c2.15,0,4.1-.85,5.55-2.21l12.68,25.97s4.65-10.62,25.28-10.62,24.95,10.19,24.95,10.19l12.78-26.57c1.47,1.5,3.52,2.44,5.78,2.44,4.47,0,8.11-3.62,8.11-8.1s-3.63-8.1-8.11-8.1Z"/>
      </g>
    </g>
    <g class="cls-1">
      <g>
        <polygon class="cls-9" points="79.99 81.37 75.79 81.37 72.55 85.04 76.76 85.04 79.99 81.37"/>
        <polygon class="cls-9" points="81.16 94.67 76.69 85.18 72.5 85.18 81.16 94.67"/>
        <polygon class="cls-8" points="81.45 94.67 90.11 85.18 85.92 85.18 81.45 94.67"/>
        <polygon class="cls-8" points="86.83 81.37 82.61 81.37 85.85 85.04 90.06 85.04 86.83 81.37"/>
        <polygon class="cls-5" points="82.47 81.37 80.14 81.37 76.9 85.04 85.71 85.04 82.47 81.37"/>
        <polygon class="cls-5" points="81.3 94.67 85.78 85.18 76.83 85.18 81.3 94.67"/>
      </g>
      <path class="cls-6" d="m84.7,85.54c1.94-3.52,1.65-4.53-1.87-6.48,3.52,1.94,4.53,1.65,6.47-1.87-1.94,3.52-1.65,4.53,1.87,6.47-3.52-1.94-4.53-1.65-6.47,1.87Z"/>
      <path class="cls-4" d="m83.63,95.22c-2.83-1.21-3.57-.91-4.78,1.92,1.21-2.83.91-3.57-1.92-4.78,2.83,1.21,3.57.91,4.78-1.92-1.21,2.83-.91,3.57,1.92,4.78Z"/>
      <path class="cls-7" d="m74.28,88.69c-1.05-2.96-1.8-3.32-4.76-2.27,2.96-1.05,3.32-1.79,2.27-4.75,1.05,2.96,1.79,3.32,4.75,2.27-2.96,1.05-3.31,1.79-2.26,4.75Z"/>
    </g>
  </g>
</svg>