<?xml version="1.0" encoding="UTF-8"?>
<svg id="_圖層_1" data-name="圖層 1" xmlns="http://www.w3.org/2000/svg" viewBox="0 0 300.24 300.24">
  <defs>
    <style>
      .cls-1 {
        fill: #465b6e;
      }

      .cls-1, .cls-2, .cls-3, .cls-4 {
        stroke-width: 0px;
      }

      .cls-2 {
        fill: #fccddc;
      }

      .cls-3 {
        fill: #fff;
      }

      .cls-4 {
        fill: #8588ab;
      }
    </style>
  </defs>
  <g>
    <g id="Kanban_board" data-name="Kanban board">
      <path class="cls-2" d="m54.11,151.92c17.3-17.62-15.29-50.42-7.19-74.13,10.91-31.91,99.66-59.28,159.4-24.53,50.03,29.1,67.4,94.59,45.54,121.06-6.54,7.92-14.68,10.03-25.37,18.32-9.94,7.71-11.06,9.67-11.78,11.02-7.07,13.24,7.8,24.85,4.81,36.21-4.73,17.94-52.03,27.51-91.59,21.44-10.67-1.64-64.72-11.16-84.6-50.71-1.54-3.06-16.1-32.62-2.4-49.06,4.75-5.7,8.57-4.9,13.18-9.6Z"/>
    </g>
    <g>
      <g>
        <path class="cls-1" d="m57.62,110.34c-.06,0-.12-.01-.18-.04-.2-.1-.28-.35-.18-.55,4.67-9.28,10.7-17.78,17.93-25.28,7.24-7.51,15.54-13.85,24.65-18.85.2-.11.45-.04.55.16.11.2.04.45-.16.55-18.27,10.02-32.88,25.16-42.25,43.78-.07.14-.22.22-.37.22Z"/>
        <path class="cls-1" d="m88.59,239.1c-.08,0-.17-.03-.24-.08-25.38-18.66-40.67-47.4-41.95-78.84,0-.23.17-.42.39-.42.22-.01.42.17.42.39,1.27,31.19,16.44,59.7,41.62,78.21.18.13.22.39.09.57-.08.11-.2.17-.33.17Z"/>
      </g>
      <path class="cls-1" d="m246.48,213.72s-.1,0-.15-.03c-.21-.08-.32-.32-.24-.53,5.88-15.44,5.56-34.59,4.26-47.94-1.41-14.48-4.25-25.43-4.28-25.54-.06-.22.07-.44.29-.5.22-.06.44.07.5.29.03.11,2.88,11.12,4.3,25.66,1.31,13.43,1.62,32.72-4.31,48.31-.06.16-.22.26-.38.26Z"/>
      <path class="cls-1" d="m96.14,246.57c-1.85,0-3.36-1.51-3.36-3.36s1.51-3.36,3.36-3.36,3.36,1.51,3.36,3.36-1.51,3.36-3.36,3.36Zm0-5.9c-1.4,0-2.54,1.14-2.54,2.54s1.14,2.54,2.54,2.54,2.54-1.14,2.54-2.54-1.14-2.54-2.54-2.54Z"/>
      <path class="cls-1" d="m244.72,219.59c-.09,0-.18,0-.27-.02-.45-.07-.84-.31-1.11-.68-.26-.37-.37-.82-.3-1.26.15-.92,1.02-1.55,1.95-1.4.45.07.84.32,1.11.68.26.37.37.82.3,1.26h0c-.13.83-.86,1.42-1.68,1.42Zm0-2.57c-.43,0-.8.31-.87.74-.04.23.02.46.15.65.14.19.34.32.58.35.48.08.94-.25,1.01-.73.04-.23-.02-.46-.15-.65-.14-.19-.34-.32-.58-.36-.05,0-.1-.01-.14-.01Zm1.28,1.08h0,0Z"/>
      <path class="cls-1" d="m50.44,163.47s-.1,0-.15-.03c-.14-.05-.24-.18-.26-.33l-.43-3.66c-.02-.14.04-.28.15-.37.11-.09.26-.11.39-.07,1.62.57,3.2,1.29,3.22,1.29.13.06.22.18.24.31.02.14-.03.28-.14.37l-2.76,2.38c-.08.07-.17.1-.27.1Zm.05-3.46l.26,2.24,1.68-1.45c-.47-.2-1.18-.5-1.95-.79Z"/>
      <path class="cls-1" d="m61.97,93.02s-.09,0-.13,0c-.23,0-.41-.19-.4-.41,0-.22.19-.4.41-.4h0c1.23.02,2.05-.23,2.35-.72.31-.49.09-1.2-.13-1.89-.25-.8-.5-1.62.02-2.24.52-.63,1.41-.52,2.19-.41.67.09,1.31.17,1.61-.16.36-.39.18-1.21,0-2-.21-.92-.42-1.87.22-2.39.49-.4,1.1-.22,1.63-.06.47.14.91.28,1.26.06.33-.2.4-.6.49-1.28.08-.58.18-1.3.58-2,.71-1.24,2.17-2.07,4.34-2.46.22-.04.43.11.47.33s-.11.43-.33.47c-1.92.35-3.19,1.04-3.77,2.06-.32.56-.4,1.14-.48,1.7-.1.71-.2,1.45-.88,1.87-.66.4-1.36.19-1.92.02-.45-.13-.73-.21-.87-.09-.25.2-.08.94.06,1.58.22.96.46,2.04-.2,2.74-.6.64-1.51.52-2.32.41-.63-.08-1.22-.16-1.46.12-.23.28-.06.86.14,1.48.26.83.55,1.76.03,2.57-.47.74-1.43,1.1-2.92,1.1Z"/>
      <path class="cls-1" d="m90.74,236.43c-.07,0-.15-.02-.22-.06-13.19-8.27-20.76-21.82-20.84-21.96-.11-.2-.04-.45.16-.56.2-.11.45-.04.55.16.07.13,7.55,13.51,20.56,21.66.19.12.25.37.13.56-.08.12-.21.19-.35.19Z"/>
      <path class="cls-1" d="m254.98,194.19s-.05,0-.08,0c-.22-.04-.37-.26-.33-.48,3.29-17.49-1.75-39.87-1.8-40.1-.05-.22.09-.44.31-.49.22-.05.44.09.49.31.05.23,5.12,22.77,1.81,40.43-.04.2-.21.33-.4.33Z"/>
    </g>
  </g>
  <g>
    <path class="cls-2" d="m219.71,111.41c-1.28,2.54-3.04,4.86-4.92,6.98-3.52,3.99-7.69,7.33-12,10.44-4.46-2.11-7.44-7.36-5.94-12.26.44-1.44,1.33-2.65,2.25-3.82,1.01-1.29,2.03-2.58,3.05-3.87,1.84-2.34,3.62-4.83,5.88-6.79,1.95-1.68,4.35-2.85,6.97-2.77,1.18.04,2.35.35,3.34,1,1.11.73,1.9,1.86,2.34,3.11.94,2.68.27,5.53-.97,7.99Z"/>
    <g>
      <path class="cls-1" d="m240.06,98.08s-4.35.82-9.14.88c-5.18.07-108.98-3.38-130.75-4.11-2.23-.07-4.12,1.62-4.31,3.84h0c-.19,2.31,1.53,4.34,3.84,4.52,22.29,1.74,126.11,9.83,131.1,10.34,5.59.57,8.98,1.71,8.98,1.71,0,0,15.19-6.22,16.32-6.96,1.35-.89,1.19-3.14-.37-3.75-1.55-.62-15.67-6.47-15.67-6.47Z"/>
      <path class="cls-4" d="m240.07,114.62c-1.64-4-2-8.47-1.06-12.69.27-1.2.65-2.38,1.13-3.51.16-.39-.43-.67-.6-.28-1.73,4.1-2.15,8.7-1.22,13.05.27,1.25.64,2.47,1.13,3.65.16.39.78.17.62-.22h0Z"/>
      <path class="cls-4" d="m250.77,110.28c-.97-2.37-.97-5.08.03-7.45.16-.39-.43-.67-.6-.28-1.06,2.52-1.08,5.41-.05,7.94.16.39.78.18.62-.22h0Z"/>
      <path class="cls-1" d="m256.1,107.69c.75-.04,1.5-.08,2.25-.11.25-.01.52-.16.67-.35s.26-.48.23-.72c-.03-.25-.14-.51-.35-.67-.21-.16-.45-.25-.72-.23l-2.25.11c-.25.01-.52.16-.67.35s-.26.48-.23.72c.03.25.14.51.35.67.21.16.45.25.72.23h0Z"/>
    </g>
    <g>
      <path class="cls-3" d="m226.86,93.87c-5.23-2.22-10.56-4.24-15.95-6.04-1.25-.42-13.1-2.91-14.38-3.23-7.46-1.88-14.82-4.08-22.25-6.02-2.19-.49-4.42-.75-6.65-.41-2.04.31-3.85,1.2-5.58,2.29-1.77,1.12-4.32,3.34-6.05,4.52-6.96,4.76-9.11,6.75-15.62,12.11-3.67,3.01-11.25,9.01-14.47,11.84-4.38,3.85-7.86,8.86-10.1,14.21-1.86,4.45-3.11,9.13-4.19,13.83-1.17,5.11-2.24,10.25-3.36,15.37-1.06,4.89-2.13,9.79-3.19,14.68-.82,1.13-18.04,20.09-24.58,27.26-.79.87-.91,2.16-.28,3.16,4.82,7.73,8.84,13.03,15.33,19.04,3.42,3.18,11.93,8.52,17,11.34,1,.56,2.25.4,3.08-.4,6.46-6.22,24.65-27.28,25.55-28.16.79-.78,3.66-1.09,4.78-1.54,1.86-.76,3.66-1.68,5.36-2.75,2.92-1.84,5.33-4.16,7.55-6.79,5.8-6.89,9.87-15.19,14.2-23.03,1.86-3.36,3.68-6.74,5.49-10.13.02.03.03.06.05.09,1.28,1.8,3.49,3.31,5.79,3.04,2.53-.3,3.9-2.59,4.77-4.74,1.18-2.9,2.24-5.86,3.36-8.79.92-2.41,1.84-4.83,2.76-7.24.3.6.62,1.21.94,1.8,1.24,2.23,2.88,4.42,5.4,5.25,2.29.75,4.75.09,6.04-2.01,1.39-2.24,1.06-4.97.39-7.39-.46-1.66-1-3.29-1.46-4.95-.18-.65-.35-1.3-.52-1.95-.38-3.62-.59-7.27-1.76-10.74-1.76-5.19-6.02-8.93-9.72-12.77-.96-1-1.92-1.99-2.89-2.99,4.01.23,8.02.51,12.02.85,3.37.28,6.73.6,10.09.95,2.98.31,6.03.85,9.03.52,2.08-.23,4.09-.58,5.74-1.93,1.12-.91,2.66-2.25,2.78-3.79.2-2.55-2.64-3.55-4.52-4.35Z"/>
      <path class="cls-1" d="m140.07,192.26c4.4-5.33,8.04-11.32,10.32-17.87,2.05-5.91,2.96-12.15,2.91-18.4-.03-3.66-.36-7.31-.91-10.92-.06-.42-.72-.37-.66.05.95,6.25,1.26,12.61.43,18.89-.83,6.28-2.82,12.35-5.84,17.92-1.91,3.52-4.21,6.81-6.75,9.9-.27.33.23.76.5.43h0Z"/>
      <path class="cls-1" d="m128.16,143.23c1.2-2.43,2.73-5.4,5.74-5.79.42-.05.37-.71-.05-.66-3.27.42-4.97,3.5-6.28,6.17-.19.38.41.66.6.28h0Z"/>
      <path class="cls-1" d="m121.96,128.48c.13-2.63,1.14-5.14,2.87-7.11.28-.32-.22-.75-.5-.43-1.81,2.05-2.89,4.69-3.02,7.42-.02.42.63.54.65.11h0Z"/>
      <path class="cls-1" d="m195.77,137.07c.29-1.24.53-2.52.42-3.8-.09-1.09-.41-2.23-.9-3.2-.56-1.1-1.47-2.07-2.27-3-2.9-3.38-6.02-6.59-9.17-9.75-1.52-1.53-3.06-3.05-4.63-4.53-1.13-1.07-2.25-2.21-3.6-3-1.81-1.05-3.95-1.59-6.04-1.37-1.31.13-2.56.56-3.7,1.2-1.6.9-3.15,1.9-4.69,2.89-6.28,4.03-12.3,8.46-18.38,12.77-.76.54-1.52,1.07-2.28,1.61-.35.24.02.79.37.55,5.98-4.19,11.85-8.55,17.93-12.59,1.5-1,3.02-1.98,4.55-2.93,1.38-.86,2.76-1.84,4.3-2.38,2.12-.75,4.44-.59,6.5.29,1.46.62,2.59,1.6,3.74,2.67,1.45,1.35,2.87,2.73,4.27,4.13,3.18,3.15,6.31,6.36,9.29,9.71.99,1.11,2,2.24,2.85,3.47.4.58.6,1.07.83,1.78.37,1.12.47,2.28.33,3.45-.08.66-.22,1.31-.37,1.96-.1.41.55.53.65.11h0Z"/>
      <path class="cls-1" d="m152.24,145.37c4.36-3.54,8.73-7.1,12.71-11.07,1.13-1.12,2.22-2.28,3.27-3.48.28-.32-.22-.75-.5-.43-3.68,4.18-7.86,7.86-12.15,11.41-1.23,1.02-2.47,2.02-3.7,3.03-.33.27.04.81.37.55h0Z"/>
      <path class="cls-1" d="m178.75,154.68c-.63-1.01-1.09-2.12-1.25-3.31-.15-1.15-.03-2.31.17-3.44.5-2.88,1.45-5.66,2.51-8.38.6-1.54,1.24-3.07,1.87-4.6.16-.39-.44-.67-.6-.28-1.17,2.85-2.37,5.68-3.3,8.62-.45,1.41-.83,2.85-1.1,4.31-.22,1.21-.37,2.44-.24,3.66.15,1.36.66,2.63,1.38,3.79.22.36.77-.01.55-.37h0Z"/>
      <path class="cls-1" d="m200.58,111.18c1.9,1.72,3.08,3.94,3.66,6.42.66,2.83,1.03,5.73,1.37,8.61.05.42.71.37.66-.05-.35-2.98-.73-5.99-1.44-8.91-.61-2.54-1.87-4.81-3.82-6.57-.32-.29-.74.22-.43.5h0Z"/>
      <path class="cls-1" d="m163.54,124.79c1.06,2.29,2.38,4.33,4.22,6.06.03-.19.07-.38.1-.56h0c-.23.09-.31.4-.1.56,3.82,3.02,8.36,4.97,12.75,7.01.38.18.66-.42.28-.6-4.33-2.02-8.82-3.93-12.6-6.91-.03.19-.07.38-.1.56h0c.24-.09.29-.39.1-.56-1.76-1.65-3.02-3.59-4.03-5.78-.18-.38-.8-.17-.62.22h0Z"/>
      <path class="cls-1" d="m133.69,116.71c4.31-3.4,8.65-6.77,13.04-10.06,4.25-3.19,8.55-6.31,12.9-9.36,2.29-1.61,4.64-3.14,6.91-4.77,1.75-1.25,3.7-2.22,5.83-2.6,3.11-.56,6.48.08,9,2.03,1.52,1.17,2.9,2.53,4.27,3.88,1.62,1.59,3.2,3.23,4.76,4.87.37.39.74.78,1.11,1.17.29.31.72-.2.43-.5-3.01-3.18-6.01-6.44-9.35-9.28-1.12-.95-2.3-1.74-3.69-2.25-1.59-.59-3.29-.85-4.98-.76-2.02.1-3.98.69-5.75,1.64-1.12.59-2.13,1.35-3.17,2.06-1.17.8-2.34,1.61-3.51,2.42-4.5,3.12-8.94,6.31-13.33,9.57-4.42,3.29-8.79,6.65-13.12,10.05-.57.45-1.14.89-1.7,1.34-.33.26.04.81.37.55h0Z"/>
      <path class="cls-1" d="m103.89,175.56c.98-3.29,1.74-6.65,2.29-10.04.07-.42-.58-.54-.65-.12-.54,3.39-1.31,6.75-2.29,10.04-.12.41.53.52.65.11h0Z"/>
      <path class="cls-1" d="m205.93,142.61c-1.24-2.73-2.25-5.59-2.91-8.52-.3-1.33-.51-2.81-.04-4.13.41-1.14,1.34-2.17,2.6-2.31.42-.05.37-.71-.05-.66-2.16.25-3.37,2.38-3.46,4.39-.05,1.17.18,2.33.46,3.46.32,1.3.7,2.58,1.13,3.84.48,1.41,1.04,2.79,1.65,4.14.18.38.8.17.62-.22h0Z"/>
      <path class="cls-1" d="m184.21,156.22c1.44-4.41,3.17-9.52,7.69-11.66.38-.18.17-.8-.22-.62-4.72,2.23-6.56,7.38-8.07,12.01-.13.4.47.68.6.28h0Z"/>
      <path class="cls-1" d="m217.09,90.91c2,3.67,6.03,6.07,10.02,6.98,1.12.26,2.27.39,3.42.38.43,0,.37-.66-.05-.66-2.57.02-5.12-.72-7.38-1.92-2.23-1.19-4.24-2.91-5.46-5.15-.2-.37-.75,0-.55.37h0Z"/>
    </g>
  </g>
</svg>