<?xml version="1.0" encoding="UTF-8"?>
<svg id="_圖層_1" data-name="圖層 1" xmlns="http://www.w3.org/2000/svg" xmlns:xlink="http://www.w3.org/1999/xlink" viewBox="0 0 160 160">
  <defs>
    <style>
      .cls-1 {
        fill: url(#linear-gradient);
      }

      .cls-1, .cls-2, .cls-3, .cls-4 {
        stroke-width: 0px;
      }

      .cls-2 {
        fill: #b10000;
      }

      .cls-3 {
        fill: #fff;
      }

      .cls-4 {
        fill: url(#linear-gradient-2);
      }
    </style>
    <linearGradient id="linear-gradient" x1="127.97" y1="24.3" x2="46.6" y2="111.22" gradientUnits="userSpaceOnUse">
      <stop offset="0" stop-color="#fac859"/>
      <stop offset="0" stop-color="#facb63"/>
      <stop offset="0" stop-color="#fbd075"/>
      <stop offset=".02" stop-color="#fbd482"/>
      <stop offset=".03" stop-color="#fbd789"/>
      <stop offset=".05" stop-color="#fcd88c"/>
      <stop offset=".06" stop-color="#fbd680"/>
      <stop offset=".09" stop-color="#fbd162"/>
      <stop offset=".12" stop-color="#fac932"/>
      <stop offset=".14" stop-color="#fac61c"/>
      <stop offset=".15" stop-color="#e5b417"/>
      <stop offset=".16" stop-color="#c99a10"/>
      <stop offset=".18" stop-color="#b1850b"/>
      <stop offset=".21" stop-color="#9f7507"/>
      <stop offset=".23" stop-color="#926a04"/>
      <stop offset=".27" stop-color="#8b6302"/>
      <stop offset=".35" stop-color="#896202"/>
      <stop offset=".62" stop-color="#fac859"/>
      <stop offset=".65" stop-color="#facb64"/>
      <stop offset=".71" stop-color="#fbd481"/>
      <stop offset=".73" stop-color="#fcd88c"/>
      <stop offset=".75" stop-color="#fbd480"/>
      <stop offset=".79" stop-color="#facb63"/>
      <stop offset=".8" stop-color="#fac859"/>
      <stop offset=".81" stop-color="#f2c052"/>
      <stop offset=".85" stop-color="#cc9e35"/>
      <stop offset=".89" stop-color="#ae841f"/>
      <stop offset=".93" stop-color="#99710f"/>
      <stop offset=".96" stop-color="#8d6505"/>
      <stop offset="1" stop-color="#896202"/>
    </linearGradient>
    <linearGradient id="linear-gradient-2" x1="1254.98" y1="-2404.34" x2="1279.29" y2="-2404.34" gradientTransform="translate(680.2 2674.34) rotate(-41.45)" xlink:href="#linear-gradient"/>
  </defs>
  <circle class="cls-2" cx="80" cy="80" r="80"/>
  <g>
    <g>
      <path class="cls-1" d="m96.02,72.43h-12.79l4.72-14.39c.44-1.69-.83-3.35-2.57-3.35h-15.97c-1.33,0-2.46.99-2.64,2.31l-3.55,26.61c-.21,1.6,1.03,3.02,2.64,3.02h13.16l-5.11,21.56c-.4,1.69.89,3.27,2.58,3.27.93,0,1.82-.49,2.31-1.33l19.51-33.7c1.03-1.76-.24-3.99-2.3-3.99Z"/>
      <path class="cls-3" d="m94.55,35.28c-35.16,0-52.19,46.24-30.47,73.36,7.54,9.38,18.3,15.62,30.47,15.62,7.5,0,14.52-2.29,20.54-6.28-9.05,8.1-21.05,13.02-34.15,13.02-.81,0-1.65,0-2.46-.06-27.17-1.26-48.78-23.68-48.78-51.17s22.93-51.24,51.24-51.24h.17c13.04.06,24.94,4.98,33.96,13.04-5.99-4.01-13.04-6.28-20.52-6.28h0Zm21.03,82.16c-8.45,5.1-18.74,4.88-27.27-1.2,11.61-4.24,20.18-18.92,20.18-36.49s-8.51-32.19-20.12-36.49c8.64-6.03,18.84-6.26,27.46-1.03,21.88,20.39,21.8,54.89-.25,75.2Z"/>
    </g>
    <path class="cls-4" d="m44.21,24.46c-.75.67-.83,1.82-.16,2.57.18.2.39.35.62.45l-.97,3.05c-.21.65-.9,1-1.55.78l-5.9-2.01c.08-.52-.05-1.07-.43-1.5-.67-.75-1.82-.83-2.57-.16-.75.67-.83,1.82-.16,2.57.38.43.91.63,1.43.61l1.26,6.11c.14.67-.3,1.32-.97,1.44l-3.15.58c-.07-.24-.19-.47-.37-.67-.67-.75-1.82-.83-2.57-.16-.75.67-.83,1.82-.16,2.57.67.75,1.82.83,2.57.16.07-.07.14-.14.2-.22l6.9,3.67,10.93-9.65-2.79-7.3c.08-.05.17-.11.24-.17.75-.67.83-1.82.16-2.57-.67-.75-1.82-.83-2.57-.16Z"/>
  </g>
</svg>