<?xml version="1.0" encoding="UTF-8"?>
<svg id="_圖層_1" data-name="圖層 1" xmlns="http://www.w3.org/2000/svg" viewBox="0 0 1506.93 270.98">
  <defs>
    <style>
      .cls-1 {
        fill: #465b6e;
      }

      .cls-1, .cls-2, .cls-3 {
        stroke-width: 0px;
      }

      .cls-2 {
        fill: #46aeff;
        fill-rule: evenodd;
      }

      .cls-3 {
        fill: #ff6f9b;
      }

      .cls-4 {
        fill: none;
        stroke: #46aeff;
        stroke-linecap: round;
        stroke-miterlimit: 10;
        stroke-width: 19px;
      }
    </style>
  </defs>
  <g>
    <g>
      <circle class="cls-3" cx="99.04" cy="76.55" r="76.55"/>
      <path class="cls-2" d="m197.59,8.55c.13-2.29-2.02-4.03-4.23-3.42l-32.97,9.2c-2.62.73-3.31,4.11-1.2,5.82l6.38,5.14-27.97,34.67-14.12-11.39c-.18-.17-.37-.34-.57-.5h0c-2.65-2.14-5.97-2.91-9.11-2.42-2.77.43-5.39,1.84-7.27,4.17h0c-.15.19-.29.38-.43.58l-31.98,39.64-14.92-12.03c-4.98-4.01-12.33-3.23-16.34,1.75h0c-.63.78-1.14,1.62-1.54,2.5L2.56,130.33c-4.01,4.98-3.23,12.33,1.75,16.34h0c4.98,4.01,12.33,3.23,16.34-1.75l33.29-41.27,13.93,11.23c.56.45,1.15.84,1.77,1.17,4.92,3.19,11.61,2.2,15.36-2.46l32.34-40.1,7.7,6.21c.15.19.32.36.51.51l13,10.49c1.44,1.16,3.54.93,4.7-.5l40.51-50.23,6.37,5.14c2.11,1.71,5.27.31,5.43-2.4l2.02-34.17Z"/>
    </g>
    <g>
      <path class="cls-1" d="m242.78,135.77c-5.24-4.53-4.66-8.66,1.73-12.4,8.8-5.68,16.13-11.59,21.99-17.73,1.6-1.78,3.29-2.84,5.07-3.2,1.6-.27,3.6.09,6,1.07,6.93,2.75,7.77,6.75,2.53,12-2.84,2.84-6.58,6.18-11.2,10-5.06,4.18-10.08,7.91-15.06,11.2-3.91,2.4-7.6,2.09-11.06-.93Zm15.33-42.92c-2.58,0-4.66-.8-6.26-2.4-1.6-1.6-2.4-3.69-2.4-6.26v-51.71c0-2.58.8-4.67,2.4-6.26,1.6-1.6,3.69-2.4,6.26-2.4h75.84c2.58,0,4.67.8,6.26,2.4s2.4,3.69,2.4,6.26v51.71c0,2.58-.8,4.67-2.4,6.26-1.6,1.6-3.69,2.4-6.26,2.4h-75.84Zm10.4-15.19h54.64c2.13,0,3.2-1.07,3.2-3.2v-32.25c0-2.13-1.07-3.2-3.2-3.2h-54.64c-2.13,0-3.2,1.07-3.2,3.2v32.25c0,2.13,1.07,3.2,3.2,3.2Zm65.71,58.24c-5.86-5.95-13.64-12.79-23.32-20.52-5.24-4.09-5.15-7.91.27-11.46,3.38-2.13,6.58-2.13,9.6,0,5.6,4.09,10.71,7.95,15.33,11.59.62.53,1.51,1.29,2.67,2.27,3.91,3.11,6.71,5.46,8.4,7.06,4.09,4.09,3.51,7.86-1.73,11.33-2.31,1.6-4.26,2.4-5.86,2.4-1.78.09-3.55-.8-5.33-2.67Z"/>
      <path class="cls-1" d="m373.53,134.97c-2.4-5.51.22-8.48,7.86-8.93,12.71-.8,23.37-2.35,31.99-4.67-.45-.09-1.07-.22-1.87-.4-4.8-1.24-8.44-2.13-10.93-2.67l-.13.27c-.89,1.07-2.27,1.33-4.13.8-3.46-1.07-5.86-2.53-7.2-4.4-1.6-2.13-1.47-4.4.4-6.8.44-.71,1.2-1.78,2.27-3.2,1.42-2.04,2.49-3.6,3.2-4.66h-20.92c-4.26,0-6.4-2.13-6.4-6.4s2.13-6.4,6.4-6.4h29.46c2.13-3.29,3.87-6.13,5.2-8.53h-23.99c-2.58,0-4.67-.8-6.26-2.4s-2.4-3.69-2.4-6.26v-19.99c0-2.58.8-4.67,2.4-6.26,1.6-1.6,3.69-2.4,6.26-2.4h19.99v-7.6h-27.99c-4.53,0-6.8-2.31-6.8-6.93s2.27-6.8,6.8-6.8h101.42c4.53,0,6.8,2.27,6.8,6.8s-2.27,6.93-6.8,6.93h-29.05v7.6h22.92c2.58,0,4.67.8,6.26,2.4,1.6,1.6,2.4,3.69,2.4,6.26v19.99c0,2.58-.8,4.67-2.4,6.26-1.6,1.6-3.69,2.4-6.26,2.4h-45.31c-.8,1.42-2.13,3.56-4,6.4-.62.98-1.07,1.69-1.33,2.13h60.24c4.26,0,6.4,2.13,6.4,6.4s-2.13,6.4-6.4,6.4h-18.93c-3.11,6.58-7.2,12.26-12.26,17.06,10.75,3.02,19.19,5.6,25.32,7.73,2.93.98,4.58,2.31,4.93,4,.27,1.51-.62,3.6-2.67,6.26-1.42,1.87-2.76,3.07-4,3.6-1.51.53-3.24.4-5.2-.4-10.31-3.91-21.33-7.6-33.05-11.06-11.64,5.86-28.88,9.91-51.71,12.13-5.42.53-8.93-1.02-10.53-4.67Zm20.53-68.37h10.66v-12.39h-10.8c-2.04,0-3.07,1.02-3.07,3.07v6.13c0,2.13,1.07,3.2,3.2,3.2Zm39.18,46.11c4.98-3.46,9.02-7.6,12.13-12.39h-32.25l-4.53,6.53c7.64,1.6,15.86,3.55,24.66,5.86Zm-13.73-71.04h14.93v-7.6h-14.93v7.6Zm0,24.92h14.93v-12.39h-14.93v12.39Zm29.59,0h12.66c2.13,0,3.2-1.07,3.2-3.2v-6c0-2.13-1.07-3.2-3.2-3.2h-12.66v12.39Z"/>
      <path class="cls-1" d="m525.07,93.52c-5.06,0-7.6-2.49-7.6-7.46v-30.52l-3.6,3.6c-4.27,3.73-7.95,3.47-11.06-.8-1.69-2.31-2.4-4.38-2.13-6.2.27-1.82,1.51-3.62,3.73-5.4,8.53-7.55,15.59-15.99,21.19-25.32,2.13-3.91,5.33-5.11,9.6-3.6,4.98,1.78,6.22,4.93,3.73,9.46-2.13,3.64-4.26,6.93-6.4,9.86v48.91c0,4.98-2.49,7.46-7.46,7.46Zm-17.73,39.05c-5.24-3.64-5.6-7.64-1.07-12,3.29-3.82,6-8.4,8.13-13.73,1.69-5.15,4.97-6.88,9.86-5.2,4.44,1.51,6,4.53,4.67,9.06-1.6,4.53-3.2,8.22-4.8,11.06-2.22,4.09-4.58,7.46-7.06,10.13-3.11,2.84-6.35,3.07-9.73.67Zm46.91,5.06c-8.35,0-13.99-1.29-16.93-3.86-2.76-2.49-4.13-7.24-4.13-14.26v-13.06c0-5.15,2.62-7.73,7.86-7.73s7.73,2.58,7.73,7.73v12.79c0,1.96.42,3.18,1.27,3.67.84.49,2.78.73,5.8.73h17.99c1.51,0,2.67-.22,3.46-.67,2.13-8.26,5.95-11.28,11.46-9.06,1.95.8,3.2,2.53,3.73,5.2.44,2.13.44,4.58,0,7.33-1.25,4.27-3.2,7.24-5.86,8.93-2.58,1.51-6.4,2.27-11.46,2.27h-20.92Zm7.2-29.72c-3.11-2.84-6.44-5.51-10-8-4.8-3.2-5.11-6.62-.93-10.26,2.75-2.31,5.64-2.62,8.66-.93.8.45,2,1.2,3.6,2.27-.71-2.58-1.38-4.66-2-6.26-1.42-3.11.04-4.62,4.4-4.53h5.33c1.42-.09,2.13-.75,2.13-2v-37.72h-13.46c-2.4,3.73-4.8,7.02-7.2,9.86-1.69,1.78-3.31,2.73-4.86,2.87-1.56.13-3.27-.6-5.13-2.2-2.22-1.95-3.33-3.84-3.33-5.66s1.02-3.75,3.06-5.8c4-4.62,7.46-10.22,10.4-16.79,1.69-4.71,4.84-6.44,9.46-5.2,4.97,1.16,6.62,4.22,4.93,9.2l-.13.13-.13.27h45.45c3.02,0,5.15.91,6.4,2.73,1.24,1.82,1.42,4.33.53,7.53-1.69,5.24-3.38,9.73-5.06,13.46-.45.98-1.29,1.73-2.53,2.27-1.25.53-2.58.67-4,.4l-.4-.13c4.35,7.2,7.55,13.06,9.6,17.59.8,2.04.89,3.78.27,5.2-.71,1.25-2.13,2.4-4.26,3.47-2.49,1.16-4.44,1.56-5.86,1.2-1.6-.44-2.89-1.87-3.87-4.26-1.96-4.62-4.44-9.64-7.46-15.06-1.25-2.13-1.55-4.18-.93-6.13.62-1.95,2.09-3.47,4.4-4.53l.4-.13c.8-1.87,2.09-5.29,3.87-10.26h-15.06v37.98c0,3.64-.36,6.35-1.07,8.13-.89,2.13-2.49,3.73-4.8,4.8-2.4,1.25-6.09,2-11.06,2.27-2.58.09-2.93.85-1.07,2.27.62.45,1.47,1.11,2.53,2,3.38,3.29,3.24,6.53-.4,9.73-2.04,1.78-3.82,2.71-5.33,2.8-1.6.09-3.29-.75-5.06-2.53Zm-10.66-28.52c-1.6.27-3.38-.27-5.33-1.6-2.4-1.6-3.69-3.24-3.87-4.93-.18-1.69.71-3.64,2.67-5.86,2.67-3.46,4.97-7.11,6.93-10.93,1.87-4.17,5.02-5.64,9.46-4.4,5.06,1.33,6.53,4.31,4.4,8.93-1.33,2.67-2.89,5.42-4.67,8.26-2.13,3.38-3.78,5.82-4.93,7.33-1.51,1.87-3.07,2.93-4.67,3.2Zm59.18,52.91c-1.87-.36-3.38-1.82-4.53-4.4-3.29-5.78-7.42-11.55-12.4-17.33-4.09-4.53-3.6-8.22,1.47-11.06,3.46-1.87,6.57-1.51,9.33,1.07,3.46,3.73,6.62,7.42,9.46,11.06,3.02,4.09,5.15,7.2,6.4,9.33,2.04,4,.93,7.2-3.33,9.6-2.67,1.51-4.8,2.09-6.4,1.73Z"/>
      <path class="cls-1" d="m656.88,140.44c-4.98,0-7.46-2.49-7.46-7.46v-64.11c-.36.45-.89,1.13-1.6,2.07-.71.93-1.25,1.62-1.6,2.07-2.67,2.93-4.98,4.33-6.93,4.2-1.96-.13-3.78-1.89-5.46-5.26-1.25-2.4-1.73-4.53-1.47-6.4.27-1.87,1.33-3.78,3.2-5.73,9.77-10.93,17.68-23.37,23.72-37.32,1.95-4.8,5.24-6.4,9.86-4.8,5.07,1.69,6.58,5.02,4.53,10-.09.18-.22.53-.4,1.07h32.12v-4.4c0-5.15,2.62-7.73,7.86-7.73s7.73,2.58,7.73,7.73v4.4h27.72c4.8,0,7.2,2.4,7.2,7.2s-2.4,7.2-7.2,7.2h-27.72v9.33h22.79c2.58,0,4.67.8,6.26,2.4,1.6,1.6,2.4,3.69,2.4,6.26v21.59c0,2.58-.8,4.66-2.4,6.26-1.6,1.6-3.69,2.4-6.26,2.4h-23.59c-1.16,8.8-3.55,16.53-7.2,23.19,8.62,4.26,19.19,7.42,31.72,9.46,8.88,1.16,11.33,4.75,7.33,10.79-2.22,3.38-5.78,4.71-10.66,4-14.84-2.58-27.46-6.89-37.85-12.93-4.98,4.71-11.42,8.57-19.33,11.6-5.15,1.69-9.02.84-11.59-2.53-3.82-5.33-1.82-9.2,6-11.6,4.89-1.87,8.93-4.09,12.13-6.66-4.26-3.64-8.26-8.08-12-13.33-2.75-4.35-1.69-7.29,3.2-8.8,3.64-1.24,6.53-.27,8.66,2.93,2.31,3.02,5.33,6.04,9.06,9.06,2.4-4.53,4-9.6,4.8-15.19h-20.79c-2.58,0-4.67-.8-6.26-2.4s-2.4-3.69-2.4-6.26v-21.59c0-2.58.8-4.66,2.4-6.26s3.69-2.4,6.26-2.4h21.72v-9.33h-24.39c-2.58,0-4.67-.8-6.26-2.4-1.6-1.6-2.4-3.69-2.4-6.26v-3.6c-2.67,5.51-5.33,10.62-8,15.33v86.76c0,4.97-2.49,7.46-7.46,7.46Zm35.45-61.84h13.06v-13.19h-13.06c-2.13,0-3.2,1.07-3.2,3.2v6.8c0,2.13,1.07,3.2,3.2,3.2Zm28.65,0h13.19c2.13,0,3.2-1.07,3.2-3.2v-6.8c0-2.13-1.07-3.2-3.2-3.2h-13.19v13.19Z"/>
      <path class="cls-1" d="m857.2,139.37c-6.22,0-10.04-2.09-11.46-6.26-1.87-5.95,1.33-8.84,9.6-8.66h5.86c2.31,0,3.46-1.07,3.46-3.2v-19.99h-27.85v29.32c0,5.24-2.62,7.86-7.86,7.86s-7.86-2.62-7.86-7.86v-29.32h-26.92c-2.13,13.42-5.95,24.35-11.46,32.79-1.78,2.31-3.51,3.64-5.2,4-1.87.35-3.87-.36-6-2.13-4.35-3.46-4.58-7.86-.67-13.19,4.09-6.84,6.88-15.19,8.4-25.06.98-6.66,1.47-15.15,1.47-25.46v-38.92c0-2.58.8-4.67,2.4-6.26,1.6-1.6,3.69-2.4,6.26-2.4h82.23c2.58,0,4.67.8,6.26,2.4,1.6,1.6,2.4,3.69,2.4,6.26v88.1c0,4.26-.53,7.57-1.6,9.93-1.07,2.35-2.89,4.11-5.46,5.26-3.29,1.6-8.62,2.53-15.99,2.8Zm-61.44-53.04h25.32v-16.39h-24.92v2.4c0,4.35-.13,9.02-.4,13.99Zm.4-31.19h24.92v-15.46h-21.72c-2.13,0-3.2,1.07-3.2,3.2v12.26Zm40.65,0h27.85v-12.26c0-2.13-1.07-3.2-3.2-3.2h-24.66v15.46Zm0,31.19h27.85v-16.39h-27.85v16.39Z"/>
      <path class="cls-1" d="m905.05,122.18c-1.51-.8-2.76-2.75-3.73-5.86-1.78-5.51-.13-9.11,4.93-10.8.71-.27,1.87-.71,3.46-1.33,2.84-1.07,5.02-1.91,6.53-2.53l-1.33-38.92-.93-30.92c-.09-5.24,2.53-8,7.86-8.26,5.51-.27,8.31,2.31,8.4,7.73l2.13,63.97c1.33-.53,3.31-1.35,5.93-2.47,2.62-1.11,4.6-1.93,5.93-2.47,5.42-2.22,8.8-.44,10.13,5.33,1.07,4.62-.53,7.86-4.8,9.73-7.46,3.38-18.75,8.26-33.85,14.66-1.78.8-3.11,1.38-4,1.73-2.76,1.25-4.98,1.38-6.66.4Zm35.58,12.39c-4.89-5.51-3.24-10.17,4.93-13.99,13.68-7.28,24.21-17.68,31.59-31.19,7.55-13.77,12.66-32.43,15.33-55.98.35-3.02,1.33-5.38,2.93-7.06,1.69-1.78,3.93-2.53,6.73-2.27s4.82,1.42,6.06,3.46c1.24,1.96,1.69,4.44,1.33,7.46-2.93,23.72-7.91,42.92-14.93,57.58,11.73,12.26,20.26,21.9,25.59,28.92,1.42,2.13,1.95,4.04,1.6,5.73-.36,1.51-1.56,3.24-3.6,5.2-2.75,2.67-5.02,4.04-6.8,4.13-2.04.09-4-1.33-5.86-4.27-4.53-6.31-11.11-14.44-19.73-24.39-7.91,11.46-18.57,20.92-31.99,28.39-5.33,2.67-9.73,2.09-13.19-1.73Zm21.52-65.91c-1.91-.58-3.49-2.33-4.73-5.26-1.6-3.02-3.11-5.69-4.53-8-1.96-3.38-4.04-6.62-6.26-9.73-3.55-4.71-2.58-8.44,2.93-11.2,4.09-2.04,7.51-1.33,10.26,2.13,5.15,6.49,9.64,13.24,13.46,20.26,1.15,2.4,1.42,4.4.8,6-.71,1.6-2.31,3.07-4.8,4.4-2.84,1.51-5.22,1.98-7.13,1.4Z"/>
      <path class="cls-1" d="m1091.64,139.77c-5.69,0-8.53-2.8-8.53-8.4V41.41h-39.72c-5.33,0-8-2.67-8-8s2.67-8,8-8h101.69c5.33,0,8,2.67,8,8s-2.67,8-8,8h-45.05v20.92l1.47-1.87c.71-.8,1.51-.98,2.4-.53,16.53,8.53,29.05,15.77,37.58,21.72,2.31,1.69,3.47,3.46,3.47,5.33-.09,1.6-1.11,3.69-3.07,6.26-2.13,2.67-4,4.22-5.6,4.67-1.87.53-3.96-.13-6.26-2-8.09-6.13-18.08-12.62-29.99-19.46v54.91c0,5.6-2.8,8.4-8.4,8.4Z"/>
      <path class="cls-1" d="m1227.45,140.17c-5.42,0-8.13-2.71-8.13-8.13v-35.85h-43.32c-5.33,0-8-2.71-8-8.13s2.67-8,8-8h43.32v-40.38h-36.65c-5.24,0-7.86-2.62-7.86-7.86s2.62-7.86,7.86-7.86h89.3c5.24,0,7.86,2.62,7.86,7.86s-2.62,7.86-7.86,7.86h-36.38v40.38h43.85c5.33,0,8,2.67,8,8s-2.67,8.13-8,8.13h-43.85v35.85c0,5.42-2.71,8.13-8.13,8.13Zm-36.92-72.1c-.71-2.31-1.29-4.09-1.73-5.33-.53-1.6-1.42-4-2.67-7.2-2.22-4.88-.67-8.13,4.66-9.73,4.18-1.24,7.29.09,9.33,4,2.75,6.04,4.75,11.06,6,15.06.62,2.31.44,4.13-.53,5.46-.89,1.25-2.53,2.27-4.93,3.07-5.33,1.69-8.71-.09-10.13-5.33Zm63.57,5.86c-5.33-1.51-6.84-4.49-4.53-8.93,2.22-4.97,4.09-9.55,5.6-13.73,1.69-5.15,5.15-7.06,10.4-5.73,5.86,1.51,7.46,5.15,4.8,10.93-.45.89-1.11,2.22-2,4-.62,1.16-1.07,2-1.33,2.53-1.96,3.73-3.42,6.4-4.4,8-1.78,3.11-4.62,4.09-8.53,2.93Z"/>
      <path class="cls-1" d="m1403.51,69.67c-.8-1.15-2-2.71-3.6-4.67-8.35.45-21.01,1.07-37.98,1.87-6.31.27-10.97.49-13.99.67-3.55.18-8.71.4-15.46.67-10.22.36-17.55.62-21.99.8-2.58.09-4.4-.49-5.46-1.73-.98-1.15-1.56-3.11-1.73-5.86-.27-5.51,2.13-8.31,7.2-8.4,2.4,0,6.26-.09,11.59-.27h1.07c6.31-9.95,11.68-19.99,16.13-30.12,1.15-2.75,2.64-4.55,4.46-5.4,1.82-.84,4.2-.78,7.13.2,6.49,2.04,8.04,6.18,4.67,12.39-4.44,7.91-8.93,15.33-13.46,22.26,10.13-.35,25.06-.98,44.78-1.87-.71-.71-1.78-1.75-3.2-3.13-1.42-1.38-2.45-2.38-3.07-3-4.26-3.82-4.09-7.51.53-11.06,3.55-2.75,6.97-2.67,10.26.27,11.55,9.95,20.52,19.24,26.92,27.85,1.33,2.04,1.78,3.87,1.33,5.46-.45,1.51-1.73,3.11-3.87,4.8-4.89,3.82-8.98,3.25-12.26-1.73Zm-78.1,65.04c-2.58,0-4.67-.8-6.26-2.4-1.6-1.6-2.4-3.69-2.4-6.26v-35.99c0-2.58.8-4.67,2.4-6.26,1.6-1.6,3.69-2.4,6.26-2.4h70.64c2.58,0,4.67.8,6.26,2.4s2.4,3.69,2.4,6.26v35.99c0,2.58-.8,4.67-2.4,6.26s-3.69,2.4-6.26,2.4h-70.64Zm10.66-15.19h51.71v-23.06h-51.71c-2.13,0-3.2,1.07-3.2,3.2v16.66c0,2.13,1.07,3.2,3.2,3.2Z"/>
      <path class="cls-1" d="m1482.27,130.44c-3.46,0-6.35-1.22-8.66-3.67-2.31-2.44-3.46-5.49-3.46-9.13s1.15-6.68,3.46-9.13c2.31-2.44,5.2-3.67,8.66-3.67s6.38,1.22,8.73,3.67c2.35,2.45,3.53,5.46,3.53,9.06s-1.16,6.64-3.46,9.13c-2.31,2.49-5.24,3.73-8.8,3.73Zm0-35.45c-4.26,0-6.53-2.04-6.8-6.13l-2.4-43.05-.27-8.4c-.27-6.75,2.89-10.13,9.46-10.13s9.73,3.38,9.46,10.13l-.27,8.4-1.47,24.66-.93,18.39c-.27,4.09-2.53,6.13-6.8,6.13Z"/>
    </g>
  </g>
  <line class="cls-4" x1="597.47" y1="261.48" x2="909.47" y2="261.48"/>
</svg>