<?xml version="1.0" encoding="UTF-8"?>
<svg id="_圖層_1" data-name="圖層 1" xmlns="http://www.w3.org/2000/svg" viewBox="0 0 300.24 300.24">
  <defs>
    <style>
      .cls-1 {
        fill: #f99bbb;
      }

      .cls-1, .cls-2, .cls-3, .cls-4, .cls-5 {
        stroke-width: 0px;
      }

      .cls-2 {
        fill: #465b6e;
      }

      .cls-3 {
        fill: #fccddc;
      }

      .cls-4 {
        fill: #ff6f9b;
      }

      .cls-5 {
        fill: #fff;
      }
    </style>
  </defs>
  <g id="Kanban_board" data-name="Kanban board">
    <path class="cls-3" d="m56.12,132.84c17.3-17.62-15.29-50.42-7.19-74.13C59.84,26.79,148.59-.57,208.33,34.17c50.03,29.1,67.4,94.59,45.54,121.06-6.54,7.92-14.68,10.03-25.37,18.32-9.94,7.71-11.06,9.67-11.78,11.02-7.07,13.24,7.8,24.85,4.81,36.21-4.73,17.94-52.03,27.51-91.59,21.44-10.67-1.64-64.72-11.16-84.6-50.71-1.54-3.06-16.1-32.62-2.4-49.06,4.75-5.7,8.57-4.9,13.18-9.6Z"/>
  </g>
  <g>
    <g>
      <g>
        <path class="cls-4" d="m119.24,133.61l-1.4-5.11-5.78.26c-.54-1.13-1.16-2.19-1.86-3.19l3.06-4.9-3.77-3.73-4.88,3.12c-1.02-.7-2.09-1.31-3.2-1.83l.2-5.78-5.12-1.34-2.66,5.13c-1.22-.1-2.45-.09-3.69.03l-2.72-5.11-5.11,1.4.26,5.78c-1.13.54-2.19,1.16-3.19,1.86l-4.9-3.06-3.73,3.77,3.12,4.88c-.7,1.02-1.31,2.09-1.83,3.2l-5.78-.2-1.34,5.12,5.13,2.66c-.1,1.22-.09,2.45.03,3.69l-5.11,2.72,1.4,5.11,5.78-.26c.54,1.13,1.16,2.19,1.86,3.19l-3.06,4.9,3.77,3.73,4.88-3.12c1.01.7,2.09,1.31,3.2,1.83l-.2,5.78,5.12,1.34,2.66-5.13c1.22.1,2.45.09,3.69-.03l2.72,5.11,5.11-1.4-.26-5.78c1.13-.54,2.19-1.16,3.19-1.86l4.9,3.06,3.73-3.77-3.12-4.88c.7-1.02,1.31-2.09,1.83-3.2l5.78.2,1.34-5.12-5.13-2.66c.1-1.22.09-2.45-.03-3.69l5.11-2.72Zm-23.53,17.84c-7.26,1.99-14.77-2.29-16.76-9.55-1.99-7.26,2.29-14.77,9.55-16.76,7.26-1.99,14.77,2.29,16.76,9.55,1.99,7.26-2.29,14.77-9.55,16.76Z"/>
        <path class="cls-2" d="m85.46,164.92c-.06,0-.12,0-.19-.02l-5.12-1.34c-.33-.09-.56-.39-.55-.74l.18-5.3c-.85-.42-1.67-.89-2.46-1.4l-4.47,2.86c-.29.19-.67.15-.91-.1l-3.77-3.73c-.24-.24-.29-.62-.11-.91l2.81-4.49c-.52-.78-1-1.6-1.43-2.45l-5.3.24c-.35.01-.65-.21-.74-.54l-1.4-5.11c-.09-.33.06-.68.36-.84l4.68-2.49c-.07-.95-.07-1.9-.02-2.84l-4.7-2.44c-.3-.16-.46-.51-.37-.84l1.34-5.12c.09-.33.39-.56.74-.55l5.3.18c.42-.85.89-1.67,1.4-2.46l-2.86-4.47c-.18-.29-.14-.67.1-.91l3.73-3.77c.24-.24.62-.29.91-.11l4.49,2.81c.78-.52,1.6-1,2.45-1.43l-.24-5.3c-.02-.34.21-.65.54-.74l5.11-1.4c.33-.09.68.06.84.36l2.49,4.68c.95-.07,1.9-.07,2.84-.02l2.44-4.7c.16-.3.5-.46.84-.37l5.12,1.34c.33.09.56.39.55.74l-.18,5.3c.85.42,1.67.89,2.46,1.4l4.47-2.86c.29-.18.67-.14.91.1l3.77,3.73c.24.24.29.62.11.91l-2.81,4.49c.52.78,1,1.6,1.43,2.45l5.3-.24c.35,0,.65.21.74.54l1.4,5.11c.09.33-.06.68-.36.84l-4.68,2.49c.07.95.07,1.9.02,2.84l4.7,2.44c.3.16.46.51.37.84l-1.34,5.13c-.09.33-.38.57-.74.55l-5.3-.18c-.42.85-.89,1.67-1.4,2.46l2.86,4.47c.18.29.14.67-.1.91l-3.73,3.77c-.24.24-.62.29-.91.11l-4.49-2.81c-.78.52-1.6,1-2.45,1.43l.24,5.3c.02.34-.21.65-.54.74l-5.11,1.4c-.33.09-.68-.06-.84-.36l-2.49-4.68c-.95.07-1.9.07-2.84.02l-2.44,4.7c-.13.25-.38.4-.65.4Zm-4.37-2.64l3.99,1.05,2.39-4.61c.14-.26.41-.42.71-.39,1.17.09,2.37.08,3.57-.03.29-.03.58.13.71.39l2.44,4.59,3.98-1.09-.24-5.19c-.01-.29.15-.57.42-.7,1.09-.52,2.13-1.12,3.08-1.8.24-.17.56-.18.81-.02l4.4,2.75,2.9-2.93-2.8-4.38c-.16-.25-.15-.57.01-.81.67-.98,1.27-2.02,1.77-3.1.12-.27.39-.44.69-.42l5.2.18,1.05-3.99-4.61-2.39c-.26-.14-.42-.42-.39-.71.09-1.17.08-2.37-.03-3.57-.03-.29.13-.58.39-.71l4.59-2.44-1.09-3.98-5.19.24c-.3.01-.57-.15-.7-.42-.52-1.09-1.12-2.13-1.8-3.08-.17-.24-.18-.56-.02-.81l2.75-4.4-2.93-2.9-4.38,2.8c-.25.16-.57.15-.81-.01-.98-.67-2.02-1.27-3.1-1.77-.27-.12-.43-.4-.42-.69l.18-5.2-3.99-1.05-2.39,4.61c-.14.26-.42.42-.71.39-1.17-.09-2.37-.08-3.57.03-.3.03-.58-.13-.71-.39l-2.44-4.59-3.98,1.09.24,5.19c.01.29-.15.57-.42.7-1.09.52-2.13,1.12-3.08,1.8-.24.17-.56.18-.81.02l-4.4-2.75-2.9,2.93,2.8,4.38c.16.25.15.57-.01.81-.67.98-1.27,2.02-1.77,3.1-.12.27-.4.43-.69.42l-5.2-.18-1.05,3.99,4.61,2.39c.26.14.42.42.39.71-.09,1.17-.08,2.37.03,3.57.03.29-.13.58-.39.71l-4.59,2.44,1.09,3.98,5.19-.24c.29-.01.57.15.7.42.52,1.09,1.12,2.13,1.8,3.08.17.24.18.56.02.81l-2.75,4.4,2.93,2.9,4.38-2.8c.25-.16.57-.15.81.01.98.67,2.02,1.27,3.1,1.77.27.12.43.4.42.69l-.18,5.2Zm8.76-10.9c-6.32,0-12.12-4.2-13.87-10.58-2.09-7.64,2.42-15.56,10.07-17.66,3.7-1.01,7.58-.52,10.91,1.38,3.34,1.9,5.73,4.99,6.74,8.69,1.01,3.7.53,7.58-1.38,10.91-1.9,3.34-4.99,5.73-8.69,6.74h0c-1.27.35-2.54.51-3.79.51Zm.02-27.28c-1.14,0-2.29.15-3.43.46-6.86,1.88-10.92,8.99-9.04,15.85,1.88,6.86,8.99,10.92,15.85,9.04h0c3.32-.91,6.1-3.06,7.8-6.06,1.71-2.99,2.15-6.47,1.24-9.8-.91-3.32-3.06-6.1-6.05-7.8-1.97-1.12-4.16-1.7-6.37-1.7Z"/>
      </g>
      <g>
        <path class="cls-4" d="m263.49,70.9l-2.39-8.74-9.89.45c-.92-1.93-1.98-3.75-3.18-5.46l5.24-8.39-6.45-6.38-8.34,5.34c-1.74-1.19-3.57-2.24-5.48-3.12l.34-9.9-8.77-2.3-4.55,8.78c-2.08-.16-4.19-.15-6.32.05l-4.65-8.74-8.74,2.39.45,9.89c-1.93.92-3.75,1.98-5.46,3.18l-8.39-5.24-6.38,6.45,5.34,8.34c-1.19,1.74-2.24,3.57-3.12,5.48l-9.9-.34-2.3,8.77,8.78,4.55c-.16,2.08-.15,4.19.05,6.32l-8.74,4.65,2.39,8.74,9.89-.45c.92,1.93,1.98,3.75,3.18,5.46l-5.24,8.39,6.45,6.38,8.34-5.34c1.74,1.19,3.57,2.24,5.48,3.12l-.34,9.9,8.77,2.3,4.55-8.78c2.08.16,4.19.15,6.32-.05l4.65,8.74,8.74-2.39-.45-9.89c1.93-.92,3.75-1.98,5.46-3.18l8.39,5.24,6.38-6.45-5.34-8.34c1.19-1.74,2.24-3.57,3.12-5.48l9.9.34,2.3-8.77-8.78-4.55c.16-2.08.15-4.19-.05-6.32l8.74-4.65Zm-40.27,30.52c-12.43,3.4-25.27-3.91-28.67-16.35-3.4-12.43,3.91-25.27,16.35-28.67,12.43-3.4,25.27,3.91,28.67,16.35,3.4,12.43-3.91,25.27-16.35,28.67Z"/>
        <path class="cls-2" d="m205.68,123.95c-.06,0-.12,0-.19-.02l-8.77-2.3c-.33-.09-.56-.39-.55-.74l.32-9.41c-1.64-.79-3.23-1.69-4.74-2.7l-7.94,5.08c-.29.19-.67.15-.91-.1l-6.45-6.38c-.24-.24-.29-.62-.11-.91l4.98-7.98c-1.01-1.48-1.94-3.07-2.75-4.72l-9.41.43c-.34.02-.65-.21-.74-.54l-2.39-8.74c-.09-.33.06-.68.36-.84l8.31-4.42c-.14-1.84-.16-3.67-.04-5.47l-8.35-4.33c-.3-.16-.46-.51-.37-.84l2.3-8.77c.09-.33.38-.57.74-.55l9.41.32c.79-1.64,1.69-3.23,2.7-4.74l-5.08-7.94c-.18-.29-.14-.67.1-.91l6.38-6.45c.24-.24.62-.29.91-.11l7.98,4.98c1.49-1.01,3.07-1.94,4.72-2.75l-.43-9.41c-.02-.34.21-.65.54-.74l8.74-2.39c.33-.09.68.06.84.36l4.42,8.31c1.83-.14,3.67-.16,5.47-.04l4.33-8.35c.16-.3.5-.46.84-.37l8.77,2.3c.33.09.56.39.55.74l-.32,9.42c1.64.79,3.23,1.69,4.74,2.7l7.94-5.08c.29-.19.67-.14.91.1l6.45,6.37c.24.24.29.62.11.91l-4.98,7.98c1.01,1.49,1.94,3.07,2.75,4.72l9.41-.43c.36-.01.65.21.74.54l2.39,8.74c.09.33-.06.68-.36.84l-8.31,4.42c.14,1.84.16,3.67.04,5.47l8.35,4.33c.3.16.46.51.37.84l-2.3,8.77c-.09.33-.4.56-.74.55l-9.42-.32c-.79,1.64-1.69,3.23-2.7,4.74l5.08,7.94c.18.29.14.67-.1.91l-6.37,6.45c-.24.24-.62.29-.91.11l-7.98-4.98c-1.48,1.01-3.07,1.94-4.72,2.75l.43,9.41c.02.34-.21.65-.54.74l-8.74,2.39c-.33.09-.68-.06-.84-.36l-4.42-8.31c-1.84.14-3.67.16-5.47.04l-4.33,8.35c-.13.25-.38.4-.65.4Zm-8.02-3.59l7.63,2,4.28-8.26c.14-.26.41-.42.71-.39,2.02.16,4.11.14,6.19-.04.3-.03.58.13.71.39l4.38,8.22,7.61-2.08-.42-9.3c-.01-.29.15-.57.42-.7,1.89-.9,3.69-1.95,5.35-3.12.24-.17.56-.18.81-.02l7.89,4.93,5.55-5.61-5.02-7.85c-.16-.25-.15-.57.01-.81,1.16-1.7,2.19-3.51,3.06-5.37.12-.27.4-.44.69-.42l9.31.32,2-7.63-8.26-4.28c-.26-.14-.42-.42-.39-.71.16-2.03.14-4.11-.04-6.19-.03-.29.13-.58.39-.71l8.22-4.38-2.08-7.61-9.3.42c-.29.01-.57-.15-.7-.42-.9-1.89-1.95-3.69-3.12-5.35-.17-.24-.18-.56-.02-.81l4.93-7.89-5.61-5.55-7.85,5.02c-.25.16-.57.15-.81-.01-1.7-1.16-3.51-2.2-5.37-3.06-.27-.12-.43-.4-.42-.69l.32-9.31-7.63-2-4.28,8.26c-.14.26-.42.42-.71.39-2.03-.16-4.11-.14-6.19.04-.29.03-.58-.13-.71-.39l-4.38-8.22-7.61,2.08.42,9.3c.01.29-.15.57-.42.7-1.89.9-3.69,1.95-5.35,3.12-.24.17-.56.18-.81.02l-7.89-4.93-5.55,5.61,5.02,7.85c.16.25.15.57-.01.81-1.17,1.7-2.2,3.51-3.06,5.37-.12.27-.4.44-.69.42l-9.31-.32-2,7.63,8.26,4.28c.26.14.42.42.39.71-.16,2.02-.14,4.11.04,6.19.03.29-.13.58-.39.71l-8.22,4.38,2.08,7.61,9.3-.42c.29-.01.57.15.7.42.9,1.89,1.95,3.69,3.12,5.35.17.24.18.56.02.81l-4.93,7.89,5.61,5.55,7.85-5.02c.25-.16.57-.15.81.01,1.7,1.17,3.51,2.2,5.37,3.06.27.12.43.4.42.69l-.32,9.31Zm15.53-19.58c-10.58,0-20.3-7.03-23.22-17.72-1.7-6.2-.88-12.69,2.3-18.28,3.18-5.59,8.35-9.6,14.55-11.29,12.8-3.51,26.07,4.06,29.57,16.86,3.51,12.8-4.06,26.07-16.86,29.57-2.12.58-4.25.86-6.35.86Zm-.01-46.68c-1.97,0-3.97.26-5.96.8-5.82,1.59-10.68,5.36-13.67,10.61-2.99,5.25-3.76,11.34-2.16,17.16,3.29,12.02,15.75,19.12,27.77,15.83l.19.71-.19-.71c12.02-3.29,19.12-15.75,15.83-27.77-2.75-10.03-11.88-16.64-21.81-16.64Z"/>
      </g>
    </g>
    <g>
      <g>
        <path class="cls-2" d="m59.63,91.25c-.06,0-.12-.01-.18-.04-.2-.1-.28-.35-.18-.55,4.67-9.28,10.7-17.78,17.93-25.28,7.24-7.51,15.54-13.85,24.65-18.85.2-.11.45-.04.55.16.11.2.04.45-.16.55-18.27,10.02-32.88,25.16-42.25,43.78-.07.14-.22.22-.37.22Z"/>
        <path class="cls-2" d="m90.6,220.02c-.08,0-.17-.03-.24-.08-25.38-18.66-40.67-47.4-41.95-78.84,0-.23.17-.42.39-.42.22-.01.42.17.42.39,1.27,31.19,16.44,59.7,41.62,78.21.18.13.22.39.09.57-.08.11-.2.17-.33.17Z"/>
      </g>
      <path class="cls-2" d="m248.49,194.64s-.1,0-.15-.03c-.21-.08-.32-.32-.24-.53,5.88-15.44,5.56-34.59,4.26-47.94-1.41-14.48-4.25-25.43-4.28-25.54-.06-.22.07-.44.29-.5.22-.06.44.07.5.29.03.11,2.88,11.12,4.3,25.66,1.31,13.43,1.62,32.72-4.31,48.31-.06.16-.22.26-.38.26Z"/>
      <path class="cls-2" d="m98.16,227.49c-1.85,0-3.36-1.51-3.36-3.36s1.51-3.36,3.36-3.36,3.36,1.51,3.36,3.36-1.51,3.36-3.36,3.36Zm0-5.9c-1.4,0-2.54,1.14-2.54,2.54s1.14,2.54,2.54,2.54,2.54-1.14,2.54-2.54-1.14-2.54-2.54-2.54Z"/>
      <path class="cls-2" d="m246.73,200.51c-.09,0-.18,0-.27-.02-.45-.07-.84-.31-1.11-.68-.26-.37-.37-.82-.3-1.26.15-.92,1.02-1.55,1.95-1.4.45.07.84.32,1.11.68.26.37.37.82.3,1.26h0c-.13.83-.86,1.42-1.68,1.42Zm0-2.57c-.43,0-.8.31-.87.74-.04.23.02.46.15.65.14.19.34.32.58.35.48.08.94-.25,1.01-.73.04-.23-.02-.46-.15-.65-.14-.19-.34-.32-.58-.36-.05,0-.1-.01-.14-.01Zm1.28,1.08h0,0Z"/>
      <path class="cls-2" d="m52.45,144.38s-.1,0-.15-.03c-.14-.05-.24-.18-.26-.33l-.43-3.66c-.02-.14.04-.28.15-.37.11-.09.26-.11.39-.07,1.62.57,3.2,1.29,3.22,1.29.13.06.22.18.24.31.02.14-.03.28-.14.37l-2.76,2.38c-.08.07-.17.1-.27.1Zm.05-3.46l.26,2.24,1.68-1.45c-.47-.2-1.18-.5-1.95-.79Z"/>
      <path class="cls-2" d="m63.98,73.94s-.09,0-.13,0c-.23,0-.41-.19-.4-.41,0-.22.19-.4.41-.4h0c1.23.02,2.05-.23,2.35-.72.31-.49.09-1.2-.13-1.89-.25-.8-.5-1.62.02-2.24.52-.63,1.41-.52,2.19-.41.67.09,1.31.17,1.61-.16.36-.39.18-1.21,0-2-.21-.92-.42-1.87.22-2.39.49-.4,1.1-.22,1.63-.06.47.14.91.28,1.26.06.33-.2.4-.6.49-1.28.08-.58.18-1.3.58-2,.71-1.24,2.17-2.07,4.34-2.46.22-.04.43.11.47.33s-.11.43-.33.47c-1.92.35-3.19,1.04-3.77,2.06-.32.56-.4,1.14-.48,1.7-.1.71-.2,1.45-.88,1.87-.66.4-1.36.19-1.92.02-.45-.13-.73-.21-.87-.09-.25.2-.08.94.06,1.58.22.96.46,2.04-.2,2.74-.6.64-1.51.52-2.32.41-.63-.08-1.22-.16-1.46.12-.23.28-.06.86.14,1.48.26.83.55,1.76.03,2.57-.47.74-1.43,1.1-2.92,1.1Z"/>
      <path class="cls-2" d="m92.76,217.34c-.07,0-.15-.02-.22-.06-13.19-8.27-20.76-21.82-20.84-21.96-.11-.2-.04-.45.16-.56.2-.11.45-.04.55.16.07.13,7.55,13.51,20.56,21.66.19.12.25.37.13.56-.08.12-.21.19-.35.19Z"/>
      <path class="cls-2" d="m256.99,175.11s-.05,0-.08,0c-.22-.04-.37-.26-.33-.48,3.29-17.49-1.75-39.87-1.8-40.1-.05-.22.09-.44.31-.49.22-.05.44.09.49.31.05.23,5.12,22.77,1.81,40.43-.04.2-.21.33-.4.33Z"/>
    </g>
    <g>
      <g>
        <g>
          <path class="cls-5" d="m203.4,168.5c0-.41-22.83-4.02-24.3-8.19-2.2-6.23-4.94-13.71-4.94-13.71l-5.7,3.6,3.67,17.91,31.27.39Z"/>
          <path class="cls-2" d="m203.4,168.9h0l-31.27-.39c-.19,0-.36-.14-.4-.33l-3.67-17.91c-.03-.17.04-.34.18-.43l5.7-3.6c.1-.07.23-.08.35-.04.12.04.21.13.25.25.03.08,2.77,7.56,4.94,13.72,1.03,2.93,14.69,5.84,20.52,7.08q3.8.81,3.8,1.24c0,.11-.04.21-.12.29-.08.08-.18.12-.29.12Zm-30.94-1.2l27.32.34c-10.34-2.2-20.03-4.65-21.07-7.6-1.86-5.26-4.12-11.48-4.76-13.23l-5.03,3.18,3.55,17.31Z"/>
        </g>
        <path class="cls-4" d="m138.29,127.35c5.44-1.78,13.74-3.05,23.65.11,3.62,1.15,6.21,4.33,6.65,8.1l8.08,46.51c.4,3.38-4.12,6.67-7.3,7.87-3.33,1.26-8.35,2.45-15.47,2.45-7.63,0-13.18.44-16.27-.91-2.57-1.13-6.44-3.85-6.57-6.65l.56-47.8c-.2-4.36,2.52-8.33,6.66-9.68Z"/>
        <path class="cls-4" d="m176.43,147.33s-6.45-17.86-13.68-19.58l3.68,25.31,10-5.73Z"/>
        <path class="cls-4" d="m123.25,156.12s.71-11.95,1.74-16.57c2.17-9.71,12.26-11.8,12.26-11.8l.3,26.7-14.3,1.66Z"/>
        <path class="cls-2" d="m148.42,130.72c-5.26,0-9.66-1.4-9.93-1.49-.21-.07-.33-.3-.26-.51.07-.21.3-.33.51-.26.1.03,9.6,3.05,17.24.22.21-.08.45.03.53.24.08.21-.03.45-.24.52-2.57.95-5.31,1.28-7.84,1.28Z"/>
        <g>
          <path class="cls-5" d="m125.06,155.62s-.7,9.11,2.91,15.23c4.31,7.31,26.06-2.53,26.06-2.53l2.53-1.43c1.71-.97,3.75-1.18,5.62-.57l4.09,1.32s-3.37-4.05-6.24-5.59c-1.35-.73-3.09-.04-4.56.89-2.53,1.61-5.52,2.36-8.52,2.27l-8.65-.26c-1.45-.04-2.64-1.17-2.77-2.62l-.66-7.54-9.81.83Z"/>
          <path class="cls-2" d="m134.56,173.96c-3.1,0-5.69-.77-6.95-2.9-3.63-6.16-3-15.09-2.97-15.47.02-.2.17-.36.37-.38l9.81-.83c.23-.02.42.15.44.37l.66,7.54c.11,1.24,1.13,2.21,2.37,2.24l8.65.26c3,.08,5.87-.67,8.29-2.21,2.03-1.29,3.71-1.59,4.98-.91,2.91,1.57,6.22,5.52,6.36,5.69.12.14.13.34.02.49-.1.15-.29.22-.46.16l-4.09-1.32c-1.76-.57-3.69-.37-5.29.54l-2.53,1.43s-.02.01-.03.02c-.65.29-11.77,5.27-19.64,5.27Zm-9.12-17.96c-.08,1.71-.23,9.38,2.88,14.65,1.08,1.84,3.39,2.51,6.18,2.52,7.59,0,18.83-4.98,19.34-5.21l2.51-1.42c1.81-1.02,3.97-1.24,5.95-.61l2.66.86c-1.2-1.3-3.29-3.39-5.14-4.38-1.23-.67-2.94.11-4.15.88-2.56,1.62-5.58,2.43-8.75,2.33l-8.65-.26c-1.66-.05-3.02-1.33-3.16-2.99l-.62-7.13-9.05.77Z"/>
        </g>
      </g>
      <g>
        <g>
          <g>
            <path class="cls-5" d="m158.43,255.84l-4.72,14.07s5.14-.44,5.63-.34c.49.1,6.5-12.83,6.5-12.83l-7.41-.9Z"/>
            <path class="cls-2" d="m153.72,270.32c-.12,0-.24-.06-.32-.16-.08-.11-.11-.25-.07-.38l4.72-14.07c.06-.18.24-.3.44-.28l7.41.9c.13.02.24.09.31.21.06.11.07.25.01.37-.02.03-1.52,3.27-3.07,6.46-3.26,6.72-3.47,6.68-3.88,6.6-.35-.05-3.44.17-5.51.35-.01,0-.02,0-.03,0Zm5-14.03l-4.41,13.16c1.44-.12,4.07-.32,4.91-.3.72-.93,3.94-7.6,6.02-12.07l-6.52-.79Zm.71,12.88h0,0Zm0,0s0,0,0,0c0,0,0,0,0,0Z"/>
          </g>
          <g>
            <path class="cls-1" d="m154.8,266.82s7.09-2.91,8.4.74c1.67,4.64,4.28,11.72,4.28,11.72.44,1.23-.41,2.55-1.71,2.65-2.59.21-6.46.38-8.26-.25-2.84-1-7.56-9.99-7.56-9.99l1.45-7.66s2.57-.36,3.4,2.79Z"/>
            <path class="cls-2" d="m161.59,282.53c-1.67,0-3.23-.12-4.22-.47-2.96-1.04-7.59-9.82-7.79-10.19-.04-.08-.06-.18-.04-.27l1.45-7.66c.03-.17.17-.3.34-.33.03,0,2.69-.34,3.72,2.66,1.21-.44,4.72-1.55,6.91-.58.79.35,1.33.93,1.61,1.72,1.65,4.59,4.25,11.65,4.27,11.72.26.71.17,1.48-.24,2.11-.41.63-1.07,1.03-1.82,1.09-1.3.1-2.79.19-4.21.19Zm-11.21-10.91c1.35,2.55,5.1,8.91,7.27,9.67,1.32.46,4.19.55,8.09.23.49-.04.93-.3,1.2-.72.27-.42.33-.92.16-1.39-.02-.07-2.63-7.13-4.28-11.72-.21-.58-.59-.99-1.18-1.25-2.3-1.02-6.64.73-6.69.75-.11.04-.23.04-.34-.01-.11-.05-.18-.15-.21-.26-.58-2.2-2.04-2.48-2.66-2.5l-1.37,7.2Z"/>
          </g>
          <path class="cls-2" d="m165.66,279.27h-7.28c-.23,0-.41-.18-.41-.41s.18-.41.41-.41h7.28c.23,0,.41.18.41.41s-.18.41-.41.41Z"/>
        </g>
        <g>
          <polygon class="cls-5" points="145.06 259.3 146.66 273.45 153.11 271.68 152.61 258.93 145.06 259.3"/>
          <path class="cls-2" d="m146.66,273.86c-.08,0-.16-.02-.23-.07-.1-.07-.16-.17-.18-.29l-1.6-14.15c-.01-.11.02-.22.09-.31.07-.09.18-.14.29-.14l7.55-.37c.11,0,.22.03.3.11.08.07.13.18.13.29l.5,12.75c0,.19-.12.36-.3.41l-6.44,1.77s-.07.01-.11.01Zm-1.15-14.17l1.5,13.24,5.67-1.56-.47-12.01-6.7.33Z"/>
        </g>
        <g>
          <path class="cls-1" d="m146.06,283.88h10.2c1.38,0,2.44-1.22,2.24-2.59-.34-2.3-1.45-6.12-4.77-11.38-.36-.57-1-.92-1.68-.92h-3.1c-.53,0-.98.4-1.04.94l-.23,2.24-1.35-1.78s-2.41,5.08-2.52,11.2c-.02,1.26,1,2.3,2.26,2.3Z"/>
          <path class="cls-2" d="m156.25,284.28h-10.2c-.72,0-1.4-.28-1.91-.8-.51-.52-.78-1.2-.76-1.92.11-6.14,2.46-11.15,2.56-11.36.06-.13.19-.22.33-.23.14-.01.28.05.37.16l.73.96.13-1.21c.08-.74.7-1.3,1.45-1.3h3.1c.82,0,1.58.42,2.02,1.11,3.37,5.33,4.49,9.22,4.83,11.54.11.77-.11,1.54-.62,2.13-.51.59-1.25.93-2.02.93Zm-9.84-13.1c-.63,1.53-2.12,5.67-2.21,10.4,0,.5.18.97.53,1.33.35.36.82.56,1.32.56h10.2c.54,0,1.05-.23,1.4-.64.35-.41.51-.95.43-1.48-.33-2.24-1.42-6.01-4.72-11.22-.29-.45-.8-.73-1.33-.73h-3.1c-.33,0-.6.24-.63.57l-.23,2.24c-.02.17-.13.31-.3.35-.16.04-.33-.01-.44-.15l-.93-1.22Z"/>
        </g>
        <path class="cls-2" d="m157.51,281.85h-12.21c-.23,0-.41-.18-.41-.41s.18-.41.41-.41h12.21c.23,0,.41.18.41.41s-.18.41-.41.41Z"/>
        <path class="cls-2" d="m169.27,174.31c-.27-.65-.81-1.15-1.48-1.36-3.73-1.17-16.73-4.25-30.11,4.33-.63.41-1.04,1.08-1.09,1.83-.48,6.8-2.29,42.35,8.96,84.45l7.58-.54,1.54-71.97s11.22,26.39,2.1,68.38l7.88,1.45s11.53-15.16,13.6-38.33c1.83-20.5-6.93-43.26-8.97-48.23Z"/>
        <path class="cls-5" d="m147.47,230.21s-.01,0-.02,0c-7.1-.31-7.9-9.95-7.91-10.05-.02-.23.15-.42.38-.44.23-.02.42.15.44.38,0,.09.76,9.02,7.13,9.29.23,0,.4.2.39.43,0,.22-.19.39-.41.39Z"/>
        <path class="cls-5" d="m155.32,198.05c-.22,0-.4-.17-.41-.4l-.27-9c0-.14.06-.27.17-.35l4.72-3.32c.18-.13.44-.09.57.1.13.18.09.44-.1.57l-4.54,3.19.26,8.78c0,.23-.17.41-.4.42,0,0,0,0-.01,0Z"/>
      </g>
      <g>
        <path class="cls-2" d="m151.3,110.28c2.88-2.48,3.54-2.82,4.38-4.23.68-1.16,2.21-3.74,1.18-6.48-.89-2.36-3.36-3.79-5.63-3.91-2.04-.11-3.53.85-4.31,1.36-.34.22-3.38,2.25-3.97,5.55-.16.9-.04,1.31-.45,1.87-.92,1.27-2.59.62-3.74,1.67-1.45,1.32-.78,4.13-.72,4.35.76,3,4,4.98,6.63,4.71,1.52-.16,1.36-.34,6.64-4.88Z"/>
        <g>
          <path class="cls-5" d="m143.37,125.1c1.39-.92,2.2-2.5,2.17-4.17l-.16-6.93s-.09-.09-.14-.13c0,0-2.78.19-3.18-1.23-.4-1.41,1.56-1.68,1.56-1.68,0,0-1.85-3.9,2.94-3.86,1.29.01,1.75-2.12,3.86-2.6,0,0,1.04-.09,2.1,2.65l2.32,3.43-1.16.64c.29,1.31.41,2.75.23,4.27-.05.44-.35.81-.77.94-.35.11-.82.23-1.37.3l.37,4.64c.16,2.03,1.23,3.88,2.9,5.05l1.61,1.13s-9.81,3.1-16.89-.28c0,0,1.9-1.04,3.61-2.17Z"/>
          <path class="cls-2" d="m147.74,129.27c-2.68,0-5.58-.4-8.16-1.63-.14-.07-.23-.2-.23-.36,0-.15.08-.3.21-.37.02-.01,1.9-1.04,3.58-2.16h0c1.28-.85,2.02-2.27,1.98-3.82l-.15-6.65c-.81.01-2.9-.1-3.31-1.53-.13-.46-.08-.89.16-1.25.31-.47.85-.72,1.25-.84-.2-.63-.42-1.76.16-2.68.56-.87,1.68-1.3,3.33-1.29.39,0,.72-.33,1.21-.87.58-.64,1.3-1.44,2.55-1.72.02,0,.04,0,.06,0,.23-.02,1.39.03,2.5,2.87l2.29,3.39c.06.1.09.21.06.32-.03.11-.1.21-.2.26l-.89.49c.27,1.39.33,2.76.18,4.11-.07.6-.48,1.1-1.05,1.29-.34.11-.7.2-1.06.26l.34,4.25c.15,1.91,1.15,3.64,2.72,4.75l1.61,1.13c.13.09.19.24.17.4-.02.15-.13.28-.28.33-.26.08-4.29,1.33-9.03,1.33Zm-7.07-2.04c5.59,2.26,12.66.77,15.04.16l-.9-.63c-1.78-1.25-2.89-3.2-3.07-5.35l-.37-4.64c-.02-.22.14-.41.36-.44.44-.05.88-.15,1.29-.28.27-.09.46-.32.49-.6.16-1.35.08-2.74-.23-4.14-.04-.18.04-.36.2-.45l.77-.42-2.07-3.06s-.03-.05-.04-.08c-.81-2.09-1.55-2.35-1.69-2.39-.96.24-1.53.86-2.07,1.46-.53.59-1.05,1.13-1.82,1.14-1.35-.01-2.24.29-2.63.91-.59.92.06,2.34.06,2.36.06.12.05.25,0,.37-.06.11-.17.19-.3.21-.24.03-.92.21-1.17.59-.1.16-.12.34-.05.58.26.89,2.13.98,2.76.93.11,0,.23.03.31.11l.14.13c.08.07.13.18.13.29l.16,6.93c.04,1.83-.84,3.52-2.35,4.52-1.06.71-2.21,1.38-2.93,1.79Z"/>
        </g>
        <g>
          <path class="cls-5" d="m151.77,116.73s-3.04.11-4.25-1.55l4.25,1.55Z"/>
          <path class="cls-2" d="m151.64,117.14c-.64,0-3.28-.1-4.45-1.72-.13-.18-.09-.44.09-.57.18-.13.44-.09.57.09,1.06,1.46,3.88,1.38,3.91,1.38.23-.01.41.17.42.39,0,.23-.17.41-.39.42-.01,0-.06,0-.14,0Z"/>
        </g>
      </g>
      <g>
        <path class="cls-2" d="m208.47,166.69h-29.11l21.58-33.18c.67-1.04,1.85-1.67,3.11-1.67h23.62c1.5,0,2.41,1.61,1.61,2.84l-20.81,32.01Z"/>
        <path class="cls-3" d="m214.68,143.48c-.95,1.45-2.98,2.63-4.54,2.63s-2.06-1.18-1.12-2.63c.95-1.45,2.98-2.63,4.54-2.63s2.06,1.18,1.12,2.63Z"/>
        <path class="cls-2" d="m154.1,166.45h54.47c0,1.66-1.35,3.01-3.01,3.01h-48.46c-1.66,0-3.01-1.35-3.01-3.01h0Z"/>
        <path class="cls-5" d="m206.96,167.13h-25c-.23,0-.41-.18-.41-.41s.18-.41.41-.41h25c.23,0,.41.18.41.41s-.18.41-.41.41Z"/>
      </g>
    </g>
  </g>
</svg>