<?xml version="1.0" encoding="UTF-8"?>
<svg id="_圖層_1" data-name="圖層 1" xmlns="http://www.w3.org/2000/svg" viewBox="0 0 514.4 270.98">
  <defs>
    <style>
      .cls-1 {
        fill: #465b6e;
      }

      .cls-1, .cls-2, .cls-3 {
        stroke-width: 0px;
      }

      .cls-2 {
        fill: #46aeff;
        fill-rule: evenodd;
      }

      .cls-3 {
        fill: #ff6f9b;
      }

      .cls-4 {
        fill: none;
        stroke: #46aeff;
        stroke-linecap: round;
        stroke-miterlimit: 10;
        stroke-width: 19px;
      }
    </style>
  </defs>
  <g>
    <g>
      <circle class="cls-3" cx="99.04" cy="76.55" r="76.55"/>
      <path class="cls-2" d="m197.59,8.55c.13-2.29-2.02-4.03-4.23-3.42l-32.97,9.2c-2.62.73-3.31,4.11-1.2,5.82l6.38,5.14-27.97,34.67-14.12-11.39c-.18-.17-.37-.34-.57-.5h0c-2.65-2.14-5.97-2.91-9.11-2.42-2.77.43-5.39,1.84-7.27,4.17h0c-.15.19-.29.38-.43.58l-31.98,39.64-14.92-12.03c-4.98-4.01-12.33-3.23-16.34,1.75h0c-.63.78-1.14,1.62-1.54,2.5L2.56,130.33c-4.01,4.98-3.23,12.33,1.75,16.34h0c4.98,4.01,12.33,3.23,16.34-1.75l33.29-41.27,13.93,11.23c.56.45,1.15.84,1.77,1.17,4.92,3.19,11.61,2.2,15.36-2.46l32.34-40.1,7.7,6.21c.15.19.32.36.51.51l13,10.49c1.44,1.16,3.54.93,4.7-.5l40.51-50.23,6.37,5.14c2.11,1.71,5.27.31,5.43-2.4l2.02-34.17Z"/>
    </g>
    <g>
      <path class="cls-1" d="m311.02,155.36c-9.69,0-18.17-2.4-25.46-7.2-6.75-4.53-11.91-10.71-15.46-18.53-10.66-2.04-19.15-7.51-25.46-16.39-6.4-9.06-9.6-20.52-9.6-34.38,0-15.81,4.09-28.3,12.26-37.45,8-8.88,18.61-13.33,31.85-13.33s23.94,4.44,31.85,13.33c8.17,9.33,12.26,21.81,12.26,37.45,0,13.24-2.93,24.3-8.8,33.19-5.78,8.71-13.64,14.35-23.59,16.93,2.13,3.55,5.33,6.27,9.6,8.13,3.73,1.6,8,2.4,12.79,2.4,1.6,0,2.75-.04,3.46-.13,4.89-.98,7.95,1.2,9.2,6.53.62,2.22.71,3.95.27,5.2-.45,1.33-1.64,2.35-3.6,3.07-3.82.8-7.69,1.2-11.59,1.2Zm-31.85-41.05c7.37,0,13.19-3.15,17.46-9.46,4.35-6.22,6.53-14.88,6.53-25.99s-2.16-18.86-6.46-24.86c-4.31-6-10.15-9-17.53-9s-13.22,3-17.53,9c-4.31,6-6.46,14.28-6.46,24.86s2.15,19.68,6.46,25.99c4.31,6.31,10.15,9.46,17.53,9.46Z"/>
      <path class="cls-1" d="m414.45,128.44c-5.86-2.04-11.68-4.84-17.46-8.4-8.8,6.93-18.88,10.4-30.25,10.4-9.95,0-17.91-2.75-23.86-8.26-5.6-5.15-8.4-11.73-8.4-19.72,0-6.31,1.87-11.91,5.6-16.79,2.84-3.82,7.15-7.55,12.93-11.2-4.18-7.82-6.26-14.93-6.26-21.32,0-7.02,2.31-12.93,6.93-17.73,4.89-4.88,11.2-7.33,18.93-7.33,7.02,0,12.59,1.96,16.73,5.86,4.13,3.91,6.2,9.11,6.2,15.59,0,5.87-2.22,11.33-6.66,16.39-2.93,3.38-7.78,7.42-14.53,12.13,5.86,7.29,12.97,14.13,21.32,20.53,3.91-5.15,7.15-11.02,9.73-17.59,1.6-4.98,4.84-7.46,9.73-7.46,6.93,0,9.24,3.29,6.93,9.86-3.29,8.53-7.69,16.53-13.19,23.99,3.02,1.69,6.26,3.29,9.73,4.8,5.24,1.51,6.97,5.06,5.2,10.66-1.51,5.07-4.62,6.93-9.33,5.6Zm-45.32-13.06c4.62,0,9.42-1.64,14.39-4.93-4.18-3.46-8.13-7.15-11.86-11.06-3.73-3.91-7.2-7.91-10.4-11.99-5.42,4.71-8.13,9.33-8.13,13.86,0,4.18,1.49,7.58,4.46,10.2,2.98,2.62,6.82,3.93,11.53,3.93Zm-2.53-49.05c4.71-2.93,7.95-5.38,9.73-7.33,2.67-2.93,4-6.04,4-9.33,0-5.68-2.49-8.53-7.46-8.53-2.93,0-5.31,1.09-7.13,3.27-1.82,2.18-2.73,5.09-2.73,8.73s1.2,8.22,3.6,13.19Z"/>
      <path class="cls-1" d="m440.3,128.57c-7.91,0-10.66-3.82-8.26-11.46l25.86-80.5c.71-2.04,1.89-3.67,3.53-4.87,1.64-1.2,3.53-1.8,5.67-1.8h9.06c2.13,0,4.02.62,5.66,1.87,1.64,1.25,2.82,2.89,3.53,4.93l26.39,82.1c.98,3.02.82,5.4-.47,7.13-1.29,1.73-3.49,2.6-6.6,2.6h-3.07c-2.22,0-4.18-.64-5.86-1.93-1.69-1.29-2.84-3-3.46-5.13l-4.93-18.26h-31.99l-4.8,17.33c-1.42,5.33-4.84,8-10.26,8Zm19.33-40.65h23.46l-2.93-10.79c-1.25-4.18-3.02-10.66-5.33-19.46-1.42-5.69-2.53-9.95-3.33-12.79h-.53c-2.49,10.66-5.29,21.41-8.4,32.25l-2.93,10.79Z"/>
    </g>
  </g>
  <line class="cls-4" x1="101.2" y1="261.48" x2="413.2" y2="261.48"/>
</svg>