<?xml version="1.0" encoding="UTF-8"?>
<svg id="_圖層_1" data-name="圖層 1" xmlns="http://www.w3.org/2000/svg" viewBox="0 0 533.12 349.99">
  <defs>
    <style>
      .cls-1 {
        fill: #ff6f9b;
        stroke-width: 0px;
      }
    </style>
  </defs>
  <path class="cls-1" d="m13.46,116.82c-1.25.49-2.91.22-5-.8-2.09-1.02-3.4-2.15-3.93-3.4-.53-1.24-.36-2.93.53-5.06,1.42-4.44,2.62-10.48,3.6-18.13.53-4.71,2.98-6.71,7.33-6,4,.71,5.78,3.02,5.33,6.93-.53,4.18-1.29,8.49-2.27,12.93-.89,3.73-1.73,6.84-2.53,9.33-.8,2.31-1.82,3.71-3.07,4.2Zm17.19,12.06c-4.53,0-6.8-2.22-6.8-6.66v-47.45l-11.46.93c-4.53.45-7.06-1.6-7.6-6.13-.53-4.71,1.6-7.2,6.4-7.46l2.27-.13c1.78-2.13,3.78-4.75,6-7.86-2.58-4.18-6.31-9.02-11.2-14.53-1.25-1.33-1.73-3.07-1.47-5.2.18-1.87.89-3.64,2.13-5.33.8-1.07,1.73-1.82,2.8-2.27,1.15-.35,2.27-.09,3.33.8,2.67-5.24,5.06-10.75,7.2-16.53.8-2.31,1.89-3.78,3.26-4.4,1.38-.62,3.27-.53,5.67.27,4.62,1.6,5.73,4.75,3.33,9.46-4.18,8.35-7.95,15.06-11.33,20.12,1.33,1.42,2.75,3.15,4.26,5.2,3.55-5.68,6.53-10.93,8.93-15.73,1.07-2.13,2.31-3.4,3.73-3.8,1.42-.4,3.2-.11,5.33.87,4.53,2.05,5.42,5.15,2.67,9.33-7.2,10.84-14.04,20.44-20.52,28.79l11.46-.67c-.09-.35-.29-.87-.6-1.53-.31-.67-.56-1.13-.73-1.4-.98-1.78-.89-3.55.27-5.33,1.07-1.51,2.67-2.71,4.8-3.6.8-.35,1.64-.47,2.53-.33.89.13,1.51.56,1.87,1.27l.13.27c8.62-9.42,15.99-22.43,22.12-39.05,1.51-4.35,4.66-5.86,9.46-4.53,5.06,1.33,6.71,4.4,4.93,9.2-2.58,5.95-4.89,10.97-6.93,15.06h15.33c2.67-5.51,4.93-11.11,6.8-16.79.71-2.67,1.82-4.46,3.33-5.4,1.51-.93,3.64-1.09,6.4-.47,5.77,1.25,7.33,4.84,4.66,10.8-2.22,4.62-4.22,8.58-6,11.86h12.26c4.62,0,6.93,2.31,6.93,6.93s-2.31,6.93-6.93,6.93h-13.59v12h10.13c4.53,0,6.8,2.27,6.8,6.8s-2.27,6.93-6.8,6.93h-10.13v12.13h10.53c4.53,0,6.8,2.27,6.8,6.8s-2.27,6.93-6.8,6.93h-10.53v12.93h15.59c4.62,0,6.93,2.31,6.93,6.93s-2.31,6.93-6.93,6.93h-44.25v.27c0,3.91-2.18,5.86-6.53,5.86-5.33,0-8-2.4-8-7.2V53.85c-.71.98-1.78,2.36-3.2,4.13-.89.98-1.82,1.47-2.8,1.47-.98.09-1.82-.31-2.53-1.2-1.33-1.51-3.38-3.64-6.13-6.4,3.64,6.93,6.4,13.37,8.26,19.33.44,1.69.35,3.02-.27,4-.53.98-1.69,1.87-3.46,2.67-4.53,2.13-7.42.8-8.66-4v-.27c-.09-.18-.13-.31-.13-.4l-6.66.53v48.51c0,4.44-2.22,6.66-6.66,6.66Zm16.13-20.33c-1.25-.67-2.05-2.2-2.4-4.6-.53-2.49-.98-4.35-1.33-5.6-.45-1.95-1.16-4.44-2.13-7.46-1.33-3.82,0-6.31,4-7.46,3.46-1.07,5.86.05,7.2,3.33,1.95,5.69,3.42,10.75,4.4,15.19.62,3.11-.84,5.29-4.4,6.53-2.31.71-4.09.73-5.33.07Zm30.65-52.18h14.66v-12h-14.66v12Zm0,25.86h14.66v-12.13h-14.66v12.13Zm0,26.66h14.66v-12.93h-14.66v12.93Z"/>
  <path class="cls-1" d="m143.14,121.95c-1.69-5.86,1.02-8.71,8.13-8.53h.53c1.42,0,2.13-.75,2.13-2.27v-28.12l-5.73,1.73c-5.15,1.42-8.31-.44-9.46-5.6-.53-2.58-.45-4.53.27-5.86.71-1.51,2.27-2.58,4.66-3.2.8-.18,2.09-.49,3.87-.93,2.84-.71,4.98-1.24,6.4-1.6v-23.32h-7.46c-4.89,0-7.33-2.44-7.33-7.33s2.44-7.33,7.33-7.33h7.46V11.73c0-4.8,2.4-7.2,7.2-7.2s7.2,2.4,7.2,7.2v17.86h4c4.89,0,7.33,2.44,7.33,7.33s-2.44,7.33-7.33,7.33h-4v19.59l2.93-.8c5.06-1.51,7.95.4,8.66,5.73.53,4.35-1.25,7.11-5.33,8.26-1.33.45-3.42,1.02-6.26,1.73v32.52c0,3.73-.4,6.64-1.2,8.73-.8,2.09-2.18,3.75-4.13,5-2.22,1.51-5.42,2.4-9.6,2.67-5.69.18-9.11-1.73-10.26-5.73Zm73.44.8c-1.69-5.86,1.24-8.71,8.8-8.53.62,0,1.42-.04,2.4-.13h1.07c.98,0,1.64-.15,2-.47.35-.31.53-.91.53-1.8v-26.92h-41.45c-4.8,0-7.2-2.4-7.2-7.2s2.4-7.2,7.2-7.2h41.45v-10.53h-42.65c-4.8,0-7.2-2.4-7.2-7.2s2.4-7.2,7.2-7.2h25.59v-11.59h-19.86c-4.8,0-7.2-2.4-7.2-7.2s2.4-7.2,7.2-7.2h19.86v-7.06c0-4.98,2.49-7.46,7.46-7.46s7.46,2.49,7.46,7.46v7.06h19.33c4.8,0,7.2,2.4,7.2,7.2s-2.4,7.2-7.2,7.2h-19.33v11.59h25.19c4.8,0,7.2,2.4,7.2,7.2s-2.4,7.2-7.2,7.2h-8.26v10.53h7.33c4.8,0,7.2,2.4,7.2,7.2s-2.4,7.2-7.2,7.2h-7.33v27.19c0,4.09-.45,7.15-1.33,9.2-.98,2.22-2.71,3.91-5.2,5.06-3.02,1.33-7.29,2.13-12.79,2.4-5.6.18-9.02-1.82-10.26-6Zm-16.13-14.26c-.27-.44-.67-1.13-1.2-2.07s-.93-1.62-1.2-2.07c-.36-.62-.93-1.58-1.73-2.87-.8-1.29-1.42-2.24-1.87-2.87-2.93-4.09-2.13-7.42,2.4-10,3.82-2.13,6.93-1.55,9.33,1.73,3.2,4.26,5.91,8.26,8.13,12,1.07,2.13,1.35,3.89.87,5.26-.49,1.38-1.8,2.69-3.93,3.93-4.89,2.93-8.49,1.91-10.79-3.07Z"/>
  <path class="cls-1" d="m281.35,117.35c-1.42.58-3.24.29-5.46-.87-2.4-1.24-3.86-2.55-4.4-3.93-.53-1.38-.27-3.27.8-5.66,1.78-4.62,3.15-10.17,4.13-16.66.71-5.15,3.47-7.33,8.26-6.53,4.53.8,6.44,3.46,5.73,8-.71,4.18-1.6,8.26-2.67,12.26-.8,3.29-1.73,6.31-2.8,9.06-.98,2.31-2.18,3.75-3.6,4.33Zm19.99,11.53c-4.98,0-7.46-2.49-7.46-7.46v-46.38l-14.53.93c-4.44.27-6.93-1.82-7.46-6.26-.53-4.8,1.6-7.29,6.4-7.46l2.4-.13c2.31-2.58,4.53-5.33,6.66-8.26-2.31-3.11-6.31-7.42-11.99-12.93-1.33-1.15-1.91-2.84-1.73-5.06.09-1.87.71-3.69,1.87-5.46.71-1.07,1.55-1.82,2.53-2.27,1.07-.53,2.13-.4,3.2.4,3.02-5.06,5.95-10.8,8.8-17.19.98-2.4,2.24-3.89,3.8-4.46,1.55-.58,3.53-.38,5.93.6,4.97,2.04,5.95,5.55,2.93,10.53-5.33,8.62-9.42,14.88-12.26,18.79.98.98,2.27,2.35,3.87,4.13.71.71,1.2,1.25,1.47,1.6,4.71-6.93,8.35-12.57,10.93-16.93,1.15-2.13,2.51-3.38,4.06-3.73,1.55-.35,3.44,0,5.67,1.07,4.8,2.31,5.6,5.64,2.4,10-8.35,11.37-15.91,20.88-22.66,28.52l15.99-.8c-.71-1.42-1.29-2.44-1.73-3.07-2.22-4-1.29-6.97,2.8-8.93,3.55-1.6,6.4-.75,8.53,2.53,5.06,8.44,8.75,15.82,11.06,22.12v-12.66c0-2.58.8-4.67,2.4-6.26,1.6-1.6,3.69-2.4,6.26-2.4h30.65v-22.12c0-2.13-1.07-3.2-3.2-3.2h-31.72c-4.98,0-7.46-2.49-7.46-7.46s2.49-7.46,7.46-7.46h42.12c2.58,0,4.67.8,6.26,2.4s2.4,3.69,2.4,6.26v46.11c0,5.24-2.75,7.86-8.26,7.86-5.06,0-7.6-2.44-7.6-7.33v-.27h-20.39c-2.13,0-3.2,1.07-3.2,3.2v36.92c0,2.84.42,4.64,1.27,5.4.84.76,2.82,1.13,5.93,1.13h18.66c2.93,0,4.84-1.33,5.73-4,.44-4.35,1.51-7.77,3.2-10.26,2.04-3.11,4.58-4,7.6-2.67,1.95.8,3.29,2.75,4,5.86.53,2.49.62,5.15.27,8-1.25,6.75-3.31,11.42-6.2,13.99-2.89,2.58-7.35,3.87-13.39,3.87h-21.86c-8,0-13.46-1.47-16.39-4.4-3.02-2.93-4.53-8.53-4.53-16.79v-31.85l-6.4,3.07c-1.69.89-3.22,1.05-4.6.47-1.38-.58-2.38-1.75-3-3.53-.09-.18-.2-.44-.33-.8-.13-.35-.25-.62-.33-.8l-9.33.53v47.31c0,4.97-2.49,7.46-7.46,7.46Zm15.86-23.72c-.36-1.24-.98-3.11-1.87-5.6-1.25-3.38-2.22-5.87-2.93-7.46-1.87-4-.58-6.84,3.87-8.53,3.91-1.42,6.71-.35,8.4,3.2,2.67,6.22,4.62,11.06,5.86,14.53,1.24,3.73-.22,6.4-4.4,8-4.53,1.87-7.51.49-8.93-4.13Z"/>
  <path class="cls-1" d="m429.16,129.01c-4.89,0-7.33-2.44-7.33-7.33v-48.38c-.45.45-1.05,1.07-1.8,1.87-.76.8-1.31,1.38-1.67,1.73-2.67,2.4-4.95,3.49-6.86,3.27-1.91-.22-3.58-1.93-5-5.13-1.16-2.4-1.51-4.51-1.07-6.33.44-1.82,1.73-3.62,3.87-5.4,8.08-6.93,14.97-14.57,20.66-22.92,1.24-1.95,2.91-3.24,5-3.87,2.09-.62,4.24-.49,6.46.4l4,1.73v-1.33c0-.35.18-.53.53-.53h30.25v-6.8h-19.06c-4.26,0-6.4-2.13-6.4-6.4s2.13-6.4,6.4-6.4h19.06v-5.33c0-4.97,2.53-7.46,7.6-7.46s7.46,2.49,7.46,7.46v5.33h20.26c2.58,0,4.67.8,6.26,2.4,1.6,1.6,2.4,3.69,2.4,6.26v10.93h1.2c4.44,0,6.66,2.22,6.66,6.66s-2.22,6.8-6.66,6.8h-1.2v11.06c0,2.58-.8,4.67-2.4,6.26-1.6,1.6-3.69,2.4-6.26,2.4h-20.26v6.66h23.72c4.35,0,6.53,2.18,6.53,6.53s-2.18,6.53-6.53,6.53h-23.72v7.06h28.65c4.53,0,6.8,2.27,6.8,6.8s-2.27,6.93-6.8,6.93h-28.65v10.93c0,4.97-2.49,7.46-7.46,7.46s-7.6-2.49-7.6-7.46v-10.93h-26.26c-4.53,0-6.8-2.31-6.8-6.93s2.27-6.8,6.8-6.8h26.26v-7.06h-21.46c-4.35,0-6.53-2.18-6.53-6.53s2.18-6.53,6.53-6.53h21.46v-6.66h-19.59c-4.26,0-6.4-2.13-6.4-6.4s2.13-6.4,6.4-6.4h19.59v-6.93h-24.26c-1.96,0-3.53-.6-4.73-1.8-1.2-1.2-1.8-2.78-1.8-4.73v-.4c-2.58,4.26-5.55,8.53-8.93,12.79v65.57c0,4.89-2.44,7.33-7.33,7.33Zm-20.66-91.83c-2.58-4.18-1.73-7.86,2.53-11.06,6.31-4.8,11.82-10.22,16.53-16.26,2.49-3.46,5.91-4.35,10.26-2.67,5.6,2.22,6.62,5.69,3.07,10.4-3.02,3.64-6.44,7.38-10.26,11.2-3.2,3.38-7.11,6.89-11.73,10.53-4.26,3.11-7.73,2.4-10.4-2.13Zm82.77-.4h13.99v-3.87c0-1.95-.98-2.93-2.93-2.93h-11.06v6.8Zm0,20.39h10.79c2.13,0,3.2-1.07,3.2-3.2v-3.73h-13.99v6.93Z"/>
  <path class="cls-1" d="m92.23,287.22c-7.64,0-12.75-1.42-15.33-4.26-2.58-2.67-3.86-7.82-3.86-15.46v-24.39h-15.06c-1.33,10.93-4,19.37-8,25.32-4.98,7.38-13.11,13.11-24.39,17.19-3.11.89-6,1.2-8.66.93-3.38-.27-5.69-1.42-6.93-3.46-1.87-3.02-1.33-5.86,1.6-8.53,2.4-2.22,5.86-3.95,10.4-5.2,6.57-2.75,11.33-6.4,14.26-10.93,2.31-3.64,3.91-8.75,4.8-15.33h-9.33c-2.49,0-4.51-.78-6.06-2.33-1.56-1.55-2.33-3.58-2.33-6.06v-25.32c0-2.58.8-4.67,2.4-6.26,1.6-1.6,3.69-2.4,6.26-2.4h26.26v-10.66H16.66c-4.8,0-7.2-2.4-7.2-7.2s2.4-7.2,7.2-7.2h41.58v-3.46c0-5.24,2.67-7.86,8-7.86s7.86,2.62,7.86,7.86v3.46h43.05c4.8,0,7.2,2.4,7.2,7.2s-2.4,7.2-7.2,7.2h-43.05v10.66h28.39c2.58,0,4.67.8,6.26,2.4s2.4,3.69,2.4,6.26v25.06c0,2.58-.8,4.66-2.4,6.26-1.6,1.6-3.69,2.4-6.26,2.4h-13.46v24.26c0,2.13.33,3.49,1,4.06.67.58,2.2.87,4.6.87h13.06c1.95,0,3.24-.67,3.87-2,.44-4.26,1.47-7.55,3.07-9.86,1.95-2.84,4.44-3.64,7.46-2.4,1.95.8,3.29,2.8,4,6,.53,2.4.62,5.06.27,8-1.07,5.78-2.93,9.77-5.6,12-2.49,2.13-6.35,3.2-11.6,3.2h-16.93Zm-50.51-58.11h49.98c2.13,0,3.2-1.07,3.2-3.2v-8.13c0-2.13-1.07-3.2-3.2-3.2h-49.98c-2.13,0-3.2,1.07-3.2,3.2v8.13c0,2.13,1.07,3.2,3.2,3.2Z"/>
  <path class="cls-1" d="m162.33,282.55c-.89-3.29-.62-5.64.8-7.06,1.33-1.33,3.82-1.95,7.46-1.87h.4c1.51,0,2.27-.8,2.27-2.4v-26.39h-13.86c-1.07,14.39-3.2,26.66-6.4,36.79-.98,2.67-2.2,4.26-3.67,4.8-1.47.53-3.45.09-5.93-1.33-2.13-1.25-3.44-2.64-3.93-4.2-.49-1.56-.29-3.53.6-5.93,4.09-12.53,6.13-31.72,6.13-57.58v-39.72c0-2.58.8-4.66,2.4-6.26s3.69-2.4,6.26-2.4h24.26c2.58,0,4.67.8,6.26,2.4,1.6,1.6,2.4,3.69,2.4,6.26v93.83c0,3.91-.36,6.88-1.07,8.93-.8,2.4-2.27,4.22-4.4,5.46-2.22,1.33-5.33,2.22-9.33,2.67-5.95.18-9.51-1.82-10.66-6Zm-2.13-52.64h13.06v-16.13h-12.93v9.73c0,2.75-.05,4.89-.13,6.4Zm.13-30.79h12.93v-12.26c0-2.13-1.07-3.2-3.2-3.2h-6.53c-2.13,0-3.2,1.07-3.2,3.2v12.26Zm42.12,89.83c-4.98,0-7.46-2.49-7.46-7.46v-103.69c0-2.58.8-4.67,2.4-6.26s3.69-2.4,6.26-2.4h43.45c2.58,0,4.66.8,6.26,2.4,1.6,1.6,2.4,3.69,2.4,6.26v17.06c0,3.64-.49,6.35-1.47,8.13-1.07,2.04-2.93,3.6-5.6,4.67-2.93,1.16-7.86,1.82-14.79,2-5.15,0-8.4-1.82-9.73-5.46-1.78-5.33.98-7.82,8.26-7.46,1.07,0,2.4-.04,4-.13h1.47c1.07-.09,1.8-.27,2.2-.53.4-.27.6-.8.6-1.6v-7.46c0-2.13-1.07-3.2-3.2-3.2h-24.39c-2.13,0-3.2,1.07-3.2,3.2v28.39h40.52c2.84,0,4.95.93,6.33,2.8,1.38,1.87,1.75,4.58,1.13,8.13-2.93,14.04-7.55,26.12-13.86,36.25,3.38,3.47,6.97,6.53,10.79,9.2,3.02,1.69,4.8,3.38,5.33,5.07.62,1.87-.09,4.08-2.13,6.66-1.51,1.95-3.2,3.02-5.06,3.2-1.6.18-3.55-.45-5.86-1.87-4.53-3.29-8.58-6.75-12.13-10.4-2.84,3.2-6.13,6.26-9.86,9.2-2.22,1.51-4.44,2.07-6.66,1.67-2.22-.4-4.09-1.71-5.6-3.93-.89-1.16-1.87-2.27-2.93-3.33v3.46c0,4.98-2.49,7.46-7.46,7.46Zm10.13-14.26c4.71-3.11,9.2-7.11,13.46-12-5.95-8.97-11.06-19.99-15.33-33.05h-.8v43.45c0,2.13.89,2.67,2.67,1.6Zm21.59-24.26c3.64-6.31,6.53-13.24,8.66-20.79h-18.79c.89,2.4,2.4,6,4.53,10.79,1.78,3.47,3.64,6.8,5.6,10Z"/>
  <path class="cls-1" d="m278.02,282.15c-4.98-4.8-3.64-9.68,4-14.66,16.08-12.17,27.37-29.1,33.85-50.78,3.46-12.08,5.55-26.7,6.26-43.85.09-2.49.93-4.09,2.53-4.8,1.07-.44,3.24-.67,6.53-.67h.67c2.49,0,4.46.65,5.93,1.93,1.47,1.29,2.15,3.09,2.07,5.4v.27c.71,14.48,3.38,28.39,8,41.72,7.46,21.33,19.1,37.72,34.92,49.18,3.91,2.31,6.57,4.75,8,7.33,1.69,3.11,1.33,6-1.07,8.66-3.38,3.73-8,4-13.86.8-20.52-13.33-34.96-33.99-43.32-61.97-7.64,26.21-21.06,46.56-40.25,61.04-5.78,3.91-10.53,4.04-14.26.4Z"/>
  <path class="cls-1" d="m428.22,288.82c-5.24,0-7.86-2.62-7.86-7.86v-87.43c-.62,10.58-2.09,20.57-4.4,29.99-.98,3.64-3.42,4.71-7.33,3.2-2.05-.8-3.4-1.73-4.07-2.8s-.69-2.53-.07-4.4c1.42-4.88,2.71-11.86,3.87-20.92.27-2.58,1.29-4.53,3.07-5.86,1.78-1.33,4-1.82,6.66-1.47l2.27.27v-19.33c0-5.24,2.62-7.86,7.86-7.86s7.86,2.62,7.86,7.86v17.33l4.26-1.73c2.31-.98,4-.4,5.06,1.73,1.51,3.29,3.02,6.89,4.53,10.8.35.89.71,1.33,1.07,1.33s.67-.44.93-1.33c2.22-7.11,3.91-14.44,5.06-21.99.71-5.15,3.64-7.37,8.8-6.66,4.98.71,7.11,3.55,6.4,8.53-.89,4.98-1.6,8.66-2.13,11.06h10.53v-18.26c0-5.24,2.62-7.86,7.86-7.86s7.86,2.62,7.86,7.86v18.26h19.46c4.98,0,7.46,2.49,7.46,7.46s-2.49,7.46-7.46,7.46h-19.46v21.86h16.79c4.89,0,7.33,2.44,7.33,7.33s-2.44,7.46-7.33,7.46h-16.79v26.66h23.59c4.98,0,7.46,2.49,7.46,7.46s-2.49,7.6-7.46,7.6h-67.04c-4.98,0-7.46-2.53-7.46-7.6s2.49-7.46,7.46-7.46h27.72v-26.66h-18.13c-4.89,0-7.33-2.49-7.33-7.46s2.44-7.33,7.33-7.33h18.13v-21.86h-14.53c-1.42,4.8-2.8,8.62-4.13,11.46-1.16,2.49-2.51,3.98-4.06,4.46-1.56.49-3.58.11-6.06-1.13-4.71-2.4-5.82-6.09-3.33-11.06l.13-.13v-.13l-4.13,1.87c-.98.45-1.87.51-2.67.2-.8-.31-1.29-.87-1.47-1.67-.8-3.29-2.22-7.37-4.26-12.26v83.17c0,5.24-2.62,7.86-7.86,7.86Z"/>
</svg>