<?xml version="1.0" encoding="UTF-8"?>
<svg id="_圖層_1" data-name="圖層 1" xmlns="http://www.w3.org/2000/svg" viewBox="0 0 533.12 349.99">
  <defs>
    <style>
      .cls-1 {
        fill: #ff6f9b;
        stroke-width: 0px;
      }
    </style>
  </defs>
  <path class="cls-1" d="m13,125.68c-1.38.27-3.13-.58-5.26-2.53-1.51-1.42-2.45-2.8-2.8-4.13-.36-1.33-.18-2.98.53-4.93,2.04-6.13,3.46-13.42,4.26-21.86.62-6.4.93-14.75.93-25.06V15.73c0-4.17,2.09-6.26,6.26-6.26s6.26,2.09,6.26,6.26v51.58c0,12.08-.36,21.68-1.07,28.79-.98,9.78-2.75,18.17-5.33,25.19-1.16,2.67-2.42,4.13-3.8,4.4Zm21.66-15.33c-3.64,0-5.46-1.78-5.46-5.33V24.26c0-3.55,1.82-5.33,5.46-5.33s5.33,1.78,5.33,5.33v80.77c0,3.55-1.78,5.33-5.33,5.33Zm31.99,16.39c-2.04-.45-3.78-1.47-5.2-3.07-.53-.62-1.38-1.51-2.53-2.67v.27c0,.89-.42,1.6-1.27,2.13-.84.53-1.75.8-2.73.8-2.22,0-4.18-.53-5.86-1.6-1.78-1.16-2.67-2.71-2.67-4.67V15.06c0-4.18,2.09-6.26,6.26-6.26s6.26,2.09,6.26,6.26v99.96c0,2.04.98,2.62,2.93,1.73,4.88-2.75,9.55-5.95,13.99-9.6,1.51-1.51,3.07-2.27,4.66-2.27,1.33,0,2.98.62,4.93,1.87,4.62,3.11,4.97,6.35,1.07,9.73-4.44,3.64-9.15,6.8-14.13,9.46-1.78.98-3.69,1.24-5.73.8Zm8.8-24.26c-2.58,0-4.66-.8-6.26-2.4-1.6-1.6-2.4-3.69-2.4-6.26v-53.31c0-2.58.8-4.67,2.4-6.26,1.6-1.6,3.69-2.4,6.26-2.4h10.26c.27-1.51.62-3.87,1.07-7.06.09-.71.18-1.24.27-1.6h-16.79c-4.53,0-6.8-2.27-6.8-6.8s2.27-6.8,6.8-6.8h49.31c4.53,0,6.8,2.27,6.8,6.8s-2.27,6.8-6.8,6.8h-15.86c-1.42,3.91-2.44,6.8-3.07,8.66h13.73c2.58,0,4.66.8,6.26,2.4,1.6,1.6,2.4,3.69,2.4,6.26v53.31c0,2.58-.8,4.67-2.4,6.26-1.6,1.6-3.69,2.4-6.26,2.4h-38.92Zm5.46-50.51h27.32v-5.33c0-2.13-1.07-3.2-3.2-3.2h-20.92c-2.13,0-3.2,1.07-3.2,3.2v5.33Zm0,19.33h27.32v-8.53h-27.32v8.53Zm3.2,19.59h20.92c2.13,0,3.2-1.07,3.2-3.2v-5.33h-27.32v5.33c0,2.13,1.07,3.2,3.2,3.2Zm29.46,33.45c-.45-.45-1.16-1.07-2.13-1.87-1.16-.98-2-1.73-2.53-2.27-2.13-1.78-3.73-3.07-4.8-3.87-4.26-3.47-4.04-6.66.67-9.6,3.02-1.95,5.82-2,8.4-.13,4.62,3.38,8.53,6.35,11.73,8.93,1.95,1.87,2.84,3.51,2.67,4.93-.18,1.42-1.42,2.93-3.73,4.53-3.82,2.58-7.24,2.35-10.26-.67Z"/>
  <path class="cls-1" d="m252.16,83.17c-6.22,0-10.49-4.93-12.79-14.79-1.78-7.37-2.75-19.73-2.93-37.05h-8.93c-.62,6.49-1.38,11.77-2.27,15.86,3.29,1.96,6.04,3.82,8.26,5.6,2.58,2.13,2.93,4.8,1.07,8-2.58,4.44-5.69,5.06-9.33,1.87-.8-.62-2.09-1.55-3.86-2.8-2.22,5.6-5.24,10.35-9.06,14.26-2.22,1.87-4.46,2.69-6.73,2.47-2.27-.22-4.29-1.49-6.06-3.8-.45-.44-1.11-1.02-2-1.73v3.6c0,1.87-.98,2.89-2.93,3.07-4.44.27-11.15.71-20.12,1.33-13.77.89-23.5,1.56-29.19,2-1.78.09-3.02-.31-3.73-1.2-.53-.71-.89-2.09-1.07-4.13-.18-1.95.07-3.38.73-4.26.67-.89,1.89-1.38,3.67-1.47,2.13-.09,5.55-.22,10.26-.4,3.38-.18,5.95-.31,7.73-.4v-6.26h-13.06c-3.11,0-4.67-1.55-4.67-4.66s1.55-4.67,4.67-4.67h13.06v-3.33c0-1.69.84-2.53,2.53-2.53h10c-1.69-1.33-2.53-4.31-2.53-8.93v-3.6h-6.66c-2.13,7.2-7.38,12.62-15.73,16.26-3.64,1.25-6.22.62-7.73-1.87-2.31-3.64-.76-6.26,4.67-7.86,3.55-1.6,5.91-3.78,7.06-6.53h-8.8c-3.29,0-4.93-1.69-4.93-5.06s1.64-4.93,4.93-4.93h17.19v-2.8c0-1.33-.67-2-2-2h-11.33c-3.11,0-4.66-1.55-4.66-4.67s1.55-4.66,4.66-4.66h13.33v-.27c0-4.27,2.4-6.4,7.2-6.4s7.06,2.13,7.06,6.4v.27h13.59c3.11,0,4.66,1.55,4.66,4.66s-1.55,4.67-4.66,4.67h-10.4c-2.13,0-3.2,1.07-3.2,3.2v1.6h17.99c3.29,0,4.93,1.65,4.93,4.93s-1.64,5.06-4.93,5.06h-10.66v3.6c0,1.25.07,2,.2,2.27.13.27.55.4,1.27.4h3.46c1.33-3.02,3.55-4,6.66-2.93,1.42.53,2.35,1.51,2.8,2.93.44,1.33.44,2.8,0,4.4-1.33,2.49-4,3.73-8,3.73h-6.93c-3.02,0-5.29-.31-6.8-.93v4.93h13.73c3.11,0,4.67,1.56,4.67,4.67s-1.56,4.66-4.67,4.66h-10.53c-2.13,0-3.2,1.07-3.2,3.2v2.27l18.39-1.07c1.33-.18,2,.45,2,1.87v.4c5.51-3.91,9.68-9.46,12.53-16.66-.53-.35-1.36-.84-2.47-1.47-1.11-.62-1.93-1.07-2.47-1.33-3.82-1.69-4.58-4.4-2.27-8.13,1.95-3.02,4.49-3.87,7.6-2.53.62.36,1.55.8,2.8,1.33.53-3.64.89-6.8,1.07-9.46h-5.46c-4.18,0-6.26-2.13-6.26-6.4s2.09-6.26,6.26-6.26h6.13c.09-1.6.13-4.04.13-7.33.18-4.62,2.4-6.93,6.66-6.93,4.62,0,6.84,2.31,6.66,6.93,0,1.69-.09,4.13-.27,7.33h13.46c5.77,0,8.62,4.53,8.53,13.59-.09,12.17.04,21.01.4,26.52.53,7.11,1.47,10.66,2.8,10.66.53,0,.93-.84,1.2-2.53.27-3.55.93-6,2-7.33,1.24-1.42,2.89-1.07,4.93,1.07,1.51,1.51,2.04,4.31,1.6,8.4-.71,4.98-1.82,8.53-3.33,10.66-1.69,2.31-4.22,3.47-7.6,3.47Zm-32.12,45.71c-5.78-.18-9.11-2.67-10-7.46v-.13l-.13-.27c-.98-2.04-1.02-3.6-.13-4.66.89-1.07,2.71-1.51,5.46-1.33,2.4.18,5.15.27,8.26.27,2.49,0,4.26-.44,5.33-1.33,1.78-1.42,3.24-6.35,4.4-14.79h-30.25c-2.76,7.29-7.33,13.11-13.73,17.46-7.02,4.71-17.11,8.31-30.25,10.79-2.67.44-5.2.44-7.6,0-2.93-.53-4.89-1.69-5.86-3.46-1.42-2.58-.85-4.84,1.73-6.8,2.04-1.51,5.02-2.53,8.93-3.07,15.28-2.93,25.14-7.91,29.59-14.93h-30.65c-4,0-6-2-6-6s2-6,6-6h35.05v-.27c.35-2.04,1.42-3.64,3.2-4.8,1.6-1.07,3.55-1.6,5.86-1.6s4,.53,5.33,1.6c1.33,1.16,1.87,2.75,1.6,4.8v.27h35.05c6.13,0,8.57,5.06,7.33,15.19-1.69,11.91-3.91,19.1-6.66,21.59-2.84,2.75-6.71,4.26-11.59,4.53-2.49.27-5.91.4-10.26.4Z"/>
  <path class="cls-1" d="m287.88,128.88c-5.42,0-8.13-2.71-8.13-8.13V48.11c0-2.58.8-4.66,2.4-6.26s3.69-2.4,6.26-2.4h29.72c1.15-3.82,2.27-8.48,3.33-13.99h-39.85c-5.33,0-8-2.71-8-8.13s2.67-8,8-8h103.56c5.33,0,8,2.67,8,8s-2.67,8.13-8,8.13h-45.18c-1.25,4.26-2.8,8.93-4.67,13.99h43.45c2.58,0,4.67.8,6.26,2.4,1.6,1.6,2.4,3.69,2.4,6.26v63.97c0,3.82-.4,6.75-1.2,8.8-.98,2.13-2.62,3.82-4.93,5.06-2.58,1.24-6.58,2.09-12,2.53-5.42.18-8.8-1.73-10.13-5.73-2.04-5.78.67-8.57,8.13-8.4h1.73c.98,0,1.62-.18,1.93-.53.31-.35.47-.98.47-1.87v-54.51c0-2.13-1.07-3.2-3.2-3.2h-12.39v62.64c0,5.24-2.62,7.86-7.86,7.86s-7.86-2.62-7.86-7.86v-62.64h-14.39v62.77c0,5.15-2.58,7.73-7.73,7.73s-7.86-2.58-7.86-7.73v-62.77h-10.93c-2.13,0-3.2,1.07-3.2,3.2v63.31c0,5.42-2.71,8.13-8.13,8.13Z"/>
  <path class="cls-1" d="m430.36,128.35c-5.33-.18-8.53-2.53-9.6-7.06v-.13l-.13-.27c-1.87-4-.18-5.82,5.07-5.46,2.31.09,4.97.13,8,.13,2.31,0,3.95-.4,4.93-1.2,1.33-1.24,2.4-5.02,3.2-11.33.18-1.95.07-3.31-.33-4.07-.4-.75-1.18-1.13-2.33-1.13h-13.86v.27c-.53,1.87-2.13,2.62-4.8,2.27-5.69-.89-8.04-3.24-7.06-7.06,1.42-5.77,2.8-12.31,4.13-19.59.44-2.31,1.49-4.15,3.13-5.53,1.64-1.38,3.67-2.07,6.06-2.07h13.2c2.13,0,3.2-1.07,3.2-3.2v-2.93c0-2.13-1.07-3.2-3.2-3.2h-18.13c-.36,0-.53-.18-.53-.53v-.4c-1.42.71-2.53,1.25-3.33,1.6-4,1.51-7.11.71-9.33-2.4-1.78-2.4-2.36-4.4-1.73-6,.62-1.6,2.4-2.93,5.33-4,5.15-2.22,9.64-4.58,13.46-7.06-.36-.27-.89-.67-1.6-1.2-1.87-1.33-3.33-2.35-4.4-3.07-4-2.58-4.26-5.51-.8-8.8,2.4-2.22,4.93-2.62,7.6-1.2,4.53,2.58,7.77,4.67,9.73,6.26,2.84-2.58,5.46-5.42,7.86-8.53h-19.86c-4.09,0-6.13-2.09-6.13-6.26s2.04-6.13,6.13-6.13h30.39c3.11,0,5.2.93,6.26,2.8,1.07,1.87.93,4.58-.4,8.13-4.62,9.6-11.42,17.82-20.39,24.66h8.93c2.4,0,4.33.73,5.8,2.2,1.47,1.47,2.2,3.4,2.2,5.8v15.59c0,1.07.24,1.67.73,1.8.49.13,1.4-.29,2.73-1.27,4.09-3.82,6.13-8.93,6.13-15.33v-5.2c0-2.84,1.42-4.27,4.26-4.27h21.86c-9.86-7.64-17.95-17.41-24.26-29.32-2.22-4.44-1.07-7.33,3.46-8.66,3.82-1.07,6.62.13,8.4,3.6,1.51,2.75,3.2,5.33,5.06,7.73,2.4-2.04,5.07-4.53,8-7.46,1.51-1.69,3-2.6,4.46-2.73,1.47-.13,3.09.47,4.87,1.8,4,3.02,3.91,6.22-.27,9.6-3.64,3.02-6.8,5.51-9.46,7.46,2.04,1.96,4.4,3.96,7.06,6,3.55-2.84,6.93-5.86,10.13-9.06,2.75-3.02,5.86-3.29,9.33-.8,4.17,2.93,4.13,6.18-.13,9.73-1.69,1.42-4.22,3.38-7.6,5.86-.53.36-.89.62-1.07.8,2.93,1.51,5.64,2.75,8.13,3.73,3.47,1.07,5.55,2.45,6.26,4.13.8,1.69.18,3.91-1.87,6.66-2.4,3.29-5.73,4.18-10,2.67-2.75-1.15-5.6-2.49-8.53-4v12.26c0,1.87.09,2.93.27,3.2.35.36.84.53,1.47.53h2.27c.98,0,1.55-.04,1.73-.13.71-.35,1.15-.89,1.33-1.6.18-.71.31-1.64.4-2.8.09-2.13.75-2.75,2-1.87.71.45,1.87,1.11,3.46,2,3.73,1.6,5.2,4.49,4.4,8.66-.09.62-.36,1.38-.8,2.27-.98,1.78-2.62,3.02-4.93,3.73-1.6.62-3.69.93-6.26.93h-6.8c-3.82,0-6.71-.98-8.66-2.93-1.16-1.15-1.96-2.53-2.4-4.13-.45-1.78-.67-4.49-.67-8.13v-7.73h-11.86c-.36,8.09-2.71,14.71-7.06,19.86-2.4,2.13-4.75,3.2-7.06,3.2s-4.18-.98-5.86-2.93c-1.25-1.24-2.13-2.09-2.67-2.53v.27c0,1.69-1.38,3.07-4.13,4.13-2.4.98-4.75,1.47-7.06,1.47-.53,0-1.07-.13-1.6-.4-.71-.27-1.07-.58-1.07-.93v-.27h-13.46c-.09.62-.25,1.53-.47,2.73-.22,1.2-.42,2.11-.6,2.73-.45,2.04.4,3.07,2.53,3.07h17.19c2.93,0,5.02,1.07,6.26,3.2,1.42,2.4,1.91,6.35,1.47,11.86-.62,6.66-1.38,11.68-2.27,15.06-.89,3.29-2.04,5.64-3.46,7.06-2.4,2.67-5.91,4.18-10.53,4.53-2.58.27-5.73.35-9.46.27Zm28.52-4.13c-1.33-2.49-1.55-4.4-.67-5.73.8-1.33,2.67-2.31,5.6-2.93,5.24-1.42,9.86-3.07,13.86-4.93-2.04-1.95-4.22-4.53-6.53-7.73-1.33-2.22-1.67-4.2-1-5.93.67-1.73,2.24-2.91,4.73-3.53l.4-.13h-7.46c-3.46,0-5.2-1.78-5.2-5.33s1.73-5.2,5.2-5.2h38.25c3.02,0,5.11.93,6.26,2.8,1.15,1.87,1.15,4.58,0,8.13-2.75,6.31-6.58,11.82-11.46,16.53,3.11,1.33,6.93,2.58,11.46,3.73,3.82.71,6.26,1.82,7.33,3.33,1.07,1.69.53,4-1.6,6.93-2.22,3.02-5.55,4.04-10,3.07-6.93-1.96-13.37-4.67-19.33-8.13-5.95,3.38-12.97,6.13-21.06,8.26-4.09.98-7.02-.09-8.8-3.2Zm29.99-20.66c3.73-2.93,6.84-6.35,9.33-10.26h-15.86c-2.05,0-2.49.85-1.33,2.53.18.18.44.49.8.93.71.89,1.29,1.56,1.73,2,1.33,1.51,3.11,3.11,5.33,4.8Z"/>
  <path class="cls-1" d="m12.13,286.42c-3.38,0-5.06-1.69-5.06-5.06s1.69-5.2,5.06-5.2h8.66c-1.25-1.6-2.35-2.89-3.33-3.87-1.78-1.69-1.38-3.2,1.2-4.53,7.64-4.09,12.66-9.15,15.06-15.19h-14.39c-3.29,0-4.93-1.64-4.93-4.93s1.64-4.93,4.93-4.93h94.89c3.29,0,4.93,1.65,4.93,4.93s-1.65,4.93-4.93,4.93h-22.39l5.06.67c1.33.18,2.27.71,2.8,1.6.53.89.62,1.96.27,3.2-.53,1.42-.93,2.45-1.2,3.07,3.55,1.33,6.75,2.71,9.6,4.13,1.78.98,2.89,2.47,3.33,4.46.44,2,.09,4.02-1.07,6.06l-.13.4h10.79c3.38,0,5.07,1.73,5.07,5.2s-1.69,5.06-5.07,5.06H12.13Zm53.98-72.24c-4.98,0-7.46-2.44-7.46-7.33v-16.39H24.52c-2.13,0-3.2,1.07-3.2,3.2v2.93c0,4.18-2.09,6.26-6.26,6.26s-6.26-2.09-6.26-6.26v-7.86c0-2.13.62-3.82,1.87-5.06s2.93-1.87,5.06-1.87h42.92v-4.13H23.46c-3.02,0-4.53-1.55-4.53-4.66s1.51-4.53,4.53-4.53h86.63c3.02,0,4.53,1.51,4.53,4.53s-1.51,4.66-4.53,4.66h-36.65v4.13h42.38c2.58,0,4.67.8,6.26,2.4,1.6,1.6,2.4,3.69,2.4,6.26v5.86c0,4.35-2.18,6.53-6.53,6.53s-6.66-2.18-6.66-6.53v-2.67c0-2.13-1.07-3.2-3.2-3.2h-34.65v16.39c0,4.89-2.44,7.33-7.33,7.33Zm-44.38,24.66c-2.22,0-4.02-.69-5.4-2.07-1.38-1.38-2.07-3.18-2.07-5.4v-5.46c0-2.58.8-4.67,2.4-6.26,1.6-1.6,3.69-2.4,6.26-2.4h14.13c2.58,0,4.66.8,6.26,2.4,1.6,1.6,2.4,3.69,2.4,6.26v4.26c0,2.58-.8,4.67-2.4,6.26s-3.69,2.4-6.26,2.4h-15.33Zm4.67-26.26c-2.4,0-3.6-1.24-3.6-3.73s1.2-3.6,3.6-3.6h24.52c2.4,0,3.6,1.2,3.6,3.6s-1.2,3.73-3.6,3.73h-24.52Zm1.47,18.79h3.2c2.13,0,3.2-1.07,3.2-3.2v-.67c0-2.04-1.02-3.07-3.07-3.07h-4.53c-1.25,0-1.87.62-1.87,1.87v2c0,2.04,1.02,3.07,3.07,3.07Zm1.6-29.85c-2.4,0-3.6-1.24-3.6-3.73s1.2-3.6,3.6-3.6h21.59c2.4,0,3.6,1.2,3.6,3.6s-1.2,3.73-3.6,3.73h-21.59Zm-3.6,74.64h22.39c-3.11-2.4-7.38-4.89-12.79-7.46-2.58,2.76-5.78,5.24-9.6,7.46Zm25.06,0h7.73v-23.59h-24.26l5.6,1.07c1.51.27,2.53.89,3.07,1.87.53.98.44,2.18-.27,3.6-.36.71-.8,1.47-1.33,2.27,2.58,1.07,5.29,2.45,8.13,4.13,1.78,1.16,2.82,2.67,3.13,4.53.31,1.87-.2,3.78-1.53,5.73l-.27.4Zm8.53-37.32c-2.58,0-4.67-.8-6.26-2.4-1.6-1.6-2.4-3.69-2.4-6.26v-4.26c0-2.58.8-4.67,2.4-6.26s3.69-2.4,6.26-2.4h15.73c2.31,0,4.15.69,5.53,2.07,1.38,1.38,2.07,3.22,2.07,5.53v5.33c0,2.58-.8,4.67-2.4,6.26s-3.69,2.4-6.26,2.4h-14.66Zm5.06-7.46h4.93c1.42,0,2.13-.71,2.13-2.13v-1.73c0-2.04-1.02-3.07-3.07-3.07h-3.86c-2.13,0-3.2,1.07-3.2,3.2v.67c0,2.04,1.02,3.07,3.07,3.07Zm8.93,44.78h8c-.8-1.15-2-2.53-3.6-4.13-1.96-1.95-1.56-3.69,1.2-5.2,5.6-3.47,9.2-8.22,10.8-14.26h-16.39v23.59Zm7.73-74.64c-2.4,0-3.6-1.24-3.6-3.73s1.2-3.6,3.6-3.6h22.26c2.4,0,3.6,1.2,3.6,3.6s-1.2,3.73-3.6,3.73h-22.26Zm0,11.06c-2.4,0-3.6-1.24-3.6-3.73s1.2-3.6,3.6-3.6h24.92c2.4,0,3.6,1.2,3.6,3.6s-1.2,3.73-3.6,3.73h-24.92Zm4.13,63.57h21.99c-3.38-2.22-8-4.58-13.86-7.06-2.4,2.67-5.11,5.02-8.13,7.06Zm10.93-37.32c-2.58,0-4.67-.8-6.26-2.4-1.6-1.6-2.4-3.69-2.4-6.26v-4.26c0-2.58.8-4.67,2.4-6.26s3.69-2.4,6.26-2.4h16.13c2.31,0,4.18.71,5.6,2.13,1.42,1.42,2.13,3.29,2.13,5.6v5.2c0,2.58-.8,4.67-2.4,6.26-1.6,1.6-3.69,2.4-6.26,2.4h-15.19Zm5.33-7.46h5.06c1.42,0,2.13-.71,2.13-2.13v-1.73c0-2.04-1.02-3.07-3.07-3.07h-4c-2.13,0-3.2,1.07-3.2,3.2v.67c0,2.04,1.02,3.07,3.07,3.07Z"/>
  <path class="cls-1" d="m163.07,225.97c-1.65.4-3.62-.11-5.93-1.53-.27-.18-.76-.44-1.47-.8-1.6-.98-2.8-1.69-3.6-2.13-2.84-1.6-5.02-2.84-6.53-3.73-4.26-2.4-4.89-5.73-1.87-10,2.58-3.46,5.6-4.35,9.06-2.67.53.27,1.38.71,2.53,1.33,4.97,2.4,8.6,4.24,10.86,5.53,2.27,1.29,3.49,2.73,3.67,4.33.27,1.51-.38,3.4-1.93,5.66-1.56,2.27-3.16,3.6-4.8,4Zm-16.06,55.64c-2.22-1.78-3.51-3.51-3.87-5.2-.36-1.69.22-3.64,1.73-5.86,2.93-4.53,5.64-8.84,8.13-12.93,3.11-5.06,6-10.08,8.66-15.06,2.84-5.42,6.53-6,11.06-1.73,3.11,2.93,3.73,6.26,1.87,10-5.78,10.93-11.11,20.57-15.99,28.92-3.11,4.98-6.98,5.6-11.6,1.87Zm21.79-91.96c-1.73.36-3.67-.22-5.8-1.73-.62-.35-1.55-.93-2.8-1.73-.89-.53-1.56-.93-2-1.2-.71-.44-1.78-1.09-3.2-1.93-1.42-.84-2.49-1.44-3.2-1.8-4.53-2.4-5.11-5.77-1.73-10.13,2.58-3.38,5.64-4.18,9.2-2.4.98.53,2.44,1.29,4.4,2.27,4,2.13,6.88,3.69,8.66,4.66,2.31,1.33,3.55,2.8,3.73,4.4.18,1.6-.56,3.51-2.2,5.73-1.64,2.22-3.33,3.51-5.06,3.87Zm25.66,93.7c-2.58,0-4.67-.8-6.26-2.4-1.6-1.6-2.4-3.69-2.4-6.26v-31.05c0-2.58.8-4.67,2.4-6.26s3.69-2.4,6.26-2.4h18.26v-16.79h-27.46c-5.06,0-7.6-2.53-7.6-7.6s2.53-7.6,7.6-7.6h27.46v-15.59c-6.31.89-12.66,1.69-19.06,2.4-4.44.36-7.33-1.42-8.66-5.33-1.6-5.06.62-7.95,6.66-8.66,19.99-2.49,35.94-5.73,47.85-9.73,1.95-.71,3.64-.8,5.07-.27,1.24.45,2.67,1.51,4.26,3.2,5.15,5.24,4.4,8.98-2.27,11.2-5.6,1.6-11.91,3.11-18.93,4.53v18.26h25.86c5.06,0,7.6,2.53,7.6,7.6s-2.53,7.6-7.6,7.6h-25.86v16.79h18.26c2.58,0,4.67.8,6.26,2.4,1.6,1.6,2.4,3.69,2.4,6.26v31.05c0,2.58-.8,4.67-2.4,6.26-1.6,1.6-3.69,2.4-6.26,2.4h-51.45Zm8.66-14.39h33.32c2.13,0,3.2-1.07,3.2-3.2v-13.19c0-2.13-1.07-3.2-3.2-3.2h-33.32c-2.13,0-3.2,1.07-3.2,3.2v13.19c0,2.13,1.07,3.2,3.2,3.2Z"/>
  <path class="cls-1" d="m289.48,281.09c-2.58,0-4.67-.8-6.26-2.4-1.6-1.6-2.4-3.69-2.4-6.26v-32.12c0-5.33,2.67-8,8-8s8,2.67,8,8v21.99c0,2.13,1.07,3.2,3.2,3.2h24.39v-40.25h-29.59c-2.58,0-4.66-.8-6.26-2.4s-2.4-3.69-2.4-6.26v-31.99c0-5.15,2.58-7.73,7.73-7.73s7.73,2.58,7.73,7.73v21.99c0,2.13,1.07,3.2,3.2,3.2h19.59v-36.12c0-5.33,2.67-8,8-8s8,2.67,8,8v36.12h20.92c2.13,0,3.2-1.07,3.2-3.2v-21.59c0-5.42,2.75-8.13,8.26-8.13s8.13,2.71,8.13,8.13v31.59c0,2.58-.8,4.66-2.4,6.26s-3.69,2.4-6.26,2.4h-31.85v40.25h26.26c2.13,0,3.2-1.07,3.2-3.2v-21.86c0-5.42,2.75-8.13,8.26-8.13s8.13,2.71,8.13,8.13v31.99c0,2.58-.8,4.67-2.4,6.26-1.6,1.6-3.69,2.4-6.26,2.4h-88.1Z"/>
  <path class="cls-1" d="m446.22,288.55c-6.22,0-10.17-2.04-11.86-6.13-1.42-3.29-1.07-5.73,1.07-7.33,1.87-1.42,4.89-2.04,9.06-1.87h9.73c1.51-.09,2.6-.4,3.26-.93.67-.53,1-1.47,1-2.8v-21.46h-44.38c-5.15,0-7.73-2.58-7.73-7.73s2.58-7.73,7.73-7.73h44.38v-15.59h-35.58c-5.07,0-7.6-2.53-7.6-7.6s2.53-7.6,7.6-7.6h35.58v-15.59c-12.35.98-23.64,1.73-33.85,2.27-2.31.09-4.13-.31-5.46-1.2-1.33-.89-2.31-2.44-2.93-4.67-1.42-5.24.98-8,7.2-8.26,31.54-1.69,56.69-4.71,75.44-9.06,1.87-.53,3.46-.49,4.8.13,1.15.53,2.44,1.65,3.87,3.33,2.49,2.84,3.53,5.15,3.13,6.93-.4,1.78-2.38,3.11-5.93,4-9.33,1.87-19.33,3.42-29.99,4.66v17.46h36.79c5.06,0,7.6,2.53,7.6,7.6s-2.53,7.6-7.6,7.6h-36.79v15.59h44.38c5.15,0,7.73,2.58,7.73,7.73s-2.58,7.73-7.73,7.73h-44.38v21.72c0,4.71-.65,8.26-1.93,10.66-1.29,2.4-3.49,4.22-6.6,5.46-4.09,1.6-10.75,2.49-19.99,2.67Z"/>
</svg>