<?xml version="1.0" encoding="UTF-8"?>
<svg id="_圖層_1" data-name="圖層 1" xmlns="http://www.w3.org/2000/svg" xmlns:xlink="http://www.w3.org/1999/xlink" viewBox="0 0 160 160">
  <defs>
    <style>
      .cls-1 {
        fill: url(#linear-gradient);
      }

      .cls-1, .cls-2, .cls-3, .cls-4, .cls-5 {
        stroke-width: 0px;
      }

      .cls-6 {
        clip-path: url(#clippath-2);
      }

      .cls-7 {
        isolation: isolate;
      }

      .cls-2 {
        fill: #916a00;
      }

      .cls-3 {
        fill: none;
      }

      .cls-8 {
        clip-path: url(#clippath-1);
      }

      .cls-4 {
        fill: #fff;
      }

      .cls-5 {
        fill: #daa018;
      }

      .cls-9 {
        clip-path: url(#clippath);
      }
    </style>
    <clipPath id="clippath">
      <path class="cls-3" d="m67.29,84.29l-5.08,7.35c2.22-3.21,4.1-7.5,3.1-9.03-.4-.61-1.28-.74-2.6-.39-.09.02-.19.05-.29.08-3.21.97-5.66,3.27-7.52,5.96l5.08-7.35c1.86-2.68,4.31-4.98,7.52-5.96.1-.03.2-.06.3-.08,1.33-.35,2.2-.22,2.6.39.99,1.53-.88,5.81-3.1,9.02Z"/>
    </clipPath>
    <clipPath id="clippath-1">
      <path class="cls-3" d="m51.04,82.29c1.69-2.45,3.39-4.9,5.08-7.35-3.59,5.2-6.36,12.54-7.24,19.86l-5.08,7.35c.88-7.32,3.65-14.67,7.24-19.86Z"/>
    </clipPath>
    <clipPath id="clippath-2">
      <path class="cls-3" d="m74.58,89l-5.08,7.35c-3.47,5.05-8.33,8.41-14.49,10.04-1.74.46-3.58.78-5.52.97l5.08-7.34c1.94-.18,3.78-.51,5.52-.97,6.16-1.63,11.02-5,14.49-10.05Z"/>
    </clipPath>
    <linearGradient id="linear-gradient" x1="61.2" y1="114.88" x2="105.51" y2="46.46" gradientUnits="userSpaceOnUse">
      <stop offset=".26" stop-color="#f3b800"/>
      <stop offset=".92" stop-color="#ffe659"/>
    </linearGradient>
  </defs>
  <circle class="cls-4" cx="80" cy="80" r="80"/>
  <g>
    <path class="cls-2" d="m93.47,69.69l16.58-45.98-.98,1.43.73-2.03-5.08,7.34-16.92,46.9-.17.48.48-.21,10.78-4.66c-.32,2.52-2.41,16.84-10.65,28.76l5.08-7.35c8.24-11.92,10.34-26.24,10.65-28.76l-.3.13.47-.68-10.66,4.61Z"/>
    <g class="cls-7">
      <g class="cls-9">
        <path class="cls-2" d="m67.29,84.29l-5.08,7.35c2.22-3.21,4.1-7.5,3.1-9.03-.4-.61-1.28-.74-2.6-.39-.09.02-.19.05-.29.08-3.21.97-5.66,3.27-7.52,5.96l5.08-7.35c1.86-2.68,4.31-4.98,7.52-5.96.1-.03.2-.06.3-.08,1.33-.35,2.2-.22,2.6.39.99,1.53-.88,5.81-3.1,9.02"/>
      </g>
    </g>
    <g class="cls-7">
      <g class="cls-8">
        <path class="cls-2" d="m48.88,94.81l-5.08,7.35c.88-7.33,3.65-14.67,7.24-19.86l5.08-7.35c-3.59,5.2-6.36,12.54-7.24,19.86"/>
      </g>
    </g>
    <g class="cls-7">
      <g class="cls-6">
        <path class="cls-2" d="m74.58,89l-5.08,7.35c-3.47,5.05-8.33,8.41-14.49,10.04-1.74.46-3.58.78-5.52.97l5.08-7.34c1.94-.18,3.78-.51,5.52-.97,6.16-1.63,11.02-5,14.49-10.05"/>
      </g>
    </g>
    <path class="cls-2" d="m103.11,105.03c-6.29,6.65-14.27,11.28-23.73,13.79-10.35,2.75-18.32,2.09-23.67-1.95-5.7-4.31-7.03-11.43-7.12-16.72-2.49-.2-13.12-2.24-13.59-2.33v-.42s-5.09,7.34-5.09,7.34v.42c.47.09,11.11,2.13,13.6,2.33.1,5.29,1.42,12.4,7.13,16.72,5.35,4.03,13.32,4.69,23.67,1.94,9.45-2.51,17.43-7.14,23.72-13.79,1.74-1.84,3.36-3.84,4.84-5.98l5.08-7.34c-1.48,2.14-3.09,4.14-4.83,5.98Z"/>
    <g>
      <path class="cls-5" d="m70.75,75.05c1.59,2.44-2.6,9.55-5.3,12.18-2.4,2.33-5.97,4.4-10.61,6.14l-.39.14.09-.39c.79-3.69,4.05-15.9,12.81-18.57.1-.03.2-.06.3-.09,1.55-.41,2.59-.21,3.1.59Zm-5.61,11.87c2.88-2.82,6.57-9.63,5.26-11.65-.4-.61-1.28-.74-2.6-.39-.1.02-.2.05-.3.08-8.26,2.51-11.54,13.84-12.45,17.87,4.41-1.68,7.8-3.67,10.09-5.9"/>
      <path class="cls-1" d="m93.47,69.69l16.58-45.98,18.18,32.53-9.36,4c-.11.66,1.02,47.39-39.62,58.17-10.22,2.71-18.05,2.08-23.28-1.87-5.64-4.26-7.15-11.42-7.21-16.64-1.76-.28-9.13-1.63-12.31-2.23,2.26-.28,7.01-.98,12.16-2.34.18-.05.36-.1.53-.14,1.38-10.74,6.58-21.35,12.5-25.4,2.9-1.99,5.32-3.1,7.33-3.63,3.2-.85,5.36-.22,6.76.69,2.99,1.96,4,6.18,3.43,9.17-.39,2.08-1.43,7.61-4.96,12.74-3.41,4.97-8.19,8.27-14.25,9.88-1.78.47-3.69,1.01-5.69,1.18.11,3.01,1.3,7.85,5.77,10.33,2.93,1.63,6.7,1.84,11.24.64,2.41-.64,5.03-1.67,7.87-3.1,11.51-5.82,17.78-17.03,21.01-25.41,3.49-9.07,4.28-16.89,4.29-16.97l.04-.38-.35.16-10.66,4.61Zm-38.94,23.43l-.09.39.39-.14c4.64-1.74,8.21-3.8,10.61-6.14,2.7-2.63,6.89-9.74,5.3-12.18-.51-.8-1.56-1-3.1-.59-.1.03-.2.06-.3.09-8.76,2.67-12.02,14.89-12.81,18.57"/>
      <path class="cls-5" d="m128.73,56.26l-9.42,4.14c.02,1.35.05,12.66-4.42,25.02-2.79,7.7-6.76,14.3-11.78,19.62-6.29,6.65-14.27,11.28-23.73,13.79-10.35,2.75-18.32,2.09-23.67-1.95-5.7-4.31-7.03-11.43-7.12-16.72-2.49-.2-13.12-2.24-13.59-2.33v-.42c.06-.01,6.43-.62,13.55-2.51.11-.03.22-.06.33-.09,1.28-10.62,6.52-21.29,12.5-25.38,2.93-2.01,5.4-3.14,7.46-3.69,3.36-.89,5.64-.23,7.13.75,3.15,2.07,4.21,6.5,3.63,9.62-.39,2.11-1.44,7.7-5.02,12.89-3.47,5.05-8.33,8.41-14.49,10.05-1.74.46-3.58.78-5.52.97.32,2.73,1.49,7.44,5.68,9.77,2.83,1.57,6.48,1.77,10.9.6,2.37-.63,4.97-1.66,7.79-3.08,20.5-10.35,24.59-38.08,25.04-41.68l-10.77,4.66-.48.21.17-.48,16.92-46.9.16-.44.24.42,18.53,33.16Zm-9.85,3.99l9.36-4-18.18-32.53-16.58,45.98,10.66-4.61.35-.16-.04.38c0,.08-.8,7.89-4.29,16.97-3.23,8.39-9.5,19.6-21.01,25.41-2.83,1.43-5.46,2.46-7.87,3.1-4.54,1.2-8.31.99-11.24-.64-4.47-2.48-5.6-7.2-5.93-10.32,2.18-.4,4.07-.73,5.85-1.2,6.06-1.61,10.84-4.92,14.25-9.88,3.53-5.13,4.57-10.66,4.96-12.74.57-2.99-.44-7.21-3.43-9.17-1.4-.92-3.56-1.54-6.76-.69-2.01.53-4.43,1.65-7.33,3.63-5.93,4.05-11.12,14.66-12.36,25.23-.32.22-.5.27-.68.32-5.15,1.36-9.9,2.06-12.16,2.34,3.18.6,10.81,2.01,12.35,2.07.28,5.43,1.53,12.55,7.17,16.8,5.23,3.95,13.06,4.58,23.28,1.87,40.64-10.77,39.64-57.7,39.62-58.17"/>
    </g>
  </g>
</svg>