<?xml version="1.0" encoding="UTF-8"?>
<svg id="_圖層_1" data-name="圖層 1" xmlns="http://www.w3.org/2000/svg" viewBox="0 0 300.24 300.24">
  <defs>
    <style>
      .cls-1 {
        fill: #f99bbb;
      }

      .cls-1, .cls-2, .cls-3, .cls-4, .cls-5 {
        stroke-width: 0px;
      }

      .cls-2 {
        fill: #465b6e;
      }

      .cls-3 {
        fill: #fccddc;
      }

      .cls-4 {
        fill: #ff6f9b;
      }

      .cls-5 {
        fill: #fff;
      }
    </style>
  </defs>
  <g id="Agile_project_management" data-name="Agile project management">
    <path class="cls-3" d="m226.03,122.99c-4.62-28.78,35.4-44.31,31.71-65.72-4.27-24.7-64.17-42.23-114.84-33.79-15.2,2.53-72.44,12.06-98.43,63.87-25.08,49.99-11.41,120.13,31.19,147.73,68.36,44.3,177.63-42.69,172.57-78.28-1.89-13.33-19.27-15.61-22.19-33.81Z"/>
    <g>
      <polygon class="cls-1" points="146.63 223.46 55.03 236.98 42.83 230.97 42.83 205.44 146.63 199.67 146.63 223.46"/>
      <path class="cls-1" d="m206.2,138.18c-2.83,30.6-24.98,56.14-53.81,60.96v23.79c19.9-3.06,37.91-13.36,51.48-29.25,12.62-14.79,34.65-49.75,34.65-49.75l-12.2-6.01-20.13.26Z"/>
      <polygon class="cls-5" points="158.83 229.47 55.03 236.98 55.03 211.45 158.83 205.67 158.83 229.47"/>
      <path class="cls-5" d="m218.4,144.19c-2.83,30.6-24.98,56.14-53.81,60.96v23.79c19.9-3.06,37.91-13.36,51.48-29.25,13.3-15.59,21.08-35.11,22.45-55.76l-20.13.26Z"/>
      <path class="cls-1" d="m79.84,124.99c3.37-33.27,28.74-58.83,59.36-61.01l12.2-18.01-12.2-6.01c-20.87.5-40.83,9.01-56.59,24.6-16.1,15.92-25.84,37.26-27.58,60.49l12.2,6.01,12.61-6.08Z"/>
      <path class="cls-4" d="m206.9,67.88c-13.56-15.68-34.6-24.41-54.51-27.16v23.79l12.2,6.01,3.76-1.21c20.75,9.57,35.56,30.71,37.85,55.32l12.2,6.01,7.93-6.06c-1.37-20.63-6.12-41.32-19.42-56.7Z"/>
      <path class="cls-4" d="m139.2,200.08c-30.62-1.7-43.79-21.06-47.16-54.28l-10.63-6.01-26.38.32c1.74,23.2,11.48,44.39,27.58,60.06,15.76,15.34,35.72,23.54,56.59,23.71v-23.81Z"/>
      <polygon class="cls-4" points="230.67 217.38 139.2 224 139.2 200.08 230.67 195 230.67 217.38"/>
      <polygon class="cls-4" points="222.63 225.9 222.63 185.09 234.83 191.1 253.9 203.52 234.83 231.91 222.63 225.9"/>
      <path class="cls-5" d="m92.04,131c3.37-33.27,28.74-58.83,59.36-61.01v-24.01c-20.87.5-40.83,9.01-56.59,24.6-16.1,15.92-25.84,37.26-27.58,60.49l24.81-.07Z"/>
      <path class="cls-1" d="m164.59,70.52c28.83,4.38,50.97,29.57,53.81,60.12l20.13-.06c-1.37-20.63-9.15-40.03-22.45-55.41-13.56-15.68-31.58-25.7-51.48-28.45v23.79Z"/>
      <path class="cls-1" d="m151.4,205.89c-30.62-1.7-55.99-26.86-59.36-60.08l-24.81.32c1.74,23.2,11.48,44.39,27.58,60.06,15.76,15.34,35.72,23.54,56.59,23.71v-24.01Z"/>
      <polygon class="cls-1" points="242.86 223.38 151.4 230 151.4 205.89 242.86 201 242.86 223.38"/>
      <polygon class="cls-1" points="234.83 231.91 234.83 191.1 266.1 209.53 234.83 231.91"/>
      <path class="cls-5" d="m163.07,46.39c-.06,0-.12-.01-.18-.04l-10.68-5.26c-.2-.1-.29-.34-.19-.55.1-.2.35-.28.55-.19l10.68,5.26c.2.1.29.34.19.55-.07.14-.22.23-.37.23Z"/>
      <path class="cls-5" d="m64.8,145.34c-.06,0-.12-.01-.18-.04l-9.77-4.81c-.2-.1-.29-.34-.19-.55.1-.2.34-.29.55-.19l9.77,4.81c.2.1.29.34.19.55-.07.14-.22.23-.37.23Z"/>
      <path class="cls-5" d="m216.19,143.51c-.06,0-.12-.01-.18-.04l-9.99-4.92c-.2-.1-.29-.34-.19-.55.1-.2.34-.29.55-.19l9.99,4.92c.2.1.29.34.19.55-.07.14-.22.23-.37.23Z"/>
    </g>
    <g>
      <path class="cls-2" d="m79.58,43.95c-.15,0-.3-.09-.37-.24-.09-.21,0-.45.2-.54.13-.06,13-5.88,32.59-9.17,11.5-1.93,23.04-2.63,34.29-2.07,14.07.7,27.72,3.38,40.59,7.96.21.08.32.31.25.52-.08.21-.31.32-.52.25-28.96-10.31-56.46-8.87-74.44-5.86-19.49,3.27-32.29,9.06-32.41,9.11-.05.03-.11.04-.17.04Z"/>
      <path class="cls-2" d="m171.32,41.9s-.09,0-.14-.02c-16.26-5.84-34.19-5.53-46.36-4.24-13.21,1.4-22.69,4.22-22.78,4.25-.22.06-.44-.06-.51-.27-.06-.22.06-.44.27-.51.09-.03,9.63-2.87,22.92-4.28,12.27-1.3,30.33-1.61,46.74,4.28.21.08.32.31.25.52-.06.17-.22.27-.38.27Z"/>
      <path class="cls-2" d="m190.4,44.2c-1.13,0-2.04-.92-2.04-2.04s.92-2.04,2.04-2.04,2.04.92,2.04,2.04-.92,2.04-2.04,2.04Zm0-3.27c-.68,0-1.23.55-1.23,1.23s.55,1.23,1.23,1.23,1.23-.55,1.23-1.23-.55-1.23-1.23-1.23Z"/>
    </g>
  </g>
  <g>
    <path class="cls-2" d="m154.01,152.17c-3.86,3-9.58,7.45-17.7,7.28-1.29-.03-11.77-.4-16.59-8.24-.63-1.03-3.52-5.73-1.91-10.1,1.72-4.65,7.02-4.78,7.28-7.8.34-4-8.9-4.95-10.59-10.66-1.83-6.16,5.78-15.62,14.34-20.12,10.31-5.41,19.9-2.51,22.1-7.86,1.28-3.1-1.58-4.97-.16-9.2,1.52-4.51,7.09-9.28,12-7.62,3.13,1.06,5.63,4.6,5.33,7.81-.36,3.94-4.63,4.53-7.05,8-6.17,8.85,10.05,21.64,7.01,38.37-1.94,10.7-10.77,17.57-14.06,20.12Z"/>
    <g>
      <path class="cls-4" d="m170.99,106s4.92,1.75,10.97,9.59c6.06,7.84,19.69,8.28,24.1,2.89,4.41-5.39,3.93-6.88,3.93-6.88l1.61,4.62s-1.29,23.27-22.29,19.69c-4.32-.74-10.52-2.11-13.07-4.35-9.82-8.63-5.25-25.57-5.25-25.57Z"/>
      <path class="cls-4" d="m180.01,141.47c-4.72-19.23,1.26-27.33-5.5-33.27-6.19-5.44-16.91-3.68-21.55-2.92-5.26.86-9.62,1.58-12.59,4.92-.79.89-1.35,1.81-1.73,2.8h0c-5.66,10.66-1.07,21.67,1.76,26.76.47,20.39-7.61,26.52-2.29,34.08,5.76,8.18,19.98,7.77,27.46,6.14,2.62-.57,17.32-4.11,20.67-14.7,2.2-6.94-2.77-9.68-6.23-23.81Z"/>
      <g>
        <path class="cls-5" d="m174.15,135.13s12.12-4.42,15.91-12.5l7.8-7.27s-.11,3.51-2.43,4.98c0,0,1.99,4-.95,6.77,0,0-2.2,1.75-3.51,1.78,0,0-3.84,12.62-14.22,16.38,0,0-2.91-4.43-2.61-10.14Z"/>
        <path class="cls-2" d="m176.75,145.86c-.19,0-.38-.1-.49-.26-.12-.19-3.02-4.66-2.7-10.5.01-.23.16-.44.38-.52.12-.04,11.94-4.43,15.58-12.2.03-.07.08-.13.13-.18l7.8-7.27c.17-.16.42-.2.64-.1.21.1.35.31.34.55,0,.15-.13,3.44-2.3,5.17.45,1.21,1.33,4.54-1.26,6.99-.01.01-.02.02-.04.03-.22.17-2.01,1.57-3.44,1.86-.73,2.16-4.8,12.9-14.46,16.39-.07.02-.13.03-.2.03Zm-2.04-10.32c-.12,4.33,1.64,7.86,2.29,9.02,9.64-3.81,13.37-15.71,13.41-15.83.07-.24.29-.41.54-.41.81-.02,2.35-1.01,3.14-1.64,2.55-2.43.88-5.92.81-6.07-.13-.27-.04-.59.21-.75,1.07-.68,1.61-1.9,1.88-2.89l-6.47,6.03c-3.56,7.44-13.72,11.73-15.82,12.55Z"/>
      </g>
      <path class="cls-2" d="m163.23,149.51c-10.19,0-16.05-5.06-16.13-5.13-.24-.21-.26-.58-.05-.82.21-.24.58-.26.82-.05.1.09,10.33,8.87,27.36,2.55.3-.11.64.04.75.34.11.3-.04.64-.34.75-4.64,1.72-8.8,2.36-12.41,2.36Z"/>
      <path class="cls-2" d="m169.41,135.84c-8.9,0-14.08-5.07-16.91-9.53-3.33-5.23-4.18-10.63-4.22-10.86-.05-.32.17-.62.49-.67.32-.05.62.17.67.49,0,.05.87,5.41,4.07,10.44,4.25,6.67,10.41,9.64,18.33,8.84.32-.03.61.2.64.52.03.32-.2.61-.52.64-.88.09-1.72.13-2.54.13Z"/>
      <g>
        <polygon class="cls-5" points="205.78 105.53 195.87 140.82 207.49 137.46 218.41 102.69 205.78 105.53"/>
        <path class="cls-2" d="m195.87,141.41c-.15,0-.3-.06-.41-.17-.15-.15-.21-.37-.15-.57l9.91-35.29c.06-.21.22-.36.43-.41l12.63-2.84c.2-.05.42.02.56.17.14.15.19.37.13.57l-10.92,34.77c-.06.19-.21.33-.39.39l-11.62,3.36c-.05.02-.11.02-.16.02Zm10.38-35.38l-9.53,33.94,10.31-2.98,10.52-33.51-11.3,2.54Z"/>
      </g>
      <g>
        <path class="cls-5" d="m212.08,123s2.98-3.14,3.67-5.63c.69-2.49-3.67-7.97-3.67-7.97v13.6Z"/>
        <path class="cls-2" d="m212.08,123.58c-.07,0-.15-.01-.22-.04-.22-.09-.37-.3-.37-.54v-13.6c0-.25.16-.47.39-.55.24-.08.49,0,.65.19.47.58,4.53,5.79,3.78,8.49-.72,2.6-3.69,5.74-3.81,5.87-.11.12-.27.18-.42.18Zm.58-12.41v10.27c.9-1.1,2.13-2.8,2.53-4.22.36-1.28-1.1-3.98-2.53-6.04Z"/>
      </g>
      <path class="cls-2" d="m176.24,129.48s-.06,0-.09,0c-.32-.05-.54-.34-.49-.66,1.57-10.74-3.32-16.77-3.37-16.83-.21-.25-.17-.62.08-.82.25-.21.62-.17.82.08.22.26,5.27,6.49,3.63,17.74-.04.29-.29.5-.58.5Z"/>
    </g>
    <g>
      <path class="cls-2" d="m176.4,223.08c0,2.29-5.32.14-12.01,1.61-9.74,2.15-14.64-1.87-14.64-4.16s7.31-1.59,14.19-1.59,12.46,1.85,12.46,4.14Z"/>
      <g>
        <path class="cls-5" d="m170.63,217.01l-29.47,39.14-4.7-4.16s12.23-31.71,22.97-34.78l8-4.88,3.2,4.68Z"/>
        <path class="cls-2" d="m141.16,256.73c-.14,0-.28-.05-.39-.15l-4.7-4.16c-.18-.16-.25-.42-.16-.65.5-1.3,12.4-31.87,23.28-35.11l7.93-4.84c.26-.16.61-.09.79.17l3.2,4.68c.14.21.14.48-.02.68l-29.47,39.14c-.1.13-.25.21-.41.23-.02,0-.04,0-.06,0Zm-4.01-4.91l3.92,3.47,28.84-38.3-2.65-3.87-7.52,4.59s-.09.05-.14.06c-9.73,2.78-21.02,30.48-22.44,34.06Z"/>
      </g>
      <g>
        <path class="cls-5" d="m160.61,212.6s-5.23,11.08-3.76,23.23c1.46,12.15,7.53,33.33,7.53,33.33h7.53l-1.77-57.98-9.52,1.42Z"/>
        <path class="cls-2" d="m171.91,269.75h-7.53c-.26,0-.49-.17-.56-.42-.06-.21-6.1-21.36-7.55-33.42-1.47-12.18,3.76-23.44,3.82-23.55.08-.18.25-.3.44-.33l9.52-1.42c.17-.02.33.02.46.13.13.11.2.26.21.43l1.77,57.98c0,.16-.05.31-.16.42-.11.11-.26.18-.42.18Zm-7.09-1.17h6.49l-1.73-56.72-8.56,1.27c-.78,1.79-4.89,11.85-3.59,22.63,1.33,11.02,6.53,29.77,7.39,32.82Z"/>
      </g>
      <g>
        <path class="cls-2" d="m187.8,275.66c-1.97-2.9-9.33-7.57-16.03-11.05h-3.53c-.98.01-1.72.9-1.56,1.86l.25,1.5-2.43-2.24c-.69-.64-1.81-.33-2.08.57-.57,1.87-1.29,4.87-1.23,7.72.02.83.52,1.58,1.28,1.91,2.58,1.14,12.93,4,23.41,3.55,1.92-.08,2.99-2.24,1.92-3.83Z"/>
        <path class="cls-5" d="m184.88,277.84c-14.07,0-22.71-4.13-23.08-4.31-.29-.14-.41-.49-.27-.78.14-.29.49-.41.78-.27.09.05,9.41,4.49,24.1,4.18.31-.01.59.25.6.57,0,.32-.25.59-.57.6-.53.01-1.04.02-1.56.02Z"/>
        <path class="cls-5" d="m174.24,272.56c-.05,0-.11,0-.16-.02-.31-.09-.49-.41-.4-.72.04-.14,1.03-3.5,3.55-4.58.3-.13.64.01.77.31.13.3-.01.64-.31.77-2.01.86-2.88,3.8-2.89,3.83-.07.26-.31.42-.56.42Z"/>
        <path class="cls-5" d="m178.59,274.19s-.05,0-.07,0c-.32-.04-.55-.33-.51-.65.39-3.1,2.48-4.14,2.57-4.18.29-.14.64-.02.78.27.14.29.02.64-.27.78-.07.04-1.62.84-1.92,3.28-.04.29-.29.51-.58.51Z"/>
      </g>
      <g>
        <path class="cls-2" d="m144.1,253.1l-2.46-1.83c-.74-.55-1.8-.31-2.23.51l-.59,1.13-.52-2.87c-.15-.85-1.14-1.24-1.83-.73-1.41,1.04-3.52,2.78-5,4.84-.44.6-.48,1.4-.11,2.05,1.23,2.2,7.1,9.81,14.83,15.13,1.42.97,3.35,0,3.43-1.71.16-3.13-2.6-10.43-5.52-16.53Z"/>
        <path class="cls-5" d="m147.79,270.59c-.12,0-.24-.04-.34-.11-10.91-7.84-15.15-16-15.33-16.35-.15-.29-.03-.64.25-.78.29-.15.64-.03.79.25.04.08,4.31,8.27,14.97,15.93.26.19.32.55.13.81-.11.16-.29.24-.47.24Z"/>
        <path class="cls-5" d="m141.91,260.28c-.18,0-.35-.08-.47-.23-.19-.26-.14-.62.11-.82.11-.08,2.65-1.97,5.05-1.38.31.08.5.39.43.71-.08.31-.39.5-.71.43-1.87-.46-4.05,1.16-4.07,1.18-.11.08-.23.12-.35.12Z"/>
        <path class="cls-5" d="m144.15,263.79c-.15,0-.29-.05-.41-.16-.23-.22-.24-.59-.01-.83,1.97-2.03,4.06-1.65,4.15-1.63.32.06.52.37.46.69-.06.31-.37.52-.68.46-.07-.01-1.58-.26-3.08,1.29-.11.12-.27.18-.42.18Z"/>
      </g>
      <g>
        <path class="cls-5" d="m150.44,220.71c1.83-12.48-1.17-32.61-4.14-52.71,0,0,13.05-15.6,24.74-14.7,7.56.58,7.07,14.7,7.07,14.7l-2.18,55.08s-9.73-4.58-25.48-2.37Z"/>
        <path class="cls-2" d="m175.92,223.66c-.08,0-.17-.02-.25-.06-.1-.04-9.78-4.48-25.15-2.32-.18.03-.37-.04-.49-.17-.13-.13-.19-.31-.16-.5,1.8-12.32-1.2-32.6-4.1-52.21l-.05-.33c-.02-.16.02-.33.13-.46.54-.65,13.38-15.84,25.23-14.91,8.03.62,7.63,14.71,7.61,15.31l-2.18,55.08c0,.2-.11.37-.28.48-.09.06-.2.09-.3.09Zm-16.94-4.15c8.61,0,14.36,1.9,16.39,2.7l2.15-54.24c0-.13.39-13.57-6.53-14.1-10.56-.82-22.52,12.51-24.08,14.3v.06c2.86,19.3,5.81,39.24,4.21,51.79,2.83-.36,5.45-.51,7.86-.51Z"/>
      </g>
      <path class="cls-2" d="m143.33,177.93c-.24,0-.47-.15-.55-.4-.07-.2-1.63-5.01,3.1-9.94.22-.23.59-.24.83-.02.23.22.24.59.02.83-4.25,4.43-2.85,8.72-2.84,8.76.1.31-.06.64-.36.74-.06.02-.13.03-.19.03Z"/>
    </g>
    <g>
      <g>
        <path class="cls-5" d="m167,93.34c-1.58-1.64-4.62-6.82-4.62-6.64.04,1.71-3.52,2.2-5.92,3.77-2.39,1.57.89,4.51.89,4.51,0,0-2.38-1.89-2.77.64-.23,1.46,1.5,1.91,2.88,2.02-.04.44-.1.98-.16,1.58-.29,2.83-2.21,5.23-4.91,6.13h0l12.2,5.03.95-4.7-1.24-.51c-.89-.36-1.52-1.17-1.66-2.12l-.29-3.36c.6.16,1.32.31,1.88.31,1.11-.01,1.98-.75,2.19-1.85.29-1.5.23-2.91-.16-4.05l.74-.75Z"/>
        <path class="cls-2" d="m164.6,110.95c-.08,0-.15-.01-.22-.04l-12.2-5.03c-.23-.09-.37-.32-.36-.56,0-.24.17-.46.4-.53,2.47-.83,4.24-3.04,4.51-5.64l.1-1c-1.17-.17-1.99-.55-2.45-1.12-.33-.42-.46-.94-.37-1.5.14-.89.52-1.46,1.12-1.7.15-.06.29-.09.44-.1-.35-.59-.61-1.27-.56-1.96.04-.5.26-1.21,1.13-1.78.92-.61,2-1.06,2.96-1.45,1.39-.58,2.71-1.13,2.69-1.82,0-.26.17-.5.42-.58.45-.14.48-.08,1.38,1.34.97,1.53,2.76,4.37,3.82,5.46.22.23.22.59,0,.82l-.5.5c.32,1.18.35,2.55.07,4-.26,1.37-1.37,2.31-2.76,2.32-.34,0-.75-.04-1.23-.14l.22,2.56c.11.7.61,1.34,1.3,1.63l1.24.51c.26.11.41.38.35.66l-.95,4.7c-.03.17-.14.32-.3.4-.09.05-.18.07-.27.07Zm-10.71-5.63l10.28,4.24.71-3.54-.8-.33c-1.07-.44-1.84-1.42-2.01-2.57l-.3-3.4c-.02-.19.06-.38.21-.5.15-.12.34-.17.53-.12.92.24,1.44.29,1.72.29.83,0,1.46-.55,1.62-1.37.27-1.4.22-2.7-.14-3.76-.07-.21-.02-.44.14-.6l.35-.36c-1.13-1.33-2.64-3.73-3.59-5.22-.04-.06-.07-.12-.11-.18-.61.71-1.76,1.18-2.95,1.68-.95.4-1.94.81-2.77,1.35-.51.33-.59.67-.61.9-.07.99,1.14,2.31,1.56,2.69.24.21.26.57.06.81-.2.24-.56.28-.81.08-.37-.29-1.09-.66-1.44-.52-.25.1-.35.54-.39.79-.04.25,0,.44.13.6.31.39,1.12.66,2.22.75.16.01.3.09.4.21.1.12.15.28.13.43l-.16,1.58c-.27,2.57-1.79,4.82-4,6.05Z"/>
      </g>
      <g>
        <path class="cls-5" d="m161.46,99.37l.89.3-.89-.3Z"/>
        <path class="cls-2" d="m162.35,100.26c-.06,0-.13,0-.19-.03l-.89-.3c-.31-.1-.47-.44-.36-.74.1-.31.44-.47.74-.36l.89.3c.31.1.47.44.36.74-.08.24-.31.4-.55.4Z"/>
      </g>
    </g>
  </g>
</svg>