<?xml version="1.0" encoding="UTF-8"?>
<svg id="_圖層_1" data-name="圖層 1" xmlns="http://www.w3.org/2000/svg" viewBox="0 0 760.97 270.98">
  <defs>
    <style>
      .cls-1 {
        fill: #465b6e;
      }

      .cls-1, .cls-2, .cls-3 {
        stroke-width: 0px;
      }

      .cls-2 {
        fill: #46aeff;
        fill-rule: evenodd;
      }

      .cls-3 {
        fill: #ff6f9b;
      }

      .cls-4 {
        fill: none;
        stroke: #46aeff;
        stroke-linecap: round;
        stroke-miterlimit: 10;
        stroke-width: 19px;
      }
    </style>
  </defs>
  <g>
    <g>
      <circle class="cls-3" cx="99.04" cy="76.55" r="76.55"/>
      <path class="cls-2" d="m197.59,8.55c.13-2.29-2.02-4.03-4.23-3.42l-32.97,9.2c-2.62.73-3.31,4.11-1.2,5.82l6.38,5.14-27.97,34.67-14.12-11.39c-.18-.17-.37-.34-.57-.5h0c-2.65-2.14-5.97-2.91-9.11-2.42-2.77.43-5.39,1.84-7.27,4.17h0c-.15.19-.29.38-.43.58l-31.98,39.64-14.92-12.03c-4.98-4.01-12.33-3.23-16.34,1.75h0c-.63.78-1.14,1.62-1.54,2.5L2.56,130.33c-4.01,4.98-3.23,12.33,1.75,16.34h0c4.98,4.01,12.33,3.23,16.34-1.75l33.29-41.27,13.93,11.23c.56.45,1.15.84,1.77,1.17,4.92,3.19,11.61,2.2,15.36-2.46l32.34-40.1,7.7,6.21c.15.19.32.36.51.51l13,10.49c1.44,1.16,3.54.93,4.7-.5l40.51-50.23,6.37,5.14c2.11,1.71,5.27.31,5.43-2.4l2.02-34.17Z"/>
    </g>
    <g>
      <path class="cls-1" d="m245.18,132.17c-5.42,0-8.13-2.71-8.13-8.13s2.71-8.13,8.13-8.13h98.36c5.42,0,8.13,2.71,8.13,8.13s-2.71,8.13-8.13,8.13h-98.36Zm7.33-87.7c-5.33,0-8-2.67-8-8s2.67-8,8-8h83.97c5.33,0,8,2.67,8,8s-2.67,8-8,8h-83.97Zm9.06,42.65c-5.33,0-8-2.71-8-8.13s2.67-8,8-8h64.51c5.33,0,8,2.67,8,8s-2.67,8.13-8,8.13h-64.51Z"/>
      <path class="cls-1" d="m373.93,134.31c-4.53-5.24-2.53-10.17,6-14.79,18.21-11.73,29.9-28.97,35.05-51.71h-37.32c-5.42,0-8.13-2.75-8.13-8.26s2.71-8.13,8.13-8.13h39.98c.8-7.2,1.2-16.39,1.2-27.59.09-5.33,2.93-8,8.53-8s8.62,2.71,8.53,8.13c-.18,11.29-.67,20.44-1.47,27.46h43.85c5.42,0,8.13,2.71,8.13,8.13s-2.71,8.26-8.13,8.26h-38.38c7.73,23.37,20.39,40.47,37.98,51.31,3.82,1.96,6.13,4,6.93,6.13.89,2.4.13,5.15-2.27,8.26-1.78,2.31-3.78,3.55-6,3.73-1.96.27-4.35-.36-7.2-1.87-17.95-10.93-31.68-28.3-41.18-52.11-7.11,22.48-20.52,39.72-40.25,51.71-6.04,3.29-10.71,3.07-13.99-.67Z"/>
      <path class="cls-1" d="m529.73,140.17c-4.8,0-7.2-2.4-7.2-7.2v-37.32c-1.6.45-3.96,1.16-7.06,2.13-2.49.71-4.35,1.25-5.6,1.6-4.89,1.42-7.91-.44-9.06-5.6-.62-2.58-.58-4.58.13-6,.71-1.42,2.33-2.44,4.87-3.07,2.53-.62,6.64-1.69,12.33-3.2,1.95-.53,3.42-.93,4.4-1.2v-24.52h-8.8c-.98,4.27-1.82,7.55-2.53,9.86-.89,2.49-2,3.98-3.33,4.46-1.33.49-3.11.02-5.33-1.4-1.78-1.15-2.91-2.33-3.4-3.53-.49-1.2-.42-2.73.2-4.6,2.4-8.08,4.13-18.26,5.2-30.52.18-2.31.91-4.04,2.2-5.2,1.29-1.15,3.04-1.55,5.26-1.2,4.18.62,6.04,3.02,5.6,7.2-.53,4.09-.98,7.38-1.33,9.86h6.26v-17.73c0-4.8,2.4-7.2,7.2-7.2s7.2,2.4,7.2,7.2v17.73h5.86c1.51,0,2.73.47,3.67,1.4s1.4,2.16,1.4,3.67v7.46h29.06v-11.33h-16.13c-4.8,0-7.2-2.4-7.2-7.2s2.4-7.2,7.2-7.2h16.13v-4.13c0-5.15,2.62-7.73,7.86-7.73s7.73,2.58,7.73,7.73v4.13h17.06c4.8,0,7.2,2.4,7.2,7.2s-2.4,7.2-7.2,7.2h-17.06v11.33h22.52c4.89,0,7.33,2.45,7.33,7.33s-2.44,7.33-7.33,7.33h-7.2v12h6c4.89,0,7.33,2.44,7.33,7.33s-2.44,7.33-7.33,7.33h-6v27.86c0,4.18-.4,7.33-1.2,9.46-.98,2.31-2.75,4.09-5.33,5.33-3.29,1.42-7.86,2.27-13.73,2.53-5.95.18-9.6-1.96-10.93-6.4-1.96-6.13,1.24-9.11,9.6-8.93h3.46c1.15-.09,1.91-.27,2.27-.53.35-.27.53-.84.53-1.73v-27.59h-27.59c5.33,5.51,9.46,10.35,12.39,14.53,1.24,1.96,1.67,3.62,1.27,5-.4,1.38-1.62,2.73-3.67,4.07-2.4,1.51-4.4,2.18-6,2-1.6-.27-3.07-1.55-4.4-3.87-2.22-3.2-4.15-5.82-5.8-7.86-1.64-2.04-2.29-4.11-1.93-6.2.35-2.09,1.64-3.84,3.87-5.26l3.87-2.4h-9.33c-1.96,0-3.55-.62-4.8-1.87-1.25-1.24-1.87-2.84-1.87-4.8v-.4c-1.25.36-3.16.96-5.73,1.8-2.58.85-4.53,1.49-5.86,1.93v41.72c0,4.8-2.4,7.2-7.2,7.2Zm20.39-60.24h42.38v-12h-38.25c-2.58,0-4.66-.8-6.26-2.4s-2.4-3.69-2.4-6.26v-3.47h-8.66v20.39l6.53-1.87c1.69-.44,3.11-.31,4.26.4,1.15.71,1.87,1.96,2.13,3.73l.27,1.47Z"/>
      <path class="cls-1" d="m637.42,137.9c-3.91-2.04-4.75-4.75-2.53-8.13,1.78-3.46,3.24-7.55,4.4-12.26.8-4.17,3.11-5.68,6.93-4.53,3.2.98,4.49,3.11,3.87,6.4-.53,3.02-1.29,6.09-2.27,9.2-.71,2.75-1.82,5.38-3.33,7.86-1.87,2.49-4.22,2.98-7.06,1.47Zm-1.47-31.45c-.71-.89-1.11-2.51-1.2-4.87-.09-2.35.29-4.06,1.13-5.13.84-1.07,2.38-1.64,4.6-1.73,1.42,0,3.73-.09,6.93-.27,4.53-.09,8.04-.18,10.53-.27v-6.4h-14.39c-4,0-6-2-6-6s2-6,6-6h14.39v-5.86h-12c-2.58,0-4.66-.8-6.26-2.4-1.6-1.6-2.4-3.69-2.4-6.26V28.35c0-2.58.8-4.67,2.4-6.26,1.6-1.6,3.69-2.4,6.26-2.4h38.52c2.58,0,4.67.8,6.26,2.4,1.6,1.6,2.4,3.69,2.4,6.26v32.92c0,2.58-.8,4.67-2.4,6.26-1.6,1.6-3.69,2.4-6.26,2.4h-12.66v5.86h15.06c4,0,6,2,6,6s-2,6-6,6h-15.06v5.86c3.64-.09,9.28-.31,16.93-.67,4.17-.09,6.22,1.96,6.13,6.13-.18,3.91-2.27,6-6.26,6.26-18.66,1.16-34.7,2-48.11,2.53-2.13.09-3.64-.4-4.53-1.47Zm16.26-47.18h8v-28.92h-8c-2.13,0-3.2,1.07-3.2,3.2v2.4l3.6-1.07c1.69-.53,2.84.09,3.47,1.87,1.6,4.8,2.67,9.42,3.2,13.86.18,1.69-.76,2.89-2.8,3.6-2.75.8-4.18-.04-4.26-2.53-.89-5.78-1.96-10.71-3.2-14.79v19.19c0,2.13,1.07,3.2,3.2,3.2Zm2,70.77v-.27c-.18-2.4-.36-4.26-.53-5.6,0-.18-.05-.4-.13-.67-.27-3.02-.53-5.24-.8-6.66-.53-3.2.89-5.02,4.26-5.46,2.93-.44,4.75.85,5.46,3.87.89,5.6,1.47,10.49,1.73,14.66.09,2.75-1.42,4.35-4.53,4.8-3.64.35-5.46-1.2-5.46-4.67Zm15.73-1.07c-.09-.36-.18-.84-.27-1.47-.45-2.04-.8-3.55-1.07-4.53-.09-.27-.18-.62-.27-1.07-.62-2.49-1.11-4.31-1.47-5.46-1.16-3.29,0-5.29,3.47-6,2.84-.53,4.71.58,5.6,3.33,1.69,5.24,2.89,9.86,3.6,13.86.44,2.75-.85,4.44-3.87,5.06-3.38.62-5.29-.62-5.73-3.73Zm-.27-76.63c1.69-5.06,2.93-9.2,3.73-12.39.35-1.78,1.2-3.02,2.53-3.73,1.33-.71,2.89-.75,4.67-.13l.4.13v-3.33c0-1.69-.85-2.53-2.53-2.53h-8.8v21.99Zm0,6.93h8.13c2.13,0,3.2-1.07,3.2-3.2v-15.73c-1.42,3.73-2.49,6.49-3.2,8.26-.53,1.42-1.07,2.75-1.6,4-.71,1.87-2.13,2.44-4.26,1.73l-2.27-.8v5.73Zm16.39,67.31c-.62-1.69-1.38-3.47-2.27-5.33-1.25-2.67-2.22-4.67-2.93-6-1.96-3.29-1.11-5.6,2.53-6.93,2.58-.89,4.66-.18,6.26,2.13,2.75,4.8,4.89,9.11,6.4,12.93.98,2.67-.05,4.67-3.07,6-3.55,1.42-5.86.49-6.93-2.8Zm20.39,8.26c-2.58,0-4.67-.8-6.26-2.4-1.6-1.6-2.4-3.69-2.4-6.26v-39.18c0-2.58.8-4.67,2.4-6.26,1.6-1.6,3.69-2.4,6.26-2.4h8.53V23.42c0-5.06,2.58-7.6,7.73-7.6s7.6,2.53,7.6,7.6v19.73h18.13c4.88,0,7.33,2.44,7.33,7.33s-2.45,7.33-7.33,7.33h-18.13v20.53h12.53c2.58,0,4.67.8,6.26,2.4,1.6,1.6,2.4,3.69,2.4,6.26v39.18c0,2.58-.8,4.67-2.4,6.26s-3.69,2.4-6.26,2.4h-36.38Zm8.8-14.26h17.99c2.13,0,3.2-1.07,3.2-3.2v-21.46c0-2.13-1.07-3.2-3.2-3.2h-17.99c-2.13,0-3.2,1.07-3.2,3.2v21.46c0,2.13,1.07,3.2,3.2,3.2Z"/>
    </g>
  </g>
  <line class="cls-4" x1="224.49" y1="261.48" x2="536.49" y2="261.48"/>
</svg>