<?xml version="1.0" encoding="UTF-8"?>
<svg id="_圖層_1" data-name="圖層 1" xmlns="http://www.w3.org/2000/svg" viewBox="0 0 533.12 349.99">
  <defs>
    <style>
      .cls-1 {
        fill: #ff6f9b;
        stroke-width: 0px;
      }
    </style>
  </defs>
  <path class="cls-1" d="m28.52,122.08c-2.58,0-4.67-.8-6.26-2.4s-2.4-3.69-2.4-6.26V30.25c0-2.58.8-4.66,2.4-6.26,1.6-1.6,3.69-2.4,6.26-2.4h25.06c.27-1.15.71-3.02,1.33-5.6.27-1.24.49-2.18.67-2.8.53-3.11,1.6-5.33,3.2-6.66,1.6-1.33,3.95-1.82,7.06-1.47,6.93.8,9.02,4.67,6.26,11.6-.18.53-.51,1.36-1,2.46-.49,1.11-.87,1.93-1.13,2.47h36.52c2.58,0,4.67.8,6.26,2.4s2.4,3.69,2.4,6.26v83.17c0,2.58-.8,4.67-2.4,6.26-1.6,1.6-3.69,2.4-6.26,2.4H28.52Zm7.2-71.57h62.77v-10.53c0-2.13-1.07-3.2-3.2-3.2h-56.38c-2.13,0-3.2,1.07-3.2,3.2v10.53Zm0,28.39h62.77v-13.73h-62.77v13.73Zm3.2,28.52h56.38c2.13,0,3.2-1.07,3.2-3.2v-10.66h-62.77v10.66c0,2.13,1.07,3.2,3.2,3.2Z"/>
  <path class="cls-1" d="m234.04,128.75c-2.75-.09-5.02-.82-6.8-2.2-1.78-1.38-2.89-3.22-3.33-5.53v-.27l-.13-.27c-2.04-4.71-.13-6.88,5.73-6.53,1.24.09,2.75.13,4.53.13,1.95,0,3.46-.75,4.53-2.27,1.33-1.78,2.35-6.84,3.07-15.19.8-8.62,1.38-22.39,1.73-41.32.09-2.49-.13-4.22-.67-5.2-.45-.8-1.25-1.2-2.4-1.2h-8.66c-.89,17.42-2.89,31.68-6,42.78-3.73,13.06-9.55,23.77-17.46,32.12-1.96,1.78-4.06,2.58-6.33,2.4-2.27-.18-4.24-1.33-5.93-3.46-.71-.89-1.87-2.05-3.46-3.47-21.68,2.22-37.27,3.78-46.78,4.67-2.04.18-3.55-.2-4.53-1.13-.98-.93-1.6-2.51-1.87-4.73-.71-4.62,1.02-7.06,5.2-7.33,2.67-.27,7.15-.58,13.46-.93,3.11-.27,5.51-.44,7.2-.53v-8h-17.73c-3.73,0-5.6-1.87-5.6-5.6s1.87-5.6,5.6-5.6h17.73v-5.2h-14.13c-2.58,0-4.66-.8-6.26-2.4-1.6-1.6-2.4-3.69-2.4-6.26v-23.86c0-2.58.8-4.67,2.4-6.26s3.69-2.4,6.26-2.4h14.13v-5.2h-20.26c-3.82,0-5.73-1.91-5.73-5.73s1.91-5.73,5.73-5.73h20.26v-5.33h-.53c-7.46.53-13.02.84-16.66.93-3.47.09-5.69-1.47-6.66-4.67-1.25-4.26.58-6.53,5.46-6.8,17.59-1.15,32.61-2.89,45.05-5.2,1.69-.35,3.11-.22,4.26.4.98.53,1.95,1.64,2.93,3.33,2.75,4.8,1.6,7.69-3.46,8.66-3.64.53-9.02,1.25-16.13,2.13v6.53h18.39c2.13,0,3.82.62,5.06,1.87,1.24,1.25,1.87,2.93,1.87,5.07v.4h12.39c.09-4.26.13-10.97.13-20.12,0-5.15,2.53-7.73,7.6-7.73s7.46,2.58,7.46,7.73c0,4.89-.09,11.59-.27,20.12h20.52c2.13,0,3.64.85,4.53,2.53,1.07,1.96,1.55,5.33,1.47,10.13-.62,26.39-1.33,44.52-2.13,54.38-.89,10.49-2.31,17.15-4.26,19.99-1.42,2.04-2.98,3.6-4.67,4.67-1.42.8-3.33,1.47-5.73,2-1.51.27-4.09.49-7.73.67Zm-79.3-69.17h10.4v-5.86h-8.26c-1.42,0-2.13.71-2.13,2.13v3.73Zm2.53,15.46h7.86v-6h-10.4v3.47c0,1.69.84,2.53,2.53,2.53Zm22.12,33.05c4.98-.35,12.62-.98,22.92-1.87,4.8-6.75,8.35-15.1,10.66-25.06,1.95-8.53,3.2-19.28,3.73-32.25h-6.4c-1.69,0-3.04-.51-4.07-1.53-1.02-1.02-1.53-2.38-1.53-4.07v-4.8h-25.32v5.2h14.66c2.58,0,4.66.8,6.26,2.4s2.4,3.69,2.4,6.26v23.86c0,2.58-.8,4.67-2.4,6.26-1.6,1.6-3.69,2.4-6.26,2.4h-14.66v5.2h18.26c3.73,0,5.6,1.87,5.6,5.6s-1.87,5.6-5.6,5.6h-18.26v6.8Zm0-48.51h10.26v-3.33c0-1.69-.85-2.53-2.53-2.53h-7.73v5.86Zm0,15.46h8.13c1.42,0,2.13-.71,2.13-2.13v-3.87h-10.26v6Z"/>
  <path class="cls-1" d="m359.99,32.92c-1.51-2.49-3.16-4.89-4.93-7.2h-6.8c-1.87,2.49-3.82,4.84-5.86,7.06-1.42,1.42-3.29,2.13-5.6,2.13-2.04,0-4.09-.58-6.13-1.73-1.87-.98-3.02-2.13-3.47-3.47-.53-1.33,0-2.67,1.6-4h-17.46c.44.62.84,1.29,1.2,2,2.13,4.44.8,7.33-4,8.66-4.44,1.16-7.46-.27-9.06-4.26-.89-2.04-2-4.18-3.33-6.4h-1.47c-1.96,2.75-4.04,5.38-6.26,7.86-1.6,1.78-3.18,2.78-4.73,3-1.56.22-3.31-.33-5.26-1.67-2.67-1.78-4.02-3.58-4.06-5.4-.05-1.82,1.13-3.84,3.53-6.06,3.82-4.35,7.02-8.93,9.6-13.73,1.95-4.27,5.42-5.73,10.4-4.4,4.8,1.33,6.17,4.13,4.13,8.4h23.46c1.78,0,3.2.53,4.26,1.6s1.6,2.49,1.6,4.26v.4c0,2.05.71,2.31,2.13.8,3.29-3.82,5.82-7.55,7.6-11.2,1.95-4.17,5.44-5.68,10.46-4.53,5.02,1.16,6.46,4.04,4.33,8.66h31.19c4,0,6,2,6,6s-2,6-6,6h-15.73c.71.89,1.24,1.6,1.6,2.13,1.42,2.31,1.84,4.18,1.27,5.6-.58,1.42-2.16,2.49-4.73,3.2-4.44,1.25-7.6,0-9.46-3.73Zm-72.1,95.83c-4.8,0-7.2-2.36-7.2-7.06V47.71c0-2.58.8-4.67,2.4-6.26,1.6-1.6,3.69-2.4,6.26-2.4h31.72c2.58,0,4.67.8,6.26,2.4,1.6,1.6,2.4,3.69,2.4,6.26v18.39c0,2.58-.8,4.66-2.4,6.26-1.6,1.6-3.69,2.4-6.26,2.4h-26.12v46.91c0,4.71-2.36,7.06-7.06,7.06Zm7.06-76.1h20.66v-2.67c0-1.15-.58-1.73-1.73-1.73h-15.73c-2.13,0-3.2,1.07-3.2,3.2v1.2Zm0,13.06h17.46c2.13,0,3.2-1.07,3.2-3.2v-1.33h-20.66v4.53Zm67.04,60.91c-1.96-1.33-3.2-3.2-3.73-5.6-.18-.36-.4-.93-.67-1.73-.36-.98-.62-1.69-.8-2.13h-39.85c-2.58,0-4.66-.8-6.26-2.4s-2.4-3.69-2.4-6.26v-19.99c0-2.58.8-4.67,2.4-6.26,1.6-1.6,3.69-2.4,6.26-2.4h32.52c2.58,0,4.67.8,6.26,2.4s2.4,3.69,2.4,6.26v26.52c2.84.18,6.48.22,10.93.13h1.33c.98,0,1.67-.18,2.07-.53.4-.35.6-1.02.6-2v-37.85h-26.66c-2.58,0-4.67-.8-6.26-2.4-1.6-1.6-2.4-3.69-2.4-6.26v-18.39c0-2.58.8-4.67,2.4-6.26s3.69-2.4,6.26-2.4h32.65c2.58,0,4.67.8,6.26,2.4s2.4,3.69,2.4,6.26v65.17c0,3.73-.45,6.62-1.33,8.66-.98,2.04-2.62,3.6-4.93,4.67-2.49,1.33-6.31,2.13-11.46,2.4-3.29.09-5.95-.58-8-2Zm-39.58-32.39h21.86v-3.2c0-1.6-.8-2.4-2.4-2.4h-16.26c-2.13,0-3.2,1.07-3.2,3.2v2.4Zm2.4,14.26h19.46v-5.73h-21.86v3.33c0,1.6.8,2.4,2.4,2.4Zm27.06-55.84h21.19v-2.67c0-1.15-.58-1.73-1.73-1.73h-16.26c-2.13,0-3.2,1.07-3.2,3.2v1.2Zm1.87,13.06h19.33v-4.53h-21.19v2.67c0,1.25.62,1.87,1.87,1.87Z"/>
  <path class="cls-1" d="m491.4,129.15c-5.24-.09-8.31-2.4-9.2-6.93v-.13l-.13-.27c-.89-1.96-.91-3.44-.07-4.46.84-1.02,2.55-1.44,5.13-1.27h5.2c2.31,0,3.95-.53,4.93-1.6,2.93-2.93,5.24-12.44,6.93-28.52h-11.33c-5.95,15.46-14.35,28.57-25.19,39.32-1.87,1.69-3.58,2.55-5.13,2.6-1.56.04-3.31-.69-5.26-2.2-2.58-1.96-3.82-3.87-3.73-5.73.09-1.87,1.42-3.87,4-6,8.08-7.73,14.44-17.06,19.06-27.99h-11.33c-8.26,14.04-19.42,26.04-33.45,35.99-2.13,1.42-4,2.09-5.6,2-1.6-.09-3.29-.98-5.07-2.67-2.4-2.4-3.38-4.58-2.93-6.53.35-1.78,2.09-3.6,5.2-5.46,9.77-6.4,17.81-14.17,24.12-23.32h-11.46c-4.71,4.62-9.6,8.71-14.66,12.26-2.04,1.33-3.89,1.96-5.53,1.87-1.65-.09-3.31-.93-5-2.53-2.49-2.4-3.55-4.55-3.2-6.46.35-1.91,2.04-3.8,5.06-5.66,9.06-6.13,16.61-13.28,22.66-21.46h-6.26c-1.6,0-2.89-.49-3.87-1.47-.98-.98-1.47-2.27-1.47-3.87V18.66c0-2.58.8-4.67,2.4-6.26s3.69-2.4,6.26-2.4h69.57c2.58,0,4.67.8,6.26,2.4,1.6,1.6,2.4,3.69,2.4,6.26v36.65c0,2.58-.8,4.67-2.4,6.26s-3.69,2.4-6.26,2.4h-48.25c-1.6,2.58-3.46,5.29-5.6,8.13h63.97c2.93,0,5.02,1.11,6.26,3.33,1.33,2.58,1.69,6.84,1.07,12.79-2.31,19.81-5.29,31.63-8.93,35.45-2.76,2.93-6.35,4.62-10.8,5.06-.98.09-2.84.18-5.6.27-1.25.09-2.18.13-2.8.13Zm-52.11-98.09h55.44v-5.06c0-2.13-1.07-3.2-3.2-3.2h-49.05c-2.13,0-3.2,1.07-3.2,3.2v5.06Zm3.2,20.26h49.05c2.13,0,3.2-1.07,3.2-3.2v-5.2h-55.44v5.2c0,2.13,1.07,3.2,3.2,3.2Z"/>
  <path class="cls-1" d="m22.92,281.75c-2.58,0-4.67-.8-6.26-2.4s-2.4-3.69-2.4-6.26v-74.77c0-2.58.8-4.66,2.4-6.26,1.6-1.6,3.69-2.4,6.26-2.4h35.05v-17.19c0-5.33,2.71-8,8.13-8s8,2.67,8,8v17.19h36.79c2.58,0,4.67.8,6.26,2.4,1.6,1.6,2.4,3.69,2.4,6.26v74.77c0,2.58-.8,4.67-2.4,6.26-1.6,1.6-3.69,2.4-6.26,2.4H22.92Zm7.06-53.84h27.99v-22.26h-24.79c-2.13,0-3.2,1.07-3.2,3.2v19.06Zm3.2,38.12h24.79v-22.66h-27.99v19.46c0,2.13,1.07,3.2,3.2,3.2Zm40.92-38.12h28.92v-19.06c0-2.13-1.07-3.2-3.2-3.2h-25.72v22.26Zm0,38.12h25.72c2.13,0,3.2-1.07,3.2-3.2v-19.46h-28.92v22.66Z"/>
  <path class="cls-1" d="m160.33,288.55c-4.98,0-7.46-2.49-7.46-7.46v-60.64c-.09.09-.22.27-.4.53-.36.53-.67.93-.93,1.2-2.58,3.11-4.89,4.62-6.93,4.53-2.04-.09-3.96-1.87-5.73-5.33-1.25-2.4-1.73-4.51-1.47-6.33.27-1.82,1.29-3.71,3.07-5.66,8.88-10.57,16.3-22.97,22.26-37.18,1.78-4.89,5.11-6.57,10-5.06,4.98,1.6,6.57,4.8,4.8,9.6-2.67,6.49-5.91,13.19-9.73,20.12v84.23c0,4.97-2.49,7.46-7.46,7.46Zm39.05-6c-2.22-6.48.71-9.64,8.8-9.46h.93c1.6,0,2.4-.75,2.4-2.27v-67.97h-15.33c-1.78,4-4.31,8.58-7.6,13.73-1.69,2.4-3.38,3.71-5.06,3.93-1.69.22-3.69-.6-6-2.47-2.31-1.87-3.58-3.67-3.8-5.4-.22-1.73.55-3.75,2.33-6.06,6.22-9.33,11.33-20.57,15.33-33.72,1.42-5.42,4.67-7.51,9.73-6.26,5.15,1.16,7.02,4.31,5.6,9.46-1.16,3.91-2.49,7.95-4,12.13h49.58c2.84,0,4.98.89,6.4,2.67,1.42,1.78,1.91,4.18,1.47,7.2-.98,6.58-2,12.49-3.06,17.73-.45,1.96-1.29,3.2-2.53,3.73-1.16.45-2.84.49-5.06.13-4.53-.8-6.49-3.2-5.86-7.2.27-1.95.67-5.15,1.2-9.6h-17.73v68.24c0,4-.4,7.06-1.2,9.2-.98,2.4-2.62,4.22-4.93,5.46-2.49,1.42-5.95,2.35-10.4,2.8-6.04.35-9.78-1.65-11.2-6Zm-12.66-13.66c-1.6.4-3.6-.15-6-1.67-2.58-1.6-4.02-3.24-4.33-4.93-.31-1.69.38-3.78,2.07-6.26,3.91-6.93,7.11-15.01,9.6-24.26,1.24-5.42,4.4-7.6,9.46-6.53s7.02,4.13,5.86,9.2c-2.04,6.84-4,12.48-5.86,16.93-1.78,4.53-3.82,8.98-6.13,13.33-1.51,2.4-3.07,3.8-4.67,4.2Zm60.18-.53c-1.56-.75-2.56-2.6-3-5.53-.8-3.64-1.96-8-3.46-13.06-1.6-5.24-3.42-10.48-5.46-15.73-2.04-4.53-.58-7.68,4.4-9.46,4.35-1.51,7.46-.22,9.33,3.87,4.8,11.02,8.26,21.55,10.4,31.59.35,2.22.09,3.96-.8,5.2-.8,1.07-2.36,2-4.67,2.8-2.93.98-5.18,1.09-6.73.33Z"/>
  <path class="cls-1" d="m283.55,287.15c-1.73.13-3.67-.65-5.8-2.33-2.58-2.22-3.87-4.31-3.87-6.26s1.24-4.09,3.73-6.4c7.2-8.35,12.08-20.21,14.66-35.59.44-2.84,1.42-5.06,2.93-6.66,1.69-1.69,3.86-2.4,6.53-2.13,5.6.53,7.91,3.64,6.93,9.33-.36,2.93-.89,5.73-1.6,8.4,3.73,9.86,9.73,16.84,17.99,20.92v-47.05h-20.66c-4.98,0-7.46-2.53-7.46-7.6s2.49-7.46,7.46-7.46h57.58c4.97,0,7.46,2.49,7.46,7.46s-2.49,7.6-7.46,7.6h-20.79v16.66h28.92c4.97,0,7.46,2.49,7.46,7.46s-2.49,7.46-7.46,7.46h-28.92v19.86c4.8.53,9.82.8,15.06.8,11.37,0,20.35-.04,26.92-.13,3.82-.09,6.31.58,7.46,2,1.15,1.42,1.15,3.91,0,7.46-1.42,4.27-4.66,6.4-9.73,6.4h-25.46c-13.42,0-24.04-1.47-31.85-4.4-9.42-3.47-16.93-9.68-22.52-18.66-3.11,7.64-7.11,14.21-12,19.72-1.96,1.95-3.8,3-5.53,3.13Zm1-76.04c-5.15,0-7.73-2.58-7.73-7.73v-16.93c0-2.58.8-4.67,2.4-6.26,1.6-1.6,3.69-2.4,6.26-2.4h39.32v-5.06c0-5.51,2.75-8.26,8.26-8.26s8.26,2.75,8.26,8.26v5.06h39.72c2.58,0,4.67.8,6.26,2.4,1.6,1.6,2.4,3.69,2.4,6.26v16.53c0,5.42-2.71,8.13-8.13,8.13s-8.13-2.71-8.13-8.13v-6.93c0-2.13-1.07-3.2-3.2-3.2h-74.77c-2.13,0-3.2,1.07-3.2,3.2v7.33c0,5.15-2.58,7.73-7.73,7.73Z"/>
  <path class="cls-1" d="m427.56,288.82c-4.71,0-7.64-1.6-8.8-4.8-1.78-4.89.71-7.24,7.46-7.06.89,0,2.04-.04,3.46-.13h1.33c.98,0,1.64-.15,2-.47.35-.31.53-.91.53-1.8v-5.33c-4.09.36-9.95.8-17.59,1.33-.98.09-1.73.13-2.27.13-3.64.27-5.64-1.6-6-5.6-.18-2.13.07-3.71.73-4.73.67-1.02,2.02-1.58,4.06-1.67,3.82-.09,10.17-.35,19.06-.8.89-.09,1.55-.13,2-.13v-5.86h-20.39c-3.82,0-5.73-1.95-5.73-5.86s1.91-5.73,5.73-5.73h20.39v-5.33c-6.04.62-11.46.98-16.26,1.07-2.84.09-4.71-1.15-5.6-3.73-1.25-3.73.27-5.73,4.53-6,17.5-1.33,30.83-3.02,39.98-5.07h-42.52c-4,0-6-2-6-6s2-6,6-6h44.51v-4.93h-32.12c-3.64,0-5.46-1.82-5.46-5.46s1.82-5.46,5.46-5.46h32.12v-4.8h-38.65c-3.91,0-5.86-1.95-5.86-5.86s1.95-5.86,5.86-5.86l17.33-.13c-.09-.27-.13-.44-.13-.53-3.11-4.97-1.82-8.35,3.87-10.13,3.47-1.07,6.31-.22,8.53,2.53,2.13,2.93,3.69,5.69,4.66,8.26h26.52c.09-.18.27-.49.53-.93,1.07-2.04,1.82-3.55,2.27-4.53,1.07-2.49,2.42-4.22,4.07-5.2,1.64-.98,3.75-1.2,6.33-.67,3.55.71,5.6,2,6.13,3.87.44,1.69-.53,4.18-2.93,7.46h16.93c3.91,0,5.86,1.96,5.86,5.86s-1.96,5.86-5.86,5.86h-39.45v4.8h32.92c3.64,0,5.46,1.82,5.46,5.46s-1.82,5.46-5.46,5.46h-32.92v4.93h45.18c4,0,6,2,6,6s-2,6-6,6h-20.12c4,1.51,8.66,3.73,13.99,6.66,1.95,1.33,3.04,3.02,3.27,5.06.22,2.05-.6,4.09-2.47,6.13l-1.07,1.2h7.2c3.82,0,5.73,1.91,5.73,5.73s-1.91,5.86-5.73,5.86h-13.99l6.13,2.13c1.69.62,2.69,1.47,3,2.53.31,1.07-.07,2.22-1.13,3.46-2.84,3.2-6.84,6.66-12,10.4,3.29,2.58,6.62,3.86,10,3.86.53,0,.93-.04,1.2-.13,2.22-6.48,5.68-8.48,10.4-6,1.6.89,2.53,2.49,2.8,4.8.27,1.96.13,4.09-.4,6.4-1.25,3.55-3.02,6.04-5.33,7.46-2.13,1.24-5.29,1.87-9.46,1.87-8.44,0-15.99-3.42-22.66-10.26-5.95,3.11-12.75,5.91-20.39,8.4-4.26,1.24-7.42.18-9.46-3.2-1.6-2.67-2-4.8-1.2-6.4.8-1.51,2.8-2.67,6-3.46,6.31-1.69,12.04-3.69,17.19-6-2.75-4.8-4.98-10.08-6.66-15.86h-25.72v5.06l14.26-.8c3.64-.09,5.46,1.69,5.46,5.33,0,3.38-1.69,5.2-5.06,5.46l-14.66,1.2v6.8c0,3.55-.45,6.2-1.33,7.93-.89,1.73-2.53,3.04-4.93,3.93-3.47,1.15-8.35,1.82-14.66,2Zm20.92-48.51h22.92c-.71-4.09-1.2-7.24-1.47-9.46-.45-5.24,1.91-7.86,7.06-7.86,4.8,0,7.42,2.49,7.86,7.46.35,3.29.89,6.58,1.6,9.86h21.86c-2.58-1.95-5.78-3.91-9.6-5.86-3.02-1.42-4.75-3.22-5.2-5.4-.45-2.18.44-4.42,2.67-6.73l1.07-1.07h-39.05l4.53,4.8c1.15,1.25,1.62,2.33,1.4,3.26-.22.93-1.09,1.58-2.6,1.93-3.46.71-7.82,1.42-13.06,2.13v6.93Zm45.71,20.12c2.04-1.51,3.78-2.89,5.2-4.13,1.07-.89,2.53-2.35,4.4-4.4h-13.73c1.33,3.47,2.71,6.31,4.13,8.53Z"/>
</svg>