<?xml version="1.0" encoding="UTF-8"?>
<svg id="_圖層_1" data-name="圖層 1" xmlns="http://www.w3.org/2000/svg" viewBox="0 0 760.97 270.98">
  <defs>
    <style>
      .cls-1 {
        fill: #465b6e;
      }

      .cls-1, .cls-2, .cls-3 {
        stroke-width: 0px;
      }

      .cls-2 {
        fill: #46aeff;
        fill-rule: evenodd;
      }

      .cls-3 {
        fill: #ff6f9b;
      }

      .cls-4 {
        fill: none;
        stroke: #46aeff;
        stroke-linecap: round;
        stroke-miterlimit: 10;
        stroke-width: 19px;
      }
    </style>
  </defs>
  <g>
    <g>
      <circle class="cls-3" cx="99.04" cy="76.55" r="76.55"/>
      <path class="cls-2" d="m197.59,8.55c.13-2.29-2.02-4.03-4.23-3.42l-32.97,9.2c-2.62.73-3.31,4.11-1.2,5.82l6.38,5.14-27.97,34.67-14.12-11.39c-.18-.17-.37-.34-.57-.5h0c-2.65-2.14-5.97-2.91-9.11-2.42-2.77.43-5.39,1.84-7.27,4.17h0c-.15.19-.29.38-.43.58l-31.98,39.64-14.92-12.03c-4.98-4.01-12.33-3.23-16.34,1.75h0c-.63.78-1.14,1.62-1.54,2.5L2.56,130.33c-4.01,4.98-3.23,12.33,1.75,16.34h0c4.98,4.01,12.33,3.23,16.34-1.75l33.29-41.27,13.93,11.23c.56.45,1.15.84,1.77,1.17,4.92,3.19,11.61,2.2,15.36-2.46l32.34-40.1,7.7,6.21c.15.19.32.36.51.51l13,10.49c1.44,1.16,3.54.93,4.7-.5l40.51-50.23,6.37,5.14c2.11,1.71,5.27.31,5.43-2.4l2.02-34.17Z"/>
    </g>
    <g>
      <path class="cls-1" d="m239.45,74.33c-4,0-6-2.04-6-6.13s2-6,6-6h24.92v-5.73h-13.73c-2.58,0-4.67-.8-6.26-2.4s-2.4-3.69-2.4-6.26v-19.06c0-2.58.8-4.66,2.4-6.26s3.69-2.4,6.26-2.4h42.92c2.58,0,4.67.8,6.26,2.4s2.4,3.69,2.4,6.26v19.06c0,2.58-.8,4.66-2.4,6.26s-3.69,2.4-6.26,2.4h-14.93v5.73h25.32c4,0,6,2,6,6s-2,6.13-6,6.13h-64.51Zm3.53,60.64c-1.38.18-2.96-.31-4.73-1.47-2.22-1.51-3.38-3.07-3.46-4.67-.09-1.6.8-3.42,2.67-5.46,1.69-1.95,3.47-4.53,5.33-7.73,1.87-3.73,4.8-5.06,8.8-4,4.71,1.33,6,4.18,3.87,8.53-.8,1.42-2.09,3.46-3.87,6.13-1.33,2.13-2.8,4.13-4.4,6-1.42,1.6-2.82,2.49-4.2,2.67Zm19.86,4.93c-4.31.18-7.22-1.29-8.73-4.4-2.4-5.15-.13-7.64,6.8-7.46h1.33c1.42,0,2.13-.58,2.13-1.73v-18.13h-12.93c-2.58,0-4.67-.8-6.26-2.4-1.6-1.6-2.4-3.69-2.4-6.26v-11.06c0-2.58.8-4.66,2.4-6.26s3.69-2.4,6.26-2.4h41.05c2.58,0,4.66.8,6.26,2.4s2.4,3.69,2.4,6.26v11.06c0,2.58-.8,4.67-2.4,6.26-1.6,1.6-3.69,2.4-6.26,2.4h-13.86v18.53c0,3.11-.36,5.51-1.07,7.2-.89,1.69-2.36,2.98-4.4,3.87-2.58,1.24-6.02,1.95-10.33,2.13Zm-6.86-105.69h31.99v-3.07c0-1.42-.71-2.13-2.13-2.13h-26.66c-2.13,0-3.2,1.07-3.2,3.2v2Zm2.27,13.59h26.52c2.13,0,3.2-1.07,3.2-3.2v-2.27h-31.99v3.2c0,1.51.75,2.27,2.27,2.27Zm1.07,50.11h24.66c2.13,0,3.2-1.07,3.2-3.2v-1.6c0-2.13-1.07-3.2-3.2-3.2h-24.66c-2.13,0-3.2,1.07-3.2,3.2v1.6c0,2.13,1.07,3.2,3.2,3.2Zm53.71,39.32c-2.22-.45-4.04-1.69-5.46-3.73-.53-.71-1.47-1.73-2.8-3.07l-4.8,2.4c-1.25.62-2.4.82-3.46.6-1.07-.22-1.87-.82-2.4-1.8-1.16-1.96-3.33-5.15-6.53-9.6-3.11-4.18-2.45-7.33,2-9.46,3.2-1.6,5.95-1.07,8.26,1.6,2.93,3.64,5.55,7.15,7.86,10.53,14.13-7.02,24.92-16.17,32.39-27.46,2.49-4.18,6.08-5.46,10.79-3.87,5.6,2.04,6.93,5.6,4,10.66-4.09,6.31-9.02,12.26-14.79,17.86-5.6,5.33-11.73,10.04-18.39,14.13-2.22,1.24-4.44,1.64-6.66,1.2Zm4.07-83.97c-1.73-.09-3.49-1.02-5.26-2.8-2.31-2.4-3.29-4.53-2.93-6.4.35-1.69,2.04-3.42,5.06-5.2,7.46-4.89,13.68-10.17,18.66-15.86,2.84-3.55,6.4-4.44,10.66-2.67,5.78,2.4,6.66,6,2.67,10.8-3.73,4-7.24,7.42-10.53,10.26-3.91,3.55-8.09,6.84-12.53,9.86-2.13,1.42-4.06,2.09-5.8,2Zm.6,37.85c-1.78-.09-3.51-1.02-5.2-2.8-2.4-2.4-3.42-4.46-3.07-6.2.35-1.73,2.04-3.49,5.06-5.26,8.26-5.33,15.15-11.06,20.66-17.19,2.67-3.29,6.08-4.04,10.26-2.27,5.51,2.31,6.35,5.78,2.53,10.4-3.38,3.73-7.15,7.42-11.33,11.06-4.18,3.64-8.62,7.06-13.33,10.26-2.13,1.33-4,2-5.6,2Z"/>
      <path class="cls-1" d="m375.8,70.86c-4.71,0-7.06-2.35-7.06-7.06s2.35-7.06,7.06-7.06h22.66c-.62-3.11-1.78-6.62-3.47-10.53-.62-1.42-.69-2.64-.2-3.67.49-1.02,1.49-1.67,3-1.93l.4-.13h-15.19c-4.62,0-6.93-2.35-6.93-7.06s2.31-6.93,6.93-6.93h36.25v-2.67c0-5.42,2.75-8.13,8.26-8.13s8.13,2.71,8.13,8.13v2.67h38.25c4.62,0,6.93,2.31,6.93,6.93s-2.31,7.06-6.93,7.06h-13.99l3.2.67c1.6.27,2.04,1.25,1.33,2.93-.53,1.07-1.29,2.67-2.27,4.8-1.69,3.73-2.98,6.35-3.87,7.86h21.59c4.71,0,7.06,2.35,7.06,7.06s-2.36,7.06-7.06,7.06h-104.09Zm20.26,64.77c-2.58,0-4.67-.8-6.26-2.4s-2.4-3.69-2.4-6.26v-39.32c0-2.58.8-4.66,2.4-6.26,1.6-1.6,3.69-2.4,6.26-2.4h65.84c2.58,0,4.67.8,6.26,2.4,1.6,1.6,2.4,3.69,2.4,6.26v39.32c0,2.58-.8,4.67-2.4,6.26s-3.69,2.4-6.26,2.4h-65.84Zm7.06-34.52h50.91v-5.86c0-2.13-1.07-3.2-3.2-3.2h-44.51c-2.13,0-3.2,1.07-3.2,3.2v5.86Zm3.2,21.46h44.51c2.13,0,3.2-1.07,3.2-3.2v-6.26h-50.91v6.26c0,2.13,1.07,3.2,3.2,3.2Zm5.06-65.84h33.59l-2-.53c-.89-.18-1.16-.62-.8-1.33,2.31-5.15,4.04-9.95,5.2-14.39h-37.98c2.4,4.35,4.13,8.4,5.2,12.13.18.89.02,1.71-.47,2.47-.49.76-1.27,1.27-2.33,1.53l-.4.13Z"/>
      <path class="cls-1" d="m558.79,133.91c-3.2-5.15-1.6-9.37,4.8-12.66,7.55-4.71,13.82-10.62,18.79-17.73-3.46-7.82-6.44-16.84-8.93-27.06-1.07,1.69-2.13,3.42-3.2,5.2-.8,1.16-1.76,1.8-2.87,1.93-1.11.13-2.11-.24-3-1.13-.8-.71-2.13-1.87-4-3.47-.8-.62-1.38-1.11-1.73-1.47-5.6,6.75-11.73,12.84-18.39,18.26v2.67c1.78-.09,4.4-.31,7.86-.67,3.91-.27,6.84-.49,8.8-.67,4.8-.44,7.2,1.73,7.2,6.53,0,4.26-2.13,6.62-6.4,7.06-1.87.18-4.67.4-8.4.67-4.09.36-7.11.62-9.06.8v13.06c0,3.55-.4,6.22-1.2,8-.89,2.04-2.49,3.6-4.8,4.66-2.75,1.24-6.53,1.95-11.33,2.13-5.15.18-8.35-1.65-9.6-5.46-1.69-5.33.93-7.91,7.86-7.73.62-.09,1.29-.13,2-.13,1.51,0,2.27-.62,2.27-1.87v-11.33c-2.93.27-7.15.67-12.66,1.2-2.67.27-4.62.45-5.86.53-2.31.18-4-.24-5.06-1.27-1.07-1.02-1.73-2.75-2-5.2-.27-2.44.02-4.29.87-5.53.84-1.24,2.42-1.91,4.73-2,6.04-.53,12.71-1.07,19.99-1.6v-5.73c0-1.42.42-2.55,1.27-3.4.84-.84,1.98-1.27,3.4-1.27h.4c2.58-2.22,4.89-4.44,6.93-6.66h-9.33c-4.44,3.82-9.15,7.33-14.13,10.53-4.26,2.67-7.91,2.22-10.93-1.33-4-4.62-3.11-8.53,2.67-11.73,2.31-1.42,4.04-2.53,5.2-3.33v-3.6c0-1.87.93-2.8,2.8-2.8h5.6c1.69-1.42,4.13-3.64,7.33-6.66h-19.73c-4.53,0-6.8-2.27-6.8-6.8s2.27-6.8,6.8-6.8h12.39v-8.93h-8.26c-4.44,0-6.66-2.22-6.66-6.66s2.22-6.66,6.66-6.66h8.26v-4.8c0-4.89,2.44-7.33,7.33-7.33s7.33,2.44,7.33,7.33v4.8h7.33c1.69,0,3.02.49,4,1.47.98.98,1.47,2.31,1.47,4v.4c0,2.22.49,2.36,1.47.4,1.95-3.73,3.33-6.58,4.13-8.53,1.78-4.44,4.97-6,9.6-4.67,5.06,1.51,6.57,4.71,4.53,9.6-2.93,6.58-6.49,13.11-10.66,19.59h4.67c2.49,0,3.73,1.25,3.73,3.73v5.33c4.53-9.95,8.08-21.68,10.66-35.19.98-5.51,4.09-7.86,9.33-7.06,5.42.8,7.6,3.91,6.53,9.33-.89,4.44-1.96,9.02-3.2,13.73h27.72c4.89,0,7.33,2.44,7.33,7.33s-2.44,7.33-7.33,7.33h-.4c-2.84,19.99-7.6,36.52-14.26,49.58,4.27,6.66,9.02,12.13,14.26,16.39,3.11,1.96,4.93,4,5.46,6.13.62,2.13-.13,4.58-2.27,7.33-1.78,2.31-3.69,3.51-5.73,3.6-1.87.09-4.09-.76-6.66-2.53-5.69-4.44-10.62-9.86-14.79-16.26-5.6,6.75-12.13,12.48-19.59,17.19-5.51,3.11-9.69,2.4-12.53-2.13Zm-24.79-83.83h4.4c1.42-1.95,2.44-3.42,3.07-4.4.35-.53.84-1.31,1.47-2.33.62-1.02,1.07-1.75,1.33-2.2h-10.26v8.93Zm23.19,21.19c.09-.18.31-.49.67-.93.44-.71.8-1.24,1.07-1.6,1.15-1.78,2.18-3.47,3.07-5.06h-15.73c-2.49,3.02-4.35,5.24-5.6,6.66h7.6l1.73-.53c.71-.18,1.33-.04,1.87.4l1.73,1.47c1.33,1.07,2.53.93,3.6-.4Zm34.52,14.39c3.11-8.88,5.42-19.24,6.93-31.05h-15.06c.89,5.24,2.04,10.62,3.47,16.13,1.33,4.98,2.89,9.95,4.67,14.93Z"/>
      <path class="cls-1" d="m644.35,90.72c-4.98,0-7.46-2.49-7.46-7.46v-11.2c0-2.58.8-4.67,2.4-6.26,1.6-1.6,3.69-2.4,6.26-2.4h1.6l-2-33.59c-.09-2.49.53-4.33,1.87-5.53,1.33-1.2,3.24-1.58,5.73-1.13l.4.13c3.91-1.15,8.66-2.98,14.26-5.46,2.49-1.07,4.71-.4,6.66,2,2.84,3.38,2.31,5.91-1.6,7.6-3.46,1.33-7.69,2.67-12.66,4l.13,3.07h12.39c3.29,0,4.93,1.65,4.93,4.93s-1.65,4.93-4.93,4.93h-11.86l.27,4.53h10.8c1.87,0,3.35.56,4.46,1.67,1.11,1.11,1.67,2.6,1.67,4.46v.4c3.2-1.6,6.26-3.33,9.2-5.2-.27-.18-.67-.42-1.2-.73-.53-.31-.93-.55-1.2-.73-3.29-1.87-3.38-4.04-.27-6.53,1.78-1.51,3.69-1.73,5.73-.67.98.53,2.53,1.42,4.67,2.67.8-.8,1.6-1.6,2.4-2.4,1.69-2.04,3.87-2.67,6.53-1.87,4.17,1.25,4.93,3.46,2.27,6.66-.89,1.07-1.87,2.04-2.93,2.93,1.42,1.07,2.49,1.82,3.2,2.27,2.75,2.31,2.71,4.62-.13,6.93-2.49,2.13-4.93,2.09-7.33-.13-.45-.44-1.25-1.07-2.4-1.87-.36-.27-.62-.49-.8-.67-2.67,1.96-4.67,3.33-6,4.13-1.51.89-3.13,1.27-4.86,1.13-1.73-.13-3.27-.82-4.6-2.07-.27-.27-.71-.62-1.33-1.07-.45-.27-.76-.49-.93-.67v1.07c0,.09-.05.13-.13.13h-16.26l.13,4.67h65.97l.27-4.67h-10.66c-3.29,0-4.93-1.64-4.93-4.93s1.64-4.93,4.93-4.93h11.59l.27-4.53h-11.46c-3.29,0-4.93-1.64-4.93-4.93s1.64-4.93,4.93-4.93h12.13l.13-2.67c.09-1.24-.49-1.87-1.73-1.87h-11.06c-3.29,0-4.93-1.69-4.93-5.06s1.64-4.93,4.93-4.93h19.33c2.75,0,4.88.8,6.4,2.4,1.51,1.6,2.22,3.78,2.13,6.53-.71,13.51-1.6,25.01-2.67,34.52h5.46c1.42,0,2.55.42,3.4,1.27.84.85,1.27,1.98,1.27,3.4v14.93c0,5.15-2.58,7.73-7.73,7.73s-7.86-2.58-7.86-7.73v-4.93c0-2.13-1.07-3.2-3.2-3.2h-78.37c-2.13,0-3.2,1.07-3.2,3.2v5.2c0,4.98-2.49,7.46-7.46,7.46Zm35.72,49.45c-4.98,0-8.13-1.73-9.46-5.2-1.07-2.75-.76-4.8.93-6.13,1.42-1.24,3.82-1.82,7.2-1.73h5.2c1.87-.09,2.8-.84,2.8-2.27v-9.2h-43.71c-4.09,0-6.13-2.09-6.13-6.26s2.04-6.13,6.13-6.13h43.71v-3.46c0-1.78.89-2.67,2.67-2.67h5.2c2.93-1.69,5.64-3.51,8.13-5.46h-36.92c-3.64,0-5.46-1.87-5.46-5.6s1.82-5.46,5.46-5.46h51.45c3.38,0,5.44.91,6.2,2.73.75,1.82-.02,4.46-2.33,7.93-3.64,4.09-8.84,8.09-15.59,12h40.25c4.09,0,6.13,2.04,6.13,6.13s-2.04,6.26-6.13,6.26h-43.85v9.73c0,3.82-.45,6.62-1.33,8.4-.98,1.87-2.8,3.29-5.46,4.26-3.2,1.24-8.22,1.95-15.06,2.13Zm1.07-102.89c-3.55-3.02-3.07-5.6,1.47-7.73,1.42-.71,2.67-1.42,3.73-2.13-.89-.53-1.51-.93-1.87-1.2-3.55-1.87-3.78-4.09-.67-6.66,1.78-1.51,3.73-1.73,5.86-.67.62.36,1.55.89,2.8,1.6.71.45,1.29.8,1.73,1.07.8-.62,1.51-1.33,2.13-2.13,1.69-1.95,3.82-2.53,6.4-1.73,4.17,1.25,4.89,3.46,2.13,6.66-.8.89-1.64,1.73-2.53,2.53.18.18.53.45,1.07.8.62.45,1.07.8,1.33,1.07,2.58,2.13,2.58,4.35,0,6.66-2.49,2.22-4.84,2.27-7.06.13-.27-.18-.62-.49-1.07-.93-.8-.62-1.38-1.07-1.73-1.33-.53.36-1.4.93-2.6,1.73-1.2.8-2.11,1.42-2.73,1.87-.36.27-.76.53-1.2.8-2.75,1.51-5.15,1.38-7.2-.4Z"/>
    </g>
  </g>
  <line class="cls-4" x1="224.49" y1="261.48" x2="536.49" y2="261.48"/>
</svg>