<?xml version="1.0" encoding="UTF-8"?>
<svg id="_圖層_1" data-name="圖層 1" xmlns="http://www.w3.org/2000/svg" viewBox="0 0 300.24 300.24">
  <defs>
    <style>
      .cls-1 {
        fill: #f99bbb;
      }

      .cls-1, .cls-2, .cls-3, .cls-4, .cls-5 {
        stroke-width: 0px;
      }

      .cls-2 {
        fill: #465b6e;
      }

      .cls-3 {
        fill: #fccddc;
      }

      .cls-4 {
        fill: #ff6f9b;
      }

      .cls-5 {
        fill: #fff;
      }
    </style>
  </defs>
  <path class="cls-3" d="m150.19,90.8c29.75-5.77,32.27-20.35,49.96-20.36,27.21-.02,54.51,34.48,63.15,65.83,10.57,38.39-2.98,86.15-41.68,111.38-41.22,26.86-95.78,18.26-128.64-12.67-29.35-27.62-44.07-75.57-26.15-108.88,1.94-3.61,12.79-22.9,34.35-31.21,17.83-6.88,25.44.5,49.03-4.07Z"/>
  <g>
    <path class="cls-5" d="m189.38,229.7s-20.24-9.87-46.68-49.16c17.27-11.37,19.72-10.33,19.72-10.33l31.6,36.05-4.65,23.44Z"/>
    <path class="cls-1" d="m162.8,221.06s8.16-20.66,23-25.66c-12.71-20.79-25.45-44.19-40.26-49.23-8.78-2.98-4.96,37.16-4.96,37.16l22.22,37.73Z"/>
    <path class="cls-5" d="m178.19,198.97c2.22-11.26,16.89-48.9,16.09-60.18-.25-3.5-.98-6.97-.81-10.48.37-7.69,5.03-15,9.6-22.05.35-.54.74-1.12,1.43-1.44,1.55-.72,3.6.36,3.91,1.65.31,1.29-.5,2.6-1.2,3.84-1.26,2.21-2.26,4.5-2.97,6.82-.2.66-.34,1.43.27,1.9,1.02.78,2.82,0,3.9-.8,1.71-1.25,3.34-2.55,4.88-3.91-1.87-3.3-3.52-6.33-1.88-7.17,1.94-.99,4.11.69,5.96,3.27.49-.51.97-1.03,1.43-1.55-1.73-3.06-4.85-7.07-1.38-8.83,1.26-.64,2.57.12,3.77,1.58-.1-.78-.07-1.58.3-2.33.41-.84,1.32-1.61,2.5-1.83,1.18-.22,2.56.24,2.85,1.09.54-.67,1.47-1.44,2.41-1.15.8.25.83,1.07.71,1.71-.65,3.39-2.59,7.7-4.65,11.07.36,1.22.6,2.33.69,3.16l-.11.18c.1,2.03-.39,4.15-1.29,6.07-2.18,4.62-6.23,8.71-8.56,13.3-3.64,7.15-5.31,15.35-5.9,24.53-.2,3.15,5.74,34.44-7.4,60.13-1.69,3.3-5.33,9.71-11.2,12.09-1.25.51-2.69.22-3.69-.69-11.92-10.86-10.56-25.32-9.63-29.98Z"/>
    <path class="cls-2" d="m224.21,109.81c-.94-2.58-1.91-5.18-3.44-7.49-.3-.45.43-.87.72-.42,1.57,2.36,2.55,5.04,3.52,7.69.19.51-.63.73-.81.22h0Z"/>
    <path class="cls-2" d="m226.41,105.81c0-1.16-.04-2.32-.08-3.48-.02-.57-.05-1.14-.09-1.7-.02-.27-.03-.54-.05-.82-.02-.25,0-.56-.13-.77-.29-.46.43-.88.72-.42.29.45.24,1.09.27,1.6.04.61.07,1.23.1,1.84.06,1.25.09,2.5.1,3.75,0,.54-.84.54-.84,0h0Z"/>
    <path class="cls-2" d="m218.9,108.93c1.8,4.56,2.84,9.4,3.11,14.29.03.54-.81.54-.84,0-.27-4.82-1.31-9.58-3.08-14.07-.2-.5.61-.72.81-.22h0Z"/>
    <path class="cls-2" d="m220.12,116.19c-1.2-1.84-2.42-3.66-3.66-5.46-.31-.45.42-.87.72-.42,1.25,1.8,2.47,3.63,3.66,5.46.3.45-.43.88-.72.42h0Z"/>
    <path class="cls-2" d="m213.42,114.42c2.32,3.2,3.03,7.45,1.91,11.24-.15.52-.96.3-.81-.22,1.06-3.59.37-7.56-1.83-10.6-.32-.44.41-.86.72-.42h0Z"/>
    <path class="cls-2" d="m211.87,123.01c-.77.78-1.67,1.44-2.65,1.92-1.05.51-2.18.78-3.3,1.09-2.09.58-3.92,1.7-5.19,3.49-.31.44-1.04.02-.72-.42,1.25-1.76,3.02-3.04,5.08-3.7,1.13-.36,2.31-.56,3.39-1.04,1.05-.46,2-1.12,2.8-1.94.38-.39.97.21.59.59h0Z"/>
  </g>
  <g>
    <path class="cls-2" d="m60.46,108.3c1.7,3.2,2.39,7.18.9,10.6-1.2,2.76-3.74,4.55-6.15,6.19-2.26,1.55-4.84,3.18-5.97,5.8-.7,1.62-.59,3.42-.97,5.11-.2.87-.55,1.68-1.12,2.37-.56.68-1.28,1.19-2.02,1.66-.75.48-1.53.92-2.22,1.47-.68.54-1.3,1.16-1.84,1.84-1.12,1.4-1.9,3.06-2.28,4.8-.8,3.72.52,7.44,1.61,10.95,1.11,3.6,1.99,7.27.84,10.97-.62,1.99-1.57,3.85-2.11,5.86-.51,1.92-.72,3.91-.65,5.9.26,7.87,4.75,14.85,10.86,19.57.74.57,1.5,1.11,2.28,1.62.45.29.03,1.02-.42.72-6.32-4.14-11.5-10.35-13.07-17.88-.81-3.89-.65-7.99.7-11.75.71-1.99,1.69-3.9,2.03-6,.29-1.82.08-3.67-.33-5.45-.83-3.66-2.44-7.15-2.76-10.93-.31-3.58.89-7.14,3.38-9.75,1.24-1.3,2.79-2.08,4.23-3.12.75-.54,1.4-1.2,1.77-2.06.37-.85.48-1.8.58-2.71.19-1.63.44-3.2,1.32-4.62.73-1.17,1.73-2.14,2.8-3,2.28-1.82,4.93-3.19,6.96-5.31,1.12-1.18,1.93-2.58,2.29-4.17.43-1.87.25-3.84-.29-5.67-.27-.91-.63-1.77-1.07-2.61-.25-.48.47-.9.72-.42h0Z"/>
    <path class="cls-2" d="m125.25,127.28c.59,2.89,3.09,4.83,5.63,6.02,3.06,1.43,6.46,1.97,9.42,3.63,5.24,2.94,8.14,9.16,7,15.05-.64,3.31-2.46,6.39-5.09,8.5-.42.33-1.02-.26-.59-.59,2.32-1.86,3.97-4.46,4.7-7.33.71-2.81.48-5.79-.68-8.45-1.15-2.65-3.13-4.94-5.65-6.39-2.88-1.65-6.22-2.22-9.24-3.56-2.83-1.26-5.65-3.45-6.3-6.65-.11-.53.7-.75.81-.22h0Z"/>
    <path class="cls-4" d="m40.55,169.52c1.2-2.66,2.86-5.16,3.44-8.02.72-3.52-.27-7.12-.66-10.69-.38-3.57.07-7.65,2.85-9.91,1.45-1.18,3.42-1.76,4.46-3.31,1.3-1.93.66-4.54,1.2-6.81.89-3.72,4.7-5.81,7.58-8.33,3.37-2.95,4.13-8.29,3.42-12.34-2.26.18-4.77.84-7.05.17-1.68-.5-1.69-6.09-1.22-7.78-2.31,1.52-5.51,1.28-7.84-.2-2.34-1.47-3.87-4-4.61-6.67-.7-2.53-.72-5.37.55-7.67s4.04-3.86,6.59-3.21c-1.4-2.7.34-6.28,3.11-7.52,2.77-1.25,6.1-.55,8.69,1.04,2.59,1.59,4.29,7.93,6.24,10.26.37-3.32,3.94-5.14,7.03-6.41,10.66-4.36,21.17-9.07,31.53-14.1l-2.57-2.12c1.93-3.72,9.18-4.31,12.75-2.11,3.57,2.2,6.17,5.76,9.84,7.78,2.23,1.22,5.85,3.04,7.37,5.07,2.55,3.4-.19,9.74.76,13.88.43,1.88,1.49,3.6,1.62,5.52.32,4.55-4.3,7.61-7.59,10.77-4.13,3.95-6.78,9.56-6.62,15.27.16,5.71,3.35,11.38,8.42,14,3.48,1.8,7.7,2.21,10.73,4.69,3.7,3.03,4.62,8.23,5.24,12.97.41,3.16.8,6.4.17,9.52-.84,4.19-3.43,7.83-6.33,10.97-8.82,9.54-20.88,15.57-33.33,19.26-6.56,1.94-13.35,3.31-19.55,6.21-3.68,1.72-7.11,3.96-10.88,5.47-9.83,3.93-29.2,3.95-29.65-10.05-.14-4.19.42-8.78-2.01-12.19-1.27-1.78-3.24-3.03-4.24-4.97-1.34-2.59-.63-5.78.57-8.44Z"/>
    <path class="cls-2" d="m72.98,114.09c1.72,3.75,3.49,7.64,3.6,11.83.05,1.89-.24,3.81-.98,5.55-.65,1.52-1.68,2.82-2.86,3.96-2.16,2.09-4.9,3.72-6.54,6.3-.83,1.3-1.25,2.79-1.2,4.33.05,1.58.55,3.12,1.14,4.57,1.4,3.44,3.51,6.74,3.68,10.56.03.54-.81.54-.84,0-.16-3.33-1.91-6.32-3.21-9.3-1.26-2.86-2.27-6.06-1.04-9.12,1.15-2.87,3.73-4.72,6-6.66,1.17-1,2.33-2.05,3.2-3.32,1.04-1.52,1.6-3.3,1.77-5.12.43-4.66-1.54-9.03-3.43-13.16-.22-.49.5-.91.72-.42h0Z"/>
    <path class="cls-2" d="m118.78,130.46c-.53,3.92,2.81,7.03,5.7,9.06,1.63,1.14,3.32,2.18,4.84,3.47,1.56,1.32,2.84,2.91,4.03,4.56,1.3,1.79,2.78,3.64,3.34,5.82.14.52-.67.75-.81.22-.52-1.99-1.86-3.67-3.04-5.32-1.22-1.7-2.52-3.35-4.12-4.7-3.03-2.56-6.82-4.2-9.16-7.53-1.2-1.7-1.89-3.72-1.61-5.81.03-.23.32-.35.52-.29.24.06.32.29.29.52h0Z"/>
    <path class="cls-1" d="m67.69,151.81c8.56-4.45,40.82-6.07,52.39-7.12,4.07-.54,23.52.54,25.47,1.48,8.59,4.15,17.04,26.22,22.21,39.1,7.36,18.31,5.82,38.11,10.16,57.36-13.12,9.58-77.4,28.24-104.94,18.76-1.5-3.47-9.83-44.69-14.51-53.61-15.7-29.91-2.38-49.94,9.22-55.97Z"/>
    <path class="cls-2" d="m109.96,165.4c3.68,0,7.4-.44,11.02-1.33,8.43-2.07,11.57-6.89,12.71-10.56,1.24-3.98.5-7.42.46-7.56l-.82.18s.73,3.39-.46,7.16c-1.59,5.03-5.66,8.38-12.1,9.97-3.6.88-7.22,1.31-10.76,1.31-12.62,0-24.2-5.37-29.7-14.47l-.72.43c3.65,6.05,9.71,10.53,17.52,12.97,4.06,1.27,8.42,1.9,12.84,1.9Z"/>
    <path class="cls-2" d="m66.12,114.97c2.05,4.69,1.39,10.32-1.45,14.55-.71,1.06-1.55,2.03-2.51,2.87-1.1.96-2.37,1.64-3.6,2.43-1.25.8-2.26,1.78-2.96,3.1-.64,1.22-.99,2.6-1.15,3.97-.4,3.25.2,6.52.02,9.78-.09,1.64-.4,3.24-1.03,4.76-.59,1.42-1.37,2.73-2.19,4.02-.84,1.33-1.73,2.64-2.46,4.03-.75,1.42-1.34,2.93-1.78,4.47-.86,3.05-1.1,6.26-.8,9.41.59,6.18,3.4,12.01,7.37,16.72.5.59,1.01,1.16,1.55,1.72.37.39-.22.99-.59.59-4.22-4.42-7.42-9.91-8.69-15.92-1.31-6.22-.47-12.88,2.76-18.39,1.58-2.69,3.62-5.2,4.51-8.24.98-3.34.38-6.86.36-10.27-.02-2.72.35-5.67,1.94-7.96,1.69-2.44,4.66-3.32,6.74-5.35,3.64-3.55,5.2-9.14,3.88-14.05-.17-.62-.38-1.23-.63-1.82-.21-.49.51-.92.72-.42h0Z"/>
    <path class="cls-2" d="m171.62,203.79c-1.7-4.73-3.47-9.44-5.3-14.13-1.76-4.5-3.53-9-5.63-13.35-1.17-2.43-2.44-4.8-3.87-7.09-.29-.46.44-.88.72-.42,2.54,4.08,4.58,8.43,6.44,12.85,1.92,4.57,3.71,9.2,5.46,13.84,1.01,2.69,2.01,5.38,2.98,8.08.18.51-.63.73-.81.22h0Z"/>
  </g>
  <g>
    <path class="cls-2" d="m64.09,84.37c.47-2.23-.15-4.58-1.46-6.42-1.3-1.82-3.33-3.06-5.51-3.51-4.22-.86-8.74,1.8-9.71,6.08-.53,2.33.05,4.92,1.62,6.74.35.41-.24,1-.59.59-1.54-1.79-2.27-4.22-2-6.57.27-2.34,1.49-4.44,3.34-5.89,1.88-1.46,4.27-2.18,6.64-1.91,2.42.28,4.75,1.44,6.35,3.3,1.84,2.12,2.71,5.03,2.13,7.8-.11.53-.92.3-.81-.22h0Z"/>
    <path class="cls-2" d="m119.41,72.35c.71.63,1.65.85,2.55,1.06.88.21,1.74.46,2.56.86,1.55.76,2.84,1.96,3.86,3.34,2.4,3.25,3.05,7.34,2.75,11.28-.2,2.63-.76,5.21-1.36,7.77-.12.53-.93.3-.81-.22,1.01-4.29,1.99-8.85,1.02-13.23-.72-3.26-2.61-6.46-5.62-8.08-.88-.47-1.82-.72-2.78-.95-1-.24-1.98-.54-2.76-1.24-.4-.36.19-.95.59-.59h0Z"/>
    <path class="cls-5" d="m115.34,134.62c.89,6.52,5.43,8.72,7.4,9.77,1.31.7,6.22,1,6.22,1,.62.14,1.09.65,1.17,1.28.47,3.48-2.83,14.23-21.09,13.5-12.13-.49-20.54-4.79-23.39-8.16-.92-1.09-.61-1.93.66-2.59,1.35-.7,4.86-3.02,5.63-4.15,3.54-5.19-2.81-11.7-5.04-28.14-1.43-10.54,27.51,10.7,28.43,17.47Z"/>
    <path class="cls-5" d="m115.02,75.43c6.8-.1,17.28,11.94,17.98,28.64.62,15.08-4.32,24.78-10.06,27.32-14.91,6.6-29.9-1.46-37.11-10.13-3.74-4.5-4.02-45.36,29.19-45.83Z"/>
    <path class="cls-2" d="m128.24,115.75s-6.8,3.39-14.34.13c1.91,5.29,5.52,7.84,8.33,7.18,5.61-1.32,6.01-7.31,6.01-7.31Z"/>
    <path class="cls-5" d="m91.37,124.36s-6.45.57-11.19-6.71c-4.74-7.29,2.84-10.69,6.15-9.23,3.32,1.46,5.04,15.95,5.04,15.95Z"/>
    <path class="cls-3" d="m127.55,116.55s-4.69,2.79-12.47.4c3.26,4.48,10.55,3.94,12.47-.4Z"/>
    <path class="cls-2" d="m113.61,134.01c-1.65-.19-3.31-.25-4.96-.48-1.6-.21-3.12-.65-4.57-1.35-1.1-.53-2.13-1.19-3.11-1.9-.43-.31-.02-1.04.42-.72,1.54,1.11,3.18,2.09,5.01,2.65,1.41.43,2.88.58,4.34.7.96.08,1.92.15,2.88.26.53.06.54.9,0,.84h0Z"/>
    <path class="cls-4" d="m60.74,92.08c-.14-2.41-1.69-4.86-.76-7.08,1.02-2.44,4.58-3.26,5.17-5.84.34-1.48-.47-3.02-.19-4.51.32-1.73,1.74-5.14,3.42-5.65,1.69-.51,3.49-.58,5.14-1.21,2.97-1.12,4.99-3.82,7.47-5.8,1.22-.98,2.68-1.82,4.25-1.78,2.43.07,4.55,2.25,6.95,1.88,2.83-.44,5.52-2.9,8.28-2.13,2.22.62,6.6,5.94,7.74,5.96,5.24.08,9.76,5.22,9.43,10.39l.15-1.24c0,.53-.06,1.05-.18,1.56-.02.22-.05.44-.09.66l.07-.54c-.62,2.51-2.61,4.68-5.12,5.38-.88.24-1.83.33-2.63.78-2.49,1.41-2.02,5.18-3.59,7.57-2.26,3.46-5.5,4.35-8.33,7.38-1.35,1.45-1.46,4.84-2.54,6.5-1.76,2.7-5.58,6.71-8.76,6.22-1.68-.26-5.69-6.31-7.33-5.87-2.43.65-3.46,3.53-5.47,5.05-1.51,1.15-3.47,1.46-5.35,1.74-2.67.39-6.09.42-7.27-2.01-.39-.81-.43-1.75-.63-2.62-.4-1.7-1.46-3.21-1.72-4.94-.49-3.33,2.09-6.46,1.89-9.82Z"/>
    <path class="cls-2" d="m78.94,111.04c-5.31,2.61-11.97,1.77-16.68-1.74-1.17-.87-2.2-1.89-3.08-3.06-.99-1.32-1.97-3.03-1.6-4.74.39-1.74,2.33-2.39,2.94-4.02.7-1.88-.4-3.56-.99-5.29-1.42-4.11,1.37-7.95,3.83-10.99.34-.42.93.18.59.59-2.07,2.55-4.63,5.86-3.85,9.37.38,1.7,1.49,3.19,1.5,4.97,0,.83-.23,1.67-.66,2.38-.42.71-1.05,1.2-1.64,1.76-.63.6-1.01,1.26-.96,2.15.05.87.45,1.7.9,2.43.73,1.18,1.66,2.23,2.71,3.13,2.1,1.8,4.7,2.98,7.41,3.48,3.07.57,6.33.23,9.14-1.16.48-.24.91.49.42.72h0Z"/>
    <path class="cls-2" d="m104.22,64.2c.49,1.46,1.9,2.34,3.3,2.82,1.65.57,3.41.63,5.09,1.04,1.6.39,3.05,1.1,4.02,2.47.82,1.17,1.15,2.75.39,4.03-.81,1.38-2.48,1.91-3.97,2.14-1.62.25-3.26.26-4.9.36-1.53.1-3.11.29-4.49,1-1.22.63-2.1,1.64-2.73,2.85-1.22,2.34-1.54,5.05-2.83,7.37-.62,1.11-1.49,2.09-2.63,2.67-1.46.75-3.11.85-4.68,1.2-.79.18-1.57.43-2.25.89-.59.4-1.07.96-1.44,1.57-.82,1.31-1.27,2.81-1.96,4.18-1.33,2.66-3.82,4.51-6.66,5.31-2.92.82-6,.5-8.72-.83-2.85-1.39-5.16-3.78-6.72-6.51-.38-.67-.71-1.36-1.01-2.08-.21-.5.61-.72.81-.22,2.29,5.52,7.83,10.13,14.08,9.13,2.77-.45,5.45-1.9,6.98-4.31,1.56-2.44,1.93-5.86,4.76-7.29,1.42-.72,3.03-.82,4.56-1.16,1.37-.31,2.59-.87,3.49-1.98,1.58-1.95,1.96-4.64,2.85-6.92.46-1.18,1.03-2.32,1.9-3.25,1.01-1.07,2.35-1.73,3.77-2.07,1.52-.36,3.1-.41,4.65-.48,1.53-.07,3.15-.11,4.61-.65,1.36-.5,2.41-1.64,2.05-3.17-.35-1.46-1.55-2.54-2.9-3.06-2.99-1.17-6.64-.61-9.1-3.03-.52-.51-.9-1.12-1.13-1.8-.17-.51.64-.73.81-.22h0Z"/>
    <path class="cls-2" d="m58.07,82.6c-.45-1.09-1.91-1.42-2.95-1.61-1.21-.22-2.68-.17-3.24,1.13-.56,1.29.04,2.65.79,3.72.78,1.11,1.73,2.14,2.78,2.99,1.15.93,2.52,1.63,4.02,1.71.54.03.54.87,0,.84-3.21-.16-5.87-2.69-7.59-5.21-.88-1.29-1.41-2.92-.74-4.42.67-1.51,2.28-1.84,3.78-1.64,1.53.21,3.33.71,3.97,2.27.21.5-.61.72-.81.22h0Z"/>
    <path class="cls-2" d="m53.95,88.65c-1.67-.37-3.61-.79-5.21.06-1.28.69-2.08,2.11-2.2,3.53-.13,1.58.53,3.14,1.57,4.31,1.14,1.29,2.68,2.11,4.31,2.61,1.96.6,4.18.93,6.19.37.52-.14.74.67.22.81-2.02.56-4.23.29-6.23-.25-1.84-.5-3.62-1.38-4.94-2.78-1.2-1.28-2.03-2.99-1.98-4.77.04-1.64.8-3.26,2.13-4.24,1.85-1.36,4.28-.93,6.35-.46.53.12.3.93-.22.81h0Z"/>
    <path class="cls-2" d="m104.22,67.31c-3.55,1.24-7.89,1.16-10.77,3.9-2.27,2.16-2.07,5.47-2.57,8.33-.23,1.32-.63,2.65-1.54,3.67-1.13,1.28-2.85,1.73-4.51,1.58-1.92-.18-3.62-1.04-5.38-1.75-1.76-.72-3.54-1.11-5.45-.9-4.11.45-7.74,3.17-10.48,6.11-.37.4-.96-.2-.59-.59,2.51-2.68,5.63-5.06,9.23-6.01,1.72-.46,3.53-.54,5.27-.15,1.96.44,3.7,1.49,5.61,2.09,1.68.53,3.7.7,5.18-.44,1.06-.82,1.52-2.11,1.78-3.38.58-2.84.33-6.02,2.22-8.42,2.82-3.57,7.85-3.45,11.78-4.83.51-.18.73.63.22.81h0Z"/>
    <path class="cls-2" d="m82.69,110.84c1.86.62,3.15,2.59,2.92,4.56-.07.57-.28,1.1-.46,1.65-.16.5-.3,1.09.1,1.51.57.6,1.51.72,1.89,1.52.25.53.15,1.18-.26,1.6-.45.47-1.16.51-1.72.21-.47-.26-.05-.98.42-.72.4.22.91-.05.86-.53-.03-.31-.32-.51-.56-.66-.64-.4-1.36-.7-1.64-1.46-.35-.95.22-1.91.45-2.81.19-.76.07-1.59-.28-2.29-.41-.81-1.09-1.47-1.96-1.76-.51-.17-.29-.98.22-.81h0Z"/>
  </g>
  <g>
    <path class="cls-2" d="m91.76,233.01c-3.73,3.23-7.68,6.37-12.24,8.35-1.29.56-2.61,1.02-3.97,1.37-.52.13-.75-.68-.22-.81,4.72-1.19,8.89-3.85,12.66-6.84,1.08-.86,2.14-1.75,3.18-2.65.41-.35,1,.24.59.59h0Z"/>
    <path class="cls-2" d="m102.91,200.77c-3.48-5.01-6.96-10.01-10.44-15.02-.98-1.41-1.97-2.83-2.95-4.24-.31-.44.42-.86.72-.42,3.48,5.01,6.96,10.01,10.44,15.02.98,1.41,1.97,2.83,2.95,4.24.31.44-.42.86-.72.42h0Z"/>
    <g>
      <path class="cls-2" d="m69,121.33l26.6,36.13c1.18,1.61,3.39,2.05,5.1,1.02l14.58-8.76c1.91-1.15,2.45-3.66,1.19-5.5l-26.48-38.52c-1.25-1.82-3.76-2.22-5.52-.89l-14.7,11.15c-1.68,1.28-2.03,3.67-.78,5.37Z"/>
      <rect class="cls-1" x="68.7" y="119.24" width="11.17" height="5.71" rx="2.73" ry="2.73" transform="translate(18.66 253.74) rotate(-125.78)"/>
      <path class="cls-2" d="m75.56,123.87c-.6.33-.81,1.09-.48,1.69.33.6,1.09.81,1.69.48.6-.33.81-1.09.48-1.69-.33-.6-1.09-.81-1.69-.48Z"/>
      <path class="cls-2" d="m73.43,121.08c-.6.33-.81,1.09-.48,1.69s1.09.81,1.69.48c.6-.33.81-1.09.48-1.69-.33-.6-1.09-.81-1.69-.48Z"/>
      <path class="cls-2" d="m71.43,118.5c-.6.33-.81,1.09-.48,1.69s1.09.81,1.69.48c.6-.33.81-1.09.48-1.69-.33-.6-1.09-.81-1.69-.48Z"/>
    </g>
    <path class="cls-5" d="m79.48,142.5c.36-4.49-2.11-21.71,1.49-22.76,3.19-.93,3.65,4.23,3.35,6.84-.16,3.77.22,7.56,1.12,11.22,1.2-5.17,2.95-20.36,7.09-22.14,2.6-1.12,3.76,1.41,3.26,3.85.56-.96,2.54.24,3.01,1.25,2.51,5.3-1.59,14.65-3.07,20.4,2.03-4.7,6.28-13.95,9.06-12.33,4.94,2.88-9.12,15.27-1.14,21.22,1.12.72,5.85,2.31,7.74,9.03,7.45,29.71,48.18,65.05,27.1,90.24-31.79,2.41-40.2-74.18-45.4-83.32-2.75-3.37-8.82-7.15-11.02-10.89-2.21-3.75-2.47-8.27-2.59-12.61Z"/>
    <path class="cls-5" d="m138.6,249.36s-29.37,9.1-71.54-39.71c2.26-14.99,18.66-10.75,18.66-10.75l42.79,19.68,10.09,30.79Z"/>
    <path class="cls-2" d="m95.64,119.43c-1.15,4.64-2.31,9.27-3.51,13.89-.37,1.41-.73,2.82-1.1,4.22-.14.52-.95.3-.81-.22,1.21-4.62,2.4-9.25,3.56-13.88.35-1.41.7-2.82,1.05-4.24.13-.52.94-.3.81.22h0Z"/>
    <path class="cls-1" d="m79.8,239.18l-23.1-39.1,22.36-27.99,24.73,35.1s-20.44,11.25-23.99,31.99Z"/>
    <path class="cls-2" d="m83.58,227.98c-2.62,3.63-4.73,7.58-6.51,11.68-.39.91-.77,1.82-1.14,2.73-.13.31-.58.44-.77.1-2.82-5.05-5.56-10.14-8.17-15.3-2.06-4.07-4.02-8.19-5.94-12.33-1.08-2.34-2.15-4.68-3.23-7.02-.22-.49.5-.91.72-.42,1.89,4.11,3.77,8.23,5.72,12.31,2.12,4.44,4.33,8.83,6.63,13.17,1.63,3.08,3.3,6.13,4.99,9.17-.26.03-.51.07-.77.1,1.55-3.82,3.26-7.56,5.4-11.09.73-1.21,1.51-2.38,2.34-3.53.31-.43,1.04-.02.72.42h0Z"/>
    <path class="cls-2" d="m103.76,207.22c.93,4.43,2.05,8.87,3.88,13.02,1.55,3.51,3.58,6.76,5.66,9.97,1.54,2.38,3.09,4.74,4.61,7.13.29.46-.44.88-.72.42-2.47-3.89-5.09-7.69-7.44-11.66-1.96-3.31-3.55-6.79-4.71-10.47-.85-2.69-1.51-5.44-2.08-8.21-.11-.53.7-.75.81-.22h0Z"/>
  </g>
</svg>