<?xml version="1.0" encoding="UTF-8"?>
<svg id="_圖層_1" data-name="圖層 1" xmlns="http://www.w3.org/2000/svg" xmlns:xlink="http://www.w3.org/1999/xlink" viewBox="0 0 300.24 300.24">
  <defs>
    <style>
      .cls-1 {
        fill: #f99bbb;
      }

      .cls-1, .cls-2, .cls-3, .cls-4, .cls-5, .cls-6 {
        stroke-width: 0px;
      }

      .cls-2 {
        fill: #465b6e;
      }

      .cls-3 {
        fill: #fccddc;
      }

      .cls-4 {
        fill: none;
      }

      .cls-5 {
        fill: #ff6f9b;
      }

      .cls-6 {
        fill: #fff;
      }

      .cls-7 {
        clip-path: url(#clippath);
      }
    </style>
    <clipPath id="clippath">
      <path class="cls-4" d="m128.97,129.67l34.76-55.28-14.25-11.47-69.78,12.53-32.64,58.49,31.94,44.54c-.85,2.7-1.31,5.54-1.31,8.45,0,15.03,12.25,26.22,27.31,24.94,7.06-.6,13.75-3.84,18.85-9.14l19.79-21.37-13.97-12.69c.18-13.72-.7-39.01-.7-39.01Z"/>
    </clipPath>
  </defs>
  <g id="DevOps_team" data-name="DevOps team">
    <path class="cls-3" d="m96.2,92.56c23.64-23.8,16.87-38.71,33.05-49.73,24.89-16.95,71.35-2.37,98.77,20.95,33.57,28.56,50.89,80.71,31.16,127.88-21.01,50.24-76.3,76.32-125.63,68.46-44.06-7.02-87.36-41.74-91.7-83.38-.47-4.51-2.55-28.91,12.02-49.95,12.04-17.39,23.6-15.37,42.34-34.24Z"/>
    <g>
      <g>
        <path class="cls-2" d="m169.66,59.61l94.61-.27c1.9,0,3.4,1.63,3.23,3.52l-6.62,74.36c-.15,1.67-1.55,2.94-3.23,2.94l-116.54-.02c-1.9,0-3.42-1.79-3.25-3.68l6.62-73.9c.15-1.67,1.5-3.12,3.17-3.12l22,.18h0Z"/>
        <path class="cls-1" d="m164.22,59.34h95.46c1.92,0,3.43,1.65,3.26,3.56l-6.65,74.76c-.15,1.69-1.56,2.98-3.26,2.98h-117.6c-1.92,0-3.43-1.65-3.26-3.56l6.65-74.76c.15-1.69,1.56-2.98,3.26-2.98h22.15Z"/>
      </g>
      <path class="cls-6" d="m247.38,135.74h-106.38c-1.85,0-3.31-1.59-3.14-3.43l.28-2.86c.14-1.63,1.51-2.88,3.14-2.88h106.38c1.85,0,3.31,1.59,3.14,3.43l-.28,2.86c-.14,1.63-1.51,2.88-3.14,2.88Z"/>
      <g>
        <path class="cls-6" d="m174.07,91.1h-27.91c-1.85,0-3.31-1.59-3.14-3.43l1.74-18.88c.14-1.63,1.51-2.88,3.14-2.88h27.91c1.85,0,3.31,1.59,3.14,3.43l-1.74,18.88c-.14,1.63-1.51,2.88-3.14,2.88Z"/>
        <g>
          <path class="cls-3" d="m163.46,73.14h-3.59c-.24,0-.43-.2-.4-.44l.22-2.43c.02-.21.19-.37.4-.37h3.59c.24,0,.43.2.4.44l-.22,2.43c-.02.21-.19.37-.4.37Z"/>
          <path class="cls-3" d="m169.22,73.14h-3.59c-.24,0-.43-.2-.4-.44l.22-2.43c.02-.21.19-.37.4-.37h3.59c.24,0,.43.2.4.44l-.22,2.43c-.02.21-.19.37-.4.37Z"/>
          <path class="cls-1" d="m151.53,77.78h-3.59c-.24,0-.43-.2-.4-.44l.22-2.43c.02-.21.19-.37.4-.37h3.59c.24,0,.43.2.4.44l-.22,2.43c-.02.21-.19.37-.4.37Z"/>
          <path class="cls-3" d="m157.28,77.78h-3.59c-.24,0-.43-.2-.4-.44l.22-2.43c.02-.21.19-.37.4-.37h3.59c.24,0,.43.2.4.44l-.22,2.43c-.02.21-.19.37-.4.37Z"/>
          <path class="cls-5" d="m163.04,77.78h-3.59c-.24,0-.43-.2-.4-.44l.22-2.43c.02-.21.19-.37.4-.37h3.59c.24,0,.43.2.4.44l-.22,2.43c-.02.21-.19.37-.4.37Z"/>
          <path class="cls-3" d="m168.79,77.78h-3.59c-.24,0-.43-.2-.4-.44l.22-2.43c.02-.21.19-.37.4-.37h3.59c.24,0,.43.2.4.44l-.22,2.43c-.02.21-.19.37-.4.37Z"/>
          <path class="cls-3" d="m151.1,82.42h-3.59c-.24,0-.43-.2-.4-.44l.22-2.43c.02-.21.19-.37.4-.37h3.59c.24,0,.43.2.4.44l-.22,2.43c-.02.21-.19.37-.4.37Z"/>
          <path class="cls-3" d="m156.86,82.42h-3.59c-.24,0-.43-.2-.4-.44l.22-2.43c.02-.21.19-.37.4-.37h3.59c.24,0,.43.2.4.44l-.22,2.43c-.02.21-.19.37-.4.37Z"/>
          <path class="cls-3" d="m162.61,82.42h-3.59c-.24,0-.43-.2-.4-.44l.22-2.43c.02-.21.19-.37.4-.37h3.59c.24,0,.43.2.4.44l-.22,2.43c-.02.21-.19.37-.4.37Z"/>
          <path class="cls-3" d="m168.37,82.42h-3.59c-.24,0-.43-.2-.4-.44l.22-2.43c.02-.21.19-.37.4-.37h3.59c.24,0,.43.2.4.44l-.22,2.43c-.02.21-.19.37-.4.37Z"/>
          <path class="cls-1" d="m175.01,73.14h-3.59c-.24,0-.43-.2-.4-.44l.22-2.43c.02-.21.19-.37.4-.37h3.59c.24,0,.43.2.4.44l-.22,2.43c-.02.21-.19.37-.4.37Z"/>
          <path class="cls-1" d="m174.58,77.78h-3.59c-.24,0-.43-.2-.4-.44l.22-2.43c.02-.21.19-.37.4-.37h3.59c.24,0,.43.2.4.44l-.22,2.43c-.02.21-.19.37-.4.37Z"/>
          <path class="cls-5" d="m174.15,82.42h-3.59c-.24,0-.43-.2-.4-.44l.22-2.43c.02-.21.19-.37.4-.37h3.59c.24,0,.43.2.4.44l-.22,2.43c-.02.21-.19.37-.4.37Z"/>
          <path class="cls-3" d="m150.59,87.15h-3.59c-.24,0-.43-.2-.4-.44l.22-2.43c.02-.21.19-.37.4-.37h3.59c.24,0,.43.2.4.44l-.22,2.43c-.02.21-.19.37-.4.37Z"/>
          <path class="cls-3" d="m156.35,87.15h-3.59c-.24,0-.43-.2-.4-.44l.22-2.43c.02-.21.19-.37.4-.37h3.59c.24,0,.43.2.4.44l-.22,2.43c-.02.21-.19.37-.4.37Z"/>
          <path class="cls-1" d="m162.11,87.15h-3.59c-.24,0-.43-.2-.4-.44l.22-2.43c.02-.21.19-.37.4-.37h3.59c.24,0,.43.2.4.44l-.22,2.43c-.02.21-.19.37-.4.37Z"/>
          <path class="cls-3" d="m167.86,87.15h-3.59c-.24,0-.43-.2-.4-.44l.22-2.43c.02-.21.19-.37.4-.37h3.59c.24,0,.43.2.4.44l-.22,2.43c-.02.21-.19.37-.4.37Z"/>
        </g>
      </g>
      <g>
        <path class="cls-6" d="m250.54,91.1h-66.04c-1.85,0-3.31-1.59-3.14-3.43l1.74-18.88c.14-1.63,1.51-2.88,3.14-2.88h66.04c1.85,0,3.31,1.59,3.14,3.43l-1.74,18.88c-.14,1.63-1.51,2.88-3.14,2.88Z"/>
        <g>
          <path class="cls-1" d="m195.89,73.14h-8.94c-.24,0-.43-.2-.4-.44l.22-2.43c.02-.21.19-.37.4-.37h8.94c.24,0,.43.2.4.44l-.22,2.43c-.02.21-.19.37-.4.37Z"/>
          <path class="cls-1" d="m207.5,77.78h-20.97c-.24,0-.43-.2-.4-.44l.22-2.43c.02-.21.19-.37.4-.37h20.97c.24,0,.43.2.4.44l-.22,2.43c-.02.21-.19.37-.4.37Z"/>
          <path class="cls-1" d="m221.09,82.42h-34.99c-.24,0-.43-.2-.4-.44l.22-2.43c.02-.21.19-.37.4-.37h34.99c.24,0,.43.2.4.44l-.22,2.43c-.02.21-.19.37-.4.37Z"/>
        </g>
      </g>
      <g>
        <path class="cls-6" d="m248.33,121.02h-66.04c-1.85,0-3.31-1.59-3.14-3.43l1.74-18.88c.14-1.63,1.51-2.88,3.14-2.88h66.04c1.85,0,3.31,1.59,3.14,3.43l-1.74,18.88c-.14,1.63-1.51,2.88-3.14,2.88Z"/>
        <g>
          <path class="cls-3" d="m187.95,117.91h-3.59c-.24,0-.43-.2-.4-.44l.62-7.17c.02-.21.19-.37.4-.37h3.59c.24,0,.43.2.4.44l-.62,7.17c-.02.21-.19.37-.4.37Z"/>
          <path class="cls-3" d="m193.7,117.91h-3.59c-.24,0-.43-.2-.4-.44l.89-9.97c.02-.21.19-.37.4-.37h3.59c.24,0,.43.2.4.44l-.89,9.97c-.02.21-.19.37-.4.37Z"/>
          <path class="cls-3" d="m205.22,117.91h-3.59c-.24,0-.43-.2-.4-.44l1.41-15.14c.02-.21.19-.37.4-.37h3.59c.24,0,.43.2.4.44l-1.41,15.14c-.02.21-.19.37-.4.37Z"/>
          <path class="cls-3" d="m210.98,117.91h-3.59c-.24,0-.43-.2-.4-.44l1.25-13.02c.02-.21.19-.37.4-.37h3.59c.24,0,.43.2.4.44l-1.25,13.02c-.02.21-.19.37-.4.37Z"/>
          <path class="cls-1" d="m199.53,117.91h-3.59c-.24,0-.43-.2-.4-.44l1.59-17.05c.02-.21.19-.37.4-.37h3.59c.24,0,.43.2.4.44l-1.59,17.05c-.02.21-.19.37-.4.37Z"/>
          <path class="cls-1" d="m216.82,117.91h-3.59c-.24,0-.43-.2-.4-.44l.32-3.6c.02-.21.19-.37.4-.37h3.59c.24,0,.43.2.4.44l-.32,3.6c-.02.21-.19.37-.4.37Z"/>
          <path class="cls-3" d="m240.23,118.02h-3.59c-.24,0-.43-.2-.4-.44l.62-7.17c.02-.21.19-.37.4-.37h3.59c.24,0,.43.2.4.44l-.62,7.17c-.02.21-.19.37-.4.37Z"/>
          <path class="cls-3" d="m222.57,117.91h-3.59c-.24,0-.43-.2-.4-.44l.89-9.97c.02-.21.19-.37.4-.37h3.59c.24,0,.43.2.4.44l-.89,9.97c-.02.21-.19.37-.4.37Z"/>
          <path class="cls-3" d="m234.2,118h-3.59c-.24,0-.43-.2-.4-.44l.89-9.97c.02-.21.19-.37.4-.37h3.59c.24,0,.43.2.4.44l-.89,9.97c-.02.21-.19.37-.4.37Z"/>
          <path class="cls-1" d="m228.4,117.91h-3.59c-.24,0-.43-.2-.4-.44l1.24-13.19c.02-.21.19-.37.4-.37h3.59c.24,0,.43.2.4.44l-1.24,13.19c-.02.21-.19.37-.4.37Z"/>
        </g>
      </g>
    </g>
    <g>
      <path class="cls-2" d="m207.62,229.11c-12.65,1.08-24.55-2.83-33.5-11l-19.4-17.63-19.92,21.51s-.09.09-.13.14c-8.86,9.25-20.52,14.92-32.81,15.97-26.12,2.22-47.37-17.19-47.37-43.27s21.25-49.1,47.37-51.32c13.48-1.15,26.32,3.5,35.31,12.76l17.54,15.93,20.21-21.83c.07-.07.13-.14.2-.21,8.82-9.06,20.36-14.61,32.5-15.64,26.12-2.22,47.37,17.19,47.37,43.27s-21.25,49.1-47.37,51.32Zm-38.69-43.98l19.36,17.59c5.18,4.73,12.03,6.98,19.33,6.36,15.06-1.28,27.31-14.55,27.31-29.58s-12.25-26.22-27.31-24.94c-6.95.59-13.56,3.76-18.64,8.92l-20.05,21.66Zm-67.07-21.59c-15.06,1.28-27.31,14.55-27.31,29.58s12.25,26.22,27.31,24.94c7.06-.6,13.75-3.84,18.85-9.14l19.79-21.37-17.7-16.08c-.15-.14-.3-.29-.45-.44-5.19-5.43-12.66-8.17-20.49-7.5Z"/>
      <path class="cls-1" d="m210.76,222.92c-12.65,1.08-24.55-2.83-33.5-11l-19.4-17.63-19.92,21.51s-.09.09-.13.14c-8.86,9.25-20.52,14.92-32.81,15.97-26.12,2.22-47.37-17.19-47.37-43.27s21.25-49.1,47.37-51.32c13.48-1.15,26.32,3.5,35.31,12.76l17.54,15.93,20.21-21.83c.07-.07.13-.14.2-.21,8.82-9.06,20.36-14.61,32.5-15.64,26.12-2.22,47.37,17.19,47.37,43.27s-21.25,49.1-47.37,51.32Zm-38.69-43.98l19.36,17.59c5.18,4.73,12.03,6.98,19.33,6.36,15.06-1.28,27.31-14.55,27.31-29.58s-12.25-26.22-27.31-24.94c-6.95.59-13.56,3.76-18.64,8.92l-20.05,21.66Zm-67.07-21.59c-15.06,1.28-27.31,14.55-27.31,29.58s12.25,26.22,27.31,24.94c7.06-.6,13.75-3.84,18.85-9.14l19.79-21.37-17.7-16.08c-.15-.14-.3-.29-.45-.44-5.19-5.43-12.66-8.17-20.49-7.5Z"/>
      <path class="cls-6" d="m139.01,210.53c-2.57.22-5.14-.54-7.11-2.34-3.91-3.59-3.9-9.93.02-14.16l35.38-38.21c3.92-4.24,10.27-4.77,14.19-1.18,3.91,3.59,3.9,9.93-.02,14.16l-35.38,38.21c-1.96,2.11-4.52,3.31-7.08,3.52Z"/>
      <path class="cls-6" d="m226.71,218.01c-3.76.32-7.36-1.49-9.08-4.97-2.37-4.8-.23-10.95,4.78-13.74,9.51-5.3,15.65-15.5,15.65-26s-6.14-19.65-15.65-23.33c-5.01-1.94-7.15-7.73-4.78-12.93,2.37-5.2,8.35-7.85,13.36-5.91,8,3.1,14.77,8.44,19.58,15.47,4.95,7.22,7.56,15.87,7.56,25s-2.62,18.22-7.56,26.28c-4.81,7.84-11.58,14.34-19.58,18.79-1.38.77-2.84,1.21-4.28,1.33Z"/>
      <path class="cls-6" d="m73.04,216.61c-3.4.29-6.71-1.15-8.59-4.1-4.46-6.98-6.81-15.23-6.81-23.87,0-26.08,21.25-49.1,47.37-51.32,13.59-1.15,26.54,3.58,35.54,13,3.66,3.84,3.27,10.2-.89,14.21-4.15,4.01-10.49,4.15-14.16.32-5.19-5.43-12.66-8.17-20.49-7.5-15.06,1.28-27.31,14.55-27.31,29.58,0,4.98,1.35,9.73,3.92,13.75,2.87,4.49,1.35,10.78-3.39,14.04-1.62,1.12-3.41,1.74-5.18,1.89Z"/>
    </g>
    <g class="cls-7">
      <g>
        <g>
          <path class="cls-2" d="m126.22,179.81c-1.02-4.56-1.7-8.98-1.7-8.98l-37.44,11.79c-1.49,4.25-.64,17.44-.21,22.97.15,1.94.5,4.89.94,8.35,5.3.48,10.99.67,16.86.31.14-3.17.11-5.79.21-7.04.31-4.11,1.59-9.07,1.59-9.07,1.14,2.27,2.22,9.12,2.99,15.77,6.12-.59,12.33-1.51,18.34-2.97-.03-.71.33-22.67-1.57-31.13Z"/>
          <path class="cls-3" d="m121.18,182.35c-2.55,0-4.61-1.2-5.74-3.49-.1-.2-.02-.45.19-.55.2-.1.45-.02.55.19,1.5,3.05,4.79,3.87,8.82,2.19.21-.09.45.01.53.22.09.21-.01.45-.22.53-1.46.61-2.86.91-4.13.91Z"/>
          <path class="cls-3" d="m105.11,189.43c-.13,0-.26-.06-.33-.17-1.39-1.98-1.26-4.99-1.26-5.12.01-.23.2-.4.43-.39.23.01.4.2.39.43,0,.03-.12,2.86,1.11,4.61.13.18.08.44-.1.57-.07.05-.15.07-.23.07Z"/>
        </g>
        <g>
          <path class="cls-5" d="m145.62,87.4l-4.75-3.16c-.76-.5-1.78-.27-2.24.51-11.49,19.18-30.46,26.9-36.52,28.95-1.2.41-2.5.44-3.72.1l-2.27-.63-8.19,2.27-1.26,1.7c-1.55,2.08-3.58,3.75-5.92,4.87l-1.33.64s-5.7,3.53-8.73,7.87c-2.63,3.76-6.07,22.6,1.78,32.69,1.6,2.05,4.34,2.83,6.77,1.9,2.67-1.02,4.69-1.91,6.48-4.59.19-.28.09,22.09.09,22.09,16.19,6.26,40.25-12.33,40.25-12.33-5.6-14.26-7.94-25.11-8.89-32.27-.73-5.53,1.67-11.03,6.25-14.24,17-11.89,21.89-30.16,22.88-34.73.14-.63-.13-1.29-.67-1.65Z"/>
          <path class="cls-2" d="m93.09,129.75h0c-.23,0-.41-.18-.41-.41v-5.85c.01-.23.19-.41.42-.41h0c.23,0,.41.18.41.41v5.85c-.01.23-.19.41-.42.41Z"/>
          <circle class="cls-2" cx="95.36" cy="122.25" r=".69"/>
          <g>
            <path class="cls-6" d="m140.71,85.2c-.18-.33-.18-.72,0-1.04.25-.43.67-1.15,1.27-2.21,1.06-1.87,2.04-5.2,3.42-6.59,1.38-1.38,6.6-5.86,7.74-5.69,1.14.16,1.06,1.46-.08,2.6-1.14,1.14-2.69,2.44-2.69,2.44,0,0,.98-.41,2.12.49,1.14.89.28,1.72.91,2.14.81.54.94,1.44.63,1.97-.7,1.2-2.49-.06-2.79,1.99-.2,1.43-1.41,2.73-4.21,4.35-.75.44-1.41,1.01-1.95,1.69h0c-.22.28-.58.42-.94.36-.86-.15-2.44-.68-3.44-2.5Z"/>
            <path class="cls-2" d="m144.32,88.13c-.08,0-.16,0-.24-.02-.93-.17-2.64-.74-3.73-2.71-.25-.45-.24-1.01.01-1.44.25-.42.66-1.14,1.26-2.2.37-.66.74-1.51,1.12-2.41.7-1.64,1.43-3.33,2.36-4.26.62-.62,6.53-6.02,8.08-5.81.55.08.94.38,1.1.84.23.7-.13,1.64-.95,2.45-.59.59-1.3,1.23-1.84,1.71.37.08.8.26,1.24.61.81.64.81,1.29.8,1.73,0,.3.01.34.08.39.99.66,1.17,1.82.76,2.52-.4.68-1.06.77-1.59.84-.66.09-1.02.14-1.15,1.01-.23,1.6-1.55,2.99-4.41,4.65-.7.4-1.32.94-1.84,1.59-.27.34-.67.53-1.09.53Zm8.73-18.05c-.92,0-5.58,3.8-7.36,5.58-.83.82-1.52,2.44-2.19,4.01-.4.92-.77,1.79-1.16,2.49-.6,1.06-1.02,1.79-1.27,2.21-.11.2-.12.43,0,.64h0c.92,1.68,2.37,2.16,3.16,2.3.2.04.41-.04.55-.21.59-.73,1.28-1.33,2.07-1.79,2.62-1.52,3.82-2.73,4.01-4.06.21-1.48,1.16-1.61,1.85-1.7.51-.07.8-.12.99-.44.19-.33.12-1-.51-1.42-.45-.3-.45-.75-.45-1.07,0-.37,0-.69-.49-1.08-.92-.72-1.68-.44-1.71-.43-.19.07-.4,0-.5-.17-.1-.17-.07-.39.09-.52.02-.01,1.55-1.3,2.66-2.42.66-.66.85-1.3.75-1.62-.02-.06-.08-.24-.44-.29-.01,0-.02,0-.03,0Z"/>
          </g>
          <path class="cls-6" d="m83.6,139.45h15.91c.66,0,1.2.54,1.2,1.2v21.13c0,.66-.54,1.2-1.2,1.2h-15.91c-.67,0-1.21-.54-1.21-1.21v-21.13c0-.66.54-1.2,1.2-1.2Z" transform="translate(-39.25 32.3) rotate(-16.53)"/>
          <g>
            <path class="cls-5" d="m88.94,158.19h1.65c.24,0,.44.2.44.44v1.57c0,.24-.19.43-.43.43h-1.65c-.24,0-.44-.2-.44-.44v-1.57c0-.24.2-.44.44-.44Z" transform="translate(-41.65 32.13) rotate(-16.53)"/>
            <path class="cls-5" d="m92.05,153.44h1.65c.24,0,.44.2.44.44v5.27c0,.24-.19.43-.43.43h-1.65c-.24,0-.44-.2-.44-.44v-5.27c0-.24.2-.44.44-.44Z" transform="translate(-40.7 32.9) rotate(-16.53)"/>
            <path class="cls-5" d="m94.33,142.85h1.65c.24,0,.44.2.44.44v14.99c0,.24-.19.43-.43.43h-1.65c-.24,0-.44-.2-.44-.44v-14.99c0-.24.2-.44.44-.44Z" transform="translate(-38.97 33.31) rotate(-16.53)"/>
          </g>
          <g>
            <path class="cls-6" d="m79.19,148.01c.85-.99,1.49-1.1,1.49-1.1l.55,1.72s5.12-5.92,7.73-2.29c1.62,2.26-3.86,6.47-5.4,8.94-.87,1.38-2.19,3.41-4.21,3.26-1.42-.11-2.06-.59-2.43-1.71-.49-1.46.9-2.85.82-4.75-.09-2.26.41-2.84,1.46-4.07Z"/>
            <path class="cls-2" d="m79.56,158.95c-.08,0-.17,0-.26,0-1.55-.12-2.36-.69-2.79-1.99-.31-.92.01-1.8.32-2.64.25-.7.51-1.42.48-2.22-.1-2.42.49-3.11,1.56-4.35h0c.92-1.06,1.65-1.22,1.73-1.24.2-.04.4.08.46.28l.33,1.05c1.01-1.03,3.38-3.18,5.55-3.08.94.04,1.73.5,2.34,1.34,1.32,1.84-1.1,4.48-3.23,6.81-.88.96-1.71,1.86-2.16,2.59-.82,1.31-2.17,3.46-4.34,3.46Zm-.06-10.67c-1.03,1.19-1.45,1.68-1.37,3.78.04.96-.26,1.79-.53,2.53-.28.78-.53,1.46-.31,2.11.33.98.85,1.34,2.07,1.43.06,0,.12,0,.18,0,1.73,0,2.93-1.92,3.66-3.07.49-.79,1.35-1.72,2.25-2.71,1.83-2,4.1-4.48,3.17-5.78-.46-.64-1.02-.97-1.71-1.01-2.38-.11-5.35,3.29-5.38,3.32-.1.11-.25.16-.39.13-.14-.03-.26-.14-.31-.28l-.41-1.29c-.23.13-.55.38-.93.82h0Z"/>
          </g>
          <path class="cls-6" d="m96.88,134.61s-.1,0-.14-.03c-.21-.08-.32-.31-.24-.53l1.7-4.54c.08-.21.32-.32.53-.24.21.08.32.31.24.53l-1.7,4.54c-.06.16-.22.26-.38.26Z"/>
          <path class="cls-6" d="m98.72,136.46c-.11,0-.22-.04-.3-.13-.15-.17-.14-.42.02-.58l7.24-6.66c.17-.15.42-.14.58.02.15.17.14.42-.02.58l-7.24,6.66c-.08.07-.18.11-.28.11Z"/>
        </g>
        <g>
          <g>
            <path class="cls-6" d="m94.46,119.62l-1.35.43c-.2.06.12,3.71-.07,3.74-1.57.23-6.49.26-5.2-4.38.37-1.34.34-2.75-.09-4.07l-1.87-5.82,8.31-2.66,2.62,8.18c.62,1.92-.44,3.98-2.37,4.59Z"/>
            <path class="cls-2" d="m91.86,124.27c-1.18,0-2.9-.22-3.9-1.35-.77-.87-.94-2.09-.51-3.63.35-1.25.32-2.58-.08-3.84l-1.87-5.82c-.03-.1-.02-.22.03-.31.05-.1.14-.17.24-.2l8.31-2.66c.22-.07.44.05.51.26l2.62,8.18c.33,1.03.24,2.13-.26,3.1-.5.96-1.34,1.68-2.38,2.01h0l-1.12.36c-.02.34,0,1.05.02,1.55.06,1.87.07,2.21-.39,2.27-.13.02-.61.08-1.24.08Zm-5.46-14.5l1.74,5.43c.45,1.41.48,2.9.09,4.31-.35,1.25-.24,2.22.33,2.87.93,1.06,2.96,1.15,4.12,1.04.01-.35-.01-1-.03-1.47-.06-1.87-.07-2.16.32-2.28l1.35-.43c.83-.26,1.5-.83,1.9-1.6.4-.77.47-1.65.21-2.47l-2.5-7.79-7.53,2.41Zm8.05,9.85h0,0Z"/>
          </g>
          <path class="cls-6" d="m95.84,109.79l-8.92,2.85-2.49-7.76c-1.01-3.15.73-6.52,3.88-7.53l3.8-1.21c1.06-.34,2.19.24,2.53,1.3l2.9,9.06c.44,1.38-.32,2.85-1.7,3.29Z"/>
          <path class="cls-2" d="m86.92,113.05c-.17,0-.33-.11-.39-.28l-2.49-7.76c-.52-1.63-.38-3.36.41-4.88.78-1.52,2.11-2.64,3.74-3.16l3.8-1.21c1.27-.41,2.63.3,3.04,1.56l2.9,9.06c.25.77.18,1.59-.19,2.31-.37.72-1,1.25-1.77,1.5l-3.23,1.03c-1.11.35-2.26.47-3.41.34-.22-.03-.39-.23-.36-.45.02-.22.23-.39.45-.36,1.04.12,2.07.01,3.07-.3l3.23-1.03c.56-.18,1.02-.57,1.29-1.09.27-.53.32-1.12.14-1.69l-2.9-9.06c-.27-.84-1.17-1.3-2.01-1.03l-3.8,1.21c-1.42.45-2.58,1.43-3.26,2.76-.68,1.32-.81,2.84-.35,4.25l2.49,7.76c.07.21-.05.44-.26.51-.04.01-.08.02-.12.02Z"/>
          <path class="cls-2" d="m85.95,109.42l-2.19-2.07c-.73-.69-1.29-1.54-1.63-2.48,0-.02-.01-.03-.02-.05-.51-1.4-.77-2.89-.69-4.37.25-4.72,3.5-6.58,6.75-6.51,0,0,.02,0,.03,0,1.17.02,2.29-.52,3-1.45l.77-1.01c.53-.7,1.59-.74,2.14-.06.71.87,1.4,2.19,1.02,3.84l-.5,1.43-7.34,2.22c-.62.19-1.02.8-.93,1.44l.42,3.29c.02.18-.08.34-.25.4l-.74.25-1.38-.17,1.55,5.3Z"/>
          <path class="cls-6" d="m85.78,104.28l-.65-.38c-.54-.31-1.22-.12-1.52.42h0c-.21.38-.17.84.08,1.18l.45.61c.38.51.9.9,1.5,1.11l.72.25-.58-3.2Z"/>
        </g>
      </g>
    </g>
    <g>
      <path class="cls-6" d="m116.05,268.64c-.1,0-.2-.04-.28-.11-.16-.15-.17-.41-.02-.58l45.78-49.08c.15-.17.41-.17.58-.02.16.15.17.41.02.58l-45.78,49.08c-.08.09-.19.13-.3.13Z"/>
      <g>
        <path class="cls-2" d="m130.79,240.24c-.1,0-.2-.04-.28-.11-.16-.15-.17-.41-.02-.58l8.08-8.67c.15-.16.41-.17.58-.02.16.15.17.41.02.58l-8.08,8.67c-.08.09-.19.13-.3.13Z"/>
        <path class="cls-2" d="m101.98,271.12c-.1,0-.2-.04-.28-.11-.16-.15-.17-.41-.02-.58l20.8-22.3c.15-.17.41-.17.58-.02.16.15.17.41.02.58l-20.8,22.3c-.08.09-.19.13-.3.13Z"/>
      </g>
      <path class="cls-2" d="m57.64,265.15c-1.86,0-3.38-1.52-3.38-3.38,0-.23.18-.41.41-.41s.41.18.41.41c0,1.41,1.15,2.56,2.56,2.56s2.56-1.15,2.56-2.56-1.15-2.56-2.56-2.56c-.23,0-.41-.18-.41-.41s.18-.41.41-.41c1.86,0,3.38,1.52,3.38,3.38s-1.52,3.38-3.38,3.38Z"/>
      <g>
        <path class="cls-2" d="m158.8,110.88c-.1,0-.2-.04-.28-.11-.16-.15-.17-.41-.02-.58l5.49-5.88c.15-.17.41-.17.58-.02s.17.41.02.58l-5.49,5.88c-.08.09-.19.13-.3.13Z"/>
        <path class="cls-2" d="m139.25,131.84c-.1,0-.2-.04-.28-.11-.16-.15-.17-.41-.02-.58l14.11-15.13c.15-.17.41-.17.58-.02.16.15.17.41.02.58l-14.11,15.13c-.08.09-.19.13-.3.13Z"/>
      </g>
      <path class="cls-2" d="m64.15,256.67c-.1,0-.2-.04-.28-.11-.16-.15-.17-.41-.02-.58l16.24-17.41c.15-.16.41-.17.58-.02s.17.41.02.58l-16.24,17.41c-.08.09-.19.13-.3.13Z"/>
    </g>
  </g>
</svg>